<svg version="1.1" id="Layer_1" xmlns="http://www.w3.org/2000/svg" xmlns:xlink="http://www.w3.org/1999/xlink" x="0px" y="0px" viewBox="0 0 500 500" style="width: 161px;" xml:space="preserve" data-imageid="summer-landscape-63" imageName="Summer Landscape" class="illustrations_image">
<style type="text/css">
	.st0_summer-landscape-63{fill:#FFFFFF;}
	.st1_summer-landscape-63{fill:#231F20;}
	.st2_summer-landscape-63{fill:#D1D3D4;}
	.st3_summer-landscape-63{fill:#68E1FD;}
</style>
<g id="Frame_summer-landscape-63">
	<rect x="20.9" y="93.9" class="st0_summer-landscape-63" width="458.1" height="312.2"/>
	<path class="st1_summer-landscape-63" d="M479.1,406.8H20.9c-0.4,0-0.7-0.3-0.7-0.7c0,0,0,0,0,0V93.9c0-0.4,0.3-0.7,0.7-0.7h458.1&#10;&#9;&#9;c0.4,0,0.7,0.3,0.7,0.7v0v312.2C479.8,406.5,479.5,406.8,479.1,406.8C479.1,406.8,479.1,406.8,479.1,406.8z M21.6,405.4h456.8V94.6&#10;&#9;&#9;H21.6L21.6,405.4L21.6,405.4z"/>
</g>
<g id="Mountains_summer-landscape-63">
	<path class="st2_summer-landscape-63" d="M40.1,252c0,0,160.3-64.7,209.9-63.1S393.4,252,393.4,252H40.1z"/>
	<path class="st2_summer-landscape-63" d="M425.8,196.7c15.8,1.6,52.6,22.4,52.6,22.4V252H325.7C325.7,252,410.1,195.2,425.8,196.7L425.8,196.7z"/>
</g>
<g id="Sea_summer-landscape-63">
	<rect x="20.9" y="251.6" class="st3_summer-landscape-63 targetColor" width="458.2" height="154.5" style="fill: rgb(104, 225, 253);"/>
	<path class="st1_summer-landscape-63" d="M479.1,406.8H20.9c-0.4,0-0.7-0.3-0.7-0.7c0,0,0,0,0,0V251.7c0-0.4,0.3-0.7,0.7-0.7h458.2&#10;&#9;&#9;c0.4,0,0.7,0.3,0.7,0.7c0,0,0,0,0,0v154.5C479.8,406.5,479.5,406.8,479.1,406.8C479.1,406.8,479.1,406.8,479.1,406.8z M21.6,405.4&#10;&#9;&#9;h456.8V252.4H21.6L21.6,405.4z"/>
	<path class="st0_summer-landscape-63" d="M378.4,260.4h-24c-0.4,0-0.7-0.3-0.7-0.7s0.3-0.7,0.7-0.7c0,0,0,0,0,0h24c0.4,0,0.7,0.3,0.7,0.7&#10;&#9;&#9;C379.1,260.1,378.8,260.4,378.4,260.4z"/>
	<path class="st0_summer-landscape-63" d="M396.1,265.6h-32.4c-0.4,0-0.7-0.3-0.7-0.7s0.3-0.7,0.7-0.7c0,0,0,0,0,0h32.4c0.4,0,0.7,0.3,0.7,0.7&#10;&#9;&#9;C396.8,265.3,396.5,265.6,396.1,265.6z"/>
	<path class="st0_summer-landscape-63" d="M385.7,273h-26.1c-0.4,0-0.7-0.3-0.7-0.7s0.3-0.7,0.7-0.7c0,0,0,0,0,0h26.1c0.4,0,0.7,0.3,0.7,0.7&#10;&#9;&#9;C386.4,272.7,386.1,273,385.7,273z"/>
	<path class="st0_summer-landscape-63" d="M396,278.3h-26.9c-0.4,0-0.7-0.4-0.6-0.8c0-0.3,0.3-0.6,0.6-0.6H396c0.4,0,0.7,0.4,0.6,0.8&#10;&#9;&#9;C396.6,278,396.3,278.2,396,278.3z"/>
	<path class="st0_summer-landscape-63" d="M383,284.8h-16.6c-0.4,0-0.7-0.4-0.6-0.8c0-0.3,0.3-0.6,0.6-0.6H383c0.4,0,0.7,0.4,0.6,0.8&#10;&#9;&#9;C383.6,284.5,383.3,284.7,383,284.8z"/>
	<path class="st0_summer-landscape-63" d="M382.6,290.7h-9.9c-0.4,0-0.7-0.3-0.7-0.7c0-0.4,0.3-0.7,0.7-0.7h9.9c0.4,0,0.7,0.3,0.7,0.7&#10;&#9;&#9;S383,290.7,382.6,290.7C382.6,290.7,382.6,290.7,382.6,290.7z"/>
</g>
<g id="Sands_summer-landscape-63">
	<path class="st0_summer-landscape-63" d="M479.1,392.3v13.9H20.9V251.7h99.4c0.5,0.9,1,1.9,1.4,2.9c1.7,4.1,3,8.9,6.5,11.1c2.2,1.4,4.8,1.5,7.3,2&#10;&#9;&#9;c7.5,1.2,18.6,5.9,22.3,13.7c3.6,7.5-0.3,16.9,4.5,24.2c13.4,20.1,73.5,18.9,95.9,21.4c6.2,0.7,69,5.2,63.3,16.8&#10;&#9;&#9;c-8.7,17.5-31.5,24.5-18.1,34.3S479.1,392.3,479.1,392.3L479.1,392.3z"/>
	<path class="st1_summer-landscape-63" d="M479.1,406.8H20.9c-0.4,0-0.7-0.3-0.7-0.7c0,0,0,0,0,0V251.7c0-0.4,0.3-0.7,0.7-0.7h99.4&#10;&#9;&#9;c0.3,0,0.5,0.1,0.6,0.4c0.5,1,1,2,1.5,3c0.3,0.8,0.7,1.6,1,2.4c1.3,3.3,2.6,6.7,5.3,8.4c1.8,1,3.8,1.5,5.8,1.7l1.2,0.2&#10;&#9;&#9;c7,1.1,18.9,5.8,22.9,14.1c1.7,3.6,1.8,7.6,1.8,11.5c0.1,4.5,0.1,8.9,2.6,12.6c10.5,15.9,51.4,18.3,78.5,19.9&#10;&#9;&#9;c6.7,0.4,12.5,0.7,16.9,1.2c0.5,0.1,1.5,0.1,2.8,0.3c37.7,3.4,57.7,8,61,13.9c0.7,1.1,0.7,2.5,0.1,3.6c-3.5,7-9.2,12.4-13.9,16.8&#10;&#9;&#9;s-8.5,8-8.3,11.4c0.1,1.8,1.4,3.5,3.8,5.3c13.1,9.6,173.6,14,175.2,14.1c0.4,0,0.7,0.3,0.7,0.7v13.9&#10;&#9;&#9;C479.8,406.5,479.5,406.8,479.1,406.8L479.1,406.8L479.1,406.8z M21.6,405.4h456.8v-12.5c-13-0.4-162.2-4.7-175.3-14.3&#10;&#9;&#9;c-2.8-2.1-4.2-4.1-4.4-6.4c-0.2-4,3.7-7.7,8.7-12.5c4.8-4.5,10.2-9.6,13.6-16.4c0.4-0.7,0.4-1.6,0-2.4c-2.1-3.7-14.2-9-59.9-13.2&#10;&#9;&#9;l-2.8-0.3c-4.4-0.5-10.1-0.8-16.8-1.2c-27.4-1.6-68.7-4-79.6-20.5c-2.7-4.1-2.8-8.8-2.8-13.3c-0.1-3.9-0.1-7.6-1.7-10.9&#10;&#9;&#9;c-3.8-7.8-15.1-12.2-21.8-13.3l-1.2-0.2c-2.2-0.2-4.4-0.8-6.4-1.9c-3.1-2-4.5-5.6-5.8-9.1c-0.3-0.8-0.6-1.6-1-2.4&#10;&#9;&#9;c-0.4-0.9-0.8-1.8-1.2-2.5H21.6C21.6,252.4,21.6,405.4,21.6,405.4z"/>
	<path class="st2_summer-landscape-63" d="M253.9,381c-3,0.1-6.1-0.2-9.1-0.8c-0.7-0.2-1.5,0.2-1.7,1c-0.2,0.7,0.2,1.5,1,1.7c3.2,0.7,6.5,1,9.8,0.9&#10;&#9;&#9;c0.8,0,1.4-0.6,1.4-1.4C255.2,381.6,254.6,381,253.9,381L253.9,381z"/>
	<path class="st2_summer-landscape-63" d="M185.3,353.3h-8.7c-0.4,0-0.7,0.3-0.7,0.7c0,0.4,0.3,0.7,0.7,0.7h8.7c0.4,0,0.7-0.3,0.7-0.7&#10;&#9;&#9;C186,353.6,185.6,353.3,185.3,353.3z"/>
	<path class="st2_summer-landscape-63" d="M162.6,335.3l-4.7-1.6c-0.4-0.1-0.7,0.1-0.9,0.5c-0.1,0.4,0.1,0.8,0.5,0.9l4.7,1.6c0.4,0.1,0.8-0.1,0.9-0.5&#10;&#9;&#9;C163.1,335.8,162.9,335.4,162.6,335.3L162.6,335.3z"/>
	<path class="st2_summer-landscape-63" d="M45.9,291.1l-4.7-0.8c-0.4-0.1-0.7,0.1-0.9,0.5c-0.1,0.4,0.1,0.8,0.5,0.9l4.7,0.8c0.4,0.1,0.7-0.1,0.9-0.5&#10;&#9;&#9;C46.5,291.6,46.3,291.3,45.9,291.1z"/>
	<path class="st2_summer-landscape-63" d="M48.9,273.7h-4.7c-0.4,0-0.7,0.3-0.7,0.7c0,0.4,0.3,0.7,0.7,0.7h4.7c0.4,0,0.7-0.3,0.7-0.7&#10;&#9;&#9;C49.6,274,49.3,273.7,48.9,273.7z"/>
	<path class="st2_summer-landscape-63" d="M115.9,293.4h-7.1c-0.4,0-0.7,0.4-0.6,0.8c0,0.3,0.3,0.6,0.6,0.6h7.1c0.4,0,0.7-0.4,0.6-0.8&#10;&#9;&#9;C116.5,293.7,116.2,293.5,115.9,293.4z"/>
	<path class="st2_summer-landscape-63" d="M115.1,276.1h-1.6c-0.2,0-0.4,0.1-0.5,0.2c-0.1,0.1-0.2,0.3-0.2,0.5c0,0.4,0.3,0.7,0.7,0.7h1.6&#10;&#9;&#9;c0.2,0,0.4-0.1,0.5-0.2c0.1-0.1,0.2-0.3,0.2-0.5C115.8,276.4,115.5,276.1,115.1,276.1L115.1,276.1z"/>
	<path class="st2_summer-landscape-63" d="M277.6,346.4c-6-1.4-12.2-1.8-18.3-1.2c-0.9,0.1-0.9,1.5,0,1.4c6-0.6,12.1-0.2,17.9,1.1&#10;&#9;&#9;C278.1,348,278.5,346.6,277.6,346.4z"/>
	<path class="st2_summer-landscape-63" d="M193,378.3c0-0.2-0.2-0.3-0.3-0.4l-1.6-0.8c-0.2-0.1-0.4-0.1-0.5-0.1c-0.2,0-0.3,0.2-0.4,0.3&#10;&#9;&#9;c-0.2,0.3-0.1,0.8,0.2,1c0,0,0,0,0,0l1.6,0.8c0.2,0.1,0.4,0.1,0.5,0.1c0.2-0.1,0.3-0.2,0.4-0.3C193,378.7,193.1,378.5,193,378.3z"/>
	<path class="st2_summer-landscape-63" d="M324,392h-3.9c-0.4,0-0.7,0.3-0.7,0.7c0,0,0,0,0,0c0,0.4,0.3,0.7,0.7,0.7h3.9c0.4,0,0.7-0.3,0.7-0.7v0&#10;&#9;&#9;C324.7,392.3,324.4,392,324,392z"/>
	<path class="st2_summer-landscape-63" d="M421.8,398.3c-4.5,0.2-8.9-0.3-13.2-1.6c-0.4-0.1-0.8,0.1-0.9,0.5c-0.1,0.4,0.1,0.7,0.5,0.8&#10;&#9;&#9;c4.4,1.3,9,1.8,13.6,1.6C422.7,399.7,422.7,398.2,421.8,398.3L421.8,398.3z"/>
	<path class="st2_summer-landscape-63" d="M228.8,361.5c-3-0.8-6.3-0.9-9.3-0.1c-0.4,0.1-0.5,0.6-0.4,0.9c0.1,0.3,0.4,0.5,0.8,0.4&#10;&#9;&#9;c2.8-0.7,5.8-0.7,8.6,0.1c0.4,0.1,0.8-0.1,0.9-0.5C229.4,362,229.1,361.7,228.8,361.5L228.8,361.5z"/>
	<path class="st2_summer-landscape-63" d="M219.2,389.3l-4.2-0.5c-0.4,0-0.7,0.3-0.7,0.7l0,0c0,0.4,0.3,0.7,0.7,0.7l4.2,0.5c0.4,0,0.7-0.3,0.7-0.7&#10;&#9;&#9;c0,0,0,0,0,0C219.8,389.6,219.5,389.3,219.2,389.3z"/>
	<path class="st2_summer-landscape-63" d="M99.8,330.4l-5.2,0.6c-0.4,0-0.7,0.3-0.7,0.7c0,0.4,0.3,0.7,0.7,0.7h0l5.2-0.6c0.4,0,0.7-0.3,0.7-0.7&#10;&#9;&#9;C100.5,330.7,100.2,330.4,99.8,330.4L99.8,330.4z"/>
	<path class="st2_summer-landscape-63" d="M101.9,310.9l-7.3,0.5c-0.1-0.3-0.5-0.5-0.8-0.4l-1.4,0.6c-0.3,0.1-0.5,0.4-0.5,0.8c0,0.3,0.3,0.6,0.7,0.6&#10;&#9;&#9;l9.3-0.7C102.8,312.2,102.9,310.8,101.9,310.9L101.9,310.9z"/>
	<path class="st2_summer-landscape-63" d="M62.5,305.8h-6.8c-0.4,0-0.7,0.3-0.7,0.7c0,0.4,0.3,0.7,0.7,0.7h6.8c0.4,0,0.7-0.3,0.7-0.7&#10;&#9;&#9;C63.2,306.1,62.9,305.8,62.5,305.8z"/>
	<path class="st2_summer-landscape-63" d="M36.8,322.1l-4.2-0.5c-0.4,0-0.7,0.3-0.7,0.7c0,0,0,0,0,0c0,0.4,0.3,0.7,0.7,0.7l4.2,0.5&#10;&#9;&#9;c0.4,0,0.7-0.3,0.7-0.7l0,0C37.5,322.5,37.2,322.2,36.8,322.1z"/>
	<path class="st2_summer-landscape-63" d="M69,280c-0.1-0.4-0.5-0.6-0.9-0.5l-3.2,0.6c-0.4,0.1-0.6,0.5-0.5,0.8c0,0,0,0,0,0c0.1,0.4,0.5,0.6,0.9,0.5&#10;&#9;&#9;l3.2-0.6C68.9,280.8,69.1,280.4,69,280C69,280.1,69,280.1,69,280z"/>
	<path class="st2_summer-landscape-63" d="M34.3,263.2c-0.1-0.4-0.5-0.6-0.9-0.5c-0.1,0-0.3,0-0.4,0c-0.2,0-0.4,0-0.5,0c-0.3,0-0.7,0-1,0&#10;&#9;&#9;c0,0-0.1,0-0.1,0h-0.1c-0.1,0-0.1,0-0.2,0l-0.5-0.1c-0.3-0.1-0.7-0.2-1-0.3c-0.4-0.1-0.8,0-0.9,0.4c-0.1,0.4,0,0.8,0.4,0.9&#10;&#9;&#9;c0.1,0,0.1,0,0.2,0c1.5,0.6,3,0.7,4.6,0.5C34.2,263.9,34.4,263.6,34.3,263.2C34.3,263.2,34.3,263.2,34.3,263.2z"/>
	<path class="st2_summer-landscape-63" d="M112.5,258.5h-1.6c-0.2,0-0.4,0.1-0.5,0.2c-0.1,0.1-0.2,0.3-0.2,0.5c0,0.4,0.3,0.7,0.7,0.7h1.6&#10;&#9;&#9;c0.2,0,0.4-0.1,0.5-0.2c0.1-0.1,0.2-0.3,0.2-0.5C113.2,258.8,112.9,258.5,112.5,258.5L112.5,258.5z"/>
	<path class="st2_summer-landscape-63" d="M64.1,259h-1.6c-0.2,0-0.4,0.1-0.5,0.2c-0.1,0.1-0.2,0.3-0.2,0.5c0,0.4,0.3,0.7,0.7,0.7h1.6&#10;&#9;&#9;c0.2,0,0.4-0.1,0.5-0.2c0.1-0.1,0.2-0.3,0.2-0.5C64.8,259.3,64.5,259,64.1,259z"/>
	<path class="st2_summer-landscape-63" d="M296.6,386.4l-9.4-2.5c-0.4-0.1-0.8,0.1-0.9,0.5c-0.1,0.4,0.1,0.7,0.5,0.8l9.4,2.5c0.4,0.1,0.8-0.1,0.9-0.5&#10;&#9;&#9;C297.2,386.8,297,386.5,296.6,386.4z"/>
</g>
<g id="Sun_summer-landscape-63">
	<circle class="st2_summer-landscape-63" cx="359.6" cy="150.4" r="28"/>
</g>
<g id="Foreground_summer-landscape-63">
	<path class="st1_summer-landscape-63" d="M45.5,357.7c0,0,62.2-118.2,53.5-183.3l8.8-1.6c0,0,3.7,95.5-37.7,190.9L45.5,357.7L45.5,357.7z"/>
	<path class="st1_summer-landscape-63" d="M70.1,364.4H70l-24.7-5.9c-0.2-0.1-0.4-0.2-0.5-0.4c-0.1-0.2-0.1-0.4,0-0.6c0.6-1.2,62-118.7,53.5-182.9&#10;&#9;&#9;c0-0.4,0.2-0.7,0.6-0.8l8.8-1.6c0.2,0,0.4,0,0.6,0.1c0.2,0.1,0.3,0.3,0.3,0.5c0,1,3.3,96.7-37.7,191.2&#10;&#9;&#9;C70.7,364.2,70.4,364.4,70.1,364.4L70.1,364.4z M46.5,357.3l23.2,5.6c38.6-89.4,37.6-179.8,37.4-189.3l-7.3,1.4&#10;&#9;&#9;C107.5,236.9,51.9,346.8,46.5,357.3L46.5,357.3z"/>
	<path class="st1_summer-landscape-63" d="M103.6,176.8c0,0,3.9-25.6-4.3-42.6s-21.2-20.5-41.6-15.1C57.7,119.1,87.1,139.3,103.6,176.8z"/>
	<path class="st1_summer-landscape-63" d="M103.6,177.5c-0.3,0-0.5-0.2-0.6-0.4c-16.3-36.8-45.3-57.2-45.6-57.4c-0.3-0.2-0.4-0.7-0.2-1&#10;&#9;&#9;c0.1-0.1,0.2-0.2,0.4-0.3c21.8-5.8,34.5-1.2,42.5,15.5c8.1,17,4.4,42.8,4.3,43c0,0.3-0.3,0.5-0.6,0.6L103.6,177.5L103.6,177.5z&#10;&#9;&#9; M59.3,119.4C78,134,93,152.8,103.2,174.2c0.7-6.8,2-26.2-4.5-39.7C91.2,118.9,79.4,114.4,59.3,119.4z"/>
	<path class="st1_summer-landscape-63" d="M103.6,176.8c0,0,30.7-49.9,52.4-55.7c0,0-20.7-14.9-39.2,4.3S103.6,176.8,103.6,176.8z"/>
	<path class="st1_summer-landscape-63" d="M103.6,177.5h-0.1c-0.3-0.1-0.5-0.3-0.6-0.6c0-0.3-5.1-32.6,13.4-51.9c18.6-19.5,39.9-4.6,40.1-4.4&#10;&#9;&#9;c0.3,0.2,0.4,0.7,0.2,1c-0.1,0.1-0.2,0.2-0.4,0.3c-21.2,5.7-51.7,54.9-52,55.4C104,177.4,103.8,177.5,103.6,177.5L103.6,177.5z&#10;&#9;&#9; M138.2,116.2c-6.4,0-13.8,2.3-20.9,9.7c-15.4,16.1-14,41.7-13.3,48.8c2.4-3.8,9-13.8,17.1-24.1c13.2-16.7,24.3-26.7,33.2-29.8&#10;&#9;&#9;C149.5,117.9,143.9,116.3,138.2,116.2z"/>
	<path class="st1_summer-landscape-63" d="M103.6,176.8c0,0,2.7-21.1,17.1-24.7s33.7-2.4,40.8,12.3C161.5,164.4,130.5,159.3,103.6,176.8z"/>
	<path class="st1_summer-landscape-63" d="M103.6,177.5c-0.1,0-0.3,0-0.4-0.1c-0.2-0.1-0.4-0.4-0.3-0.7c0.1-0.9,2.9-21.6,17.6-25.2&#10;&#9;&#9;c14.6-3.6,34.3-2.5,41.6,12.6c0.1,0.2,0.1,0.5-0.1,0.7c-0.2,0.2-0.4,0.3-0.7,0.3c-0.3-0.1-31.1-4.8-57.5,12.3&#10;&#9;&#9;C103.9,177.4,103.7,177.5,103.6,177.5z M134.4,151.1c-4.6,0-9.1,0.6-13.6,1.7c-11.6,2.9-15.4,17.7-16.3,22.6&#10;&#9;&#9;c23.3-14.4,49.6-12.5,55.8-11.8C155.2,154.3,144.8,151.1,134.4,151.1L134.4,151.1z"/>
	<path class="st1_summer-landscape-63" d="M103.6,176.8c0,0-0.7-12.9-15.9-22.3s-33.9-1.3-45.5,10.5s-9.7,28.5-9.7,28.5S76.3,159.5,103.6,176.8z"/>
	<path class="st1_summer-landscape-63" d="M32.5,194.2c-0.1,0-0.2,0-0.3-0.1c-0.2-0.1-0.4-0.3-0.4-0.6c0-0.2-1.8-17.1,9.9-29&#10;&#9;&#9;c16.5-16.9,35.2-17.6,46.4-10.7c15.3,9.4,16.2,22.3,16.2,22.8c0,0.3-0.1,0.5-0.3,0.6c-0.2,0.1-0.5,0.1-0.7,0&#10;&#9;&#9;c-26.6-16.9-69.9,16.3-70.3,16.6C32.8,194.1,32.6,194.2,32.5,194.2L32.5,194.2z M72.8,151.2c-9.3,0-20.1,4.1-30.1,14.3&#10;&#9;&#9;c-9.4,9.6-9.7,22.6-9.6,26.6c7.6-5.5,15.8-10.3,24.4-14.2c18.3-8.1,33.9-9,45.2-2.6c-0.7-3.5-3.6-13.1-15.4-20.3&#10;&#9;&#9;C82.9,152.5,77.9,151.1,72.8,151.2z"/>
	<path class="st1_summer-landscape-63" d="M103.6,176.8c0,0,1.5-4.4-7-6.9s-17,1.3-25.4,10.4s-9.3,29.2-3.7,44.1"/>
	<path class="st1_summer-landscape-63" d="M67.4,225.1c-0.3,0-0.6-0.2-0.7-0.5c-6.8-18.2-3.3-37.1,3.9-44.8c9-9.7,17.6-13.2,26.1-10.6&#10;&#9;&#9;c3.7,1.1,6,2.6,7.1,4.6c0.5,1,0.7,2.1,0.4,3.2c-0.1,0.4-0.5,0.6-0.9,0.4c0,0,0,0,0,0c-0.4-0.1-0.6-0.5-0.4-0.9&#10;&#9;&#9;c0.2-0.7,0-1.5-0.3-2.1c-0.6-1.1-2.2-2.7-6.2-3.9c-8-2.4-16.1,1-24.7,10.2c-7.8,8.3-9.4,27.8-3.6,43.4c0.1,0.4,0,0.8-0.4,0.9&#10;&#9;&#9;C67.6,225.1,67.5,225.1,67.4,225.1L67.4,225.1z"/>
	<path class="st1_summer-landscape-63" d="M103.6,176.8c0,0,13.5-10.3,30.5,2.1c20.7,15.1,16.9,32.4,5.7,50.2C139.9,229.1,129.4,195,103.6,176.8z"/>
	<path class="st1_summer-landscape-63" d="M139.9,229.8L139.9,229.8c-0.4,0-0.6-0.2-0.7-0.5c-0.1-0.3-10.7-34.1-36-51.9c-0.2-0.1-0.3-0.3-0.3-0.6&#10;&#9;&#9;c0-0.2,0.1-0.4,0.3-0.6c0.1-0.1,14.1-10.5,31.4,2.1c23.1,16.9,15.3,36.2,5.9,51.1C140.3,229.7,140.1,229.8,139.9,229.8z&#10;&#9;&#9; M104.9,176.8c22.2,16.1,32.9,44,35.2,50.7c12.6-20.8,10.6-35.6-6.4-48C119.6,169.1,107.9,174.9,104.9,176.8L104.9,176.8z"/>
	<path class="st1_summer-landscape-63" d="M112.2,382.3c0,0,42.6-126.6,95.7-165.3l-4.9-7.5c0,0-71.7,63.2-112.2,159L112.2,382.3z"/>
	<path class="st1_summer-landscape-63" d="M112.2,383c-0.1,0-0.3,0-0.4-0.1l-21.3-13.7c-0.3-0.2-0.4-0.5-0.3-0.9c40.1-94.9,111.6-158.6,112.3-159.3&#10;&#9;&#9;c0.3-0.3,0.7-0.2,1,0.1c0,0,0,0.1,0.1,0.1l4.8,7.5c0.2,0.3,0.2,0.8-0.2,1c-52.3,38.1-95,163.7-95.4,165c-0.1,0.2-0.2,0.4-0.4,0.4&#10;&#9;&#9;C112.3,383.1,112.2,383.1,112.2,383L112.2,383z M91.7,368.3l20.1,12.9c3.8-11.1,45-127.2,95.1-164.4l-4-6.2&#10;&#9;&#9;C195.9,217,129.8,278.6,91.7,368.3L91.7,368.3z"/>
	<path class="st1_summer-landscape-63" d="M203,215.3c0,0,15.9-20.5,33.8-26.3s29.5,1.2,39.7,19.7C276.4,208.7,241.5,201.5,203,215.3z"/>
	<path class="st1_summer-landscape-63" d="M203,216c-0.2,0-0.4-0.1-0.6-0.3c-0.2-0.2-0.2-0.6,0-0.8c0.2-0.2,16.2-20.7,34.1-26.6&#10;&#9;&#9;c17.6-5.7,29.7,0.3,40.5,20c0.1,0.2,0.1,0.5,0,0.8c-0.2,0.2-0.4,0.3-0.7,0.3c-0.4-0.1-35.2-7.1-73,6.6C203.2,216,203.1,216,203,216&#10;&#9;&#9;L203,216z M248.1,187.7c-3.8,0.1-7.6,0.8-11.1,2c-14.3,4.6-27.4,19-31.8,24.2c22.5-7.4,46.5-9.5,70-6.1&#10;&#9;&#9;C267.4,194.1,258.9,187.7,248.1,187.7L248.1,187.7z"/>
	<path class="st1_summer-landscape-63" d="M203,215.3c0,0,14.9-56.7,4.1-76.3c0,0,25.1,4.7,23.9,31.3S203,215.3,203,215.3L203,215.3z"/>
	<path class="st1_summer-landscape-63" d="M203,216c-0.1,0-0.3,0-0.4-0.1c-0.2-0.2-0.3-0.5-0.3-0.8c0.1-0.6,14.7-56.6,4.2-75.8c-0.2-0.3,0-0.8,0.3-0.9&#10;&#9;&#9;c0.1-0.1,0.3-0.1,0.4-0.1c0.3,0.1,25.7,5.1,24.5,32.1c-1.2,26.7-28.1,45.4-28.3,45.6C203.3,216,203.2,216,203,216L203,216z&#10;&#9;&#9; M208.4,140c3.9,8.6,4.4,23.6,1.4,44.6c-1.9,13-4.6,24.5-5.6,29c5.7-4.4,25.2-21,26.2-43.3S213.7,141.4,208.4,140L208.4,140z"/>
	<path class="st1_summer-landscape-63" d="M203,215.3c0,0,13.4-16.5,6-29.4s-21.5-26-37.1-21.1C171.9,164.9,197,183.9,203,215.3L203,215.3z"/>
	<path class="st1_summer-landscape-63" d="M203,216c-0.1,0-0.1,0-0.2,0c-0.3-0.1-0.5-0.3-0.5-0.6c-5.8-30.9-30.5-49.9-30.8-50.1c-0.3-0.2-0.4-0.7-0.1-1&#10;&#9;&#9;c0.1-0.1,0.2-0.2,0.4-0.3c16.1-5.1,30.4,8.3,37.9,21.4s-5.5,29.5-6.1,30.2C203.4,215.9,203.2,216,203,216L203,216z M173.4,165.1&#10;&#9;&#9;c4.8,4,24.3,21.7,29.9,48.5c2.8-4,11-17,5-27.4C201.4,174,188.2,161.3,173.4,165.1L173.4,165.1z"/>
	<path class="st1_summer-landscape-63" d="M203,215.3c0,0,9.9-8.4,27.1-3.9s24.4,23.7,23.8,40.2S240,278.3,240,278.3S234.4,223.1,203,215.3L203,215.3z"/>
	<path class="st1_summer-landscape-63" d="M240,279c-0.1,0-0.2,0-0.3-0.1c-0.2-0.1-0.4-0.3-0.4-0.6c-0.1-0.5-5.9-54.8-36.5-62.4&#10;&#9;&#9;c-0.4-0.1-0.6-0.5-0.5-0.9c0-0.1,0.1-0.3,0.2-0.4c0.4-0.4,10.3-8.6,27.7-4c12.7,3.3,25.1,17.3,24.3,40.9&#10;&#9;&#9;c-0.6,16.7-14.1,27.1-14.2,27.2C240.3,279,240.2,279,240,279L240,279z M204.6,215c12.4,3.8,22.5,15.6,29.3,34.5&#10;&#9;&#9;c3.1,8.9,5.3,18.2,6.6,27.5c3-2.7,12.2-11.9,12.7-25.3c0.8-22.8-11.1-36.3-23.3-39.5C216.5,208.6,207.6,213.2,204.6,215L204.6,215z&#10;&#9;&#9;"/>
	<path class="st1_summer-landscape-63" d="M203,215.3c0,0,2.2-4.1,9.9,0.3s10.7,13.2,10,25.6s-14.8,26.9-29.4,33.1"/>
	<path class="st1_summer-landscape-63" d="M193.5,275.1c-0.4,0-0.7-0.3-0.7-0.7c0-0.3,0.2-0.6,0.4-0.7c15.3-6.6,28.2-21.2,28.9-32.6&#10;&#9;&#9;c0.8-12.6-2.4-20.8-9.6-25c-3.6-2.1-5.9-2.1-7.1-1.8c-0.7,0.2-1.4,0.6-1.8,1.2c-0.2,0.3-0.6,0.5-0.9,0.3c-0.3-0.2-0.5-0.6-0.3-0.9&#10;&#9;&#9;c0,0,0,0,0,0c0.6-0.9,1.5-1.6,2.6-1.9c2.2-0.6,4.9,0,8.2,1.9c7.7,4.5,11.1,13.1,10.3,26.3c-0.6,10.6-11.9,26.1-29.8,33.8&#10;&#9;&#9;C193.7,275,193.6,275.1,193.5,275.1L193.5,275.1z"/>
	<path class="st1_summer-landscape-63" d="M203,215.3c0,0-1.8-16.9-22.6-20.6c-25.2-4.5-35.1,10.1-40.3,30.5C140.1,225.2,172,209.2,203,215.3z"/>
	<path class="st1_summer-landscape-63" d="M140.1,225.9c-0.2,0-0.3-0.1-0.4-0.1c-0.2-0.2-0.3-0.5-0.2-0.7c4.3-17.1,12.9-36.1,41.1-31&#10;&#9;&#9;c11,2,16.7,7.6,19.6,12c1.9,2.8,3.1,5.9,3.6,9.2c0,0.2-0.1,0.4-0.2,0.6c-0.2,0.2-0.4,0.2-0.6,0.2c-30.4-6-62.1,9.7-62.4,9.8&#10;&#9;&#9;C140.3,225.9,140.2,225.9,140.1,225.9L140.1,225.9z M171.7,194.6c-15.6,0-25.2,9.4-30.6,29.4c6.4-2.9,34-14.4,61-9.5&#10;&#9;&#9;c-0.8-3.6-4.7-16-21.9-19C177.4,194.9,174.6,194.7,171.7,194.6L171.7,194.6z"/>
	<path class="st1_summer-landscape-63" d="M198,406.1H20.9v-71.2c11.2-0.1,22.4-1.2,32.9,2.8c10.3,3.9,17.3,14.1,11.1,21.4c14.5-7,35.7-5.3,47.8,3.9&#10;&#9;&#9;c8.6-2.6,19.2-1.4,26.4,3s10.5,12,8.3,18.7c5.2-4.6,15-5.9,22.1-3s10.5,9.9,7.8,15.5C184.9,397.9,192.1,401.1,198,406.1L198,406.1z&#10;&#9;&#9;"/>
	<path class="st1_summer-landscape-63" d="M198,406.8H20.9c-0.4,0-0.7-0.3-0.7-0.7c0,0,0,0,0,0v-71.2c0-0.4,0.3-0.7,0.7-0.7c1.8,0,3.6,0,5.4-0.1&#10;&#9;&#9;c9.2-0.2,18.8-0.5,27.8,2.9c6.8,2.6,12.1,7.7,13.5,13.1c0.7,2.4,0.4,5-0.7,7.2c14.5-6,34.2-4,46,4.7c8.8-2.6,19.4-1.3,26.6,3.2&#10;&#9;&#9;c6.7,4.2,10.2,11,9.1,17.5c5.6-3.7,14.6-4.6,21.2-1.9c3.8,1.5,6.8,4.4,8.4,8.2c0.9,2.4,1,5,0.1,7.3c7.5,1,14.5,4.1,20.2,9&#10;&#9;&#9;c0.2,0.2,0.3,0.5,0.2,0.8C198.6,406.6,198.3,406.8,198,406.8L198,406.8z M21.6,405.4H196c-5.5-4.2-12-6.8-18.9-7.6&#10;&#9;&#9;c-0.4,0-0.7-0.4-0.6-0.8c0-0.1,0-0.2,0.1-0.2c1.1-2.2,1.2-4.8,0.2-7.1c-1.4-3.4-4.2-6.1-7.6-7.4c-6.8-2.9-16.3-1.6-21.3,2.9&#10;&#9;&#9;c-0.3,0.3-0.7,0.2-1-0.1c-0.2-0.2-0.2-0.4-0.1-0.7c2-6.4-1.2-13.6-8-17.9s-17.3-5.5-25.8-3c-0.2,0.1-0.4,0-0.6-0.1&#10;&#9;&#9;c-11.8-9-32.9-10.6-47-3.8c-0.3,0.2-0.8,0-0.9-0.3c-0.1-0.2-0.1-0.5,0.1-0.8c1.9-2.2,2.6-5.2,1.8-8.1c-1.3-5-6.3-9.8-12.7-12.2&#10;&#9;&#9;c-8.7-3.3-18.1-3.1-27.2-2.9c-1.6,0-3.1,0.1-4.7,0.1L21.6,405.4L21.6,405.4z"/>
</g>
</svg>