<svg version="1.1" id="Layer_1" xmlns="http://www.w3.org/2000/svg" xmlns:xlink="http://www.w3.org/1999/xlink" x="0px" y="0px" viewBox="0 0 500 500" style="width: 161px;" xml:space="preserve" data-imageid="san-fransisco-74" imageName="San Fransisco" class="illustrations_image">
<style type="text/css">
	.st0_san-fransisco-74{fill:#68E1FD;}
	.st1_san-fransisco-74{fill:#FFFFFF;}
	.st2_san-fransisco-74{fill:#E6E7E8;}
	.st3_san-fransisco-74{fill:#231F20;}
	.st4_san-fransisco-74{fill:#D1D3D4;}
</style>
<g id="Sky_san-fransisco-74">
	<rect x="25.2" y="104.2" class="st0_san-fransisco-74 targetColor" width="449.7" height="152.3" style="fill: rgb(104, 225, 253);"/>
</g>
<g id="Cloud_san-fransisco-74">
	<path class="st1_san-fransisco-74" d="M150.4,161.4c5-7.4,17.1-2.8,25.3-6.5c6.8-3.1,9.6-11.4,15.4-16c5.2-4,12.1-4.8,18.1-2.2&#10;&#9;&#9;c3.3,1.5,6.2,4.1,9.8,4.4c8.4,0.6,14.6-11.3,22.8-9.3c4.9,1.2,7.1,6.6,10.3,10.5c10.7,13.1,36,15.2,51.2,20.1&#10;&#9;&#9;C252.5,163.6,201.4,160.7,150.4,161.4z"/>
	<path class="st1_san-fransisco-74" d="M474.8,111.1v82.5c-66.3,1-132.5,1.9-198.8,2.9c21.4-5.3,43.4-8.4,65.5-9.1c4.3-0.1,8.9-0.3,12.5-2.3&#10;&#9;&#9;c4.4-2.5,6-7.2,8.9-10.9c6.7-8.6,21.7-11.8,32.4-6.8c1.4-22.3,29.6-35.4,53.7-30.9C455.2,125.9,464.2,117.2,474.8,111.1z"/>
</g>
<g id="Buildings_san-fransisco-74">
	<rect x="25.2" y="256.5" class="st2_san-fransisco-74" width="449.7" height="139.4"/>
	<path class="st3_san-fransisco-74" d="M474.8,396.5H25.2c-0.4,0-0.7-0.3-0.7-0.7l0,0V256.5c0-0.4,0.3-0.7,0.7-0.7h449.7c0.4,0,0.7,0.3,0.7,0.7l0,0&#10;&#9;&#9;v139.4C475.5,396.2,475.2,396.5,474.8,396.5z M25.8,395.1h448.3v-138H25.9L25.8,395.1z"/>
	<path class="st4_san-fransisco-74" d="M75,282.5c-3,0-5.8-0.6-7.6-2.8c-0.2-0.2-0.3-0.4-0.4-0.6c-0.3-0.4-0.6-0.8-1-1c-0.7-0.4-1.7-0.1-2.8,0.3&#10;&#9;&#9;c-9.9,3.7-20.8,4.3-31,1.5c-0.4-0.2-0.6-0.6-0.5-1c0.1-0.3,0.5-0.6,0.9-0.5c9.9,2.6,20.4,2.1,30-1.5c1.1-0.4,2.7-1,4.1-0.2&#10;&#9;&#9;c0.6,0.4,1.1,0.9,1.5,1.5c0.1,0.2,0.2,0.3,0.4,0.5c1.9,2.3,5.5,2.4,8.9,2.1c4.4-0.4,8.9-0.8,13.4-1.2c0.4,0,0.8,0.3,0.8,0.7&#10;&#9;&#9;c0,0.4-0.3,0.8-0.7,0.8c-4.5,0.4-9,0.8-13.4,1.2C76.7,282.5,75.8,282.5,75,282.5z"/>
	<path class="st4_san-fransisco-74" d="M320.5,309.2c-3,0-6.1-0.8-8-3.3c-0.3-0.4-0.6-0.8-0.8-1.3c-0.6-1-1.2-2-2.2-2.2c-0.9-0.1-1.7,0.1-2.4,0.6&#10;&#9;&#9;l-0.3,0.1c-8,3.2-17.1,0.9-22.6-5.8L284,297c-0.5-0.7-1.1-1.4-1.9-1.8c-1.5-0.7-3.4,0.3-5,1.1c-9.9,5.1-21.5,5.8-31.9,2&#10;&#9;&#9;c-0.4-0.1-0.6-0.6-0.5-1c0,0,0,0,0,0c0.1-0.4,0.6-0.6,1-0.5c10,3.7,21.1,3,30.7-1.9c1.9-1,4.3-2.2,6.5-1.2c1,0.6,1.8,1.3,2.4,2.3&#10;&#9;&#9;l0.3,0.4c5,6.1,13.4,8.3,20.7,5.3l0.3-0.1c1-0.6,2.2-0.8,3.4-0.7c1.6,0.4,2.4,1.7,3.1,2.9c0.2,0.4,0.5,0.8,0.8,1.1&#10;&#9;&#9;c2.4,3.1,7.3,2.9,11,2.2l1.2-0.2c3.8-0.8,8.2-1.7,11.8,0.3c0.4,0.2,0.5,0.7,0.3,1s-0.7,0.5-1,0.3c-3.1-1.7-7-0.9-10.8-0.1l-1.1,0.2&#10;&#9;&#9;C323.6,309.1,322.1,309.2,320.5,309.2z"/>
	<path class="st4_san-fransisco-74" d="M133.9,314.2c-1.9,0.1-3.8-0.4-5.4-1.5c-1.2-0.9-2.3-2-3.2-3.3c-0.6-0.9-1.3-1.7-2.1-2.4&#10;&#9;&#9;c-3.6-3.2-9.2-2.5-12.2-1.8c-1.5,0.4-3.1,0.8-4.6,1.3c-2.8,1-5.7,1.6-8.7,1.9c-4.3,0.3-8.5-0.9-12.7-2c-5.3-1.4-10.3-2.8-15.1-1.3&#10;&#9;&#9;c-1.1,0.4-2.2,0.8-3.3,1.3c-1.6,0.8-3.3,1.4-5.1,1.7c-3.3,0.5-6.5-0.5-9.6-1.6c-3.3-1.1-6.5-2.1-9.6-1.3c-0.4,0.1-0.8-0.1-0.9-0.5&#10;&#9;&#9;c-0.1-0.4,0.1-0.8,0.5-0.9c3.5-0.9,7.1,0.2,10.5,1.3c3.1,1,6,2,8.9,1.5c1.6-0.3,3.2-0.8,4.7-1.6c1.1-0.5,2.3-1,3.4-1.4&#10;&#9;&#9;c5.3-1.6,10.7-0.1,16,1.3c4,1.1,8.1,2.2,12.2,1.9c2.8-0.3,5.6-0.9,8.3-1.9c1.5-0.5,3.1-1,4.7-1.3c3.3-0.8,9.4-1.5,13.5,2.2&#10;&#9;&#9;c0.8,0.8,1.6,1.7,2.3,2.6c0.8,1.1,1.7,2.2,2.8,3c2.7,1.8,6.4,1.2,9.9,0.5l19.3-4c0.4-0.1,0.8,0.2,0.9,0.6s-0.2,0.8-0.6,0.9l-19.3,4&#10;&#9;&#9;C137.7,313.9,135.8,314.2,133.9,314.2z"/>
	<polyline class="st1_san-fransisco-74" points="311.1,252 311.1,244.9 316.1,244.9 316.1,247.9 319.8,247.9 319.8,240.8 330.3,240.8 330.3,244.4 &#10;&#9;&#9;337.4,244.4 337.4,236.2 346.9,236.2 346.9,253.2 &#9;"/>
	<path class="st3_san-fransisco-74" d="M346.9,254c-0.4,0-0.7-0.3-0.7-0.7c0,0,0,0,0,0v-16.4h-8.1v7.5c0,0.4-0.3,0.7-0.7,0.7l0,0h-7.1&#10;&#9;&#9;c-0.4,0-0.7-0.3-0.7-0.7c0,0,0,0,0,0v-2.9h-9.1v6.4c0,0.4-0.3,0.7-0.7,0.7l0,0h-3.7c-0.4,0-0.7-0.3-0.7-0.7c0,0,0,0,0,0v-2.2h-3.6&#10;&#9;&#9;v6.4c0,0.4-0.3,0.7-0.7,0.7c-0.4,0-0.7-0.3-0.7-0.7v-7.1c0-0.4,0.3-0.7,0.7-0.7l0,0h5c0.4,0,0.7,0.3,0.7,0.7c0,0,0,0,0,0v2.2h2.3&#10;&#9;&#9;v-6.4c0-0.4,0.3-0.7,0.7-0.7l0,0h10.5c0.4,0,0.7,0.3,0.7,0.7c0,0,0,0,0,0v2.9h5.7v-7.5c0-0.4,0.3-0.7,0.7-0.7h9.5&#10;&#9;&#9;c0.4,0,0.7,0.3,0.7,0.7v17.1C347.7,253.6,347.4,254,346.9,254C347,254,346.9,254,346.9,254z"/>
	<path class="st3_san-fransisco-74" d="M453.6,253.7c1.4,0.2,2.9,0.1,4.2-0.4c0.7-0.4,1.4-0.9,2-1.4c4-2.8,9.6-1.5,14.3-0.2v12.6&#10;&#9;&#9;c-5,1.8-10.4,1.9-15.4,0.3C451.7,262.9,438.6,253.2,453.6,253.7z"/>
	<path class="st3_san-fransisco-74" d="M465.9,266.5c-2.5-0.1-5-0.5-7.5-1.2c-4.5-1.1-13-6-12.5-9.6c0.3-1.9,2.8-2.8,7.6-2.6h0.5&#10;&#9;&#9;c1.1,0.1,2.3,0,3.3-0.4c0.4-0.2,0.9-0.5,1.2-0.9l0.6-0.5c4.2-3,9.9-1.7,14.9-0.3c0.3,0.1,0.5,0.4,0.5,0.7v12.6&#10;&#9;&#9;c0,0.3-0.2,0.6-0.5,0.7c-2.6,0.9-5.3,1.4-8,1.5L465.9,266.5z M452.5,254.4c-4.5,0-5,1.1-5.1,1.5c-0.3,2.1,6.4,6.9,11.4,8.1&#10;&#9;&#9;c2.4,0.7,4.9,1.1,7.5,1.2c2.4-0.1,4.8-0.5,7.1-1.3v-11.6c-4.6-1.3-9.6-2.3-13.2,0.2c-0.2,0.1-0.4,0.3-0.6,0.4&#10;&#9;&#9;c-1.5,1.3-3.5,1.9-5.5,1.5h-0.5l0,0L452.5,254.4z"/>
	<path class="st1_san-fransisco-74" d="M474.8,261.4v19.8c0,0.8-5.6-0.5-9.4,0s-16.8,1.8-16.8,1.8c-0.2,1-0.2,1.9,0,2.9c0.3,1.8-16.3,0-19.2,0.6&#10;&#9;&#9;s-6.4,2-8.7,2.6s-0.9,0.4-3.9,1.7c-0.8,0.2-1.7,0.3-2.5,0.3c-8,0.3-30.8-1.8-31.1-2c-1.7-1.2,3-3.4-1-3.8s-73.7-1.7-77.9-3&#10;&#9;&#9;s-2.1-6.6-5-8.1s-60.2-2.9-60.2-2.9l-213.9-8V247c4.7-0.6,9.5-0.6,14.3,0.1c6.6,1.2,24.2,4.6,29.8,5.7s14.2-1.6,17.6-3.4&#10;&#9;&#9;s27.7,1.6,27.7,1.6s4.1,0.5,8.3,0.8s27,0.7,27,0.7c2.9,0.3,5.8,0,8.7-0.7c5-1.2,25.4,0.3,25.4,0.3c4.8-0.1,9.6,0.1,14.3,0.8&#10;&#9;&#9;c6.6,1.1,22.3,1.2,29.6,0.8s18.2-1,18.2-1s8.3,0.9,11.7,0.8s22.9-4.7,22.9-4.7c2.6,0.9,5.2,2,7.8,3.3c2.4,1.3,4.6,1.2,8,1.1&#10;&#9;&#9;s7.1-2.8,10.4-2.9s10.5,1.7,13.7,1s12-4.3,17.2-4.6s11.3,2,12.5,1.4s2.4-2,3.7-1.6s4.3-0.9,7.2-0.8s3.4,1.3,6.6,1.3&#10;&#9;&#9;s7.6-1.9,7.6-1.9s4.7-0.1,7.2-0.5c2.4-0.3,4.8,0.3,6.7,1.7c1.9,1.2,18.6,1.8,18.6,1.8l6.4,2c0,0,4.2-0.2,6.6,1.1s23-2,25.5-1.1&#10;&#9;&#9;s7.5,1,11.6,5.5C461.9,260.1,474.8,261.4,474.8,261.4z"/>
	<path class="st3_san-fransisco-74" d="M412.7,292c-8.5,0-29.3-1.7-30-2.2c-1.3-0.9-0.5-2.2,0-2.8c0.1-0.2,0.3-0.4,0.4-0.7c-0.3-0.1-0.7-0.1-1.1-0.2&#10;&#9;&#9;c-1.3-0.1-9.7-0.4-20.3-0.6c-28.9-0.8-55.1-1.6-57.8-2.4s-3.2-3.2-3.6-5c-0.3-1.4-0.5-2.6-1.5-3.2c-2.1-1.1-37-2.3-59.9-2.8&#10;&#9;&#9;l-213.9-8c-0.4,0-0.7-0.3-0.7-0.7V247c0-0.4,0.3-0.7,0.6-0.7c4.8-0.6,9.7-0.6,14.5,0.1c3.9,0.7,11.7,2.2,18.6,3.5&#10;&#9;&#9;c4.7,0.9,9,1.7,11.2,2.1c5.7,1.1,14.1-1.7,17.1-3.3c3.5-1.9,25.6,1.1,28.1,1.5c0,0,4.2,0.5,8.3,0.8s26.7,0.6,26.9,0.7&#10;&#9;&#9;c2.8,0.3,5.7,0,8.5-0.6c5-1.2,24.7,0.2,25.6,0.2c4.8-0.1,9.6,0.1,14.4,0.8c6.4,1,22,1.2,29.4,0.8c7.2-0.4,18.2-1,18.2-1&#10;&#9;&#9;c0.2,0,8.4,0.9,11.7,0.8s22.5-4.6,22.7-4.7c0.1,0,0.3,0,0.4,0c2.7,1,5.3,2.1,7.9,3.3c2.1,1.2,4.2,1.1,7.4,1h0.2&#10;&#9;&#9;c1.7-0.2,3.4-0.7,5-1.4c1.7-0.8,3.5-1.3,5.4-1.5c1.9,0,3.8,0.2,5.7,0.6c2.9,0.4,6.1,0.9,7.9,0.5c1-0.2,2.7-0.8,4.7-1.4&#10;&#9;&#9;c4-1.3,9-3,12.6-3.2c3,0,6,0.3,8.9,1c1.1,0.3,2.2,0.5,3.4,0.5c0.4-0.2,0.7-0.4,1-0.6c0.9-0.6,1.9-1.3,3.1-1c0.9,0.1,1.7,0,2.6-0.3&#10;&#9;&#9;c1.5-0.4,3-0.5,4.5-0.5c1.1,0,2.2,0.3,3.2,0.7c1,0.4,2.2,0.6,3.3,0.6c3,0,7.3-1.8,7.4-1.8c0.1,0,0.2-0.1,0.2-0.1&#10;&#9;&#9;c0,0,4.7-0.1,7.1-0.5c2.5-0.3,5.1,0.3,7.2,1.8c1.1,0.7,10.3,1.4,18.3,1.7c0.1,0,0.1,0,0.2,0l6.3,2c0.7,0,4.5-0.1,6.8,1.2&#10;&#9;&#9;c1.1,0.6,8.5-0.1,13.9-0.6c6.3-0.6,10.2-1,11.4-0.6c0.5,0.2,1.1,0.3,1.8,0.5c2.7,0.6,6.7,1.5,10.1,5.3c3.9,4.3,16.5,5.7,16.6,5.7&#10;&#9;&#9;c0.4,0,0.6,0.3,0.6,0.7v19.8c0,0.2-0.1,0.5-0.3,0.6c-0.5,0.4-1.3,0.4-3.6,0.2c-2-0.2-4.1-0.3-6.1-0.1c-3.4,0.5-13.8,1.5-16.3,1.8&#10;&#9;&#9;c-0.1,0.7,0,1.4,0.1,2.1c0,0.3,0,0.6-0.2,0.8c-0.9,1-4.4,0.9-11.8,0.6c-2.6-0.2-5.1-0.2-7.7,0c-1.9,0.4-4.1,1.1-6,1.8&#10;&#9;&#9;c-1,0.3-1.9,0.6-2.6,0.8c-0.6,0.1-1.1,0.3-1.7,0.6c-0.7,0.4-1.5,0.8-2.2,1.1c-0.9,0.3-1.8,0.4-2.7,0.4L412.7,292z M25.9,262.7&#10;&#9;&#9;l213.2,8c5.9,0.1,57.5,1.4,60.5,3c1.6,0.9,1.9,2.5,2.2,4.1c0.4,1.8,0.7,3.4,2.6,4c2.7,0.9,37,1.8,57.4,2.3c11,0.3,19,0.5,20.4,0.6&#10;&#9;&#9;c0.9,0.1,1.9,0.3,2.2,1s-0.1,1.4-0.5,2c-0.1,0.2-0.5,0.7-0.4,0.9c0.9,0.2,22.8,2.3,30.8,2c0.8,0,1.5-0.1,2.2-0.3&#10;&#9;&#9;c0.7-0.3,1.4-0.6,2.1-1c0.6-0.3,1.3-0.6,2-0.7c0.7-0.2,1.6-0.5,2.6-0.8c2-0.6,4.2-1.4,6.1-1.8c1.2-0.3,4.4-0.1,8.1,0&#10;&#9;&#9;c3.5,0.1,9.3,0.4,10.5-0.1c-0.1-1-0.1-1.9,0-2.9c0.1-0.3,0.3-0.5,0.6-0.5c0.1,0,13-1.3,16.8-1.8c2.1-0.2,4.3-0.2,6.4,0.1&#10;&#9;&#9;c0.8,0.1,1.9,0.2,2.4,0.1v-18.8c-2.7-0.4-13.1-1.9-16.9-6.1c-3.1-3.4-6.7-4.2-9.4-4.9c-0.7-0.2-1.4-0.3-1.9-0.5&#10;&#9;&#9;c-1-0.3-6.2,0.2-10.9,0.6c-8.2,0.8-13.4,1.2-14.8,0.5c-2.2-1.2-6.2-1.1-6.2-1.1c-0.1,0-0.2,0-0.2,0l-6.4-2c-3-0.1-17-0.7-18.9-1.9&#10;&#9;&#9;c-1.8-1.3-4-1.9-6.2-1.6c-2.3,0.4-6.4,0.5-7.2,0.5c-2.5,1-5.1,1.7-7.8,1.9c-1.3,0-2.6-0.2-3.8-0.7c-0.9-0.4-1.9-0.6-2.8-0.6&#10;&#9;&#9;c-1.4,0-2.8,0.2-4.1,0.5c-1.1,0.3-2.2,0.4-3.3,0.3c-0.6-0.2-1.2,0.3-1.9,0.8c-0.4,0.3-0.8,0.5-1.3,0.8c-0.7,0.3-1.9,0.1-4.2-0.4&#10;&#9;&#9;c-2.8-0.7-5.7-1-8.5-1c-3.4,0.2-8.3,1.8-12.2,3.1c-2,0.7-3.8,1.2-4.9,1.5c-2,0.4-5.2,0-8.3-0.5c-1.8-0.3-3.6-0.5-5.5-0.5&#10;&#9;&#9;c-1.7,0.2-3.3,0.6-4.9,1.4c-1.7,0.8-3.6,1.3-5.5,1.5h-0.2c-3.3,0.1-5.7,0.2-8.2-1.1c-2.4-1.2-4.9-2.2-7.5-3.2&#10;&#9;&#9;c-2.2,0.5-19.5,4.6-22.8,4.7s-11.4-0.8-11.8-0.8c0,0-11,0.7-18.1,1.1c-7.4,0.4-23.2,0.2-29.7-0.8c-4.7-0.6-9.4-0.9-14.2-0.8&#10;&#9;&#9;c-0.3,0-20.4-1.4-25.2-0.3c-2.9,0.7-5.9,1-8.9,0.7c-0.8,0-22.7-0.4-26.9-0.6s-8.3-0.8-8.4-0.8c-9.7-1.4-24.9-2.9-27.3-1.7&#10;&#9;&#9;c-3.2,1.7-12.1,4.6-18.1,3.5l-11.2-2.1c-6.9-1.3-14.7-2.8-18.6-3.5c-4.5-0.6-9-0.7-13.4-0.2V262.7z"/>
	<path class="st4_san-fransisco-74" d="M474.8,271.4v9.9c0,0.8-5.6-0.5-9.4,0s-16.8,1.8-16.8,1.8c-0.2,1-0.2,1.9,0,2.9c0.3,1.8-16.3,0-19.2,0.6&#10;&#9;&#9;s-6.4,2-8.7,2.6s-0.9,0.4-3.9,1.7c-0.8,0.2-1.7,0.3-2.5,0.3c0-0.1-0.1-0.2-0.1-0.3c-1.5-3.8-2.5-11.9,2.9-13c2.5-0.5,5,0.1,7.6-0.8&#10;&#9;&#9;c3.1-1.1,5.7-3.2,8.3-5c1.1-1,2.5-1.6,4-2c2.3-0.4,5,0.7,6.9-0.8c0.5-0.5,1-1,1.4-1.6c2.4-2.7,6.7-2.4,10.2-1.8s6.9,1.3,10.3,2.2&#10;&#9;&#9;C468.9,268.9,471.9,269.9,474.8,271.4z"/>
	<path class="st3_san-fransisco-74" d="M414.3,292c-0.3,0-0.5-0.1-0.6-0.4c-0.1-0.1-0.1-0.3-0.2-0.4c-1-2.5-2-7.8-0.3-11.1c0.7-1.4,2.1-2.5,3.7-2.8&#10;&#9;&#9;c1.1-0.2,2.2-0.3,3.3-0.2c1.4,0,2.8-0.1,4.1-0.5c2.5-1,4.9-2.4,7-4.1l1.1-0.8c1.2-1,2.7-1.7,4.2-2.1c0.9-0.1,1.9-0.1,2.8,0&#10;&#9;&#9;c1.4,0.1,2.8,0.2,3.7-0.6c0.3-0.3,0.6-0.6,0.8-0.9c0.2-0.2,0.3-0.4,0.5-0.6c2.7-3,7.2-2.6,10.9-2c3.4,0.6,6.9,1.3,10.4,2.2&#10;&#9;&#9;c3.2,0.7,6.3,1.8,9.3,3.2c0.2,0.1,0.4,0.4,0.4,0.6v9.9c0,0.2-0.1,0.5-0.3,0.6c-0.5,0.4-1.3,0.4-3.6,0.2c-2-0.2-4.1-0.3-6.1-0.1&#10;&#9;&#9;c-3.4,0.5-13.8,1.5-16.3,1.8c-0.1,0.7,0,1.4,0.1,2.1c0,0.3,0,0.6-0.2,0.8c-0.9,1-4.4,0.9-11.8,0.6c-2.6-0.2-5.1-0.2-7.7,0&#10;&#9;&#9;c-1.9,0.4-4.1,1.1-6,1.8c-1,0.3-1.9,0.6-2.6,0.8c-0.6,0.1-1.1,0.3-1.7,0.6c-0.7,0.4-1.5,0.8-2.2,1.1c-0.9,0.3-1.8,0.4-2.7,0.4&#10;&#9;&#9;L414.3,292z M438.1,270.8c-0.4,0-0.8,0-1.1,0.1c-1.3,0.3-2.6,1-3.7,1.9l-1.1,0.8c-2.2,1.8-4.7,3.3-7.4,4.3c-1.5,0.4-3,0.6-4.6,0.6&#10;&#9;&#9;c-1,0-2.1,0.1-3.1,0.2c-1.2,0.2-2.2,0.9-2.7,2c-1.5,2.7-0.7,7.3,0.3,9.8c0.6,0,1.2-0.1,1.8-0.2c0.7-0.3,1.4-0.6,2.1-1&#10;&#9;&#9;c0.6-0.3,1.3-0.6,2-0.7c0.7-0.2,1.6-0.5,2.6-0.8c2-0.6,4.2-1.4,6.1-1.8c1.2-0.3,4.4-0.1,8.1,0c3.5,0.1,9.3,0.4,10.5-0.1&#10;&#9;&#9;c-0.1-1-0.1-1.9,0-2.9c0.1-0.3,0.3-0.5,0.6-0.5c0.1,0,13-1.3,16.8-1.8c2.1-0.2,4.3-0.2,6.4,0.1c0.9,0.1,1.9,0.1,2.4,0.1v-9&#10;&#9;&#9;c-2.7-1.3-5.6-2.3-8.6-2.9c-3.4-0.9-6.9-1.6-10.3-2.2s-7.4-0.9-9.6,1.6c-0.1,0.2-0.3,0.4-0.4,0.5c-0.3,0.4-0.6,0.8-1,1.1&#10;&#9;&#9;c-1.4,1.1-3.1,1-4.7,0.9C439,270.9,438.6,270.8,438.1,270.8L438.1,270.8z"/>
	<path class="st1_san-fransisco-74" d="M285.7,264.8c3.8-3,8.7-4.1,13.4-3.2c1.7,0.3,3.3,0.9,5,1.3c4,0.8,8.1,0.7,12-0.4c1-0.3,2-0.5,3-0.8&#10;&#9;&#9;c4.2-0.9,8.5-0.4,12.3,1.5"/>
	<path class="st3_san-fransisco-74" d="M285.7,265.5c-0.4,0-0.7-0.3-0.7-0.7c0-0.2,0.1-0.4,0.3-0.5c4-3.1,9.1-4.3,14-3.4c1,0.2,1.9,0.5,2.8,0.7&#10;&#9;&#9;c0.7,0.2,1.5,0.4,2.2,0.6c3.9,0.8,7.9,0.7,11.7-0.4l1-0.3c0.6-0.2,1.3-0.4,1.9-0.5c4.3-0.9,8.8-0.4,12.8,1.6&#10;&#9;&#9;c0.3,0.2,0.5,0.6,0.3,0.9c0,0,0,0,0,0c-0.2,0.3-0.6,0.5-0.9,0.3c0,0,0,0,0,0c-3.7-1.8-7.9-2.3-11.9-1.5c-0.6,0.1-1.2,0.3-1.9,0.5&#10;&#9;&#9;l-1.1,0.3c-4,1.1-8.2,1.3-12.3,0.4c-0.8-0.2-1.5-0.4-2.3-0.6s-1.8-0.5-2.7-0.7c-4.5-0.9-9.2,0.3-12.9,3.1&#10;&#9;&#9;C286,265.4,285.8,265.5,285.7,265.5z"/>
	<path class="st1_san-fransisco-74" d="M66.8,260.4c0,0,12.3,0.8,13.9-1.1s0.5-1.3,4.5-2.1c2.8-0.4,5.7-0.4,8.5,0.2l10.6,1.3"/>
	<path class="st3_san-fransisco-74" d="M72.3,261.2c-2.3,0-4.4-0.1-5.6-0.2c-0.4,0-0.7-0.4-0.7-0.7s0.4-0.7,0.7-0.7c5.8,0.4,12.5,0.1,13.4-0.8&#10;&#9;&#9;l0.6-0.7c0.8-1,0.9-1,2.6-1.3l1.7-0.3c2.9-0.5,5.9-0.4,8.8,0.2l10.5,1.3c0.4,0,0.7,0.4,0.6,0.8c0,0,0,0,0,0c0,0.4-0.4,0.7-0.8,0.6&#10;&#9;&#9;c0,0,0,0,0,0l-10.6-1.3c-2.7-0.6-5.6-0.6-8.3-0.2l-1.7,0.3c-1.3,0.2-1.3,0.2-1.8,0.8c-0.2,0.2-0.3,0.4-0.6,0.7&#10;&#9;&#9;C80.2,260.9,76,261.2,72.3,261.2z"/>
	<path class="st4_san-fransisco-74" d="M159.5,268.4c0.6,0,92.4,5.7,93.2,7.1s5.9,1.8,8.7,1.8s16.7-1.2,19.9,0s2,4.7,7.9,5.3s19.5,0.4,19.5,0.4&#10;&#9;&#9;c0-4.8-3-9.1-7.6-10.5C293.1,269.8,159.5,268.4,159.5,268.4z"/>
	<path class="st3_san-fransisco-74" d="M303.5,283.8c-4.5,0-10.8-0.1-14.4-0.4c-3.9-0.4-5-2.1-6-3.4c-0.5-0.9-1.2-1.5-2.1-1.9&#10;&#9;&#9;c-2.3-0.8-11.1-0.4-15.8-0.1c-1.7,0.1-3.1,0.2-3.8,0.2c-1.3,0-7.7-0.1-9.1-1.9c-4.6-1.5-91.9-6.9-92.8-7c-0.4,0-0.7-0.3-0.7-0.7&#10;&#9;&#9;c0-0.4,0.3-0.7,0.7-0.7l0,0c5.5,0.1,133.8,1.4,141.8,4.1c8.4,2.8,8.1,11.1,8.1,11.2c0,0.4-0.3,0.7-0.7,0.7&#10;&#9;&#9;C308.5,283.7,306.4,283.8,303.5,283.8z M308.7,283L308.7,283z M275.4,276.1c2.1-0.1,4.1,0.1,6.1,0.6c1.2,0.5,2.2,1.3,2.8,2.5&#10;&#9;&#9;c0.9,1.3,1.7,2.5,5,2.8c5,0.5,15.9,0.4,18.7,0.4c-0.2-4.3-3.1-7.9-7.1-9.2c-5.5-1.9-74.4-3.1-114-3.7c6.1,0.4,12.6,0.8,19.2,1.3&#10;&#9;&#9;c46.6,3.2,46.9,3.9,47.2,4.4c0.4,0.8,4.1,1.4,8.1,1.4c0.7,0,2-0.1,3.7-0.2C268.8,276.2,272.4,276.1,275.4,276.1L275.4,276.1z"/>
	<polygon class="st3_san-fransisco-74" points="415.5,275.3 415.5,290 410.4,290 410.4,279.1 407.6,279.1 407.6,289.4 403.1,289.4 403.1,277.1 &#9;"/>
	<path class="st3_san-fransisco-74" d="M415.5,290.7h-5.1c-0.4,0-0.7-0.3-0.7-0.7v0v-10.2h-1.5v9.6c0,0.4-0.3,0.7-0.7,0.7h0h-4.4&#10;&#9;&#9;c-0.4,0-0.7-0.3-0.7-0.7v0v-12.3c0-0.3,0.3-0.6,0.6-0.7l12.4-1.8c0.2,0,0.4,0,0.6,0.2c0.2,0.1,0.2,0.3,0.2,0.5V290&#10;&#9;&#9;C416.2,290.4,415.9,290.7,415.5,290.7C415.5,290.7,415.5,290.7,415.5,290.7z M411.1,289.3h3.7v-13.2l-11,1.6v11h3v-9.6&#10;&#9;&#9;c0-0.4,0.3-0.7,0.7-0.7h0h2.9c0.4,0,0.7,0.3,0.7,0.7v0L411.1,289.3z"/>
	<ellipse class="st1_san-fransisco-74" cx="397.8" cy="297.2" rx="13.9" ry="1.9"/>
	<path class="st3_san-fransisco-74" d="M397.8,299.8c-3.4,0-14.5-0.2-14.5-2.6s11.1-2.6,14.5-2.6s14.5,0.2,14.5,2.6S401.2,299.8,397.8,299.8z&#10;&#9;&#9; M384.9,297.2c1.4,0.6,6,1.2,12.8,1.2s11.4-0.7,12.8-1.2c-1.4-0.6-6-1.2-12.8-1.2S386.3,296.6,384.9,297.2L384.9,297.2z M411,297.4&#10;&#9;&#9;L411,297.4z"/>
	<polygon class="st1_san-fransisco-74" points="393.2,231.1 393.2,238.2 391.4,238.2 391.6,293.4 394.7,293.4 394.7,238.9 394.7,229.5 &#9;"/>
	<path class="st3_san-fransisco-74" d="M394.7,294.1h-3.1c-0.4,0-0.7-0.3-0.7-0.7l-0.2-55.2c0-0.2,0.1-0.4,0.2-0.5c0.1-0.1,0.3-0.2,0.5-0.2h1.1v-6.4&#10;&#9;&#9;c0-0.2,0.1-0.3,0.2-0.5l1.5-1.6c0.2-0.2,0.5-0.3,0.8-0.2c0.3,0.1,0.4,0.4,0.5,0.7v63.8C395.4,293.7,395,294.1,394.7,294.1z&#10;&#9;&#9; M392.3,292.7h1.7v-61.3v0.1v6.8c0,0.4-0.3,0.7-0.7,0.7h-1.1L392.3,292.7z"/>
	<rect x="393.6" y="261.2" class="st1_san-fransisco-74" width="8.2" height="3.1"/>
	<path class="st3_san-fransisco-74" d="M401.9,265.1h-8.2c-0.4,0-0.7-0.3-0.7-0.7v0v-3.2c0-0.4,0.3-0.7,0.7-0.7h0h8.2c0.4,0,0.7,0.3,0.7,0.7v0v3.2&#10;&#9;&#9;C402.6,264.7,402.2,265.1,401.9,265.1z M394.3,263.7h6.8v-1.8h-6.8V263.7z"/>
	<rect x="393.6" y="248.8" class="st1_san-fransisco-74" width="8.2" height="3.1"/>
	<path class="st3_san-fransisco-74" d="M401.9,252.7h-8.2c-0.4,0-0.7-0.3-0.7-0.7c0,0,0,0,0,0v-3.1c0-0.4,0.3-0.7,0.7-0.7l0,0h8.2&#10;&#9;&#9;c0.4,0,0.7,0.3,0.7,0.7c0,0,0,0,0,0v3.2C402.5,252.4,402.2,252.7,401.9,252.7z M394.3,251.3h6.8v-1.8h-6.8V251.3z"/>
	<rect x="393.6" y="238.9" class="st1_san-fransisco-74" width="8.2" height="3.1"/>
	<path class="st3_san-fransisco-74" d="M401.9,242.7h-8.2c-0.4,0-0.7-0.3-0.7-0.7c0,0,0,0,0,0v-3.2c0-0.4,0.3-0.7,0.7-0.7l0,0h8.2&#10;&#9;&#9;c0.4,0,0.7,0.3,0.7,0.7c0,0,0,0,0,0v3.1C402.6,242.4,402.3,242.7,401.9,242.7C401.9,242.7,401.9,242.7,401.9,242.7z M394.3,241.3&#10;&#9;&#9;h6.8v-1.8h-6.8V241.3z"/>
	<rect x="393.6" y="229.5" class="st1_san-fransisco-74" width="8.2" height="3.1"/>
	<path class="st3_san-fransisco-74" d="M401.9,233.4h-8.2c-0.4,0-0.7-0.3-0.7-0.7c0,0,0,0,0,0v-3.1c0-0.4,0.3-0.7,0.7-0.7l0,0h8.2&#10;&#9;&#9;c0.4,0,0.7,0.3,0.7,0.7c0,0,0,0,0,0v3.1C402.6,233,402.2,233.4,401.9,233.4L401.9,233.4z M394.3,232h6.8v-1.8h-6.8V232z"/>
	<path class="st3_san-fransisco-74" d="M327.5,285.4c-41.5,0-91-42.9-151.9-95.6c-19.5-16.9-39.7-34.4-61.5-52.2c-0.3-0.2-0.4-0.6-0.2-1&#10;&#9;&#9;s0.6-0.4,1-0.2c0,0,0.1,0.1,0.1,0.1c21.9,17.9,42,35.3,61.6,52.3c67.8,58.8,121.4,105.2,165.1,93.4c39.8-10.7,51.3-52.4,51.5-53.5&#10;&#9;&#9;c0-0.4,0.3-0.7,0.7-0.7c0.3,0,0.6,0.2,0.7,0.5c0.2,0.7-2.1,8.3-6.7,16.8c-7.5,13.8-21.4,31.7-45.9,38.3&#10;&#9;&#9;C337.3,284.8,332.4,285.4,327.5,285.4z"/>
	<polygon class="st1_san-fransisco-74" points="96.1,346.9 91.3,346.9 91.3,279.9 93.7,275.5 93.7,222.1 96.1,219.2 96.1,175.8 99.8,171.8 &#10;&#9;&#9;99.8,133.4 105,125.5 108.1,187.6 103.6,272.9 103.6,345.5 &#9;"/>
	<path class="st3_san-fransisco-74" d="M96.1,347.6h-4.7c-0.4,0-0.7-0.3-0.7-0.7l0,0v-67c0-0.1,0-0.2,0.1-0.3l2.3-4.2v-53.2c0-0.2,0.1-0.3,0.2-0.4&#10;&#9;&#9;l2.2-2.8v-43.1c0-0.2,0.1-0.3,0.2-0.5l3.6-3.8v-38.1c0-0.1,0-0.3,0.1-0.4l5.2-7.9c0.2-0.3,0.5-0.4,0.8-0.3c0.3,0.1,0.5,0.3,0.5,0.6&#10;&#9;&#9;l3.1,62.1l-4.5,85.4v72.5c0,0.3-0.2,0.6-0.6,0.7l-7.5,1.4L96.1,347.6z M92.1,346.2h4l6.8-1.3v-72l4.5-85.3l-3-59.9l-3.9,5.9v38.2&#10;&#9;&#9;c0,0.2-0.1,0.3-0.2,0.5l-3.6,3.8v43.1c0,0.2-0.1,0.3-0.2,0.4l-2.2,2.8v53.2c0,0.1,0,0.2-0.1,0.3L92,280L92.1,346.2z"/>
	<path class="st3_san-fransisco-74" d="M111,344.1V132.4l-3.7-3.9c0,0-1.4-5.4-1.8-5.8s-0.5,2.8-0.5,2.8l-1,3l-2,3.3v39.9l-1.6,3v44.3l-1.8,3.1v54.2&#10;&#9;&#9;l-2.6,3.9v66.4L111,344.1z"/>
	<path class="st3_san-fransisco-74" d="M96.1,347.6c-0.4,0-0.7-0.3-0.7-0.7c0,0,0,0,0,0v-66.4c0-0.1,0-0.3,0.1-0.4l2.4-3.8v-54c0-0.1,0-0.2,0.1-0.3&#10;&#9;&#9;l1.7-3v-44.2c0-0.1,0-0.2,0.1-0.3l1.5-2.9v-39.8c0-0.1,0-0.3,0.1-0.4l1.9-3.2l1-2.8c0.1-3,0.5-3.2,0.9-3.3c0.3-0.1,0.6,0,0.8,0.2&#10;&#9;&#9;c0.1,0.1,0.5,0.5,1.9,5.9l3.6,3.7c0.1,0.1,0.2,0.3,0.2,0.5v211.7c0,0.3-0.2,0.6-0.6,0.7l-15,2.8L96.1,347.6z M96.8,280.7V346&#10;&#9;&#9;l13.6-2.5V132.7l-3.5-3.6c-0.1-0.1-0.2-0.2-0.2-0.3c-0.3-1.1-0.6-2.3-0.9-3.3c0,0.1,0,0.1,0,0.2c0,0.1,0,0.1,0,0.2l-1,3l-0.1,0.1&#10;&#9;&#9;l-2,3.1v39.8c0,0.1,0,0.2-0.1,0.3l-1.5,2.9v44.2c0,0.1,0,0.2-0.1,0.3l-1.7,3v54c0,0.1,0,0.3-0.1,0.4L96.8,280.7z M111,344.1&#10;&#9;&#9;L111,344.1z"/>
	<path class="st4_san-fransisco-74" d="M66.8,348.9c0,0,150.6-33.9,178.7-41s86.2-21.3,101.7-25c17-4,52.1-10,56.5-10.5l11.9,0.4&#10;&#9;&#9;c0,0-15.9,3.4-25.5,6.3s-58.8,15.7-66.7,18.6s-58.1,18.2-73.3,22.9S99.5,376,99.5,376L66.8,348.9z"/>
	<path class="st3_san-fransisco-74" d="M99.5,376.7c-0.2,0-0.3-0.1-0.4-0.2l-32.7-27.1c-0.2-0.2-0.3-0.4-0.2-0.7c0.1-0.3,0.3-0.5,0.5-0.5&#10;&#9;&#9;c1.5-0.3,150.9-34,178.7-41c28.8-7.3,86.6-21.4,101.7-25c17.3-4.1,52.2-10,56.5-10.5l12,0.4c0.4,0,0.6,0.3,0.7,0.6&#10;&#9;&#9;c0,0.4-0.2,0.7-0.5,0.7c-0.2,0-16,3.5-25.4,6.3c-3.5,1-12.4,3.4-22.6,6.2c-17.4,4.7-39.1,10.6-44.1,12.4&#10;&#9;&#9;c-5.7,2.1-33.8,10.7-54.2,17c-8,2.4-14.9,4.6-19.1,5.9c-15,4.7-149.1,54.9-150.5,55.4C99.7,376.7,99.6,376.7,99.5,376.7z&#10;&#9;&#9; M68.3,349.3l31.3,26c8-3,135.5-50.7,150.1-55.3c4.2-1.3,11.2-3.4,19.1-5.9c20.5-6.3,48.5-14.8,54.1-17c5-1.9,26.8-7.8,44.2-12.5&#10;&#9;&#9;c10.2-2.8,19-5.1,22.5-6.2c6-1.8,14.7-3.8,20.2-5.1l-6.4-0.2c-4.2,0.5-39,6.4-56.3,10.5c-15.1,3.6-72.9,17.7-101.7,25&#10;&#9;&#9;C219.3,315.2,83.6,345.8,68.3,349.3z"/>
	<path class="st3_san-fransisco-74" d="M126.9,280.8l-24.7-2.7v42.2h6.3c0,0,0.4-12.8,1.6-16.4s0.8-4.9,2.4-4.7s11.6,2.4,11.6,2.4L126.9,280.8z"/>
	<path class="st3_san-fransisco-74" d="M108.5,321h-6.3c-0.4,0-0.7-0.3-0.7-0.7v-42.2c0-0.4,0.3-0.7,0.7-0.7c0,0,0.1,0,0.1,0L127,280&#10;&#9;&#9;c0.2,0,0.4,0.1,0.5,0.3c0.1,0.1,0.2,0.3,0.1,0.5l-2.9,20.8c0,0.2-0.1,0.4-0.3,0.5c-0.2,0.1-0.4,0.1-0.6,0.1c-0.1,0-10-2.2-11.5-2.4&#10;&#9;&#9;c-0.4,0-0.5-0.1-0.9,1.6c-0.2,0.7-0.4,1.6-0.8,2.7c-1.1,3.4-1.5,16-1.5,16.2C109.2,320.7,108.9,321,108.5,321&#10;&#9;&#9;C108.5,321,108.5,321,108.5,321z M102.9,319.6h4.9c0.1-2.7,0.5-12.7,1.6-15.9c0.3-1,0.6-1.9,0.7-2.6c0.4-1.6,0.7-2.9,2.4-2.6&#10;&#9;&#9;c1.3,0.2,8.6,1.7,10.9,2.2l2.7-19.3l-23.2-2.5V319.6z"/>
	<path class="st3_san-fransisco-74" d="M126.9,221.5h-17.5c-1.6,0-3.9-2.4-3.9-2.4v32.5c0,0,2.2-10.4,4.3-11s17,0.2,17,0.2L126.9,221.5z"/>
	<path class="st3_san-fransisco-74" d="M105.5,252.4L105.5,252.4c-0.4,0-0.7-0.3-0.7-0.7v-32.5c0-0.4,0.3-0.7,0.7-0.7c0.2,0,0.4,0.1,0.5,0.2&#10;&#9;&#9;c0.8,0.8,2.5,2.2,3.4,2.2h17.4c0.4,0,0.7,0.3,0.7,0.7v19.3c0,0.4-0.3,0.7-0.7,0.7c0,0,0,0,0,0c-5.9-0.3-15.3-0.6-16.8-0.2&#10;&#9;&#9;c-1.1,0.3-2.8,5.7-3.8,10.5C106.1,252.1,105.9,252.4,105.5,252.4z M106.2,220.7v25.4c0.9-2.9,2.1-5.7,3.4-6.1&#10;&#9;&#9;c2-0.6,13.3,0,16.5,0.1v-17.9h-16.7C108.3,222.1,107.1,221.5,106.2,220.7L106.2,220.7z"/>
	<path class="st3_san-fransisco-74" d="M130,173.1c0,0-19.2,2.4-21.1,2.2s-3.3-3.6-3.3-3.6V199h4.1c0,0,0.4-6.6,2.2-8.4s18.1-1.8,18.1-1.8V173.1z"/>
	<path class="st3_san-fransisco-74" d="M109.6,199.7h-4.1c-0.4,0-0.7-0.3-0.7-0.7v-27.2c0-0.3,0.2-0.6,0.6-0.7c0.3-0.1,0.7,0.1,0.8,0.4&#10;&#9;&#9;c0.3,0.8,1.4,3,2.7,3.1c1.6,0.1,15.7-1.6,21-2.2c0.2,0,0.4,0,0.6,0.2c0.1,0.1,0.2,0.3,0.2,0.5v15.6c0,0.4-0.3,0.7-0.7,0.7&#10;&#9;&#9;c-7.9,0-16.6,0.6-17.6,1.6c-1.3,1.4-1.9,6.2-2,8C110.3,199.4,110,199.7,109.6,199.7z M106.2,198.3h2.8c0.2-1.8,0.7-6.5,2.4-8.2&#10;&#9;&#9;c1.8-1.8,14-2,17.9-2v-14.2c-3.7,0.4-18.7,2.2-20.5,2.1c-1-0.2-2-0.7-2.5-1.6L106.2,198.3z"/>
	<path class="st1_san-fransisco-74" d="M102.5,377.8c0,0,207.6-73.1,231.8-80.1s53.5-17.9,81.2-22.3v-2.4c0,0-35.1,5.5-57,11.4&#10;&#9;&#9;c-18,4.9-102.5,30.5-118,36S82.5,366,82.5,366L102.5,377.8z"/>
	<path class="st3_san-fransisco-74" d="M102.5,378.5c-0.1,0-0.2,0-0.4-0.1l-20-11.8c-0.2-0.1-0.4-0.4-0.3-0.7c0-0.3,0.2-0.5,0.5-0.6&#10;&#9;&#9;c1.4-0.4,142.6-40.3,157.9-45.7s99.8-31.1,118-36c21.7-5.9,56.7-11.3,57.1-11.4c0.2,0,0.4,0,0.6,0.2c0.2,0.1,0.2,0.3,0.2,0.5v2.4&#10;&#9;&#9;c0,0.3-0.3,0.6-0.6,0.7c-20.3,3.2-42,10.1-61.1,16.1c-7,2.2-13.7,4.3-20,6.2c-23.9,7-229.7,79.4-231.8,80.1&#10;&#9;&#9;C102.6,378.5,102.6,378.5,102.5,378.5z M84.3,366.2l18.3,10.8c9.1-3.2,208-73.2,231.5-80.1c6.4-1.9,13-4,20-6.2&#10;&#9;&#9;c19-6,40.4-12.8,60.7-16.1v-1c-5.4,0.9-36.3,5.9-56.1,11.2c-18.3,4.9-102.6,30.5-117.9,36C226.2,326.1,99.9,361.8,84.3,366.2z"/>
	<path class="st1_san-fransisco-74" d="M281.3,307.1c-0.1,0,0,10.4,0,10.4l4.1-1.4v-10.2L281.3,307.1z"/>
	<path class="st3_san-fransisco-74" d="M281.3,318.2c-0.1,0-0.3,0-0.4-0.1c-0.2-0.1-0.3-0.3-0.3-0.6c-0.1-10.9-0.1-10.9,0.5-11.1l0,0l4.1-1.2&#10;&#9;&#9;c0.2-0.1,0.4,0,0.6,0.1c0.2,0.1,0.3,0.3,0.3,0.6v10.2c0,0.3-0.2,0.6-0.5,0.7l-4.1,1.4C281.5,318.2,281.4,318.2,281.3,318.2z&#10;&#9;&#9; M282,307.6c0,1.4,0,5.7,0,8.9l2.7-0.9v-8.8L282,307.6z"/>
	<polygon class="st3_san-fransisco-74" points="126.9,371.6 122.8,370.7 122.8,282.6 125.8,278.1 125.8,219.4 128.6,216 128.6,170.7 130.4,167.7 &#10;&#9;&#9;130.4,126.9 133.3,122.2 135.1,118.2 137.1,118.2 135.9,194.9 137.1,358.5 &#9;"/>
	<path class="st3_san-fransisco-74" d="M126.9,372.3h-0.2l-4.1-0.9c-0.3-0.1-0.5-0.4-0.5-0.7v-88.1c0-0.1,0-0.3,0.1-0.4l2.9-4.4v-58.5&#10;&#9;&#9;c0-0.2,0.1-0.3,0.2-0.4l2.6-3.2v-45.1c0-0.1,0-0.2,0.1-0.4l1.7-2.8v-40.6c0-0.1,0-0.3,0.1-0.4l3-4.7l1.7-3.9&#10;&#9;&#9;c0.1-0.3,0.4-0.4,0.6-0.4h2c0.2,0,0.4,0.1,0.5,0.2c0.1,0.1,0.2,0.3,0.2,0.5l-1.1,76.7l1.1,163.6c0,0.2-0.1,0.3-0.1,0.4L127.5,372&#10;&#9;&#9;C127.3,372.2,127.1,372.3,126.9,372.3z M123.6,370.1l3.1,0.7l9.7-12.6l-1.1-163.3l1.1-76h-0.8l-1.5,3.6l-2.9,4.6v40.6&#10;&#9;&#9;c0,0.1,0,0.2-0.1,0.4l-1.7,2.8V216c0,0.2-0.1,0.3-0.2,0.4l-2.6,3.2v58.5c0,0.1,0,0.3-0.1,0.4l-2.9,4.4L123.6,370.1z"/>
	<polygon class="st1_san-fransisco-74" points="126.9,371.6 126.9,280.8 129,277.5 129,220.5 131.7,217.8 131.7,170.7 133.3,167.5 133.3,125.5 &#10;&#9;&#9;135.1,122.6 135.1,118.2 137.1,118.2 137.1,122.8 140.4,126.9 140.4,169.7 141.8,172.2 141.8,219 143.2,221.5 143.2,276.5 &#10;&#9;&#9;144.9,279.5 144.9,376 &#9;"/>
	<path class="st3_san-fransisco-74" d="M144.9,376.7c-0.1,0-0.1,0-0.2,0l-18-4.4c-0.3-0.1-0.5-0.4-0.5-0.7v-90.9c0-0.1,0-0.3,0.1-0.4l2-3.1v-56.8&#10;&#9;&#9;c0-0.2,0.1-0.4,0.2-0.5l2.6-2.6v-46.8c0-0.1,0-0.2,0.1-0.3l1.5-3v-41.8c0-0.1,0-0.3,0.1-0.4l1.7-2.8v-4.1c0-0.4,0.3-0.7,0.7-0.7h2&#10;&#9;&#9;c0.4,0,0.7,0.3,0.7,0.7v4.3l3.2,4c0.1,0.1,0.2,0.3,0.2,0.4v42.6l1.3,2.4c0.1,0.1,0.1,0.2,0.1,0.3v46.5l1.3,2.4&#10;&#9;&#9;c0.1,0.1,0.1,0.2,0.1,0.3v54.8l1.7,2.8c0.1,0.1,0.1,0.2,0.1,0.4V376c0,0.2-0.1,0.4-0.3,0.5C145.3,376.7,145.1,376.8,144.9,376.7z&#10;&#9;&#9; M127.6,371.1l16.6,4.1v-95.5l-1.7-2.8c-0.1-0.1-0.1-0.2-0.1-0.4v-54.8l-1.3-2.4c-0.1-0.1-0.1-0.2-0.1-0.3v-46.5l-1.3-2.4&#10;&#9;&#9;c-0.1-0.1-0.1-0.2-0.1-0.3v-42.5l-3.2-4c-0.1-0.1-0.2-0.3-0.1-0.4V119h-0.6v3.6c0,0.1,0,0.3-0.1,0.4l-1.7,2.7v41.8&#10;&#9;&#9;c0,0.1,0,0.2-0.1,0.3l-1.5,3v46.9c0,0.2-0.1,0.4-0.2,0.5l-2.6,2.6v56.7c0,0.1,0,0.3-0.1,0.4l-2,3.1L127.6,371.1z"/>
	<path class="st3_san-fransisco-74" d="M131.9,142.1c0,0-15.6,1.8-19.3,3.3s-4.2,10.8-4.2,10.8h-3l-0.4-0.8v-21.8l26.3-5L131.9,142.1z"/>
	<path class="st3_san-fransisco-74" d="M108.4,156.9h-3c-0.3,0-0.5-0.1-0.6-0.4l-0.4-0.8c0-0.1-0.1-0.2-0.1-0.3v-21.8c0-0.3,0.2-0.6,0.6-0.7l26.3-5&#10;&#9;&#9;c0.2,0,0.4,0,0.6,0.1c0.2,0.1,0.3,0.3,0.3,0.5l0.6,13.5c0,0.4-0.2,0.7-0.6,0.7c-0.2,0-15.6,1.8-19.2,3.2c-2.7,1.1-3.6,7.7-3.8,10.2&#10;&#9;&#9;C109.1,156.6,108.8,156.9,108.4,156.9z M105.8,155.5h1.9c0.2-2.3,1.1-9.3,4.6-10.7c3.3-1.3,15.8-2.9,18.8-3.2l-0.6-12.1l-24.9,4.7&#10;&#9;&#9;v21.1L105.8,155.5z"/>
	<polygon class="st1_san-fransisco-74" points="385.3,278.5 385.3,282.8 387.1,282.4 387.1,278.3 &#9;"/>
	<path class="st3_san-fransisco-74" d="M385.3,283.5c-0.2,0-0.3-0.1-0.4-0.1c-0.2-0.1-0.3-0.3-0.3-0.5v-4.3c0-0.4,0.3-0.6,0.6-0.7l1.8-0.2&#10;&#9;&#9;c0.2,0,0.4,0,0.5,0.2c0.2,0.1,0.2,0.3,0.2,0.5v4c0,0.3-0.2,0.6-0.5,0.7l-1.8,0.5L385.3,283.5z M386,279.2v2.8l0.4-0.1v-2.7&#10;&#9;&#9;L386,279.2z"/>
	<path class="st3_san-fransisco-74" d="M337.3,288.3c-20.5,0-59.6-27.6-116.4-82.1c-42.2-40.5-79.8-82.4-84-87c-7.1,4-88.6,50.2-111.5,60.6&#10;&#9;&#9;c-0.4,0.2-0.8,0-0.9-0.3c0,0,0,0,0,0c-0.2-0.4,0-0.8,0.4-0.9c23.8-10.9,111-60.4,111.8-60.9c0.3-0.2,0.7-0.1,0.9,0.1&#10;&#9;&#9;c1.6,1.8,157.3,176.4,202.7,168.9c48.6-8,62.1-56.8,62.2-57.3c0.1-0.4,0.5-0.6,0.8-0.5c0,0,0,0,0,0c0.4,0.1,0.6,0.5,0.5,0.9&#10;&#9;&#9;c-0.1,0.5-13.8,50.2-63.3,58.4C339.4,288.2,338.3,288.3,337.3,288.3z"/>
	<path class="st3_san-fransisco-74" d="M25.2,169.6c-0.3,0-0.5-0.2-0.6-0.4c-0.1-0.4,0-0.8,0.4-0.9c27.3-11.3,79.7-45.7,80.2-46&#10;&#9;&#9;c0.3-0.2,0.7-0.2,1,0.1c0,0,0,0,0,0.1c0.2,0.3,0.2,0.8-0.2,1c0,0,0,0,0,0c-0.5,0.3-53.1,34.9-80.5,46.2&#10;&#9;&#9;C25.4,169.6,25.3,169.6,25.2,169.6z"/>
	<polygon class="st1_san-fransisco-74" points="400.6,293.4 401.1,251 401.1,240.9 402.3,240.2 402.3,229 403.8,229 403.8,293.4 &#9;"/>
	<path class="st3_san-fransisco-74" d="M403.8,294.1h-3.2c-0.2,0-0.4-0.1-0.5-0.2c-0.1-0.1-0.2-0.3-0.2-0.5l0.5-42.4v-10c0-0.3,0.1-0.5,0.4-0.6&#10;&#9;&#9;l0.9-0.5V229c0-0.4,0.3-0.7,0.7-0.7h1.5c0.4,0,0.7,0.3,0.7,0.7c0,0,0,0,0,0v64.4C404.5,293.8,404.2,294.1,403.8,294.1z&#10;&#9;&#9; M401.3,292.7h1.8v-63H403v10.6c0,0.3-0.1,0.5-0.4,0.6l-0.9,0.5v9.6L401.3,292.7z"/>
	<rect x="390.2" y="292.2" class="st1_san-fransisco-74" width="14.2" height="4.7"/>
	<path class="st3_san-fransisco-74" d="M404.4,297.6h-14.2c-0.4,0-0.7-0.3-0.7-0.7v0v-4.7c0-0.4,0.3-0.7,0.7-0.7h0h14.2c0.4,0,0.7,0.3,0.7,0.7v0v4.7&#10;&#9;&#9;C405.1,297.3,404.8,297.6,404.4,297.6L404.4,297.6z M390.9,296.2h12.8v-3.3h-12.8V296.2z"/>
	<path class="st1_san-fransisco-74" d="M194.4,266.8c3.9-1.1,7.7-2.6,11.2-4.6c1.5-1,3.2-1.8,4.9-2.3c1.6-0.4,3.2-0.5,4.9-0.5c3.7-0.2,7.4,0,11.1,0.5&#10;&#9;&#9;c3.5,0.6,7,1.4,10.4,2.4l11.9,3.2"/>
	<path class="st4_san-fransisco-74" d="M194.4,267.6c-0.4,0-0.8-0.4-0.7-0.8c0-0.3,0.2-0.6,0.5-0.7c3.9-1.1,7.6-2.6,11.1-4.5l0.7-0.4&#10;&#9;&#9;c1.4-0.9,2.9-1.5,4.4-2c1.7-0.4,3.4-0.6,5.1-0.6c3.8-0.2,7.5,0,11.3,0.5c3.6,0.6,7.1,1.4,10.6,2.4l11.9,3.2c0.4,0.2,0.6,0.6,0.5,1&#10;&#9;&#9;c-0.1,0.3-0.5,0.6-0.9,0.5l-11.9-3.2c-3.4-1-6.9-1.8-10.4-2.3c-3.6-0.5-7.3-0.6-11-0.5c-1.6,0-3.2,0.2-4.7,0.5&#10;&#9;&#9;c-1.4,0.4-2.8,1.1-4.1,1.9l-0.7,0.4c-3.6,2-7.4,3.6-11.4,4.7L194.4,267.6z"/>
	<polyline class="st1_san-fransisco-74" points="35.5,251.7 35.5,241.4 45.5,241.4 45.5,251.7 51,251.7 51,255.5 57,255.5 57,241.4 65.3,241.4 &#10;&#9;&#9;65.3,257.2 68.9,257.2 68.9,249.3 72.3,249.3 72.3,255.5 &#9;"/>
	<path class="st3_san-fransisco-74" d="M68.9,257.9h-3.5c-0.4,0-0.7-0.3-0.7-0.7l0,0v-15.1h-6.9v13.4c0,0.4-0.3,0.7-0.7,0.7c0,0,0,0,0,0h-6&#10;&#9;&#9;c-0.4,0-0.7-0.3-0.7-0.7v-3.1h-4.8c-0.4,0-0.7-0.3-0.7-0.7v-9.6h-8.6v9.6c0,0.4-0.3,0.7-0.7,0.7s-0.7-0.3-0.7-0.7v-10.3&#10;&#9;&#9;c0-0.4,0.3-0.7,0.7-0.7h10c0.4,0,0.7,0.3,0.7,0.7v9.6H51c0.4,0,0.7,0.3,0.7,0.7v3.1h4.7v-13.4c0-0.4,0.3-0.7,0.7-0.7h8.3&#10;&#9;&#9;c0.4,0,0.7,0.3,0.7,0.7v15.1h2.1v-7.2c0-0.4,0.3-0.7,0.7-0.7h3.4c0.4,0,0.7,0.3,0.7,0.7v6.2c0,0.4-0.3,0.7-0.7,0.7&#10;&#9;&#9;c-0.4,0-0.7-0.3-0.7-0.7l0,0V250h-2v7.2C69.6,257.6,69.3,257.9,68.9,257.9C68.9,257.9,68.9,257.9,68.9,257.9z"/>
	<polyline class="st1_san-fransisco-74" points="151.6,259.6 165,257.4 165,260.9 175,259.6 175,263.3 187.1,263.3 &#9;"/>
	<path class="st3_san-fransisco-74" d="M187.1,264H175c-0.4,0-0.7-0.3-0.7-0.7l0,0v-3l-9.2,1.2c-0.2,0-0.4,0-0.6-0.2c-0.2-0.1-0.2-0.3-0.2-0.5v-2.7&#10;&#9;&#9;l-12.6,2c-0.4,0.1-0.7-0.2-0.8-0.6c-0.1-0.4,0.2-0.7,0.6-0.8l13.4-2.2c0.2,0,0.4,0,0.6,0.2c0.2,0.1,0.2,0.3,0.2,0.5v2.7l9.2-1.2&#10;&#9;&#9;c0.2,0,0.4,0,0.6,0.2c0.2,0.1,0.2,0.3,0.2,0.5v3.1h11.4c0.4,0,0.7,0.3,0.7,0.7C187.8,263.6,187.5,263.9,187.1,264&#10;&#9;&#9;C187.1,263.9,187.1,263.9,187.1,264L187.1,264z"/>
	<polyline class="st1_san-fransisco-74" points="174.9,254.2 174.9,247.1 181.6,247.1 181.6,250 187.1,250 187.1,244.9 199.7,244.9 199.7,256.4 &#10;&#9;&#9;205.1,256.4 205.1,259.3 &#9;"/>
	<path class="st3_san-fransisco-74" d="M205.1,260c-0.4,0-0.7-0.3-0.7-0.7v-2.2h-4.6c-0.4,0-0.7-0.3-0.7-0.7v-10.8h-11.2v4.4c0,0.4-0.3,0.7-0.7,0.7&#10;&#9;&#9;h-5.6c-0.4,0-0.7-0.3-0.7-0.7v-2.2h-5.3v6.4c0,0.4-0.3,0.7-0.7,0.7c-0.4,0-0.7-0.3-0.7-0.7v-7.1c0-0.4,0.3-0.7,0.7-0.7h6.7&#10;&#9;&#9;c0.4,0,0.7,0.3,0.7,0.7v2.2h4.1v-4.4c0-0.4,0.3-0.7,0.7-0.7h12.6c0.4,0,0.7,0.3,0.7,0.7v10.8h4.6c0.4,0,0.7,0.3,0.7,0.7l0,0v2.9&#10;&#9;&#9;C205.8,259.7,205.4,260,205.1,260C205.1,260,205.1,260,205.1,260z"/>
	<polyline class="st1_san-fransisco-74" points="234.1,266.8 234.1,257.4 243.3,257.4 243.3,260.4 249,260.4 249,257.4 254.2,257.4 254.2,265.7 &#9;"/>
	<path class="st3_san-fransisco-74" d="M234.1,267.5c-0.4,0-0.7-0.3-0.7-0.7l0,0v-9.4c0-0.4,0.3-0.7,0.7-0.7h9.2c0.4,0,0.7,0.3,0.7,0.7l0,0v2.3h4.3&#10;&#9;&#9;v-2.3c0-0.4,0.3-0.7,0.7-0.7c0,0,0,0,0,0h5.2c0.4,0,0.7,0.3,0.7,0.7v8.3c0,0.4-0.3,0.7-0.7,0.7s-0.7-0.3-0.7-0.7c0,0,0,0,0,0v-7.6&#10;&#9;&#9;h-3.8v2.3c0,0.4-0.3,0.7-0.7,0.7c0,0,0,0,0,0h-5.7c-0.4,0-0.7-0.3-0.7-0.7l0,0v-2.3h-7.8v8.7C234.8,267.2,234.5,267.5,234.1,267.5z&#10;&#9;&#9;"/>
	<path class="st1_san-fransisco-74" d="M284.4,254.6c3.5-1.7,7.4-2.5,11.4-2.3c4.7,0.3,9.2,2,13.9,2.1c6.4,0.2,13.1-2.4,19.2-0.3&#10;&#9;&#9;c0.6,0.3,1.3,0.5,2,0.6c0.6,0,1.2,0,1.8-0.1c4.9-0.7,9.8,0,14.3,2c3.2-2.7,7.8-2.9,12-2.9h3.2c1.9,0,3.7,0,5.5,0&#10;&#9;&#9;c2.8,0,5.6,0.2,8.4,0.4"/>
	<path class="st4_san-fransisco-74" d="M347,257.2c-0.1,0-0.2,0-0.3-0.1c-4.4-1.9-9.2-2.6-13.9-1.9h-0.2c-0.6,0.1-1.2,0.2-1.8,0.1&#10;&#9;&#9;c-0.6-0.1-1.2-0.2-1.8-0.5l-0.4-0.1c-3.6-1.2-7.4-0.7-11.4-0.2c-2.5,0.4-5,0.6-7.5,0.6c-2.5-0.2-4.9-0.5-7.4-1.1&#10;&#9;&#9;c-2.2-0.5-4.4-0.8-6.6-1c-3.8-0.2-7.6,0.5-11,2.2c-0.4,0.2-0.8,0-1-0.4c-0.2-0.4,0-0.8,0.4-1c3.7-1.8,7.7-2.6,11.8-2.4&#10;&#9;&#9;c2.3,0.2,4.6,0.6,6.8,1.1c2.3,0.6,4.7,0.9,7.1,1.1c2.4,0,4.8-0.2,7.2-0.6c4-0.5,8.2-1.1,12.1,0.3l0.4,0.1c0.9,0.4,1.9,0.5,2.8,0.3&#10;&#9;&#9;h0.2c4.8-0.7,9.8,0,14.3,1.8c3.3-2.5,7.6-2.7,12.1-2.8h3.2c1.9,0,3.7,0,5.6,0c2.8,0,5.7,0.2,8.5,0.4c0.4,0,0.7,0.4,0.7,0.8&#10;&#9;&#9;c0,0.4-0.4,0.7-0.8,0.7c-2.8-0.2-5.6-0.4-8.4-0.4c-1.8,0-3.6,0-5.4,0h-3.3c-4.4,0-8.5,0.3-11.5,2.7&#10;&#9;&#9;C347.3,257.2,347.2,257.3,347,257.2z"/>
	<path class="st4_san-fransisco-74" d="M321.8,274.4c-0.1,0-0.2,0-0.3-0.1c-0.4-0.2-0.5-0.6-0.4-1c1.3-2.4,3.4-4.2,6-5c2.2-0.7,4.5-1.1,6.9-1.2&#10;&#9;&#9;c0.5-1.6,1.7-2.8,3.2-3.3c1.5-0.4,3.1-0.6,4.6-0.4h0.2c7,0.2,14-0.3,20.8-1.6c0.4-0.1,0.8,0.2,0.9,0.6c0.1,0.4-0.2,0.8-0.6,0.9&#10;&#9;&#9;c-7,1.3-14.1,1.9-21.2,1.6h-0.2c-1.4-0.1-2.7,0-4,0.3c-1.2,0.3-2.1,1.4-2.3,2.6c0,0.4-0.3,0.7-0.7,0.8c-2.4,0.1-4.8,0.5-7.1,1.2&#10;&#9;&#9;c-2.2,0.7-4,2.2-5.2,4.2C322.4,274.2,322.1,274.4,321.8,274.4z"/>
	<path class="st3_san-fransisco-74" d="M361.4,249.5c-0.4,0-0.7-0.3-0.7-0.7c0,0,0,0,0,0v-16.2c0-0.4,0.3-0.7,0.7-0.7c0.4,0,0.7,0.3,0.7,0.7v16.2&#10;&#9;&#9;C362,249.2,361.7,249.5,361.4,249.5z"/>
	<path class="st3_san-fransisco-74" d="M343.8,252.9c-0.1,0-0.2,0-0.3-0.1c-0.4-0.2-0.5-0.6-0.4-0.9c1.2-3.1,6.5-4.7,6.7-4.8c0.4-0.1,0.8,0.1,0.9,0.5&#10;&#9;&#9;s-0.1,0.8-0.5,0.9c-1.3,0.4-5,1.9-5.8,4C344.3,252.8,344.1,252.9,343.8,252.9z"/>
	<path class="st1_san-fransisco-74" d="M146.9,255.5c0,0-0.5-6.4,0-6.4h11.6v4.2"/>
	<path class="st3_san-fransisco-74" d="M146.9,256.2c-0.4,0-0.7-0.3-0.7-0.6c-0.5-6.1-0.1-6.6,0.1-6.8c0.1-0.2,0.4-0.3,0.6-0.3h11.6&#10;&#9;&#9;c0.4,0,0.7,0.3,0.7,0.7v4.2c0,0.4-0.3,0.7-0.7,0.7c-0.4,0-0.7-0.3-0.7-0.7c0,0,0,0,0,0v-3.5h-10.4c-0.1,1.9,0,3.7,0.2,5.6&#10;&#9;&#9;C147.6,255.9,147.4,256.2,146.9,256.2L146.9,256.2z"/>
	<path class="st1_san-fransisco-74" d="M114.5,255.5v-6.2h6.8v6.2"/>
	<path class="st3_san-fransisco-74" d="M121.3,256.2c-0.4,0-0.7-0.3-0.7-0.7V250h-5.3v5.5c0,0.4-0.3,0.7-0.7,0.7c-0.4,0-0.7-0.3-0.7-0.7v-6.4h0.7&#10;&#9;&#9;v-0.5h6.8c0.4,0,0.7,0.3,0.7,0.7v6.2C122,255.9,121.7,256.2,121.3,256.2L121.3,256.2z"/>
	<polyline class="st1_san-fransisco-74" points="219.7,255.5 219.7,250.8 225.5,250.8 225.5,244.9 235.3,244.9 235.3,248 241.1,248 241.1,255.5 &#9;"/>
	<path class="st3_san-fransisco-74" d="M241.1,256.2c-0.4,0-0.7-0.3-0.7-0.7v-6.8h-5.1c-0.4,0-0.7-0.3-0.7-0.7v-2.4h-8.4v5.1c0,0.4-0.3,0.7-0.7,0.7&#10;&#9;&#9;h-5.1v4.1c0,0.4-0.3,0.7-0.7,0.7c-0.4,0-0.7-0.3-0.7-0.7c0,0,0,0,0,0v-4.8c0-0.4,0.3-0.7,0.7-0.7h5.1v-5.1c0-0.4,0.3-0.7,0.7-0.7&#10;&#9;&#9;h9.9c0.4,0,0.7,0.3,0.7,0.7v2.4h5.1c0.4,0,0.7,0.3,0.7,0.7v7.5C241.8,255.9,241.5,256.2,241.1,256.2&#10;&#9;&#9;C241.1,256.2,241.1,256.2,241.1,256.2z"/>
	<path class="st4_san-fransisco-74" d="M358,345.5L358,345.5c-2.4,0-4.4-1.1-6.3-2.1c-1.3-0.8-2.8-1.4-4.3-1.8c-2.1-0.3-4.2-0.2-6.3,0.3&#10;&#9;&#9;c-0.8,0.1-1.5,0.3-2.3,0.4c-8.9,1.2-17.9-2.5-25.1-5.5c-0.4-0.2-0.6-0.6-0.4-1c0.2-0.4,0.6-0.6,1-0.4c0,0,0,0,0,0&#10;&#9;&#9;c7.4,3,15.8,6.5,24.3,5.3c0.7-0.1,1.5-0.2,2.2-0.4c2.3-0.6,4.6-0.7,6.9-0.3c1.7,0.4,3.2,1.1,4.7,2c1.8,1,3.6,1.9,5.5,1.9&#10;&#9;&#9;c1.5-0.1,3-0.5,4.4-1.1l1-0.4c5.7-2,12-2.3,17.9-0.9c0.4,0.1,0.7,0.5,0.6,0.9c-0.1,0.4-0.5,0.7-0.9,0.6c0,0,0,0,0,0&#10;&#9;&#9;c-5.6-1.4-11.5-1.1-17,0.9l-1,0.4C361.3,345,359.7,345.4,358,345.5z"/>
	<path class="st4_san-fransisco-74" d="M213.5,300.9c-3.8,0-7.6-1.4-11.2-2.9c-2.2-0.9-4.5-1.7-6.8-2.3c-4.1-1-8.4-0.8-12.5-0.7&#10;&#9;&#9;c-1.4,0-2.8,0.1-4.2,0.1c-4.7,0-11.4-0.5-16.4-4.4c-0.3-0.3-0.4-0.8-0.1-1.1c0.3-0.3,0.8-0.4,1.1-0.1c4.6,3.6,11,4,15.4,4&#10;&#9;&#9;c1.3,0,2.7,0,4.1-0.1c4.3-0.1,8.7-0.2,12.9,0.8c2.4,0.6,4.7,1.4,7,2.3c4.8,1.9,9.4,3.6,14,2.3c0.4-0.1,0.9,0.1,1,0.5c0,0,0,0,0,0&#10;&#9;&#9;c0.1,0.4-0.1,0.8-0.5,1c0,0-0.1,0-0.1,0C216.1,300.7,214.8,300.9,213.5,300.9z"/>
	<path class="st3_san-fransisco-74" d="M169.7,341.9c-0.4,0-0.7-0.3-0.7-0.7l0,0V153.5c0-0.4,0.3-0.7,0.7-0.7c0.4,0,0.7,0.3,0.7,0.7c0,0,0,0,0,0&#10;&#9;&#9;v187.7C170.4,341.6,170,341.9,169.7,341.9C169.7,341.9,169.7,341.9,169.7,341.9z"/>
	<path class="st3_san-fransisco-74" d="M157.1,328.6L157.1,328.6c-0.4,0-0.7-0.3-0.7-0.7l0,0c0.3-52.1,0.6-151.2,0-154.9c-0.1-0.2,0-0.5,0.1-0.7&#10;&#9;&#9;c0.2-0.3,0.7-0.3,1-0.1c0,0,0,0,0,0c0.3,0.3,1,0.9,0.2,155.7C157.8,328.3,157.5,328.6,157.1,328.6z"/>
	<path class="st3_san-fransisco-74" d="M70.4,359.6c-0.4,0-0.7-0.3-0.7-0.7l0,0V156.1c0-0.4,0.3-0.7,0.7-0.7c0.4,0,0.7,0.3,0.7,0.7v202.8&#10;&#9;&#9;C71.1,359.3,70.8,359.6,70.4,359.6z"/>
	<path class="st3_san-fransisco-74" d="M39.4,357c-0.4,0-0.7-0.3-0.7-0.7l0,0V162.2c0-0.4,0.3-0.7,0.7-0.7s0.7,0.3,0.7,0.7v194.1&#10;&#9;&#9;C40.1,356.7,39.8,357,39.4,357C39.5,357,39.4,357,39.4,357z"/>
	<path class="st3_san-fransisco-74" d="M200.7,331.7c-0.4,0-0.7-0.3-0.7-0.7l0,0V185.4c0-0.4,0.3-0.7,0.7-0.7c0.4,0,0.7,0.3,0.7,0.7V331&#10;&#9;&#9;C201.4,331.4,201.1,331.7,200.7,331.7z"/>
	<path class="st3_san-fransisco-74" d="M190,321.6c-0.4,0-0.7-0.3-0.7-0.7l0,0V201.2c0-0.4,0.3-0.7,0.7-0.7c0.4,0,0.7,0.3,0.7,0.7c0,0,0,0,0,0v119.7&#10;&#9;&#9;C190.7,321.3,190.4,321.6,190,321.6C190,321.6,190,321.6,190,321.6z"/>
	<path class="st3_san-fransisco-74" d="M230.4,323c-0.4,0-0.7-0.3-0.7-0.7v-108c0-0.4,0.3-0.7,0.7-0.7c0.4,0,0.7,0.3,0.7,0.7c0,0,0,0,0,0v108.1&#10;&#9;&#9;C231.1,322.7,230.8,323,230.4,323z"/>
	<path class="st3_san-fransisco-74" d="M219.7,314.8c-0.4,0-0.7-0.3-0.7-0.7l0,0v-87.6c0-0.4,0.3-0.7,0.7-0.7c0.4,0,0.7,0.3,0.7,0.7c0,0,0,0,0,0v87.6&#10;&#9;&#9;C220.4,314.4,220.1,314.8,219.7,314.8C219.7,314.8,219.7,314.8,219.7,314.8z"/>
	<path class="st3_san-fransisco-74" d="M270.3,311.4c-0.4,0-0.7-0.3-0.7-0.7v0v-61.9c0-0.4,0.3-0.7,0.7-0.7c0.4,0,0.7,0.3,0.7,0.7c0,0,0,0,0,0v61.9&#10;&#9;&#9;C271,311.1,270.6,311.4,270.3,311.4z"/>
	<path class="st3_san-fransisco-74" d="M262,305c-0.4,0-0.7-0.3-0.7-0.7v0v-45.6c0-0.4,0.3-0.7,0.7-0.7c0.4,0,0.7,0.3,0.7,0.7v45.6&#10;&#9;&#9;C262.7,304.7,262.4,305,262,305z"/>
	<path class="st3_san-fransisco-74" d="M387.1,279c-0.4,0-0.7-0.3-0.7-0.7v0v-18.6c0-0.4,0.3-0.7,0.7-0.7c0.4,0,0.7,0.3,0.7,0.7v18.6&#10;&#9;&#9;C387.8,278.7,387.5,279,387.1,279z"/>
	<path class="st3_san-fransisco-74" d="M377.3,276.4c-0.4,0-0.7-0.3-0.7-0.7v0v-16c0-0.4,0.3-0.7,0.7-0.7c0.4,0,0.7,0.3,0.7,0.7v16&#10;&#9;&#9;C378,276.1,377.6,276.4,377.3,276.4z"/>
	<path class="st4_san-fransisco-74" d="M421.4,325.5c-2.6,0-5.2-0.1-7.7-0.3c-5.2-0.3-11-0.6-15.8-3.6l-0.3-0.2c-0.5-0.4-1.1-0.7-1.7-0.8&#10;&#9;&#9;c-0.8,0-1.6,0.3-2.2,0.7l-0.3,0.2c-4.7,2.4-10.2,2.4-14.9,0.1c-0.4-0.2-0.8-0.4-1.1-0.6c-0.7-0.4-1.5-0.8-2.3-1.1&#10;&#9;&#9;c-2-0.7-4.2-0.3-6.5,0.1c-0.8,0.1-1.5,0.2-2.3,0.3c-3.2,0.4-7.4-0.4-8.8-3.6c-0.2-0.4,0-0.8,0.4-1c0.4-0.2,0.8,0,1,0.4&#10;&#9;&#9;c1.1,2.5,4.6,3,7.2,2.7c0.7-0.1,1.5-0.2,2.2-0.3c2.4-0.4,4.9-0.8,7.3,0c0.9,0.3,1.8,0.7,2.6,1.2l1.1,0.6c4.2,2.1,9.2,2.1,13.5-0.1&#10;&#9;&#9;l0.3-0.2c0.9-0.6,2-0.9,3.1-0.9c0.9,0.1,1.7,0.5,2.4,1l0.3,0.2c4.5,2.8,10.1,3.1,15.1,3.3c4.7,0.4,9.4,0.4,14.1-0.1&#10;&#9;&#9;c2.7-0.4,5.4-1,8-2c0.4-0.1,0.9,0.1,1,0.5c0.2,0.4,0,0.8-0.4,1c0,0,0,0,0,0c-2.7,1-5.5,1.7-8.3,2.1&#10;&#9;&#9;C425.9,325.4,423.7,325.5,421.4,325.5z"/>
	<path class="st4_san-fransisco-74" d="M431.5,365.2c-4.6,0-8.2-1.1-10.8-3.3c-0.3-0.3-0.6-0.5-1-0.8c-0.8-0.9-1.7-1.5-2.8-1.9c-1-0.1-2.1,0-3.1,0.4&#10;&#9;&#9;c-13.6,4-24.1,3.3-31.2-2c-0.3-0.3-0.4-0.7-0.2-1.1c0.3-0.3,0.7-0.4,1.1-0.2c6.7,5,16.8,5.6,29.8,1.8c1.2-0.5,2.5-0.6,3.8-0.5&#10;&#9;&#9;c1.4,0.4,2.6,1.2,3.6,2.3c0.3,0.3,0.6,0.5,0.9,0.8c3,2.5,7.5,3.4,13.8,2.7c1.2-0.1,2.4-0.3,3.6-0.5c3.8-0.6,7.7-1.1,11.6-0.5&#10;&#9;&#9;c0.4,0.1,0.7,0.5,0.6,0.9c-0.1,0.4-0.5,0.7-0.9,0.6c-3.6-0.6-7.4,0-11.1,0.5c-1.2,0.2-2.4,0.4-3.6,0.5&#10;&#9;&#9;C434.2,365.1,432.9,365.2,431.5,365.2z"/>
	<path class="st4_san-fransisco-74" d="M263.2,348.2c-2.1,0-4.1-0.5-5.9-1.5c-0.7-0.4-1.3-0.8-1.9-1.2c-1-0.7-2-1.3-3.2-1.7c-1.9-0.6-4.1-0.2-6.2,0.2&#10;&#9;&#9;l-1.1,0.2c-6.9,1.3-14,0.6-20.5-1.9c-0.4-0.1-0.7-0.5-0.6-1s0.5-0.7,1-0.6c0.1,0,0.1,0,0.2,0.1c6.3,2.4,13.1,3,19.7,1.8l1.1-0.2&#10;&#9;&#9;c2.3-0.5,4.6-0.9,6.9-0.2c1.3,0.5,2.5,1.1,3.6,1.9c0.6,0.4,1.2,0.8,1.8,1.1c1.9,1,4,1.4,6,1.2c1.4-0.2,2.8-0.5,4.1-0.9&#10;&#9;&#9;c0.7-0.2,1.4-0.4,2.1-0.5c6.8-1.5,13.9-0.2,20.1,0.9c0.4,0.1,0.7,0.5,0.6,1c-0.1,0.4-0.5,0.6-0.8,0.6c-6.1-1.1-13.1-2.4-19.5-0.9&#10;&#9;&#9;c-0.7,0.2-1.3,0.3-2,0.5c-1.4,0.4-2.9,0.8-4.4,0.9C263.9,348.1,263.5,348.2,263.2,348.2z"/>
	<path class="st4_san-fransisco-74" d="M331.3,367.9c-1.5,0-2.9-0.3-4.3-0.9c-0.5-0.2-1-0.5-1.5-0.8c-0.7-0.4-1.4-0.7-2.1-1c-2.1-0.7-4.5,0-6.9,0.7&#10;&#9;&#9;l-0.7,0.2c-9.7,2.8-18.9,1.5-24.4-3.5l-0.5-0.5c-0.5-0.6-1.2-1.1-1.9-1.4c-1.6-0.8-3.6-0.2-5.5,0.3l-0.4,0.1&#10;&#9;&#9;c-8.3,2.3-17.2,2.1-25.3-0.7c-0.4-0.1-0.6-0.6-0.5-1c0,0,0,0,0,0c0.1-0.4,0.6-0.6,1-0.5c0,0,0,0,0,0c7.9,2.7,16.4,2.9,24.4,0.7&#10;&#9;&#9;l0.4-0.1c2.1-0.6,4.5-1.3,6.6-0.2c0.8,0.4,1.6,1,2.3,1.7l0.5,0.4c5.2,4.6,13.7,5.8,23,3.1l0.7-0.2c2.5-0.8,5.1-1.5,7.8-0.7&#10;&#9;&#9;c0.8,0.3,1.7,0.7,2.4,1.1c0.5,0.2,0.9,0.5,1.4,0.7c3.4,1.5,7.4,0.7,10.1-1.8c0.3-0.3,0.8-0.3,1.1,0c0.3,0.3,0.3,0.8,0,1.1&#10;&#9;&#9;c0,0,0,0,0,0C336.9,366.8,334.2,367.9,331.3,367.9z"/>
	<path class="st4_san-fransisco-74" d="M268.6,381.2c-4.2,0-8.3-1.5-11.5-4.2c-0.2-0.2-0.5-0.4-0.7-0.6c-0.7-0.8-1.6-1.4-2.6-1.9&#10;&#9;&#9;c-1.2-0.3-2.4-0.3-3.6-0.1c-7.5,0.9-15,1.4-22.6,1.5c-4,0-8.2-0.1-12.2-1.5c-3.9-1.3-7-4.1-8.6-7.9c-12.1,3.3-25,3.3-37.1,0&#10;&#9;&#9;c-0.4-0.1-0.7-0.5-0.6-1c0.1-0.4,0.5-0.7,1-0.6c12.1,3.4,24.9,3.3,37-0.2c0.4-0.1,0.9,0.1,1,0.5c0,0,0,0,0,0c1,3.3,3.9,6.1,7.9,7.6&#10;&#9;&#9;c3.7,1.4,7.8,1.4,11.7,1.4c7.5-0.1,15-0.5,22.4-1.4c1.4-0.3,2.9-0.2,4.3,0.1c1.2,0.5,2.3,1.2,3.2,2.2l0.7,0.6c5,4.2,12,5,17.9,2.1&#10;&#9;&#9;c0.4-0.2,0.8,0,1,0.3c0.2,0.4,0,0.8-0.3,1C274.2,380.5,271.4,381.2,268.6,381.2z"/>
	<path class="st4_san-fransisco-74" d="M433.9,310.3c-2.7,0-5.4-0.4-8-1.2c-0.4-0.1-0.6-0.6-0.5-1s0.6-0.6,1-0.5l0,0c7.8,2.4,16.3,0.9,23-3.8&#10;&#9;&#9;c0.9-0.6,2.2-1.6,3.6-1.1c0.7,0.3,1.3,0.8,1.8,1.5l0.2,0.2c2.6,3.1,7.1,3.8,10.5,1.7c0.4-0.2,0.8-0.1,1.1,0.2s0.1,0.8-0.2,1.1&#10;&#9;&#9;c-4.1,2.5-9.4,1.7-12.6-1.9l-0.2-0.2c-0.2-0.4-0.6-0.8-1-1c-0.6-0.2-1.4,0.3-2.2,0.9C445.5,308.5,439.8,310.3,433.9,310.3z"/>
</g>
<g id="Frame_san-fransisco-74">
	<path class="st3_san-fransisco-74" d="M474.8,396.5H25.2c-0.4,0-0.7-0.3-0.7-0.7l0,0V104.2c0-0.4,0.3-0.7,0.7-0.7h449.7c0.4,0,0.7,0.3,0.7,0.7v0&#10;&#9;&#9;v291.7C475.5,396.2,475.2,396.5,474.8,396.5z M25.8,395.1h448.3V104.8H25.9L25.8,395.1z"/>
</g>
<g id="Foreground_Foliage_san-fransisco-74">
	<path class="st3_san-fransisco-74" d="M333.8,395.9c0,0,3.7-6,8.4-7s1.1-7.4,7.4-11s13.7,0,16.3,0s6.8,7.4,12.6,3.1s12.1-10.6,18.4-4.8&#10;&#9;&#9;s3.7,9.4,12.6,8.7s13.1-6.6,17.3,0s15.8,11,15.8,11L333.8,395.9z"/>
	<path class="st3_san-fransisco-74" d="M442.5,396.5H333.8c-0.4,0-0.7-0.3-0.7-0.7c0-0.1,0-0.3,0.1-0.4c0.2-0.2,3.9-6.2,8.9-7.3&#10;&#9;&#9;c1.7-0.4,2-1.5,2.5-3.7c0.5-2.3,1.1-5.2,4.7-7.3c4.9-2.9,10.3-1.5,13.9-0.6c0.9,0.3,1.8,0.5,2.8,0.5c1.1,0,2.2,0.8,3.5,1.8&#10;&#9;&#9;c2.5,1.9,5.2,4,8.7,1.5c0.7-0.5,1.5-1.1,2.2-1.7c5.2-4,11.1-8.5,17-3c1.7,1.5,3.1,3.3,4.3,5.2c1.7,2.6,2.4,3.7,7.8,3.2&#10;&#9;&#9;c2.7-0.3,5.3-0.9,7.7-1.9c4-1.4,7.2-2.5,10.3,2.2c4,6.4,15.3,10.7,15.4,10.7c0.3,0.1,0.5,0.4,0.4,0.8&#10;&#9;&#9;C443.1,396.3,442.9,396.5,442.5,396.5z M335.1,395.1h104.1c-3.8-1.8-10-5.3-13-9.9c-2.4-3.8-4.6-3-8.6-1.6c-2.6,1-5.3,1.7-8.1,2&#10;&#9;&#9;c-6,0.5-7.2-0.9-9.1-3.9c-1.1-1.8-2.4-3.5-4-5c-5.1-4.7-10-0.9-15.2,3.1c-0.8,0.6-1.5,1.2-2.3,1.7c-4.3,3.1-8,0.4-10.4-1.5&#10;&#9;&#9;c-1-0.8-2-1.5-2.6-1.5c-1-0.1-2.1-0.3-3.1-0.6c-3.4-0.8-8.4-2.1-12.9,0.5c-3,1.8-3.5,4.2-4,6.4s-0.9,4.1-3.5,4.7&#10;&#9;&#9;C339.1,390.2,336.4,393.5,335.1,395.1z"/>
	<path class="st3_san-fransisco-74" d="M25.2,347.9c5.1,0.9,10.3,0.9,15.3,0c8.4-1.6,14.2-7.9,22.1-3.7s25.8,15.2,25.8,15.2c5.2-1,10.6-1,15.8,0&#10;&#9;&#9;c8.9,1.6,30,8.9,30,8.9s4.7-2.1,13.7,0s7.9,9.5,18.9,11s16.4,4.2,20.5,8.4s12.6,8,12.6,8H25.2V347.9z"/>
	<path class="st3_san-fransisco-74" d="M199.7,396.5H25.2c-0.4,0-0.7-0.3-0.7-0.7l0,0v-48c0-0.2,0.1-0.4,0.3-0.5c0.2-0.1,0.4-0.2,0.6-0.1&#10;&#9;&#9;c5,0.9,10,0.9,15,0c2.6-0.6,5.2-1.5,7.7-2.6c4.8-2,9.3-4,14.8-1c7.3,3.9,23.4,13.8,25.5,15.1c5.2-0.9,10.6-0.9,15.8,0&#10;&#9;&#9;c8.5,1.5,27.3,8,29.8,8.9c1.1-0.4,5.9-1.8,13.8,0.1c4.3,1,6.4,3.2,8.5,5.4c2.4,2.5,4.6,4.8,10.4,5.7c10.4,1.5,16.2,3.9,20.9,8.6&#10;&#9;&#9;c4,4.1,12.3,7.9,12.4,7.9c0.3,0.1,0.5,0.5,0.4,0.8C200.3,396.3,200,396.5,199.7,396.5z M25.9,395.1h170.9&#10;&#9;&#9;c-2.9-1.5-7.3-4.1-10.1-6.9c-3.7-3.7-8.6-6.6-20.1-8.2c-6.2-0.9-8.7-3.5-11.2-6.1c-2-2.1-3.9-4-7.8-5c-8.6-2-13.2-0.1-13.2,0&#10;&#9;&#9;c-0.2,0.1-0.4,0.1-0.5,0c-0.2-0.1-21.1-7.4-29.8-8.9c-5.1-0.9-10.4-0.9-15.5,0c-0.2,0-0.4,0-0.5-0.1c-0.2-0.1-17.9-11.1-25.7-15.2&#10;&#9;&#9;c-4.9-2.6-9-0.9-13.7,1.1c-2.6,1.2-5.2,2.1-8,2.7c-4.9,0.9-9.9,1-14.8,0.2L25.9,395.1z"/>
</g>
</svg>