<svg version="1.1" id="Layer_1" xmlns="http://www.w3.org/2000/svg" xmlns:xlink="http://www.w3.org/1999/xlink" x="0px" y="0px" viewBox="0 0 500 500" style="width: 162px;" xml:space="preserve" data-imageid="philadelphia-30" imageName="Philadelphia" class="illustrations_image">
<style type="text/css">
	.st0_philadelphia-30{fill:#68E1FD;}
	.st1_philadelphia-30{fill:#FFFFFF;}
	.st2_philadelphia-30{fill:#231F20;}
	.st3_philadelphia-30{fill:#D1D3D4;}
	.st4_philadelphia-30{fill:none;}
</style>
<g id="Sky_philadelphia-30">
	<rect x="25.2" y="104.2" class="st0_philadelphia-30 targetColor" width="449.7" height="291.7" style="fill: rgb(104, 225, 253);"/>
</g>
<g id="Cloud_philadelphia-30">
	<path class="st1_philadelphia-30" d="M390.7,234.8c4-3.9,8.2-7.5,12.5-11c6.3-4.3,11.3-5.7,18.6-6.7c17.7-2.5,34.9-6.7,53-7v185.8H25.2V158.7&#10;&#9;&#9;c6.2,6.3,10.4,14.2,12,22.8c27.5-18.2,70-6.4,84.2,23.3c5.5-5.4,13.8-6.8,20.7-3.4c6.8,3.4,10.4,11,9.7,18.4&#10;&#9;&#9;c9.8,0.6,18.4,6.4,23.6,14.6c4.7,7.3,6.9,15.9,8.7,24.3c13.6-1.2,27.2,0.7,39.9,5.6c7.4,2.9,15,7.4,17.6,14.9&#10;&#9;&#9;c13.6-3.9,29.5,2.5,36.6,14.8c-1-1.7,31.2-3.3,34.2-2.8c10.5,1.7,20.1,6.7,27.6,14.3c0.5-6.8,7.5-12.4,14.2-11.4&#10;&#9;&#9;c-2.3-4.9-3.8-10.3-4.3-15.7c-0.8-8.5,3.2-25,7.9-32.5c6.3-10.2,21.6-15.7,30.6-7.8C388,237.8,389,236.5,390.7,234.8z"/>
</g>
<g id="Background_Silhouette_philadelphia-30">
	<polygon class="st2_philadelphia-30" points="441.8,366.4 441.8,290.7 446.5,290.7 446.5,277.5 450.5,277.5 450.5,254.2 461.5,254.2 461.5,261.1 &#10;&#9;&#9;464.5,261.1 464.5,267.9 467,267.9 467,287.5 469.9,287.5 469.9,339.1 474.8,339.1 474.8,395.9 441.8,395.9 &#9;"/>
	<path class="st2_philadelphia-30" d="M474.8,396.5h-33c-0.4,0-0.7-0.3-0.7-0.7v0V290.7c0-0.4,0.3-0.7,0.7-0.7h0h4v-12.5c0-0.4,0.3-0.7,0.7-0.7h0&#10;&#9;&#9;h3.2v-22.5c0-0.4,0.3-0.7,0.7-0.7l0,0h11c0.4,0,0.7,0.3,0.7,0.7c0,0,0,0,0,0v6.2h2.3c0.4,0,0.7,0.3,0.7,0.7v6.1h1.8&#10;&#9;&#9;c0.4,0,0.7,0.3,0.7,0.7v0v19h2.2c0.4,0,0.7,0.3,0.7,0.7v0v50.9h4.2c0.4,0,0.7,0.3,0.7,0.7v0v56.8&#10;&#9;&#9;C475.5,396.2,475.2,396.5,474.8,396.5z M442.5,395.1h31.6v-55.4h-4.2c-0.4,0-0.7-0.3-0.7-0.7v0v-50.9H467c-0.4,0-0.7-0.3-0.7-0.7&#10;&#9;&#9;v-19h-1.8c-0.4,0-0.7-0.3-0.7-0.7v0v-6.1h-2.3c-0.4,0-0.7-0.3-0.7-0.7v0v-6.2h-9.6v22.5c0,0.4-0.3,0.7-0.7,0.7h0h-3.2v12.5&#10;&#9;&#9;c0,0.4-0.3,0.7-0.7,0.7h0h-4L442.5,395.1z"/>
	<polygon class="st2_philadelphia-30" points="438,390.5 438,209.7 432.4,209.7 430.8,181.4 406.3,181.4 403.7,209 397.2,209 397.2,392.5 &#9;"/>
	<path class="st2_philadelphia-30" d="M397.2,393.2c-0.2,0-0.4-0.1-0.5-0.2c-0.1-0.1-0.2-0.3-0.2-0.5V209c0-0.4,0.3-0.7,0.7-0.7l0,0h5.8l2.6-27&#10;&#9;&#9;c0-0.4,0.3-0.6,0.7-0.6h24.4c0.4,0,0.7,0.3,0.7,0.7L433,209h5c0.4,0,0.7,0.3,0.7,0.7v180.8c0,0.4-0.3,0.7-0.7,0.7L397.2,393.2&#10;&#9;&#9;L397.2,393.2z M398,209.7v182l39.4-2V210.4h-5c-0.4,0-0.7-0.3-0.7-0.7l-1.5-27.6H407l-2.6,27c0,0.4-0.3,0.6-0.7,0.6L398,209.7z&#10;&#9;&#9; M438,390.5L438,390.5z"/>
	<polygon class="st2_philadelphia-30" points="305.5,395.5 305.5,367.8 324.5,367.8 324.5,356.4 343.5,356.4 343.5,382.1 415.9,382.1 415.9,395.5 &#9;&#10;&#9;&#9;"/>
	<path class="st2_philadelphia-30" d="M415.9,396.2H305.5c-0.4,0-0.7-0.3-0.7-0.7v0v-27.7c0-0.4,0.3-0.7,0.7-0.7h0h18.2v-10.7c0-0.4,0.3-0.7,0.7-0.7&#10;&#9;&#9;h0h19c0.4,0,0.7,0.3,0.7,0.7v0v25h71.7c0.4,0,0.7,0.3,0.7,0.7v0v13.5C416.6,395.9,416.3,396.2,415.9,396.2z M306.2,394.8h109v-12.1&#10;&#9;&#9;h-71.7c-0.4,0-0.7-0.3-0.7-0.7v0v-25h-17.7v10.7c0,0.4-0.3,0.7-0.7,0.7h0h-18.2V394.8z"/>
	<polygon class="st2_philadelphia-30" points="262.1,294.4 262.1,269.5 259,266.4 303,266.4 300.8,268.6 300.8,395.9 263.6,395.9 &#9;"/>
	<path class="st2_philadelphia-30" d="M300.8,396.5h-37.2c-0.4,0-0.7-0.3-0.7-0.7c0,0,0,0,0,0l-1.6-101.4l0,0v-24.7l-2.8-2.8c-0.3-0.3-0.3-0.7,0-1&#10;&#9;&#9;c0.1-0.1,0.3-0.2,0.5-0.2h44c0.4,0,0.7,0.3,0.7,0.7c0,0.2-0.1,0.4-0.2,0.5l-2,2v127C301.5,396.3,301.2,396.5,300.8,396.5z&#10;&#9;&#9; M264.3,395.1h35.8V268.6c0-0.2,0.1-0.4,0.2-0.5l1-1h-40.6l1.8,1.8c0.1,0.1,0.2,0.3,0.2,0.5v25L264.3,395.1z"/>
	<polygon class="st2_philadelphia-30" points="234.5,395.9 234.5,327.1 240.2,327.1 240.2,291 263.6,291 263.6,395.9 &#9;"/>
	<path class="st2_philadelphia-30" d="M263.6,396.5h-29.2c-0.4,0-0.7-0.3-0.7-0.7l0,0v-68.8c0-0.4,0.3-0.7,0.7-0.7c0,0,0,0,0,0h5.1V291&#10;&#9;&#9;c0-0.4,0.3-0.7,0.7-0.7c0,0,0,0,0,0h23.4c0.4,0,0.7,0.3,0.7,0.7v0v104.9C264.3,396.2,264,396.5,263.6,396.5z M235.2,395.1h27.8&#10;&#9;&#9;V291.7H241v35.4c0,0.4-0.3,0.7-0.7,0.7c0,0,0,0,0,0h-5.1L235.2,395.1z"/>
</g>
<g id="Building_philadelphia-30">
	<polyline class="st1_philadelphia-30" points="217.6,248.7 217.6,239.6 213.2,235.6 213.2,228.3 208.6,224.3 208.6,216.9 203.4,212.2 196.6,212.2 &#10;&#9;&#9;191.2,217.3 191.2,223.8 186.7,228.3 186.7,236 181.9,239.4 181.9,250 217.2,247.9 &#9;"/>
	<path class="st2_philadelphia-30" d="M181.9,250.7c-0.4,0-0.7-0.3-0.7-0.7v-10.6c0-0.2,0.1-0.4,0.3-0.6l4.5-3.2v-7.3c0-0.2,0.1-0.4,0.2-0.5l4.3-4.3&#10;&#9;&#9;v-6.2c0-0.2,0.1-0.4,0.2-0.5l5.3-5c0.1-0.1,0.3-0.2,0.5-0.2h6.8c0.2,0,0.3,0.1,0.5,0.2l5.2,4.6c0.1,0.1,0.2,0.3,0.2,0.5v7.1&#10;&#9;&#9;l4.4,3.8c0.2,0.1,0.2,0.3,0.2,0.5v7l4.2,3.8c0.1,0.1,0.2,0.3,0.2,0.5v9.1c0,0.4-0.3,0.7-0.7,0.7c-0.4,0-0.7-0.3-0.7-0.7v-0.1&#10;&#9;&#9;L181.9,250.7L181.9,250.7z M182.6,239.8v9.5l34.4-2.1v-7.2l-4.2-3.8c-0.1-0.1-0.2-0.3-0.2-0.5v-7l-4.4-3.8&#10;&#9;&#9;c-0.1-0.1-0.2-0.3-0.2-0.5v-7.1l-4.8-4.2h-6.2l-4.9,4.6v6.2c0,0.2-0.1,0.4-0.2,0.5l-4.3,4.3v7.4c0,0.2-0.1,0.4-0.3,0.6L182.6,239.8&#10;&#9;&#9;z"/>
	<polygon class="st1_philadelphia-30" points="224.3,333.8 175.1,333.8 175.1,252.1 199.7,227.8 224.3,252.1 &#9;"/>
	<path class="st2_philadelphia-30" d="M224.3,334.5h-49.2c-0.4,0-0.7-0.3-0.7-0.7l0,0v-81.8c0-0.2,0.1-0.4,0.2-0.5l24.6-24.2c0.3-0.3,0.7-0.3,1,0&#10;&#9;&#9;c0,0,0,0,0,0l24.6,24.2c0.1,0.1,0.2,0.3,0.2,0.5v81.8C225,334.2,224.7,334.5,224.3,334.5C224.3,334.5,224.3,334.5,224.3,334.5z&#10;&#9;&#9; M175.8,333.1h47.8v-80.8l-23.9-23.6l-23.9,23.6V333.1z"/>
	<polygon class="st1_philadelphia-30" points="218.3,321.3 181.1,321.3 181.1,259.6 199.7,237.4 218.3,259.6 &#9;"/>
	<path class="st2_philadelphia-30" d="M218.3,322h-37.2c-0.4,0-0.7-0.3-0.7-0.7l0,0v-61.7c0-0.2,0.1-0.3,0.2-0.5l18.6-22.1c0.3-0.3,0.7-0.3,1-0.1&#10;&#9;&#9;c0,0,0,0,0.1,0.1l18.6,22.2c0.1,0.1,0.2,0.3,0.2,0.5v61.8C218.9,321.7,218.6,322,218.3,322z M181.8,320.6h35.8v-60.8l-17.9-21.3&#10;&#9;&#9;l-17.9,21.3V320.6z"/>
	<polygon class="st3_philadelphia-30" points="211.3,314.6 188,314.6 188,256.9 199.7,244.1 211.3,256.9 &#9;"/>
	<path class="st2_philadelphia-30" d="M211.3,315.3H188c-0.4,0-0.7-0.3-0.7-0.7l0,0v-57.8c0-0.2,0.1-0.3,0.2-0.5l11.7-12.7c0.3-0.3,0.7-0.3,1,0&#10;&#9;&#9;l11.7,12.7c0.1,0.1,0.2,0.3,0.2,0.5v57.8C212,315,211.7,315.3,211.3,315.3z M188.7,313.9h21.9v-56.8l-11-12l-11,12L188.7,313.9z"/>
	<polygon class="st2_philadelphia-30" points="120.9,222 123.3,237.7 118.4,245 114.6,233.1 &#9;"/>
	<path class="st2_philadelphia-30" d="M118.4,245.7L118.4,245.7c-0.4,0-0.6-0.2-0.7-0.5l-3.8-12c-0.1-0.2-0.1-0.4,0-0.6l6.2-11&#10;&#9;&#9;c0.1-0.3,0.4-0.4,0.7-0.3c0.3,0.1,0.5,0.3,0.6,0.6l2.5,15.6c0,0.2,0,0.4-0.1,0.5l-4.9,7.3C118.9,245.6,118.7,245.7,118.4,245.7z&#10;&#9;&#9; M115.4,233.1l3.3,10.3l3.9-5.9l-2.1-13.4L115.4,233.1z"/>
	<polygon class="st1_philadelphia-30" points="99.1,212.1 102.9,201.1 107,213 &#9;"/>
	<path class="st2_philadelphia-30" d="M107,213.7L107,213.7l-7.9-0.9c-0.4,0-0.7-0.4-0.6-0.8c0,0,0-0.1,0-0.1l3.8-11c0.1-0.3,0.4-0.5,0.7-0.5l0,0&#10;&#9;&#9;c0.3,0,0.6,0.2,0.7,0.5l4,11.9c0.1,0.2,0,0.5-0.1,0.7C107.4,213.6,107.2,213.7,107,213.7z M100.1,211.5l5.9,0.7l-3-9L100.1,211.5z"/>
	<polygon class="st1_philadelphia-30" points="84.2,235.6 86,221.3 102.5,208.5 120.9,222 117.8,236.1 &#9;"/>
	<path class="st2_philadelphia-30" d="M117.8,236.8L117.8,236.8l-33.6-0.5c-0.2,0-0.4-0.1-0.5-0.2c-0.1-0.2-0.2-0.4-0.2-0.6l1.8-14.3&#10;&#9;&#9;c0-0.2,0.1-0.3,0.3-0.5l16.5-12.8c0.3-0.2,0.6-0.2,0.8,0l18.4,13.5c0.2,0.2,0.3,0.4,0.3,0.7l-3.1,14.1&#10;&#9;&#9;C118.4,236.6,118.1,236.8,117.8,236.8z M84.9,234.9l32.3,0.5l2.9-13.1l-17.6-12.9l-15.9,12.3L84.9,234.9z"/>
	<polygon class="st1_philadelphia-30" points="80.5,395.9 80.5,245.5 84.2,235.6 102.5,212.1 117.8,236.1 117.8,395.9 &#9;"/>
	<path class="st2_philadelphia-30" d="M117.8,396.5H80.5c-0.4,0-0.7-0.3-0.7-0.7l0,0V245.5c0-0.1,0-0.2,0-0.2l3.7-10c0-0.1,0.1-0.1,0.1-0.2&#10;&#9;&#9;l18.4-23.4c0.1-0.2,0.4-0.3,0.6-0.3c0.2,0,0.4,0.1,0.6,0.3l15.3,24c0.1,0.1,0.1,0.2,0.1,0.4v159.7&#10;&#9;&#9;C118.5,396.2,118.2,396.6,117.8,396.5C117.8,396.6,117.8,396.6,117.8,396.5z M81.2,395.1h35.9V236.3l-14.6-22.9l-17.7,22.6&#10;&#9;&#9;l-3.6,9.8V395.1z"/>
	<rect x="72.2" y="276.7" class="st1_philadelphia-30" width="56.8" height="119.2"/>
	<path class="st2_philadelphia-30" d="M129,396.5H72.2c-0.4,0-0.7-0.3-0.7-0.7l0,0V276.7c0-0.4,0.3-0.7,0.7-0.7H129c0.4,0,0.7,0.3,0.7,0.7v119.2&#10;&#9;&#9;C129.7,396.2,129.4,396.5,129,396.5z M72.9,395.1h55.4V277.4H72.9L72.9,395.1z"/>
	<polygon class="st3_philadelphia-30" points="111.4,395.9 88.2,395.9 88.2,246.6 99.8,231.6 111.4,246.6 &#9;"/>
	<path class="st2_philadelphia-30" d="M111.4,396.5H88.2c-0.4,0-0.7-0.3-0.7-0.7l0,0V246.6c0-0.2,0.1-0.3,0.2-0.4l11.6-15c0.2-0.3,0.7-0.3,1-0.1&#10;&#9;&#9;c0,0,0.1,0.1,0.1,0.1l11.6,15c0.1,0.1,0.1,0.3,0.2,0.4v149.2C112.1,396.2,111.8,396.5,111.4,396.5z M88.9,395.1h21.8V246.8&#10;&#9;&#9;l-10.9-14.1l-10.9,14.1V395.1z"/>
	<path class="st2_philadelphia-30" d="M111.4,295.1H88.2c-0.4,0-0.7-0.3-0.7-0.7c0-0.4,0.3-0.7,0.7-0.7h23.2c0.4,0,0.7,0.3,0.7,0.7&#10;&#9;&#9;C112.1,294.8,111.8,295.1,111.4,295.1C111.4,295.1,111.4,295.1,111.4,295.1z"/>
	<path class="st2_philadelphia-30" d="M111.4,314.4H88.2c-0.4,0-0.7-0.3-0.7-0.7c0-0.4,0.3-0.7,0.7-0.7h23.2c0.4,0,0.7,0.3,0.7,0.7&#10;&#9;&#9;C112.1,314.1,111.8,314.4,111.4,314.4z"/>
	<path class="st2_philadelphia-30" d="M111.4,332H88.2c-0.4,0-0.7-0.3-0.7-0.7c0-0.4,0.3-0.7,0.7-0.7c0,0,0,0,0,0h23.2c0.4,0,0.7,0.3,0.7,0.7&#10;&#9;&#9;C112.1,331.7,111.8,332,111.4,332C111.4,332,111.4,332,111.4,332z"/>
	<polygon class="st1_philadelphia-30" points="117.8,243.4 120.9,231.6 125.6,238.8 124,250 124,276.7 117.8,276.7 &#9;"/>
	<path class="st2_philadelphia-30" d="M124,277.4h-6.2c-0.4,0-0.7-0.3-0.7-0.7l0,0v-33.3c0-0.1,0-0.1,0-0.2l3.1-11.8c0.1-0.3,0.3-0.5,0.6-0.5&#10;&#9;&#9;c0.3-0.1,0.6,0.1,0.7,0.3l4.7,7.2c0.1,0.1,0.1,0.3,0.1,0.5l-1.6,11.2v26.6C124.7,277.1,124.4,277.4,124,277.4z M118.5,276h4.8v-26&#10;&#9;&#9;l1.6-11l-3.7-5.7l-2.7,10.1V276z"/>
	<polygon class="st2_philadelphia-30" points="125.6,238.8 127.1,251.2 127.8,276.7 124,276.7 124,250 &#9;"/>
	<path class="st2_philadelphia-30" d="M127.8,277.4H124c-0.4,0-0.7-0.3-0.7-0.7l0,0V250l1.6-11.2c0-0.3,0.3-0.6,0.7-0.6l0,0c0.4,0,0.6,0.3,0.7,0.6&#10;&#9;&#9;l1.5,12.4l0.7,25.6c0,0.2-0.1,0.4-0.2,0.5C128.1,277.3,127.9,277.4,127.8,277.4z M124.8,276.7L124.8,276.7z M124.8,276h2.3&#10;&#9;&#9;l-0.6-24.8l-0.9-7l-0.8,5.9L124.8,276z"/>
	<path class="st2_philadelphia-30" d="M111.4,261.2H88.2c-0.4,0-0.7-0.3-0.7-0.7c0-0.4,0.3-0.7,0.7-0.7c0,0,0,0,0,0h23.2c0.4,0,0.7,0.3,0.7,0.7&#10;&#9;&#9;C112.1,260.9,111.8,261.2,111.4,261.2C111.4,261.2,111.4,261.2,111.4,261.2z"/>
	<path class="st2_philadelphia-30" d="M111.4,278.2H88.2c-0.4,0-0.7-0.3-0.7-0.7c0-0.4,0.3-0.7,0.7-0.7h23.2c0.4,0,0.7,0.3,0.7,0.7&#10;&#9;&#9;C112.1,277.9,111.8,278.2,111.4,278.2z"/>
	<polygon class="st2_philadelphia-30" points="129,276.7 133.1,280.6 133.1,395.9 129,395.9 &#9;"/>
	<path class="st2_philadelphia-30" d="M133.1,396.5H129c-0.4,0-0.7-0.3-0.7-0.7l0,0V276.7c0-0.4,0.3-0.7,0.7-0.7c0.2,0,0.3,0.1,0.5,0.2l4.1,3.9&#10;&#9;&#9;c0.1,0.1,0.2,0.3,0.2,0.5v115.2C133.8,396.2,133.5,396.6,133.1,396.5C133.1,396.6,133.1,396.6,133.1,396.5z M129.7,395.1h2.7V280.9&#10;&#9;&#9;l-2.7-2.6V395.1z"/>
	<line class="st4_philadelphia-30" x1="124" y1="261.9" x2="127.8" y2="264"/>
	<path class="st2_philadelphia-30" d="M127.8,264.7c-0.1,0-0.2,0-0.3-0.1l-3.8-2.1c-0.3-0.2-0.5-0.6-0.3-1c0,0,0,0,0,0c0.2-0.3,0.6-0.5,0.9-0.3&#10;&#9;&#9;c0,0,0.1,0,0.1,0l3.7,2.1c0.3,0.2,0.5,0.6,0.3,1C128.3,264.5,128.1,264.6,127.8,264.7L127.8,264.7z"/>
	<polygon class="st1_philadelphia-30" points="84.2,235.6 100.5,219.4 117.8,236.1 102.5,208.5 &#9;"/>
	<path class="st2_philadelphia-30" d="M117.8,236.8c-0.2,0-0.4-0.1-0.5-0.2l-16.8-16.2l-15.8,15.6c-0.3,0.3-0.7,0.3-1,0c-0.2-0.2-0.3-0.6-0.1-0.9&#10;&#9;&#9;l18.4-27.1c0.1-0.2,0.4-0.3,0.6-0.3c0.2,0,0.5,0.1,0.6,0.4l15.3,27.6c0.2,0.3,0.1,0.7-0.2,0.9C118.1,236.7,117.9,236.8,117.8,236.8&#10;&#9;&#9;z M100.5,218.7c0.2,0,0.4,0.1,0.5,0.2l14,13.4l-12.5-22.5L88.7,230l11.3-11.1C100.1,218.8,100.3,218.7,100.5,218.7z"/>
	<polygon class="st1_philadelphia-30" points="86,287.1 99.7,292.9 99.7,307.4 99.7,395.9 88.9,395.9 76.8,302.6 &#9;"/>
	<path class="st2_philadelphia-30" d="M99.7,396.5H88.9c-0.4,0-0.6-0.3-0.7-0.6l-12.1-93.3c0-0.2,0-0.3,0.1-0.5l9.2-15.5c0.2-0.3,0.5-0.4,0.9-0.3&#10;&#9;&#9;l13.7,5.8c0.3,0.1,0.4,0.4,0.4,0.6v103C100.4,396.2,100,396.5,99.7,396.5L99.7,396.5z M89.5,395.1H99V293.3L86.3,288l-8.8,14.8&#10;&#9;&#9;L89.5,395.1z"/>
	<rect x="48" y="294.4" class="st1_philadelphia-30" width="40.9" height="101.4"/>
	<path class="st2_philadelphia-30" d="M88.9,396.5H48c-0.4,0-0.7-0.3-0.7-0.7l0,0V294.4c0-0.4,0.3-0.7,0.7-0.7c0,0,0,0,0,0h40.9&#10;&#9;&#9;c0.4,0,0.7,0.3,0.7,0.7l0,0v101.4C89.6,396.2,89.3,396.5,88.9,396.5z M48.6,395.1h39.5v-100H48.7L48.6,395.1z"/>
	<path class="st3_philadelphia-30" d="M84.2,300.6H52.8c-0.4,0-0.8-0.2-0.8-0.6c0-0.4,0.2-0.8,0.6-0.8c0.1,0,0.1,0,0.2,0h31.3c0.4,0,0.7,0.4,0.6,0.8&#10;&#9;&#9;C84.7,300.3,84.5,300.6,84.2,300.6z"/>
	<path class="st3_philadelphia-30" d="M84.2,306.4H52.8c-0.4,0-0.7-0.3-0.7-0.7c0-0.4,0.3-0.7,0.7-0.7l0,0h31.3c0.4,0,0.7,0.3,0.7,0.7&#10;&#9;&#9;C84.9,306.1,84.5,306.4,84.2,306.4z"/>
	<path class="st3_philadelphia-30" d="M84.2,312.1H52.8c-0.4,0-0.8-0.2-0.8-0.6c0-0.4,0.2-0.8,0.6-0.8c0.1,0,0.1,0,0.2,0h31.3c0.4,0,0.7,0.4,0.6,0.8&#10;&#9;&#9;C84.7,311.8,84.5,312.1,84.2,312.1z"/>
	<path class="st3_philadelphia-30" d="M84.2,317.9H52.8c-0.4,0-0.7-0.3-0.7-0.7c0-0.4,0.3-0.7,0.7-0.7l0,0h31.3c0.4,0,0.7,0.3,0.7,0.7&#10;&#9;&#9;C84.9,317.6,84.5,317.9,84.2,317.9z"/>
	<path class="st3_philadelphia-30" d="M84.2,323.6H52.8c-0.4,0-0.8-0.2-0.8-0.6c0-0.4,0.2-0.8,0.6-0.8c0.1,0,0.1,0,0.2,0h31.3c0.4,0,0.7,0.4,0.6,0.8&#10;&#9;&#9;C84.7,323.3,84.5,323.6,84.2,323.6z"/>
	<path class="st3_philadelphia-30" d="M84.2,329.4H52.8c-0.4,0-0.7-0.3-0.7-0.7c0-0.4,0.3-0.7,0.7-0.7l0,0h31.3c0.4,0,0.7,0.3,0.7,0.7&#10;&#9;&#9;C84.9,329,84.5,329.4,84.2,329.4z"/>
	<path class="st3_philadelphia-30" d="M84.2,335.1H52.8c-0.4,0-0.8-0.2-0.8-0.6c0-0.4,0.2-0.8,0.6-0.8c0.1,0,0.1,0,0.2,0h31.3c0.4,0,0.7,0.4,0.6,0.8&#10;&#9;&#9;C84.7,334.8,84.5,335.1,84.2,335.1z"/>
	<path class="st3_philadelphia-30" d="M84.2,340.9H52.8c-0.4,0-0.7-0.3-0.7-0.7c0-0.4,0.3-0.7,0.7-0.7l0,0h31.3c0.4,0,0.7,0.3,0.7,0.7&#10;&#9;&#9;C84.9,340.5,84.5,340.9,84.2,340.9z"/>
	<path class="st3_philadelphia-30" d="M84.2,346.6H52.8c-0.4,0-0.8-0.2-0.8-0.6c0-0.4,0.2-0.8,0.6-0.8c0.1,0,0.1,0,0.2,0h31.3c0.4,0,0.7,0.4,0.6,0.8&#10;&#9;&#9;C84.7,346.3,84.5,346.6,84.2,346.6z"/>
	<path class="st3_philadelphia-30" d="M84.2,352.3H52.8c-0.4,0-0.7-0.3-0.7-0.7c0-0.4,0.3-0.7,0.7-0.7l0,0h31.3c0.4,0,0.7,0.3,0.7,0.7&#10;&#9;&#9;C84.9,352,84.5,352.3,84.2,352.3z"/>
	<path class="st3_philadelphia-30" d="M84.2,358.1H52.8c-0.4,0-0.8-0.2-0.8-0.6c0-0.4,0.2-0.8,0.6-0.8c0.1,0,0.1,0,0.2,0h31.3c0.4,0,0.7,0.4,0.6,0.8&#10;&#9;&#9;C84.7,357.8,84.5,358.1,84.2,358.1z"/>
	<path class="st3_philadelphia-30" d="M84.2,363.8H52.8c-0.4,0-0.7-0.3-0.7-0.7c0-0.4,0.3-0.7,0.7-0.7l0,0h31.3c0.4,0,0.7,0.3,0.7,0.7&#10;&#9;&#9;C84.9,363.5,84.5,363.8,84.2,363.8z"/>
	<path class="st3_philadelphia-30" d="M84.2,369.6H52.8c-0.4,0-0.8-0.2-0.8-0.6c0-0.4,0.2-0.8,0.6-0.8c0.1,0,0.1,0,0.2,0h31.3c0.4,0,0.7,0.4,0.6,0.8&#10;&#9;&#9;C84.7,369.3,84.5,369.5,84.2,369.6z"/>
	<path class="st3_philadelphia-30" d="M84.2,375.3H52.8c-0.4,0-0.7-0.3-0.7-0.7c0-0.4,0.3-0.7,0.7-0.7l0,0h31.3c0.4,0,0.7,0.3,0.7,0.7&#10;&#9;&#9;C84.9,375,84.5,375.3,84.2,375.3z"/>
	<path class="st3_philadelphia-30" d="M84.2,381.1H52.8c-0.4,0-0.8-0.2-0.8-0.6c0-0.4,0.2-0.8,0.6-0.8c0.1,0,0.1,0,0.2,0h31.3c0.4,0,0.7,0.4,0.6,0.8&#10;&#9;&#9;C84.7,380.8,84.5,381,84.2,381.1z"/>
	<rect x="138.3" y="307.4" class="st1_philadelphia-30" width="9.8" height="88.4"/>
	<path class="st2_philadelphia-30" d="M148.1,396.5h-9.8c-0.4,0-0.7-0.3-0.7-0.7l0,0v-88.4c0-0.4,0.3-0.7,0.7-0.7c0,0,0,0,0,0h9.8&#10;&#9;&#9;c0.4,0,0.7,0.3,0.7,0.7l0,0v88.4C148.8,396.2,148.5,396.5,148.1,396.5z M139,395.1h8.4v-87H139L139,395.1z"/>
	<rect x="148.2" y="307.4" class="st1_philadelphia-30" width="70.1" height="88.4"/>
	<path class="st2_philadelphia-30" d="M218.3,396.5h-70.1c-0.4,0-0.7-0.3-0.7-0.7l0,0v-88.4c0-0.4,0.3-0.7,0.7-0.7c0,0,0,0,0,0h70.1&#10;&#9;&#9;c0.4,0,0.7,0.3,0.7,0.7l0,0v88.4C219,396.2,218.7,396.5,218.3,396.5z M148.9,395.1h68.7v-87h-68.7V395.1z"/>
	<rect x="218.3" y="307.4" class="st1_philadelphia-30" width="11.7" height="88.4"/>
	<path class="st2_philadelphia-30" d="M230,396.5h-11.7c-0.4,0-0.7-0.3-0.7-0.7l0,0v-88.4c0-0.4,0.3-0.7,0.7-0.7c0,0,0,0,0,0H230&#10;&#9;&#9;c0.4,0,0.7,0.3,0.7,0.7l0,0v88.4C230.7,396.2,230.4,396.5,230,396.5z M219,395.1h10.3v-87H219V395.1z"/>
	<path class="st3_philadelphia-30" d="M213.6,323.1h-61.8c-0.4,0-0.8-0.2-0.8-0.6c0-0.4,0.2-0.8,0.6-0.8c0.1,0,0.1,0,0.2,0h61.8&#10;&#9;&#9;c0.4,0,0.8,0.2,0.8,0.6c0,0.4-0.2,0.8-0.6,0.8C213.7,323.1,213.7,323.1,213.6,323.1L213.6,323.1z"/>
	<path class="st3_philadelphia-30" d="M213.6,329.4h-61.8c-0.4,0-0.7-0.3-0.7-0.7c0-0.4,0.3-0.7,0.7-0.7h61.8c0.4,0,0.7,0.3,0.7,0.7&#10;&#9;&#9;C214.3,329.1,214,329.4,213.6,329.4L213.6,329.4z"/>
	<path class="st3_philadelphia-30" d="M213.6,335.7h-61.8c-0.4,0-0.8-0.2-0.8-0.6c0-0.4,0.2-0.8,0.6-0.8c0.1,0,0.1,0,0.2,0h61.8&#10;&#9;&#9;c0.4,0,0.8,0.2,0.8,0.6c0,0.4-0.2,0.8-0.6,0.8C213.7,335.7,213.7,335.7,213.6,335.7L213.6,335.7z"/>
	<path class="st3_philadelphia-30" d="M213.6,342h-61.8c-0.4,0-0.8-0.2-0.8-0.6c0-0.4,0.2-0.8,0.6-0.8c0.1,0,0.1,0,0.2,0h61.8c0.4,0,0.8,0.2,0.8,0.6&#10;&#9;&#9;c0,0.4-0.2,0.8-0.6,0.8C213.7,342,213.7,342,213.6,342L213.6,342z"/>
	<path class="st3_philadelphia-30" d="M213.6,348.3h-61.8c-0.4,0-0.7-0.3-0.7-0.7c0-0.4,0.3-0.7,0.7-0.7h61.8c0.4,0,0.7,0.3,0.7,0.7&#10;&#9;&#9;C214.3,348,214,348.3,213.6,348.3L213.6,348.3z"/>
	<path class="st3_philadelphia-30" d="M213.6,354.6h-61.8c-0.4,0-0.8-0.2-0.8-0.6c0-0.4,0.2-0.8,0.6-0.8c0.1,0,0.1,0,0.2,0h61.8&#10;&#9;&#9;c0.4,0,0.8,0.2,0.8,0.6c0,0.4-0.2,0.8-0.6,0.8C213.7,354.6,213.7,354.6,213.6,354.6L213.6,354.6z"/>
	<path class="st3_philadelphia-30" d="M213.6,361h-61.8c-0.4,0-0.8-0.2-0.8-0.6c0-0.4,0.2-0.8,0.6-0.8c0.1,0,0.1,0,0.2,0h61.8c0.4,0,0.8,0.2,0.8,0.6&#10;&#9;&#9;c0,0.4-0.2,0.8-0.6,0.8C213.7,361,213.7,361,213.6,361L213.6,361z"/>
	<path class="st3_philadelphia-30" d="M213.6,366.9h-61.8c-0.4,0-0.8-0.2-0.8-0.6c0-0.4,0.2-0.8,0.6-0.8c0.1,0,0.1,0,0.2,0h61.8&#10;&#9;&#9;c0.4,0,0.8,0.2,0.8,0.6c0,0.4-0.2,0.8-0.6,0.8C213.7,366.9,213.7,366.9,213.6,366.9L213.6,366.9z"/>
	<path class="st3_philadelphia-30" d="M213.6,373.2h-61.8c-0.4,0-0.8-0.2-0.8-0.6c0-0.4,0.2-0.8,0.6-0.8c0.1,0,0.1,0,0.2,0h61.8&#10;&#9;&#9;c0.4,0,0.8,0.2,0.8,0.6c0,0.4-0.2,0.8-0.6,0.8C213.7,373.3,213.7,373.3,213.6,373.2L213.6,373.2z"/>
	<path class="st3_philadelphia-30" d="M213.6,379.5h-61.8c-0.4,0-0.7-0.3-0.7-0.7c0-0.4,0.3-0.7,0.7-0.7h61.8c0.4,0,0.7,0.3,0.7,0.7&#10;&#9;&#9;C214.3,379.2,214,379.5,213.6,379.5L213.6,379.5z"/>
	<path class="st3_philadelphia-30" d="M213.6,385.9h-61.8c-0.4,0-0.8-0.2-0.8-0.6c0-0.4,0.2-0.8,0.6-0.8c0.1,0,0.1,0,0.2,0h61.8&#10;&#9;&#9;c0.4,0,0.8,0.2,0.8,0.6c0,0.4-0.2,0.8-0.6,0.8C213.7,385.9,213.7,385.9,213.6,385.9L213.6,385.9z"/>
	<path class="st3_philadelphia-30" d="M146.3,323.1h-5.9c-0.4,0-0.8-0.2-0.8-0.6c0-0.4,0.2-0.8,0.6-0.8c0.1,0,0.1,0,0.2,0h5.9c0.4,0,0.7,0.4,0.6,0.8&#10;&#9;&#9;C146.9,322.8,146.6,323.1,146.3,323.1z"/>
	<path class="st3_philadelphia-30" d="M146.3,329.4h-5.9c-0.4,0-0.7-0.3-0.7-0.7c0-0.4,0.3-0.7,0.7-0.7h5.9c0.4,0,0.7,0.3,0.7,0.7&#10;&#9;&#9;C147,329.1,146.7,329.4,146.3,329.4z"/>
	<path class="st3_philadelphia-30" d="M146.3,335.7h-5.9c-0.4,0-0.8-0.2-0.8-0.6c0-0.4,0.2-0.8,0.6-0.8c0.1,0,0.1,0,0.2,0h5.9c0.4,0,0.7,0.4,0.6,0.8&#10;&#9;&#9;C146.9,335.4,146.6,335.7,146.3,335.7z"/>
	<path class="st3_philadelphia-30" d="M146.3,342h-5.9c-0.4,0-0.8-0.2-0.8-0.6c0-0.4,0.2-0.8,0.6-0.8c0.1,0,0.1,0,0.2,0h5.9c0.4,0,0.7,0.4,0.6,0.8&#10;&#9;&#9;C146.9,341.7,146.6,342,146.3,342z"/>
	<path class="st3_philadelphia-30" d="M146.3,348.3h-5.9c-0.4,0-0.7-0.3-0.7-0.7c0-0.4,0.3-0.7,0.7-0.7h5.9c0.4,0,0.7,0.3,0.7,0.7&#10;&#9;&#9;C147,348,146.7,348.3,146.3,348.3z"/>
	<path class="st3_philadelphia-30" d="M146.3,354.6h-5.9c-0.4,0-0.8-0.2-0.8-0.6c0-0.4,0.2-0.8,0.6-0.8c0.1,0,0.1,0,0.2,0h5.9c0.4,0,0.7,0.4,0.6,0.8&#10;&#9;&#9;C146.9,354.3,146.6,354.6,146.3,354.6z"/>
	<path class="st3_philadelphia-30" d="M146.3,361h-5.9c-0.4,0-0.8-0.2-0.8-0.6c0-0.4,0.2-0.8,0.6-0.8c0.1,0,0.1,0,0.2,0h5.9c0.4,0,0.7,0.4,0.6,0.8&#10;&#9;&#9;C146.9,360.7,146.6,361,146.3,361z"/>
	<path class="st3_philadelphia-30" d="M227.4,323.1h-6.2c-0.4,0-0.7-0.4-0.6-0.8c0-0.3,0.3-0.6,0.6-0.6h6.2c0.4,0,0.8,0.2,0.8,0.6&#10;&#9;&#9;c0,0.4-0.2,0.8-0.6,0.8C227.5,323.1,227.5,323.1,227.4,323.1z"/>
	<path class="st3_philadelphia-30" d="M227.4,329.4h-6.2c-0.4,0-0.7-0.3-0.7-0.7c0-0.4,0.3-0.7,0.7-0.7h6.2c0.4,0,0.7,0.3,0.7,0.7&#10;&#9;&#9;C228.1,329.1,227.8,329.4,227.4,329.4z"/>
	<path class="st3_philadelphia-30" d="M227.4,335.7h-6.2c-0.4,0-0.7-0.4-0.6-0.8c0-0.3,0.3-0.6,0.6-0.6h6.2c0.4,0,0.8,0.2,0.8,0.6&#10;&#9;&#9;c0,0.4-0.2,0.8-0.6,0.8C227.5,335.7,227.5,335.7,227.4,335.7z"/>
	<path class="st3_philadelphia-30" d="M227.4,342h-6.2c-0.4,0-0.7-0.4-0.6-0.8c0-0.3,0.3-0.6,0.6-0.6h6.2c0.4,0,0.8,0.2,0.8,0.6&#10;&#9;&#9;c0,0.4-0.2,0.8-0.6,0.8C227.5,342,227.5,342,227.4,342z"/>
	<path class="st3_philadelphia-30" d="M227.4,348.3h-6.2c-0.4,0-0.7-0.3-0.7-0.7c0-0.4,0.3-0.7,0.7-0.7h6.2c0.4,0,0.7,0.3,0.7,0.7&#10;&#9;&#9;C228.1,348,227.8,348.3,227.4,348.3z"/>
	<path class="st3_philadelphia-30" d="M227.4,354.6h-6.2c-0.4,0-0.7-0.4-0.6-0.8c0-0.3,0.3-0.6,0.6-0.6h6.2c0.4,0,0.8,0.2,0.8,0.6&#10;&#9;&#9;c0,0.4-0.2,0.8-0.6,0.8C227.5,354.6,227.5,354.6,227.4,354.6z"/>
	<path class="st3_philadelphia-30" d="M227.4,361h-6.2c-0.4,0-0.7-0.4-0.6-0.8c0-0.3,0.3-0.6,0.6-0.6h6.2c0.4,0,0.8,0.2,0.8,0.6&#10;&#9;&#9;c0,0.4-0.2,0.8-0.6,0.8C227.5,361,227.5,361,227.4,361z"/>
	<path class="st3_philadelphia-30" d="M227.4,361h-6.2c-0.4,0-0.7-0.4-0.6-0.8c0-0.3,0.3-0.6,0.6-0.6h6.2c0.4,0,0.8,0.2,0.8,0.6&#10;&#9;&#9;c0,0.4-0.2,0.8-0.6,0.8C227.5,361,227.5,361,227.4,361z"/>
	<path class="st3_philadelphia-30" d="M227.4,367.3h-6.2c-0.4,0-0.7-0.4-0.6-0.8c0-0.3,0.3-0.6,0.6-0.6h6.2c0.4,0,0.8,0.2,0.8,0.6&#10;&#9;&#9;c0,0.4-0.2,0.8-0.6,0.8C227.5,367.3,227.5,367.3,227.4,367.3z"/>
	<path class="st3_philadelphia-30" d="M227.4,373.6h-6.2c-0.4,0-0.7-0.3-0.7-0.7c0-0.4,0.3-0.7,0.7-0.7h6.2c0.4,0,0.7,0.3,0.7,0.7&#10;&#9;&#9;C228.1,373.2,227.8,373.6,227.4,373.6z"/>
	<path class="st3_philadelphia-30" d="M227.4,379.9h-6.2c-0.4,0-0.7-0.4-0.6-0.8c0-0.3,0.3-0.6,0.6-0.6h6.2c0.4,0,0.8,0.2,0.8,0.6&#10;&#9;&#9;c0,0.4-0.2,0.8-0.6,0.8C227.5,379.9,227.5,379.9,227.4,379.9z"/>
	<path class="st3_philadelphia-30" d="M227.4,386.2h-6.2c-0.4,0-0.7-0.4-0.6-0.8c0-0.3,0.3-0.6,0.6-0.6h6.2c0.4,0,0.8,0.2,0.8,0.6&#10;&#9;&#9;c0,0.4-0.2,0.8-0.6,0.8C227.5,386.2,227.5,386.2,227.4,386.2z"/>
	<path class="st3_philadelphia-30" d="M159.1,316.7h-7.3c-0.4,0-0.8-0.2-0.8-0.6c0-0.4,0.2-0.8,0.6-0.8c0.1,0,0.1,0,0.2,0h7.3c0.4,0,0.8,0.2,0.8,0.6&#10;&#9;&#9;c0,0.4-0.2,0.8-0.6,0.8C159.2,316.7,159.2,316.7,159.1,316.7z"/>
	<path class="st3_philadelphia-30" d="M168.2,316.7h-7.3c-0.4,0-0.7-0.4-0.6-0.8c0-0.3,0.3-0.6,0.6-0.6h7.3c0.4,0,0.8,0.2,0.8,0.6&#10;&#9;&#9;c0,0.4-0.2,0.8-0.6,0.8C168.3,316.7,168.3,316.7,168.2,316.7z"/>
	<path class="st3_philadelphia-30" d="M177.3,316.7H170c-0.4,0-0.7-0.4-0.6-0.8c0-0.3,0.3-0.6,0.6-0.6h7.3c0.4,0,0.7,0.4,0.6,0.8&#10;&#9;&#9;C177.9,316.4,177.7,316.6,177.3,316.7L177.3,316.7z"/>
	<path class="st3_philadelphia-30" d="M186.4,316.7H179c-0.4,0-0.7-0.4-0.6-0.8c0-0.3,0.3-0.6,0.6-0.6h7.3c0.4,0,0.7,0.4,0.6,0.8&#10;&#9;&#9;C186.9,316.4,186.7,316.6,186.4,316.7L186.4,316.7z"/>
	<path class="st3_philadelphia-30" d="M195.4,316.7h-7.3c-0.4,0-0.7-0.4-0.6-0.8c0-0.3,0.3-0.6,0.6-0.6h7.3c0.4,0,0.7,0.4,0.6,0.8&#10;&#9;&#9;C196,316.4,195.8,316.6,195.4,316.7z"/>
	<path class="st3_philadelphia-30" d="M204.5,316.7h-7.3c-0.4,0-0.8-0.2-0.8-0.6c0-0.4,0.2-0.8,0.6-0.8c0.1,0,0.1,0,0.2,0h7.3c0.4,0,0.7,0.4,0.6,0.8&#10;&#9;&#9;C205.1,316.4,204.9,316.6,204.5,316.7z"/>
	<path class="st3_philadelphia-30" d="M213.6,316.7h-7.3c-0.4,0-0.8-0.2-0.8-0.6c0-0.4,0.2-0.8,0.6-0.8c0.1,0,0.1,0,0.2,0h7.3c0.4,0,0.8,0.2,0.8,0.6&#10;&#9;&#9;c0,0.4-0.2,0.8-0.6,0.8C213.7,316.7,213.7,316.7,213.6,316.7z"/>
	<polygon class="st1_philadelphia-30" points="25.2,392.6 62.1,392.6 80.5,384.3 80.5,395.9 25.2,395.9 &#9;"/>
	<path class="st2_philadelphia-30" d="M80.5,396.5H25.2c-0.4,0-0.7-0.3-0.7-0.7l0,0v-3.3c0-0.4,0.3-0.7,0.7-0.7c0,0,0,0,0,0H62l18.2-8.2&#10;&#9;&#9;c0.3-0.2,0.8,0,0.9,0.3c0,0.1,0.1,0.2,0.1,0.3v11.5C81.2,396.2,80.9,396.6,80.5,396.5C80.5,396.6,80.5,396.6,80.5,396.5z&#10;&#9;&#9; M25.9,395.1h53.9v-9.8l-17.3,7.8c-0.1,0-0.2,0.1-0.3,0.1H25.9V395.1z"/>
	<polygon class="st2_philadelphia-30" points="25.2,392.6 41.5,384.3 80.5,384.3 62.1,392.6 &#9;"/>
	<path class="st2_philadelphia-30" d="M62.1,393.3h-37c-0.3,0-0.6-0.2-0.7-0.5c-0.1-0.3,0.1-0.6,0.4-0.8l16.3-8.3c0.1,0,0.2-0.1,0.3-0.1h39&#10;&#9;&#9;c0.4,0,0.7,0.3,0.7,0.7c0,0.3-0.2,0.5-0.4,0.6l-18.3,8.3C62.3,393.3,62.2,393.3,62.1,393.3z M28.1,391.9H62l15.2-6.9H41.6&#10;&#9;&#9;L28.1,391.9z"/>
	<polygon class="st1_philadelphia-30" points="58.8,392.6 58.8,358.9 74.4,354.7 74.4,385.9 &#9;"/>
	<path class="st2_philadelphia-30" d="M58.8,393.3c-0.1,0-0.3,0-0.4-0.1c-0.2-0.1-0.3-0.3-0.3-0.6v-33.7c0-0.3,0.2-0.6,0.5-0.7l15.6-4.1&#10;&#9;&#9;c0.4-0.1,0.7,0.1,0.9,0.5c0,0.1,0,0.1,0,0.2v31.1c0,0.3-0.2,0.5-0.4,0.6l-15.6,6.7C59,393.3,58.9,393.3,58.8,393.3z M59.5,359.4&#10;&#9;&#9;v32.1l14.2-6.1v-29.8L59.5,359.4z"/>
	<rect x="28.8" y="358.9" class="st1_philadelphia-30" width="30" height="33.7"/>
	<path class="st2_philadelphia-30" d="M58.8,393.3h-30c-0.4,0-0.7-0.3-0.7-0.7v-33.7c0-0.4,0.3-0.7,0.7-0.7c0,0,0,0,0,0h30c0.4,0,0.7,0.3,0.7,0.7&#10;&#9;&#9;l0,0v33.7C59.5,393,59.2,393.3,58.8,393.3C58.8,393.3,58.8,393.3,58.8,393.3z M29.5,391.9h28.6v-32.3H29.5V391.9z"/>
	<polygon class="st2_philadelphia-30" points="28.8,358.9 45.3,347.2 48,347.2 58.8,358.9 &#9;"/>
	<path class="st2_philadelphia-30" d="M58.8,359.6h-30c-0.4,0-0.7-0.3-0.7-0.7c0-0.2,0.1-0.4,0.3-0.6l16.5-11.7c0.1-0.1,0.3-0.1,0.4-0.1H48&#10;&#9;&#9;c0.2,0,0.4,0.1,0.5,0.2l10.8,11.7c0.3,0.3,0.2,0.7,0,1C59.1,359.5,59,359.6,58.8,359.6z M31,358.2h26.2l-9.5-10.3h-2.1L31,358.2z"/>
	<polygon class="st2_philadelphia-30" points="48,347.2 59.5,346.3 74.4,354.7 58.8,358.9 &#9;"/>
	<path class="st2_philadelphia-30" d="M58.8,359.6c-0.2,0-0.4-0.1-0.5-0.2l-10.8-11.7c-0.3-0.3-0.2-0.7,0-1c0.1-0.1,0.3-0.2,0.4-0.2l11.6-0.9&#10;&#9;&#9;c0.1,0,0.3,0,0.4,0.1l14.9,8.5c0.2,0.1,0.4,0.4,0.3,0.7c0,0.3-0.2,0.5-0.5,0.6L59,359.5L58.8,359.6z M49.5,347.8l9.5,10.3l13.5-3.6&#10;&#9;&#9;L59.3,347L49.5,347.8z"/>
	<path class="st1_philadelphia-30" d="M45.3,347.2l2.6-0.3c2.9-0.4,7.1-0.9,7.3-0.9s4.3,0.3,4.3,0.3l-11.2,1.3L45.3,347.2z"/>
	<path class="st2_philadelphia-30" d="M48.3,348.2L48.3,348.2l-3.1-0.4c-0.4,0-0.6-0.3-0.6-0.7c0-0.4,0.3-0.7,0.6-0.7l2.6-0.3&#10;&#9;&#9;c7.3-0.9,7.4-0.9,7.6-0.8s2.6,0.1,4.2,0.2c0.4,0,0.6,0.3,0.7,0.7c0,0.4-0.3,0.7-0.6,0.7L48.3,348.2L48.3,348.2z"/>
	<rect x="106.9" y="336.6" class="st1_philadelphia-30" width="9.1" height="59.2"/>
	<path class="st2_philadelphia-30" d="M116,396.5h-9.1c-0.4,0-0.7-0.3-0.7-0.7l0,0v-59.2c0-0.4,0.3-0.7,0.7-0.7h0h9.1c0.4,0,0.7,0.3,0.7,0.7l0,0&#10;&#9;&#9;v59.2C116.7,396.2,116.4,396.5,116,396.5z M107.6,395.1h7.7v-57.9h-7.7V395.1z"/>
	<rect x="115.9" y="336.6" class="st1_philadelphia-30" width="64.6" height="59.2"/>
	<path class="st2_philadelphia-30" d="M180.6,396.5H116c-0.4,0-0.7-0.3-0.7-0.7l0,0v-59.2c0-0.4,0.3-0.7,0.7-0.7h0h64.6c0.4,0,0.7,0.3,0.7,0.7l0,0&#10;&#9;&#9;v59.2C181.3,396.2,181,396.6,180.6,396.5C180.6,396.6,180.6,396.6,180.6,396.5z M116.7,395.1h63.2v-57.9h-63.2L116.7,395.1z"/>
	<rect x="180.6" y="336.6" class="st1_philadelphia-30" width="10.8" height="59.2"/>
	<path class="st2_philadelphia-30" d="M191.4,396.5h-10.8c-0.4,0-0.7-0.3-0.7-0.7l0,0v-59.2c0-0.4,0.3-0.7,0.7-0.7c0,0,0,0,0,0h10.8&#10;&#9;&#9;c0.4,0,0.7,0.3,0.7,0.7l0,0v59.2C192,396.2,191.7,396.5,191.4,396.5z M181.2,395.1h9.4v-57.9h-9.4V395.1z"/>
	<rect x="126.2" y="329.1" class="st1_philadelphia-30" width="25.6" height="7.5"/>
	<path class="st2_philadelphia-30" d="M151.8,337.3h-25.6c-0.4,0-0.7-0.3-0.7-0.7l0,0v-7.5c0-0.4,0.3-0.7,0.7-0.7h0h25.6c0.4,0,0.7,0.3,0.7,0.7l0,0&#10;&#9;&#9;v7.5C152.5,337,152.2,337.3,151.8,337.3z M126.9,335.9h24.2v-6.1h-24.2L126.9,335.9z"/>
	<path class="st3_philadelphia-30" d="M176.3,352.3h-57c-0.4,0-0.7-0.3-0.7-0.7c0-0.4,0.3-0.7,0.7-0.7l0,0h57c0.4,0,0.7,0.3,0.7,0.7&#10;&#9;&#9;C177,352,176.7,352.3,176.3,352.3z"/>
	<path class="st3_philadelphia-30" d="M176.3,358.6h-57c-0.4,0-0.8-0.2-0.8-0.6c0-0.4,0.2-0.8,0.6-0.8c0.1,0,0.1,0,0.2,0h57c0.4,0,0.7,0.4,0.6,0.8&#10;&#9;&#9;C176.9,358.3,176.6,358.6,176.3,358.6z"/>
	<path class="st3_philadelphia-30" d="M176.3,364.9h-57c-0.4,0-0.8-0.2-0.8-0.6c0-0.4,0.2-0.8,0.6-0.8c0.1,0,0.1,0,0.2,0h57c0.4,0,0.7,0.4,0.6,0.8&#10;&#9;&#9;C176.9,364.6,176.6,364.9,176.3,364.9z"/>
	<path class="st3_philadelphia-30" d="M176.3,371.2h-57c-0.4,0-0.7-0.3-0.7-0.7c0-0.4,0.3-0.7,0.7-0.7l0,0h57c0.4,0,0.7,0.3,0.7,0.7&#10;&#9;&#9;C177,370.9,176.7,371.2,176.3,371.2z"/>
	<path class="st3_philadelphia-30" d="M176.3,377.5h-57c-0.4,0-0.8-0.2-0.8-0.6c0-0.4,0.2-0.8,0.6-0.8c0.1,0,0.1,0,0.2,0h57c0.4,0,0.7,0.4,0.6,0.8&#10;&#9;&#9;C176.9,377.2,176.6,377.5,176.3,377.5z"/>
	<path class="st3_philadelphia-30" d="M176.3,383.8h-57c-0.4,0-0.8-0.2-0.8-0.6c0-0.4,0.2-0.8,0.6-0.8c0.1,0,0.1,0,0.2,0h57c0.4,0,0.7,0.4,0.6,0.8&#10;&#9;&#9;C176.9,383.5,176.6,383.8,176.3,383.8z"/>
	<path class="st3_philadelphia-30" d="M176.3,390.1h-57c-0.4,0-0.8-0.2-0.8-0.6c0-0.4,0.2-0.8,0.6-0.8c0.1,0,0.1,0,0.2,0h57c0.4,0,0.7,0.4,0.6,0.8&#10;&#9;&#9;C176.9,389.8,176.6,390.1,176.3,390.1z"/>
	<path class="st3_philadelphia-30" d="M114.2,352.3h-5.4c-0.4,0-0.7-0.3-0.7-0.7c0-0.4,0.3-0.7,0.7-0.7h5.4c0.4,0,0.7,0.3,0.7,0.7&#10;&#9;&#9;C115,352,114.6,352.3,114.2,352.3z"/>
	<path class="st3_philadelphia-30" d="M114.2,358.6h-5.4c-0.4,0-0.8-0.2-0.8-0.6c0-0.4,0.2-0.8,0.6-0.8c0.1,0,0.1,0,0.2,0h5.4c0.4,0,0.7,0.4,0.6,0.8&#10;&#9;&#9;C114.8,358.3,114.6,358.6,114.2,358.6z"/>
	<path class="st3_philadelphia-30" d="M114.2,364.9h-5.4c-0.4,0-0.8-0.2-0.8-0.6c0-0.4,0.2-0.8,0.6-0.8c0.1,0,0.1,0,0.2,0h5.4c0.4,0,0.7,0.4,0.6,0.8&#10;&#9;&#9;C114.8,364.6,114.6,364.9,114.2,364.9z"/>
	<path class="st3_philadelphia-30" d="M114.2,371.2h-5.4c-0.4,0-0.7-0.3-0.7-0.7c0-0.4,0.3-0.7,0.7-0.7h5.4c0.4,0,0.7,0.3,0.7,0.7&#10;&#9;&#9;C115,370.9,114.6,371.2,114.2,371.2z"/>
	<path class="st3_philadelphia-30" d="M114.2,377.5h-5.4c-0.4,0-0.8-0.2-0.8-0.6c0-0.4,0.2-0.8,0.6-0.8c0.1,0,0.1,0,0.2,0h5.4c0.4,0,0.7,0.4,0.6,0.8&#10;&#9;&#9;C114.8,377.2,114.6,377.5,114.2,377.5z"/>
	<path class="st3_philadelphia-30" d="M114.2,383.8h-5.4c-0.4,0-0.8-0.2-0.8-0.6c0-0.4,0.2-0.8,0.6-0.8c0.1,0,0.1,0,0.2,0h5.4c0.4,0,0.7,0.4,0.6,0.8&#10;&#9;&#9;C114.8,383.5,114.6,383.8,114.2,383.8z"/>
	<path class="st3_philadelphia-30" d="M114.2,390.1h-5.4c-0.4,0-0.8-0.2-0.8-0.6c0-0.4,0.2-0.8,0.6-0.8c0.1,0,0.1,0,0.2,0h5.4c0.4,0,0.7,0.4,0.6,0.8&#10;&#9;&#9;C114.8,389.8,114.6,390.1,114.2,390.1z"/>
	<path class="st3_philadelphia-30" d="M189.9,352.3h-6.7c-0.4,0-0.7-0.3-0.7-0.7c0-0.4,0.3-0.7,0.7-0.7l0,0h6.7c0.4,0,0.7,0.3,0.7,0.7&#10;&#9;&#9;C190.6,352,190.3,352.3,189.9,352.3z"/>
	<path class="st3_philadelphia-30" d="M189.9,358.6h-6.7c-0.4,0-0.7-0.4-0.6-0.8c0-0.3,0.3-0.6,0.6-0.6h6.7c0.4,0,0.8,0.2,0.8,0.6&#10;&#9;&#9;c0,0.4-0.2,0.8-0.6,0.8C190,358.6,190,358.6,189.9,358.6z"/>
	<path class="st3_philadelphia-30" d="M189.9,364.9h-6.7c-0.4,0-0.7-0.4-0.6-0.8c0-0.3,0.3-0.6,0.6-0.6h6.7c0.4,0,0.8,0.2,0.8,0.6&#10;&#9;&#9;c0,0.4-0.2,0.8-0.6,0.8C190,364.9,190,364.9,189.9,364.9z"/>
	<path class="st3_philadelphia-30" d="M189.9,371.2h-6.7c-0.4,0-0.7-0.3-0.7-0.7c0-0.4,0.3-0.7,0.7-0.7l0,0h6.7c0.4,0,0.7,0.3,0.7,0.7&#10;&#9;&#9;C190.6,370.9,190.3,371.2,189.9,371.2z"/>
	<path class="st3_philadelphia-30" d="M189.9,377.5h-6.7c-0.4,0-0.7-0.4-0.6-0.8c0-0.3,0.3-0.6,0.6-0.6h6.7c0.4,0,0.8,0.2,0.8,0.6&#10;&#9;&#9;c0,0.4-0.2,0.8-0.6,0.8C190,377.5,190,377.5,189.9,377.5z"/>
	<path class="st3_philadelphia-30" d="M189.9,383.8h-6.7c-0.4,0-0.7-0.4-0.6-0.8c0-0.3,0.3-0.6,0.6-0.6h6.7c0.4,0,0.8,0.2,0.8,0.6&#10;&#9;&#9;c0,0.4-0.2,0.8-0.6,0.8C190,383.8,190,383.8,189.9,383.8z"/>
	<path class="st3_philadelphia-30" d="M189.9,390.1h-6.7c-0.4,0-0.7-0.4-0.6-0.8c0-0.3,0.3-0.6,0.6-0.6h6.7c0.4,0,0.8,0.2,0.8,0.6&#10;&#9;&#9;c0,0.4-0.2,0.8-0.6,0.8C190,390.1,190,390.1,189.9,390.1z"/>
	<path class="st3_philadelphia-30" d="M126.1,345.9h-6.8c-0.4,0-0.7-0.3-0.7-0.7c0-0.4,0.3-0.7,0.7-0.7h6.8c0.4,0,0.7,0.3,0.7,0.7&#10;&#9;&#9;C126.8,345.5,126.5,345.9,126.1,345.9z"/>
	<path class="st3_philadelphia-30" d="M134.4,345.9h-6.8c-0.4,0-0.7-0.3-0.7-0.7c0-0.4,0.3-0.7,0.7-0.7l0,0h6.8c0.4,0,0.7,0.3,0.7,0.7&#10;&#9;&#9;C135.1,345.5,134.8,345.9,134.4,345.9z"/>
	<path class="st3_philadelphia-30" d="M142.8,345.9H136c-0.4,0-0.7-0.3-0.7-0.7c0-0.4,0.3-0.7,0.7-0.7h6.8c0.4,0,0.7,0.3,0.7,0.7&#10;&#9;&#9;C143.5,345.5,143.2,345.9,142.8,345.9L142.8,345.9z"/>
	<path class="st3_philadelphia-30" d="M151.2,345.9h-6.8c-0.4,0-0.7-0.3-0.7-0.7c0-0.4,0.3-0.7,0.7-0.7h6.8c0.4,0,0.7,0.3,0.7,0.7&#10;&#9;&#9;C151.9,345.5,151.6,345.9,151.2,345.9L151.2,345.9z"/>
	<path class="st3_philadelphia-30" d="M159.5,345.9h-6.8c-0.4,0-0.7-0.3-0.7-0.7c0-0.4,0.3-0.7,0.7-0.7h6.8c0.4,0,0.7,0.3,0.7,0.7&#10;&#9;&#9;C160.2,345.5,159.9,345.9,159.5,345.9z"/>
	<path class="st3_philadelphia-30" d="M167.9,345.9h-6.8c-0.4,0-0.7-0.3-0.7-0.7c0-0.4,0.3-0.7,0.7-0.7h6.8c0.4,0,0.7,0.3,0.7,0.7&#10;&#9;&#9;C168.6,345.5,168.3,345.9,167.9,345.9z"/>
	<path class="st3_philadelphia-30" d="M176.3,345.9h-6.8c-0.4,0-0.7-0.3-0.7-0.7c0-0.4,0.3-0.7,0.7-0.7l0,0h6.8c0.4,0,0.7,0.3,0.7,0.7&#10;&#9;&#9;C177,345.5,176.7,345.9,176.3,345.9z"/>
	<rect x="52.8" y="287.1" class="st1_philadelphia-30" width="33.2" height="7.4"/>
	<path class="st2_philadelphia-30" d="M86,295.1H52.8c-0.4,0-0.7-0.3-0.7-0.7l0,0v-7.4c0-0.4,0.3-0.7,0.7-0.7c0,0,0,0,0,0H86c0.4,0,0.7,0.3,0.7,0.7&#10;&#9;&#9;l0,0v7.4C86.7,294.8,86.4,295.1,86,295.1L86,295.1z M53.5,293.7h31.8v-6H53.5L53.5,293.7z"/>
	<polygon class="st2_philadelphia-30" points="94.1,307.4 94.1,395.9 103.9,395.9 103.9,309.1 &#9;"/>
	<path class="st2_philadelphia-30" d="M103.9,396.5h-9.7c-0.4,0-0.7-0.3-0.7-0.7l0,0v-88.4c0-0.4,0.3-0.7,0.7-0.7c0,0,0.1,0,0.1,0l9.7,1.7&#10;&#9;&#9;c0.3,0.1,0.6,0.3,0.6,0.7v86.7C104.6,396.2,104.2,396.5,103.9,396.5z M94.9,395.1h8.3v-85.4l-8.3-1.5V395.1z"/>
	<path class="st3_philadelphia-30" d="M36.3,373.2c-0.4,0-0.7-0.3-0.7-0.7c0,0,0,0,0,0v-3.7c0-0.4,0.2-0.8,0.6-0.8c0.4,0,0.8,0.2,0.8,0.6&#10;&#9;&#9;c0,0.1,0,0.1,0,0.2v3.7C37,372.9,36.7,373.2,36.3,373.2C36.3,373.2,36.3,373.2,36.3,373.2z"/>
	<path class="st3_philadelphia-30" d="M43.8,373.2c-0.4,0-0.7-0.3-0.7-0.7c0,0,0,0,0,0v-3.7c0-0.4,0.2-0.8,0.6-0.8c0.4,0,0.8,0.2,0.8,0.6&#10;&#9;&#9;c0,0.1,0,0.1,0,0.2v3.7C44.5,372.9,44.2,373.2,43.8,373.2C43.8,373.2,43.8,373.2,43.8,373.2z"/>
	<path class="st3_philadelphia-30" d="M51.3,373.2c-0.4,0-0.7-0.3-0.7-0.7c0,0,0,0,0,0v-3.7c0-0.4,0.2-0.8,0.6-0.8c0.4,0,0.8,0.2,0.8,0.6&#10;&#9;&#9;c0,0.1,0,0.1,0,0.2v3.7C52,372.9,51.7,373.2,51.3,373.2C51.3,373.2,51.3,373.2,51.3,373.2z"/>
	<path class="st3_philadelphia-30" d="M36.3,381c-0.4,0-0.7-0.3-0.7-0.7v-3.7c0-0.4,0.4-0.7,0.8-0.6c0.3,0,0.6,0.3,0.6,0.6v3.7&#10;&#9;&#9;C37,380.7,36.7,381,36.3,381C36.3,381,36.3,381,36.3,381z"/>
	<path class="st3_philadelphia-30" d="M43.8,381c-0.4,0-0.7-0.3-0.7-0.7v-3.7c0-0.4,0.4-0.7,0.8-0.6c0.3,0,0.6,0.3,0.6,0.6v3.7&#10;&#9;&#9;C44.5,380.7,44.2,381,43.8,381C43.8,381,43.8,381,43.8,381z"/>
	<path class="st3_philadelphia-30" d="M51.3,381c-0.4,0-0.7-0.3-0.7-0.7v-3.7c0-0.4,0.4-0.7,0.8-0.6c0.3,0,0.6,0.3,0.6,0.6v3.7&#10;&#9;&#9;C52,380.7,51.7,381,51.3,381C51.3,381,51.3,381,51.3,381z"/>
	<path class="st3_philadelphia-30" d="M36.3,388.7c-0.4,0-0.7-0.3-0.7-0.7v-3.7c0-0.4,0.2-0.8,0.6-0.8c0.4,0,0.8,0.2,0.8,0.6c0,0.1,0,0.1,0,0.2v3.7&#10;&#9;&#9;C37,388.4,36.7,388.7,36.3,388.7z"/>
	<path class="st3_philadelphia-30" d="M43.8,388.7c-0.4,0-0.7-0.3-0.7-0.7v-3.7c0-0.4,0.2-0.8,0.6-0.8c0.4,0,0.8,0.2,0.8,0.6c0,0.1,0,0.1,0,0.2v3.7&#10;&#9;&#9;C44.5,388.4,44.2,388.7,43.8,388.7z"/>
	<path class="st3_philadelphia-30" d="M51.3,388.7c-0.4,0-0.7-0.3-0.7-0.7v-3.7c0-0.4,0.2-0.8,0.6-0.8c0.4,0,0.8,0.2,0.8,0.6c0,0.1,0,0.1,0,0.2v3.7&#10;&#9;&#9;C52,388.4,51.7,388.7,51.3,388.7z"/>
	<path class="st2_philadelphia-30" d="M211.3,284.4h-23.2c-0.4,0-0.7-0.3-0.7-0.7c0-0.4,0.3-0.7,0.7-0.7h23.2c0.4,0,0.7,0.3,0.7,0.7&#10;&#9;&#9;C212,284,211.7,284.3,211.3,284.4C211.3,284.4,211.3,284.4,211.3,284.4z"/>
	<path class="st2_philadelphia-30" d="M211.3,278.2c-0.2,0-0.3-0.1-0.5-0.2l-11.1-9.8l-11.2,9.8c-0.3,0.2-0.7,0.2-1-0.1c-0.2-0.3-0.2-0.7,0.1-0.9&#10;&#9;&#9;l11.7-10.2c0.3-0.2,0.7-0.2,0.9,0l11.6,10.3c0.3,0.3,0.3,0.7,0.1,1C211.7,278.1,211.5,278.2,211.3,278.2z"/>
	<path class="st2_philadelphia-30" d="M211.3,300h-23.2c-0.4,0-0.7-0.3-0.7-0.7c0-0.4,0.3-0.7,0.7-0.7c0,0,0,0,0,0h23.2c0.4,0,0.7,0.3,0.7,0.7&#10;&#9;&#9;C212,299.7,211.7,300,211.3,300z"/>
	<path class="st2_philadelphia-30" d="M175.1,266.2c-0.2,0-0.4-0.1-0.5-0.2c-0.3-0.3-0.3-0.7,0-1l6-6c0.3-0.3,0.7-0.3,1,0c0.3,0.3,0.3,0.7,0,1&#10;&#9;&#9;c0,0,0,0,0,0l-6,6C175.4,266.1,175.3,266.2,175.1,266.2z"/>
	<path class="st2_philadelphia-30" d="M224.1,266.2c-0.2,0-0.4-0.1-0.5-0.2l-5.9-6c-0.3-0.3-0.3-0.7,0-1s0.7-0.3,1,0l5.9,6c0.3,0.3,0.3,0.7,0,1&#10;&#9;&#9;C224.5,266.1,224.3,266.2,224.1,266.2L224.1,266.2z"/>
	<path class="st2_philadelphia-30" d="M186.2,254.1c-0.4,0-0.7-0.3-0.7-0.7V241c0-0.4,0.3-0.7,0.7-0.7c0.4,0,0.7,0.3,0.7,0.7c0,0,0,0,0,0v12.4&#10;&#9;&#9;C187,253.8,186.7,254.1,186.2,254.1C186.3,254.1,186.3,254.1,186.2,254.1z"/>
	<path class="st1_philadelphia-30" d="M213.7,241.6c0.2,0.2,0,12.5,0,12.5"/>
	<path class="st2_philadelphia-30" d="M213.7,254.8L213.7,254.8c-0.4,0-0.7-0.3-0.7-0.7c0,0,0,0,0,0c0.1-4.3,0.2-11.3,0-12.2c-0.1-0.4,0-0.8,0.4-0.9&#10;&#9;&#9;c0.3-0.1,0.6,0,0.8,0.2c0.3,0.3,0.5,0.5,0.2,13C214.4,254.5,214.1,254.8,213.7,254.8z"/>
	<path class="st2_philadelphia-30" d="M208.6,225c-0.2,0-0.4-0.1-0.5-0.2l-8.3-7.8l-8,7.4c-0.3,0.3-0.7,0.3-1,0c0,0,0,0,0,0c-0.3-0.3-0.3-0.7,0-1&#10;&#9;&#9;l8.5-7.8c0.3-0.3,0.7-0.3,1,0l8.8,8.3c0.3,0.3,0.3,0.7,0,1c0,0,0,0,0,0C209,224.9,208.8,225,208.6,225z"/>
	<polyline class="st2_philadelphia-30" points="196.6,212.2 198.9,203.3 199.7,171.1 200.8,171.1 201.4,203.1 203.4,212.2 &#9;"/>
	<path class="st2_philadelphia-30" d="M196.6,212.9c-0.1,0-0.1,0-0.2,0c-0.4-0.1-0.6-0.5-0.5-0.9l2.4-8.9l0.8-32c0-0.4,0.3-0.7,0.7-0.7h1.1&#10;&#9;&#9;c0.4,0,0.7,0.3,0.7,0.7l0.6,31.9l1.9,9c0.1,0.4-0.2,0.7-0.5,0.8c0,0,0,0,0,0c-0.4,0.1-0.7-0.2-0.8-0.5l-2-9.2l-0.5-25.3l-0.6,25.4&#10;&#9;&#9;c0,0.1,0,0.1,0,0.2l-2.4,9C197.1,212.8,196.9,212.9,196.6,212.9z"/>
	<path class="st2_philadelphia-30" d="M202.4,186.3h-5.1c-0.4,0-0.7-0.3-0.7-0.7c0-0.4,0.3-0.7,0.7-0.7h5.1c0.4,0,0.7,0.3,0.7,0.7&#10;&#9;&#9;C203.1,186,202.8,186.3,202.4,186.3z"/>
	<rect x="257.1" y="317.5" class="st1_philadelphia-30" width="39.4" height="78.3"/>
	<path class="st2_philadelphia-30" d="M296.5,396.5h-39.4c-0.4,0-0.7-0.3-0.7-0.7v0v-78.3c0-0.4,0.3-0.7,0.7-0.7h0h39.4c0.4,0,0.7,0.3,0.7,0.7v0&#10;&#9;&#9;v78.3C297.2,396.2,296.9,396.5,296.5,396.5L296.5,396.5z M257.8,395.1h38v-76.9h-38V395.1z"/>
	<rect x="285.5" y="321.3" class="st2_philadelphia-30" width="5.7" height="5.7"/>
	<path class="st2_philadelphia-30" d="M291.2,327.8h-5.7c-0.4,0-0.7-0.3-0.7-0.7v0v-5.7c0-0.4,0.3-0.7,0.7-0.7h5.7c0.4,0,0.7,0.3,0.7,0.7v0v5.7&#10;&#9;&#9;C291.9,327.4,291.6,327.8,291.2,327.8L291.2,327.8z M286.2,326.4h4.3V322h-4.3V326.4z"/>
	<path class="st3_philadelphia-30" d="M280.7,323.1h-18.7c-0.4,0-0.8-0.2-0.8-0.6c0-0.4,0.2-0.8,0.6-0.8c0.1,0,0.1,0,0.2,0h18.7&#10;&#9;&#9;c0.4,0,0.7,0.4,0.6,0.8C281.3,322.8,281.1,323.1,280.7,323.1z"/>
	<path class="st3_philadelphia-30" d="M280.7,327.8h-18.7c-0.4,0-0.8-0.2-0.8-0.6c0-0.4,0.2-0.8,0.6-0.8c0.1,0,0.1,0,0.2,0h18.7&#10;&#9;&#9;c0.4,0,0.7,0.4,0.6,0.8C281.3,327.5,281.1,327.7,280.7,327.8z"/>
	<path class="st3_philadelphia-30" d="M291.2,333.6h-29.1c-0.4,0-0.8-0.2-0.8-0.6c0-0.4,0.2-0.8,0.6-0.8c0.1,0,0.1,0,0.2,0h29.1&#10;&#9;&#9;c0.4,0,0.8,0.2,0.8,0.6c0,0.4-0.2,0.8-0.6,0.8C291.3,333.6,291.3,333.6,291.2,333.6z"/>
	<path class="st3_philadelphia-30" d="M291.2,339.4h-29.1c-0.4,0-0.7-0.3-0.7-0.7c0-0.4,0.3-0.7,0.7-0.7h29.1c0.4,0,0.7,0.3,0.7,0.7&#10;&#9;&#9;C291.9,339,291.6,339.4,291.2,339.4z"/>
	<path class="st3_philadelphia-30" d="M291.2,345.2h-29.1c-0.4,0-0.8-0.2-0.8-0.6c0-0.4,0.2-0.8,0.6-0.8c0.1,0,0.1,0,0.2,0h29.1&#10;&#9;&#9;c0.4,0,0.8,0.2,0.8,0.6c0,0.4-0.2,0.8-0.6,0.8C291.3,345.2,291.3,345.2,291.2,345.2z"/>
	<path class="st3_philadelphia-30" d="M291.2,351h-29.1c-0.4,0-0.8-0.2-0.8-0.6c0-0.4,0.2-0.8,0.6-0.8c0.1,0,0.1,0,0.2,0h29.1c0.4,0,0.8,0.2,0.8,0.6&#10;&#9;&#9;c0,0.4-0.2,0.8-0.6,0.8C291.3,351,291.3,351,291.2,351z"/>
	<path class="st3_philadelphia-30" d="M291.2,356.7h-29.1c-0.4,0-0.7-0.3-0.7-0.7c0-0.4,0.3-0.7,0.7-0.7h29.1c0.4,0,0.7,0.3,0.7,0.7&#10;&#9;&#9;C291.9,356.4,291.6,356.7,291.2,356.7z"/>
	<path class="st3_philadelphia-30" d="M291.2,362.5h-29.1c-0.4,0-0.8-0.2-0.8-0.6c0-0.4,0.2-0.8,0.6-0.8c0.1,0,0.1,0,0.2,0h29.1&#10;&#9;&#9;c0.4,0,0.8,0.2,0.8,0.6c0,0.4-0.2,0.8-0.6,0.8C291.3,362.5,291.3,362.5,291.2,362.5z"/>
	<path class="st3_philadelphia-30" d="M291.2,368.3h-29.1c-0.4,0-0.8-0.2-0.8-0.6c0-0.4,0.2-0.8,0.6-0.8c0.1,0,0.1,0,0.2,0h29.1&#10;&#9;&#9;c0.4,0,0.8,0.2,0.8,0.6c0,0.4-0.2,0.8-0.6,0.8C291.3,368.3,291.3,368.3,291.2,368.3z"/>
	<path class="st3_philadelphia-30" d="M291.2,374.1h-29.1c-0.4,0-0.7-0.3-0.7-0.7c0-0.4,0.3-0.7,0.7-0.7h29.1c0.4,0,0.7,0.3,0.7,0.7&#10;&#9;&#9;C291.9,373.8,291.6,374.1,291.2,374.1z"/>
	<path class="st3_philadelphia-30" d="M291.2,379.9h-29.1c-0.4,0-0.8-0.2-0.8-0.6c0-0.4,0.2-0.8,0.6-0.8c0.1,0,0.1,0,0.2,0h29.1&#10;&#9;&#9;c0.4,0,0.8,0.2,0.8,0.6c0,0.4-0.2,0.8-0.6,0.8C291.3,379.9,291.3,379.9,291.2,379.9z"/>
	<path class="st3_philadelphia-30" d="M291.2,385.7h-29.1c-0.4,0-0.7-0.3-0.7-0.7c0-0.4,0.3-0.7,0.7-0.7h29.1c0.4,0,0.7,0.3,0.7,0.7&#10;&#9;&#9;C291.9,385.4,291.6,385.7,291.2,385.7z"/>
	<rect x="353.7" y="351.8" class="st1_philadelphia-30" width="39.6" height="17.1"/>
	<path class="st2_philadelphia-30" d="M393.3,369.6h-39.6c-0.4,0-0.7-0.3-0.7-0.7v0v-17.1c0-0.4,0.3-0.7,0.7-0.7h0h39.6c0.4,0,0.7,0.3,0.7,0.7v0&#10;&#9;&#9;v17.1C394,369.3,393.7,369.6,393.3,369.6z M354.4,368.2h38.2v-15.7h-38.2V368.2z"/>
	<rect x="371.8" y="355.1" class="st1_philadelphia-30" width="6.7" height="4"/>
	<path class="st2_philadelphia-30" d="M378.5,359.8h-6.7c-0.4,0-0.7-0.3-0.7-0.7v0v-4c0-0.4,0.3-0.7,0.7-0.7h0h6.7c0.4,0,0.7,0.3,0.7,0.7v0v4&#10;&#9;&#9;C379.2,359.5,378.9,359.8,378.5,359.8L378.5,359.8z M372.5,358.4h5.3v-2.6h-5.3V358.4z"/>
	<rect x="348.2" y="365.8" class="st1_philadelphia-30" width="53.9" height="30.1"/>
	<path class="st2_philadelphia-30" d="M402.2,396.5h-53.9c-0.4,0-0.7-0.3-0.7-0.7v0v-30.1c0-0.4,0.3-0.7,0.7-0.7h0h53.9c0.4,0,0.7,0.3,0.7,0.7v0&#10;&#9;&#9;v30.1C402.9,396.2,402.5,396.5,402.2,396.5L402.2,396.5z M348.9,395.1h52.5v-28.7h-52.5V395.1z"/>
	<circle class="st1_philadelphia-30" cx="375.2" cy="380.8" r="9.7"/>
	<path class="st2_philadelphia-30" d="M375.2,391.2c-5.7,0-10.4-4.6-10.4-10.4s4.6-10.4,10.4-10.4s10.4,4.6,10.4,10.4v0&#10;&#9;&#9;C385.5,386.5,380.9,391.2,375.2,391.2z M375.2,371.9c-5,0-9,4-9,9s4,9,9,9s9-4,9-9l0,0C384.2,375.9,380.2,371.9,375.2,371.9z"/>
	<circle class="st1_philadelphia-30" cx="375.2" cy="380.8" r="6.1"/>
	<path class="st2_philadelphia-30" d="M375.2,387.6c-3.8,0-6.8-3-6.8-6.8c0-3.8,3-6.8,6.8-6.8c3.8,0,6.8,3,6.8,6.8c0,0,0,0,0,0&#10;&#9;&#9;C382,384.6,378.9,387.6,375.2,387.6z M375.2,375.4c-3,0-5.4,2.4-5.4,5.4c0,3,2.4,5.4,5.4,5.4c3,0,5.4-2.4,5.4-5.4c0,0,0,0,0,0&#10;&#9;&#9;C380.6,377.8,378.2,375.4,375.2,375.4L375.2,375.4z"/>
	<path class="st2_philadelphia-30" d="M390.9,366.5c-0.2,0-0.3-0.1-0.5-0.2c-0.1-0.1-8.6-7.4-17-6.4c-5,0.5-9.7,2.6-13.4,5.9c-0.3,0.3-0.7,0.3-1,0&#10;&#9;&#9;c0,0,0,0,0,0c-0.3-0.3-0.3-0.7,0-1c3.9-3.6,8.9-5.8,14.2-6.3c9-1,17.7,6.5,18.1,6.8c0.3,0.3,0.3,0.7,0.1,1&#10;&#9;&#9;C391.2,366.4,391,366.5,390.9,366.5L390.9,366.5z"/>
	<rect x="352.6" y="392.7" class="st1_philadelphia-30" width="10.7" height="3.1"/>
	<path class="st2_philadelphia-30" d="M363.3,396.5h-10.7c-0.4,0-0.7-0.3-0.7-0.7v0v-3.1c0-0.4,0.3-0.7,0.7-0.7h0h10.7c0.4,0,0.7,0.3,0.7,0.7v0v3.1&#10;&#9;&#9;C364,396.2,363.7,396.5,363.3,396.5L363.3,396.5z M353.3,395.1h9.3v-1.7h-9.3V395.1z"/>
	<rect x="352.6" y="365.8" class="st1_philadelphia-30" width="10.7" height="3.1"/>
	<path class="st2_philadelphia-30" d="M363.3,369.6h-10.7c-0.4,0-0.7-0.3-0.7-0.7v0v-3.1c0-0.4,0.3-0.7,0.7-0.7h0h10.7c0.4,0,0.7,0.3,0.7,0.7v0v3.1&#10;&#9;&#9;C364,369.3,363.7,369.6,363.3,369.6L363.3,369.6z M353.3,368.2h9.3v-1.8h-9.3V368.2z"/>
	<rect x="358.8" y="368.9" class="st1_philadelphia-30" width="2.8" height="23.6"/>
	<path class="st2_philadelphia-30" d="M361.6,393.2h-2.8c-0.4,0-0.7-0.3-0.7-0.7v0v-23.6c0-0.4,0.3-0.7,0.7-0.7h0h2.8c0.4,0,0.7,0.3,0.7,0.7v0v23.6&#10;&#9;&#9;C362.3,392.9,361.9,393.2,361.6,393.2z M359.5,391.8h1.4v-22.2h-1.4V391.8z"/>
	<rect x="353.7" y="368.9" class="st1_philadelphia-30" width="2.8" height="23.6"/>
	<path class="st2_philadelphia-30" d="M356.5,393.2h-2.8c-0.4,0-0.7-0.3-0.7-0.7v0v-23.6c0-0.4,0.3-0.7,0.7-0.7h0h2.8c0.4,0,0.7,0.3,0.7,0.7v0v23.6&#10;&#9;&#9;C357.2,392.9,356.9,393.2,356.5,393.2z M354.4,391.8h1.4v-22.2h-1.4V391.8z"/>
	<rect x="387.1" y="392.7" class="st1_philadelphia-30" width="10.7" height="3.1"/>
	<path class="st2_philadelphia-30" d="M397.8,396.5h-10.7c-0.4,0-0.7-0.3-0.7-0.7v0v-3.1c0-0.4,0.3-0.7,0.7-0.7h0h10.7c0.4,0,0.7,0.3,0.7,0.7v0v3.1&#10;&#9;&#9;C398.5,396.2,398.2,396.5,397.8,396.5z M387.8,395.1h9.3v-1.7h-9.3V395.1z"/>
	<rect x="387.1" y="365.8" class="st1_philadelphia-30" width="10.7" height="3.1"/>
	<path class="st2_philadelphia-30" d="M397.8,369.6h-10.7c-0.4,0-0.7-0.3-0.7-0.7v0v-3.1c0-0.4,0.3-0.7,0.7-0.7h0h10.7c0.4,0,0.7,0.3,0.7,0.7v0v3.1&#10;&#9;&#9;C398.5,369.3,398.2,369.6,397.8,369.6z M387.8,368.2h9.3v-1.8h-9.3V368.2z"/>
	<rect x="393.3" y="368.9" class="st1_philadelphia-30" width="2.8" height="23.6"/>
	<path class="st2_philadelphia-30" d="M396,393.2h-2.8c-0.4,0-0.7-0.3-0.7-0.7v0v-23.6c0-0.4,0.3-0.7,0.7-0.7h0h2.8c0.4,0,0.7,0.3,0.7,0.7v0v23.6&#10;&#9;&#9;C396.8,392.9,396.4,393.2,396,393.2L396,393.2z M394,391.8h1.4v-22.2H394V391.8z"/>
	<rect x="388.2" y="368.9" class="st1_philadelphia-30" width="2.8" height="23.6"/>
	<path class="st2_philadelphia-30" d="M391,393.2h-2.8c-0.4,0-0.7-0.3-0.7-0.7v0v-23.6c0-0.4,0.3-0.7,0.7-0.7h0h2.8c0.4,0,0.7,0.3,0.7,0.7v0v23.6&#10;&#9;&#9;C391.7,392.9,391.4,393.2,391,393.2z M388.9,391.8h1.4v-22.2h-1.4L388.9,391.8z"/>
	<rect x="343.5" y="367.3" class="st1_philadelphia-30" width="4.7" height="8.6"/>
	<path class="st2_philadelphia-30" d="M348.2,376.6h-4.7c-0.4,0-0.7-0.3-0.7-0.7v0v-8.6c0-0.4,0.3-0.7,0.7-0.7h4.7c0.4,0,0.7,0.3,0.7,0.7v0v8.7&#10;&#9;&#9;C348.9,376.4,348.6,376.7,348.2,376.6z M344.2,375.2h3.3V368h-3.3V375.2z"/>
	<rect x="343.9" y="390.7" class="st1_philadelphia-30" width="4" height="4.6"/>
	<path class="st2_philadelphia-30" d="M347.9,396h-4c-0.4,0-0.7-0.3-0.7-0.7v0v-4.6c0-0.4,0.3-0.7,0.7-0.7h0h4c0.4,0,0.7,0.3,0.7,0.7v0v4.6&#10;&#9;&#9;C348.6,395.7,348.2,396,347.9,396L347.9,396z M344.5,394.6h2.6v-3.2h-2.6V394.6z"/>
	<rect x="402.2" y="367.3" class="st1_philadelphia-30" width="4.7" height="8.6"/>
	<path class="st2_philadelphia-30" d="M406.9,376.6h-4.7c-0.4,0-0.7-0.3-0.7-0.7v0v-8.6c0-0.4,0.3-0.7,0.7-0.7h0h4.7c0.4,0,0.7,0.3,0.7,0.7v8.7&#10;&#9;&#9;C407.5,376.4,407.2,376.7,406.9,376.6z M402.9,375.2h3.3V368h-3.3V375.2z"/>
	<rect x="402.5" y="390.7" class="st1_philadelphia-30" width="4" height="4.6"/>
	<path class="st2_philadelphia-30" d="M406.5,396h-4c-0.4,0-0.7-0.3-0.7-0.7v0v-4.6c0-0.4,0.3-0.7,0.7-0.7h0h4c0.4,0,0.7,0.3,0.7,0.7v0v4.6&#10;&#9;&#9;C407.2,395.7,406.9,396,406.5,396L406.5,396z M403.2,394.6h2.6v-3.2h-2.6V394.6z"/>
	<polyline class="st1_philadelphia-30" points="374.3,377.5 374.5,381.9 376,384.1 &#9;"/>
	<path class="st2_philadelphia-30" d="M376,384.8c-0.2,0-0.4-0.1-0.6-0.3l-1.4-2.2c-0.1-0.1-0.1-0.2-0.1-0.4l-0.2-4.4c0-0.4,0.3-0.7,0.7-0.7&#10;&#9;&#9;c0.4,0,0.7,0.3,0.7,0.6c0,0,0,0,0,0l0.2,4.2l1.4,2.1c0.2,0.3,0.2,0.7-0.1,1c0,0,0,0,0,0C376.3,384.8,376.2,384.8,376,384.8z"/>
	<rect x="352.9" y="354.2" class="st1_philadelphia-30" width="5.4" height="10.7"/>
	<path class="st2_philadelphia-30" d="M358.2,365.7h-5.4c-0.4,0-0.7-0.3-0.7-0.7v0v-10.7c0-0.4,0.3-0.7,0.7-0.7h0h5.4c0.4,0,0.7,0.3,0.7,0.7v0V365&#10;&#9;&#9;C358.9,365.4,358.6,365.7,358.2,365.7z M353.5,364.3h4v-9.3h-4V364.3z"/>
	<rect x="390.9" y="354.2" class="st1_philadelphia-30" width="5.4" height="10.7"/>
	<path class="st2_philadelphia-30" d="M396.2,365.7h-5.4c-0.4,0-0.7-0.3-0.7-0.7v0v-10.7c0-0.4,0.3-0.7,0.7-0.7h0h5.4c0.4,0,0.7,0.3,0.7,0.7v0V365&#10;&#9;&#9;C396.9,365.4,396.6,365.7,396.2,365.7z M391.6,364.3h4v-9.3h-4V364.3z"/>
	<rect x="350.4" y="349.4" class="st1_philadelphia-30" width="49.6" height="4.8"/>
	<path class="st2_philadelphia-30" d="M400,354.9h-49.6c-0.4,0-0.7-0.3-0.7-0.7v0v-4.8c0-0.4,0.3-0.7,0.7-0.7H400c0.4,0,0.7,0.3,0.7,0.7v0v4.8&#10;&#9;&#9;C400.7,354.6,400.4,354.9,400,354.9L400,354.9z M351.1,353.5h48.2v-3.4h-48.2L351.1,353.5z"/>
	<path class="st1_philadelphia-30" d="M397.2,349.4c-0.4-34.3-22.1-61.7-22.1-61.7s-21.6,27.4-22.1,61.7H397.2z"/>
	<path class="st2_philadelphia-30" d="M397.2,350.1h-44.1c-0.2,0-0.4-0.1-0.5-0.2c-0.1-0.1-0.2-0.3-0.2-0.5c0.4-34.1,22-61.8,22.2-62.1&#10;&#9;&#9;c0.3-0.3,0.7-0.3,1-0.1c0,0,0.1,0.1,0.1,0.1c0.2,0.3,21.8,28,22.2,62.1C398,349.8,397.6,350.1,397.2,350.1&#10;&#9;&#9;C397.3,350.1,397.3,350.1,397.2,350.1L397.2,350.1z M353.8,348.7h42.7c-0.6-30.3-18-55.3-21.3-59.8&#10;&#9;&#9;C371.9,293.4,354.5,318.5,353.8,348.7z"/>
	<path class="st3_philadelphia-30" d="M365.5,347.2c-0.4,0-0.7-0.3-0.7-0.7c0-0.3,0.1-25.6,9.7-58.9c0.1-0.3,0.4-0.5,0.7-0.5c0.3,0,0.6,0.2,0.7,0.5&#10;&#9;&#9;c7.1,23.3,9.7,58.4,9.7,58.7c0,0.4-0.3,0.7-0.7,0.8s-0.7-0.3-0.8-0.7c0-0.3-2.4-33-8.9-56c-8.9,32-9,55.9-9,56.2&#10;&#9;&#9;C366.2,346.9,365.9,347.2,365.5,347.2z"/>
	<path class="st1_philadelphia-30" d="M372.3,277.5c-2.7,6.4-4.1,13.2-4.3,20.1h14.4c-0.2-6.9-1.6-13.7-4.3-20.1L372.3,277.5z"/>
	<path class="st2_philadelphia-30" d="M382.4,298.3H368c-0.2,0-0.4-0.1-0.5-0.2c-0.1-0.1-0.2-0.3-0.2-0.5c0.2-7,1.6-13.9,4.3-20.4&#10;&#9;&#9;c0.1-0.3,0.4-0.4,0.6-0.4h5.8c0.3,0,0.5,0.2,0.6,0.4c2.7,6.5,4.2,13.4,4.3,20.4c0,0.2-0.1,0.4-0.2,0.5&#10;&#9;&#9;C382.8,298.2,382.6,298.3,382.4,298.3z M368.7,296.9h13c-0.3-6.4-1.6-12.8-4-18.7h-4.9C370.3,284.1,369,290.5,368.7,296.9z"/>
	<path class="st1_philadelphia-30" d="M363.1,290.7h22.8c1.1,0,1.9,0.9,1.9,1.9v3.9c0,1.1-0.9,1.9-1.9,1.9h-22.8c-1.1,0-1.9-0.9-1.9-1.9v-3.9&#10;&#9;&#9;C361.2,291.5,362.1,290.7,363.1,290.7z"/>
	<path class="st2_philadelphia-30" d="M385.2,299.1h-21.3c-1.9,0-3.4-1.5-3.4-3.4v-2.4c0-1.9,1.5-3.4,3.4-3.4h21.3c1.9,0,3.4,1.5,3.4,3.4v2.4&#10;&#9;&#9;C388.5,297.6,387,299.1,385.2,299.1z M363.9,291.4c-1.1,0-2,0.9-2,2v2.4c0,1.1,0.9,2,2,2h21.3c1.1,0,2-0.9,2-2v-2.4&#10;&#9;&#9;c0-1.1-0.9-2-2-2H363.9z"/>
	<rect x="369.4" y="274.8" class="st1_philadelphia-30" width="10.8" height="2.7"/>
	<path class="st2_philadelphia-30" d="M380.2,278.2h-10.8c-0.4,0-0.7-0.3-0.7-0.7v0v-2.7c0-0.4,0.3-0.7,0.7-0.7h0h10.8c0.4,0,0.7,0.3,0.7,0.7v2.7&#10;&#9;&#9;C381,277.9,380.6,278.2,380.2,278.2L380.2,278.2z M370.1,276.8h9.4v-1.3h-9.4V276.8z"/>
	<path class="st2_philadelphia-30" d="M371.5,274.8c0,0,1.5-7.5,1.8-8.9l-1.8-0.8l0.9-5c0,0-0.8-0.6-0.5-1.1c0.2-0.4,0.4-0.8,0.5-1.2&#10;&#9;&#9;c0,0-1-2.6-0.7-3.6c0.3-0.7,0.9-1.2,1.6-1.3v-1.1h0.6v-1.4l-1.5-0.3l2.4-1.1c0,0,0.5-1.4,1-1.5s1.4,1.5,1.4,1.5l2,0.6&#10;&#9;&#9;c0,0-2.1,0.2-1.9,0.5s0.6,2.1,0.1,2.7c0,0,0,1.1,1.3,3.7c1.4,2.6,2.8,8.3,1.8,9s-2,0.4-2.1,0.8s-2.2,4.7-1.6,5.6&#10;&#9;&#9;c0.5,0.9,1,1.9,1.3,3L371.5,274.8z"/>
	<path class="st2_philadelphia-30" d="M378.2,275.5h-6.7c-0.2,0-0.4-0.1-0.5-0.2c-0.1-0.2-0.2-0.4-0.1-0.6c0,0,1.2-6.1,1.7-8.3l-1.3-0.5&#10;&#9;&#9;c-0.3-0.1-0.5-0.5-0.4-0.8l0.8-4.6c-0.5-0.4-0.7-1.2-0.3-1.8c0.1-0.2,0.3-0.5,0.4-0.8c-0.3-0.8-1-2.8-0.6-3.9&#10;&#9;&#9;c0.3-0.7,0.8-1.3,1.5-1.6v-0.6c0-0.4,0.3-0.7,0.6-0.7v-0.2l-1-0.2c-0.3-0.1-0.5-0.3-0.5-0.6c0-0.3,0.1-0.6,0.4-0.7l2.2-1&#10;&#9;&#9;c0.3-0.7,0.8-1.5,1.4-1.6c0.2,0,0.9-0.2,2,1.6l1.7,0.5c0.3,0.1,0.5,0.4,0.5,0.7c0,0.3-0.3,0.6-0.6,0.6c-0.4,0.1-0.8,0.1-1.1,0.2&#10;&#9;&#9;c0.2,0.8,0.2,1.7,0,2.5c0.2,1.1,0.6,2.3,1.2,3.3c1,2,3.3,8.7,1.6,9.9c-0.5,0.3-1.1,0.6-1.7,0.7h-0.2c0,0.1-0.1,0.3-0.2,0.5&#10;&#9;&#9;c-1.3,3-1.4,3.9-1.3,4.2c0.6,1,1,2,1.4,3.1c0.1,0.2,0,0.4-0.1,0.6C378.6,275.4,378.4,275.5,378.2,275.5z M372.3,274.1h4.9&#10;&#9;&#9;c-0.2-0.6-0.5-1.3-0.9-1.8c-0.6-0.8-0.1-2.6,1.2-5.6c0.1-0.3,0.2-0.5,0.2-0.6c0.1-0.6,0.8-0.7,1.2-0.8c0.4-0.1,0.8-0.2,1.2-0.4&#10;&#9;&#9;c0.4-0.6-0.6-5.3-2-8.1s-1.4-4-1.4-4.1c0-0.1,0.1-0.3,0.1-0.4c0.1-0.7,0-1.4-0.2-2c-0.1-0.2-0.1-0.5,0-0.7c0-0.1,0.1-0.1,0.1-0.2&#10;&#9;&#9;c-0.1-0.1-0.1-0.1-0.1-0.2c-0.2-0.4-0.4-0.7-0.7-1c-0.2,0.3-0.3,0.6-0.4,0.9c-0.1,0.2-0.2,0.3-0.4,0.4l-0.7,0.3&#10;&#9;&#9;c0.1,0.1,0.2,0.3,0.2,0.5v1.4c0,0.4-0.3,0.7-0.6,0.7v0.4c0,0.3-0.2,0.6-0.6,0.7c-0.5,0.1-0.9,0.4-1,0.9c0,1.1,0.2,2.2,0.7,3.2&#10;&#9;&#9;c0,0.1,0,0.3,0,0.4c-0.1,0.5-0.3,1-0.6,1.4c0,0,0.2,0.1,0.3,0.2c0.2,0.2,0.3,0.4,0.3,0.7l-0.8,4.4l1.3,0.6c0.3,0.1,0.5,0.5,0.4,0.8&#10;&#9;&#9;C373.7,267.2,372.7,272.1,372.3,274.1L372.3,274.1z M379.1,266.5L379.1,266.5z"/>
	<rect x="412.8" y="357.6" class="st1_philadelphia-30" width="56" height="38.2"/>
	<path class="st2_philadelphia-30" d="M468.7,396.5h-56c-0.4,0-0.7-0.3-0.7-0.7v0v-38.2c0-0.4,0.3-0.7,0.7-0.7h0h56c0.4,0,0.7,0.3,0.7,0.7v0v38.2&#10;&#9;&#9;C469.4,396.2,469.1,396.5,468.7,396.5z M413.5,395.1H468v-36.8h-54.5V395.1z"/>
	<rect x="433.7" y="351" class="st1_philadelphia-30" width="14.2" height="44.9"/>
	<path class="st2_philadelphia-30" d="M447.9,396.5h-14.2c-0.4,0-0.7-0.3-0.7-0.7v0V351c0-0.4,0.3-0.7,0.7-0.7h0h14.2c0.4,0,0.7,0.3,0.7,0.7v0v44.9&#10;&#9;&#9;C448.5,396.2,448.2,396.6,447.9,396.5z M434.4,395.1h12.8v-43.5h-12.8L434.4,395.1z"/>
	<path class="st3_philadelphia-30" d="M429.7,363.1h-13c-0.4,0-0.7-0.4-0.6-0.8c0-0.3,0.3-0.6,0.6-0.6h13c0.4,0,0.7,0.4,0.6,0.8&#10;&#9;&#9;C430.3,362.8,430.1,363.1,429.7,363.1z"/>
	<path class="st3_philadelphia-30" d="M429.7,367.1h-13c-0.4,0-0.7-0.3-0.7-0.7c0-0.4,0.3-0.7,0.7-0.7l0,0h13c0.4,0,0.7,0.3,0.7,0.7&#10;&#9;&#9;C430.4,366.8,430.1,367.1,429.7,367.1z"/>
	<path class="st3_philadelphia-30" d="M429.7,371.1h-13c-0.4,0-0.7-0.4-0.6-0.8c0-0.3,0.3-0.6,0.6-0.6h13c0.4,0,0.7,0.4,0.6,0.8&#10;&#9;&#9;C430.3,370.9,430.1,371.1,429.7,371.1z"/>
	<path class="st3_philadelphia-30" d="M429.7,375.2h-13c-0.4,0-0.7-0.4-0.6-0.8c0-0.3,0.3-0.6,0.6-0.6h13c0.4,0,0.7,0.4,0.6,0.8&#10;&#9;&#9;C430.3,374.9,430.1,375.1,429.7,375.2z"/>
	<path class="st3_philadelphia-30" d="M429.7,379.2h-13c-0.4,0-0.7-0.3-0.7-0.7c0-0.4,0.3-0.7,0.7-0.7l0,0h13c0.4,0,0.7,0.3,0.7,0.7&#10;&#9;&#9;C430.4,378.8,430.1,379.2,429.7,379.2z"/>
	<path class="st3_philadelphia-30" d="M429.7,383.2h-13c-0.4,0-0.7-0.4-0.6-0.8c0-0.3,0.3-0.6,0.6-0.6h13c0.4,0,0.7,0.4,0.6,0.8&#10;&#9;&#9;C430.3,382.9,430.1,383.1,429.7,383.2z"/>
	<path class="st3_philadelphia-30" d="M429.7,387.2h-13c-0.4,0-0.7-0.4-0.6-0.8c0-0.3,0.3-0.6,0.6-0.6h13c0.4,0,0.7,0.4,0.6,0.8&#10;&#9;&#9;C430.3,386.9,430.1,387.1,429.7,387.2z"/>
	<path class="st3_philadelphia-30" d="M429.7,391.2h-13c-0.4,0-0.7-0.3-0.7-0.7c0-0.4,0.3-0.7,0.7-0.7l0,0h13c0.4,0,0.7,0.3,0.7,0.7&#10;&#9;&#9;C430.4,390.9,430.1,391.2,429.7,391.2z"/>
	<path class="st3_philadelphia-30" d="M464.5,363.1h-13c-0.4,0-0.7-0.4-0.6-0.8c0-0.3,0.3-0.6,0.6-0.6h13c0.4,0,0.7,0.4,0.6,0.8&#10;&#9;&#9;C465.1,362.8,464.9,363.1,464.5,363.1z"/>
	<path class="st3_philadelphia-30" d="M464.5,367.1h-13c-0.4,0-0.7-0.3-0.7-0.7c0-0.4,0.3-0.7,0.7-0.7h13c0.4,0,0.7,0.3,0.7,0.7&#10;&#9;&#9;C465.2,366.8,464.9,367.1,464.5,367.1z"/>
	<path class="st3_philadelphia-30" d="M464.5,371.1h-13c-0.4,0-0.7-0.4-0.6-0.8c0-0.3,0.3-0.6,0.6-0.6h13c0.4,0,0.7,0.4,0.6,0.8&#10;&#9;&#9;C465.1,370.9,464.9,371.1,464.5,371.1z"/>
	<path class="st3_philadelphia-30" d="M464.5,375.2h-13c-0.4,0-0.7-0.4-0.6-0.8c0-0.3,0.3-0.6,0.6-0.6h13c0.4,0,0.7,0.4,0.6,0.8&#10;&#9;&#9;C465.1,374.9,464.9,375.1,464.5,375.2z"/>
	<path class="st3_philadelphia-30" d="M464.5,379.2h-13c-0.4,0-0.7-0.3-0.7-0.7c0-0.4,0.3-0.7,0.7-0.7h13c0.4,0,0.7,0.3,0.7,0.7&#10;&#9;&#9;C465.2,378.8,464.9,379.2,464.5,379.2z"/>
	<path class="st3_philadelphia-30" d="M464.5,383.2h-13c-0.4,0-0.7-0.4-0.6-0.8c0-0.3,0.3-0.6,0.6-0.6h13c0.4,0,0.7,0.4,0.6,0.8&#10;&#9;&#9;C465.1,382.9,464.9,383.1,464.5,383.2z"/>
	<path class="st3_philadelphia-30" d="M464.5,387.2h-13c-0.4,0-0.7-0.4-0.6-0.8c0-0.3,0.3-0.6,0.6-0.6h13c0.4,0,0.7,0.4,0.6,0.8&#10;&#9;&#9;C465.1,386.9,464.9,387.1,464.5,387.2z"/>
	<path class="st3_philadelphia-30" d="M464.5,391.2h-13c-0.4,0-0.7-0.3-0.7-0.7c0-0.4,0.3-0.7,0.7-0.7h13c0.4,0,0.7,0.3,0.7,0.7&#10;&#9;&#9;C465.2,390.9,464.9,391.2,464.5,391.2z"/>
</g>
<g id="Sun_philadelphia-30">
	<circle class="st1_philadelphia-30" cx="321.6" cy="181.4" r="25.1"/>
</g>
<g id="Frame_philadelphia-30">
	<path class="st2_philadelphia-30" d="M474.8,396.5H25.2c-0.4,0-0.7-0.3-0.7-0.7l0,0V104.2c0-0.4,0.3-0.7,0.7-0.7h449.7c0.4,0,0.7,0.3,0.7,0.7v0&#10;&#9;&#9;v291.7C475.5,396.2,475.2,396.5,474.8,396.5z M25.8,395.1h448.3V104.8H25.9L25.8,395.1z"/>
</g>
</svg>