<svg version="1.1" id="Layer_1" xmlns="http://www.w3.org/2000/svg" xmlns:xlink="http://www.w3.org/1999/xlink" x="0px" y="0px" viewBox="0 0 500 500" style="width: 161px;" xml:space="preserve" data-imageid="the-great-pyramid-33" imageName="The Great Pyramid" class="illustrations_image">
<style type="text/css">
	.st0_the-great-pyramid-33{fill:#68E1FD;}
	.st1_the-great-pyramid-33{fill:#FFFFFF;}
	.st2_the-great-pyramid-33{fill:#D1D3D4;}
	.st3_the-great-pyramid-33{fill:#231F20;}
</style>
<g id="Sky_the-great-pyramid-33">
	<rect x="25.4" y="104.2" class="st0_the-great-pyramid-33 targetColor" width="449.7" height="291.7" style="fill: rgb(104, 225, 253);"/>
</g>
<g id="Cloud_the-great-pyramid-33">
	<path class="st1_the-great-pyramid-33" d="M475.9,167c-12.7,1.2-30.2,7.5-35.7,18.9c-2.2,4.5-2.8,10.3-7.1,12.9c-3.8,2.4-8.7,1.1-13,2.2&#10;&#9;&#9;c-9.3,2.3-12.6,13.6-14.2,23.1c-6.1-5-15.5-0.3-20.2,6s-7.9,14.3-14.7,18.3c-4.7,2.8-10.5,3.1-16,3.4l-40.5,2l27.1,7.6&#10;&#9;&#9;c3.9,1.1,7.9,2.3,10.9,5s4.7,7.3,2.8,10.9c12.7-2.5,25.9-2.1,38.5,1.1c2.4,0.6,4.9,1.3,7.3,0.9s4.4-2.1,6.3-3.6&#10;&#9;&#9;c8.8-6.9,22.2-12.5,30.2-4.7c1.8,1.7,3,4,5.1,5.3c2.7,1.8,6.2,1.7,9.5,1.6c7.9-0.4,15.9,0.5,23.8,0.1V167z"/>
	<path class="st1_the-great-pyramid-33" d="M181.2,158.8c-11.1-5-17.8-3.9-30.2-2.6s-23.1-3.2-35.4-3.9c-7.6-0.4-15.6,1.3-22.1-3.5&#10;&#9;&#9;c-5.2-3.9-5.4-9.2-13.6-8.2c-6.2,0.8-9.4,4.9-16.4,3.8c-8-1.3-9.5-7.9-16.6-10.4c-5.3-1.9-14.7-0.4-19.6,2.5l-3.2,34.1v11.6&#10;&#9;&#9;c5.8,16.4,32,3.6,45.3,2c11.6-1.4,16.4-5.9,25.7-11.3c9.8-5.7,21.8-1.6,32.6-3.2c26.7-3.9,54.6-3.4,80.7-8.7&#10;&#9;&#9;C198.7,160.8,190.5,163,181.2,158.8z"/>
	<path class="st1_the-great-pyramid-33" d="M275.4,161c4.1-10.5,16.6-16.9,27.5-14.1c1.8,0.5,3.7,1.2,5.5,0.6c3-0.9,4.1-4.4,5.3-7.3&#10;&#9;&#9;c2.1-4.9,5.8-9,10.5-11.5c2.2-1.2,4.8-2.2,5.9-4.3c1-1.9,0.7-4.1,1-6.2c1.3-9.1,12.5-13.2,21.6-12.7c6,0.3,13.1,0.2,17.5,5.3&#10;&#9;&#9;c1.6,1.9,2.6,4.4,4.8,5.8c3.6,2.2,8.4,0.2,12.4,1.5c2,0.7,3.6,2.2,4.5,4.1c0.5,1.2,1,2.8,2.3,3.2c0.9,0.2,1.9-0.3,2.8-0.6&#10;&#9;&#9;c3.7-1.2,7.6,1.9,9,5.5c1.4,3.6,0.9,7.7,0.8,11.6c-0.1,1.1,0,2.2,0.4,3.2c0.6,1.2,1.6,2.1,2.7,2.8c2.4,1.8,4.8,3.6,7.6,4.5&#10;&#9;&#9;c2,0.5,4.1,0.8,6.2,0.9c3.9,0.2,9.8-0.7,10.6,4.6c-28.3-0.7-56.7-0.6-85-0.6L275.4,161z"/>
</g>
<g id="Pyrramids_the-great-pyramid-33">
	<rect x="25.4" y="306" class="st2_the-great-pyramid-33" width="449.7" height="89.9"/>
	<path class="st3_the-great-pyramid-33" d="M475.1,396.5H25.4c-0.4,0-0.6-0.3-0.6-0.6l0,0V306c0-0.3,0.3-0.6,0.6-0.6c0,0,0,0,0,0h449.7&#10;&#9;&#9;c0.4,0,0.6,0.3,0.6,0.6v0v89.9C475.7,396.2,475.4,396.5,475.1,396.5z M26.1,395.2h448.4v-88.6H26.1L26.1,395.2z"/>
	<path class="st3_the-great-pyramid-33" d="M367.1,230.8c0,0-3.1-3.1-4.5,0S335,259.3,335,259.3l22.3,12L367.1,230.8z"/>
	<path class="st3_the-great-pyramid-33" d="M357.4,272c-0.1,0-0.2,0-0.3-0.1l-22.3-12c-0.2-0.1-0.3-0.3-0.4-0.5c0-0.2,0-0.4,0.2-0.6&#10;&#9;&#9;c10.5-10.1,26.5-26,27.4-28.2c0.3-0.9,1-1.6,1.9-1.8c1.7-0.3,3.5,1.4,3.7,1.6c0.2,0.2,0.2,0.4,0.2,0.7l-9.8,40.5&#10;&#9;&#9;c-0.1,0.2-0.2,0.4-0.4,0.5C357.5,272,357.4,272,357.4,272z M336.2,259.1l20.7,11.1l9.4-39.2c-0.5-0.4-1.5-1.1-2.1-0.9&#10;&#9;&#9;c-0.1,0-0.5,0.1-0.9,0.9C362,234.1,340.9,254.6,336.2,259.1z"/>
	<path class="st1_the-great-pyramid-33" d="M357.4,271.3c0.5-1.3,8.9-40,9.7-40.5s3.9-0.3,5.5,0s102.5,84.1,102.5,84.1v5.3l-52-4L357.4,271.3z"/>
	<path class="st3_the-great-pyramid-33" d="M475.1,320.8L475.1,320.8l-52.1-4c-0.1,0-0.2,0-0.3-0.1L357,271.8c-0.3-0.2-0.3-0.5-0.2-0.8&#10;&#9;&#9;c0.2-0.5,1.5-6.4,3-12.7c5.8-25.3,6.5-27.7,7-28c1.3-0.9,5.9-0.1,6-0.1c1.6,0.3,72.4,59,102.8,84.2c0.1,0.1,0.2,0.3,0.2,0.5v5.3&#10;&#9;&#9;C475.8,320.5,475.5,320.8,475.1,320.8C475.2,320.8,475.2,320.8,475.1,320.8L475.1,320.8z M423.3,315.6l51.2,3.9v-4.3&#10;&#9;&#9;c-34.4-28.6-99.7-82.6-102.1-83.8c-1.6-0.3-3.2-0.3-4.8-0.1c-0.7,1.7-4.2,17.1-6.5,27.3c-1.6,6.9-2.5,11-2.9,12.4L423.3,315.6z"/>
	<path class="st2_the-great-pyramid-33" d="M429.4,284.4h-44.8c-0.4,0-0.7-0.3-0.7-0.7c0-0.4,0.3-0.7,0.7-0.7h44.8c0.4,0,0.7,0.3,0.7,0.7&#10;&#9;&#9;S429.7,284.4,429.4,284.4C429.4,284.4,429.4,284.4,429.4,284.4z"/>
	<path class="st2_the-great-pyramid-33" d="M416.2,275.9h-39.4c-0.4,0-0.7-0.3-0.7-0.7s0.3-0.7,0.7-0.7c0,0,0,0,0,0h39.4c0.4,0,0.7,0.3,0.7,0.7&#10;&#9;&#9;C416.9,275.6,416.6,275.9,416.2,275.9z"/>
	<path class="st1_the-great-pyramid-33" d="M423,316.2c0,0-107.5-6.6-109.8-6.6s-51.2-1.6-51.2-1.6l-53.1-27.3l31.3-79.9l8.8-13.8l11.9-18.6&#10;&#9;&#9;c0,0,3.7,1.6,5,2.9s34.4,32.3,34.4,32.3l1.6,4.2l4,2.6l71,64.7L423,316.2z"/>
	<path class="st3_the-great-pyramid-33" d="M423,316.9L423,316.9c-1.1-0.1-107.5-6.6-109.8-6.6s-49.3-1.5-51.3-1.6c-0.1,0-0.2,0-0.3-0.1l-53.1-27.3&#10;&#9;&#9;c-0.3-0.1-0.4-0.5-0.3-0.8l31.3-79.9l20.8-32.4c0.2-0.3,0.5-0.4,0.8-0.2c0.2,0.1,3.8,1.6,5.2,3s34.1,32,34.4,32.3&#10;&#9;&#9;c0.1,0.1,0.1,0.1,0.2,0.2l1.5,4l3.8,2.5l71,64.7l46.2,41c0.3,0.2,0.3,0.6,0.1,0.9C423.4,316.8,423.3,316.8,423,316.9L423,316.9z&#10;&#9;&#9; M262.1,307.4c2.9,0.1,48.8,1.6,51.1,1.6s93.3,5.5,108,6.5l-44.9-39.8l-71-64.7l-3.9-2.6c-0.1-0.1-0.2-0.2-0.2-0.3l-1.5-4.1&#10;&#9;&#9;c-2.4-2.3-33-31-34.3-32.2c-1.3-1-2.8-1.9-4.3-2.5l-20.5,31.9l-31,79.2L262.1,307.4z"/>
	<polygon class="st3_the-great-pyramid-33" points="199.7,239 260.9,168.6 222.8,268.9 &#9;"/>
	<path class="st3_the-great-pyramid-33" d="M222.8,269.6c-0.2,0-0.4-0.1-0.6-0.3l-23.1-30c-0.2-0.3-0.2-0.6,0-0.9l61.2-70.4c0.2-0.3,0.6-0.3,0.9-0.1&#10;&#9;&#9;c0.3,0.2,0.4,0.5,0.3,0.9l-38.1,100.4C223.3,269.4,223.1,269.5,222.8,269.6L222.8,269.6z M200.6,239l22,28.5l36.3-95.5L200.6,239z"/>
	<path class="st1_the-great-pyramid-33" d="M54.1,310.5c0,0,85.1-135.1,89.1-135.3s9.2,2.9,9.2,2.9l146.1,135.9L54.1,310.5z"/>
	<path class="st3_the-great-pyramid-33" d="M298.5,314.5L298.5,314.5l-244.4-3.4c-0.2,0-0.4-0.1-0.5-0.3c-0.1-0.2-0.1-0.4,0-0.6&#10;&#9;&#9;c20-31.8,85.6-135.4,89.6-135.6s9.4,2.9,9.6,3l146.2,135.9c0.3,0.2,0.3,0.6,0,0.9C298.8,314.4,298.7,314.5,298.5,314.5L298.5,314.5&#10;&#9;&#9;z M55.2,309.8l241.6,3.4L151.9,178.5l0,0c0,0-5.1-3-8.7-2.7C139.6,177.6,88.8,256.6,55.2,309.8z"/>
	<polygon class="st3_the-great-pyramid-33" points="54.1,310.5 25.4,310.5 25.4,299.8 143.2,175.1 60.4,308.6 &#9;"/>
	<path class="st3_the-great-pyramid-33" d="M54.1,311.1H25.4c-0.4,0-0.7-0.3-0.7-0.7l0,0v-10.7c0-0.2,0.1-0.4,0.2-0.5l117.8-124.6&#10;&#9;&#9;c0.2-0.3,0.6-0.3,0.9-0.1c0.3,0.2,0.4,0.6,0.2,0.9L61,309c-0.1,0.2-0.2,0.3-0.4,0.3l-6.3,1.8H54.1z M26.1,309.8H54l5.9-1.8&#10;&#9;&#9;l79-127.4L26.1,300L26.1,309.8z"/>
	<path class="st1_the-great-pyramid-33" d="M100.6,275.2c0,0,2.1-6,4.2-7.4s14.7-2.6,15.2-2.1s4.5,2.8,6,4.7s7.1,7.4,7.1,7.4L100.6,275.2z"/>
	<path class="st3_the-great-pyramid-33" d="M133.2,278.5L133.2,278.5l-32.6-2.6c-0.4,0-0.6-0.3-0.6-0.7c0-0.1,0-0.1,0.1-0.2c0.2-0.6,2.2-6.3,4.5-7.7&#10;&#9;&#9;c1.8-1.1,15-3.1,16-2c0.1,0.1,0.7,0.5,1.2,0.9c1.8,1.1,3.4,2.4,4.9,3.9c1.5,1.9,7,7.3,7,7.4c0.2,0.2,0.2,0.5,0.1,0.7&#10;&#9;&#9;C133.6,278.3,133.4,278.5,133.2,278.5z M101.5,274.7l30,2.4c-1.7-1.8-4.8-4.9-5.9-6.2c-1.4-1.4-2.9-2.6-4.6-3.6&#10;&#9;&#9;c-0.7-0.5-1.1-0.7-1.3-0.9c-1.4-0.2-12.6,0.9-14.6,2.1C103.8,269.3,102.2,272.7,101.5,274.7z"/>
	<path class="st1_the-great-pyramid-33" d="M97.4,275.2h37.8c0,0,1.3,5.3,3.2,6.6s8.9,10.8,8.9,10.8l-58.7,1.8L97.4,275.2z"/>
	<path class="st3_the-great-pyramid-33" d="M88.7,295.1c-0.3,0-0.6-0.3-0.6-0.6c0-0.1,0-0.2,0.1-0.3l8.8-19.2c0.1-0.2,0.3-0.4,0.6-0.4h37.8&#10;&#9;&#9;c0.3,0,0.6,0.2,0.6,0.5c0.4,1.4,1.6,5.2,2.9,6.2c1.9,1.3,8.3,9.9,9.1,10.9c0.2,0.3,0.1,0.7-0.1,0.9c-0.1,0.1-0.2,0.1-0.4,0.1&#10;&#9;&#9;L88.7,295.1L88.7,295.1z M97.9,275.9l-8.2,17.9l56.4-1.8c-2.3-3.1-6.8-8.7-8.1-9.6c-1.7-1.2-2.9-5-3.3-6.5L97.9,275.9z"/>
	<path class="st3_the-great-pyramid-33" d="M79.9,292.2c0,0,4.2-9.3,7.3-11.7s10.2-5.3,10.2-5.3L92.7,291L79.9,292.2z"/>
	<path class="st3_the-great-pyramid-33" d="M79.9,292.9c-0.4,0-0.7-0.3-0.7-0.7c0-0.1,0-0.2,0.1-0.3c0.2-0.4,4.3-9.5,7.6-12s10.1-5.2,10.4-5.3&#10;&#9;&#9;c0.4-0.1,0.8,0,0.9,0.4c0.1,0.1,0.1,0.3,0,0.5l-4.7,15.8c-0.1,0.3-0.3,0.5-0.6,0.5L79.9,292.9L79.9,292.9z M96.4,276.5&#10;&#9;&#9;c-3,1.2-6,2.8-8.7,4.6c-2.3,1.8-5.4,7.8-6.6,10.3l11.2-1L96.4,276.5z"/>
	<path class="st1_the-great-pyramid-33" d="M73,320.8l5.5-12.2h94.2c0,0-1.2,4.7,0,8.3c0.7,2.3,0.7,4.8,0,7.1L73,320.8z"/>
	<path class="st3_the-great-pyramid-33" d="M172.7,324.6L172.7,324.6L73,321.5c-0.2,0-0.4-0.1-0.5-0.3c-0.1-0.2-0.1-0.4,0-0.6l5.5-12.2&#10;&#9;&#9;c0.1-0.2,0.3-0.4,0.6-0.4h94.2c0.2,0,0.4,0.1,0.5,0.2c0.1,0.2,0.2,0.4,0.1,0.5c0,0-1.1,4.6,0,7.9c0.7,2.4,0.7,5.1,0,7.5&#10;&#9;&#9;C173.3,324.5,173,324.7,172.7,324.6z M74,320.2l98.3,3.1c0.5-2.1,0.5-4.2-0.1-6.2c-0.7-2.6-0.7-5.2-0.2-7.8H79L74,320.2z"/>
	<path class="st3_the-great-pyramid-33" d="M78.5,308.6H60.4c0,0-9.5,12.6-7.1,13s19.7-0.8,19.7-0.8L78.5,308.6z"/>
	<path class="st3_the-great-pyramid-33" d="M55.2,322.4c-0.7,0-1.3,0-2-0.1c-0.4-0.1-0.7-0.3-0.9-0.7c-0.8-2,5-10.1,7.5-13.4c0.1-0.2,0.3-0.3,0.6-0.3&#10;&#9;&#9;h18.2c0.4,0,0.7,0.3,0.7,0.7c0,0.1,0,0.2-0.1,0.3l-5.5,12.2c-0.1,0.2-0.3,0.4-0.6,0.4C72.5,321.6,60.3,322.4,55.2,322.4z M53.6,321&#10;&#9;&#9;c2.4,0.2,14-0.5,18.9-0.8l4.9-10.9H60.8C57.3,314,53.7,319.5,53.6,321z"/>
	<path class="st3_the-great-pyramid-33" d="M67.5,308.6c0,0,5.9-15,7.1-15.4s12.6-2.4,12.6-2.4l-3.9,17.7L67.5,308.6z"/>
	<path class="st3_the-great-pyramid-33" d="M83.3,309.3H67.5c-0.2,0-0.4-0.1-0.6-0.3c-0.1-0.2-0.2-0.4-0.1-0.6c4-10.1,6.5-15.5,7.5-15.8&#10;&#9;&#9;c1.2-0.4,11.5-2.2,12.7-2.4c0.2,0,0.5,0,0.6,0.2c0.2,0.2,0.2,0.4,0.2,0.6l-4,17.7C83.8,309.1,83.6,309.3,83.3,309.3z M68.5,307.9&#10;&#9;&#9;h14.2l3.6-16.2c-4.5,0.8-10.7,1.9-11.5,2.2C74.2,294.5,71.2,301.3,68.5,307.9z"/>
	<path class="st1_the-great-pyramid-33" d="M87.2,290.9c0,0,57.6,1.4,60.2,1.7s7.1,5,7.6,6s6.6,10,6.6,10h-83C78.6,308.6,83.5,290.8,87.2,290.9z"/>
	<path class="st3_the-great-pyramid-33" d="M161.6,309.2h-83c-0.2,0-0.4-0.1-0.6-0.2c-0.1-0.2-0.2-0.4-0.1-0.6c4.9-17.4,8.6-18.2,9.3-18.2&#10;&#9;&#9;c2.3,0.1,57.6,1.5,60.2,1.7c2.9,0.3,7.5,5.2,8.1,6.4c0.4,0.8,4.9,7.4,6.5,9.9c0.1,0.2,0.1,0.5,0,0.6&#10;&#9;&#9;C162,309.1,161.8,309.2,161.6,309.2z M79.4,308h81c-1.6-2.4-5.5-8.2-5.9-9.1s-4.8-5.5-7.1-5.7c-2.6-0.3-59.6-1.7-60.1-1.7l0,0&#10;&#9;&#9;C85.1,291.5,81.4,300.9,79.4,308z"/>
	<path class="st1_the-great-pyramid-33" d="M301.9,208c0,0-5,7.9-10.2,7.9s-30.8-7.1-34.2-8.9s-11.6,1.2-11.6,1.2l3.1-21l11.9-18.6c0,0,3.7,1.6,5,2.9&#10;&#9;&#9;s34.4,32.3,34.4,32.3L301.9,208z"/>
	<path class="st3_the-great-pyramid-33" d="M291.6,216.5c-5.5,0-31-7.1-34.5-9c-2.6-1.4-8.9,0.4-11.1,1.3c-0.2,0.1-0.4,0-0.6-0.1&#10;&#9;&#9;c-0.2-0.1-0.3-0.4-0.2-0.6l3.1-21c0-0.1,0-0.2,0.1-0.2l11.9-18.6c0.2-0.3,0.5-0.4,0.8-0.2c0.2,0.1,3.8,1.6,5.2,3s34.1,32,34.4,32.3&#10;&#9;&#9;c0.1,0.1,0.1,0.1,0.2,0.2l1.6,4.2c0.1,0.2,0.1,0.4,0,0.6C302.2,208.6,297.2,216.5,291.6,216.5z M254.5,205.7c1.1,0,2.2,0.2,3.3,0.6&#10;&#9;&#9;c3.2,1.7,28.6,8.9,33.9,8.9c4.3,0,8.6-6,9.5-7.3l-1.4-3.8c-2.4-2.3-33-31-34.3-32.2c-1.3-1-2.8-1.9-4.3-2.5l-11.6,18l-2.9,19.9&#10;&#9;&#9;C249.2,206.3,251.8,205.8,254.5,205.7L254.5,205.7z"/>
	<path class="st2_the-great-pyramid-33" d="M225.5,209.3c1.9-1.9,4.7-2.7,7.3-2.1c4.5,1,13.1,0.9,13.1,0.9l15-39.6L225.5,209.3z"/>
	<path class="st3_the-great-pyramid-33" d="M225.5,210c-0.2,0-0.3-0.1-0.5-0.2c-0.3-0.2-0.3-0.7-0.1-1c0,0,0,0,0,0l35.4-40.7c0.2-0.3,0.6-0.3,0.9-0.1&#10;&#9;&#9;c0.3,0.2,0.4,0.5,0.3,0.9l-15,39.6c-0.1,0.3-0.4,0.5-0.6,0.5c-0.4,0-8.7,0-13.2-1c-2.4-0.5-4.9,0.2-6.6,1.9&#10;&#9;&#9;C225.9,209.9,225.7,210,225.5,210z M231,206.3c0.7,0,1.3,0.1,1.9,0.2c3.8,0.9,10.6,0.9,12.5,0.9l13.5-35.4l-30.1,34.6&#10;&#9;&#9;C229.5,206.4,230.2,206.3,231,206.3L231,206.3z"/>
	<path class="st2_the-great-pyramid-33" d="M301.3,236.1c-0.7,0-1.5,0-2.2-0.1c-1.2-0.2-2.4-0.5-3.5-0.8c-0.5-0.1-1-0.3-1.5-0.4c-2.9-0.6-5.9-1.1-8.9-1.2&#10;&#9;&#9;l-11.8-1c-2.7-0.2-5.4-0.5-8-0.6c-8.6-0.5-17.3,0-25.8,1.6c-0.4,0.1-0.7-0.2-0.8-0.6c0,0,0,0,0,0c-0.1-0.4,0.2-0.7,0.5-0.8&#10;&#9;&#9;c0,0,0,0,0,0c8.6-1.6,17.4-2.1,26.2-1.6c2.7,0.1,5.4,0.4,8,0.6l11.9,1c3.1,0.2,6.1,0.6,9.1,1.3l1.5,0.4c3.1,1,6.4,1.2,9.5,0.6&#10;&#9;&#9;l0.6-0.1c6.9-0.7,13.8-1,20.8-0.6c0.4,0,0.7,0.3,0.7,0.7c0,0,0,0,0,0c0,0.4-0.3,0.7-0.7,0.7c0,0,0,0,0,0&#10;&#9;&#9;c-6.9-0.3-13.7-0.1-20.5,0.6l-0.6,0.1C304.3,235.9,302.8,236,301.3,236.1z"/>
	<path class="st3_the-great-pyramid-33" d="M215.2,284.4c8-9.8,16-19.8,26.1-27.4c0.3,2.6-1,5.1-2.3,7.4c-4.3,8.1-7.8,16.6-10.5,25.4&#10;&#9;&#9;c-1,3.2-1.9,6.5-2.7,9.7s-1.5,6.3-2.3,9.5l-2.5,10.7c0,0.1-31.7,1.9-34.6,1.5c0.2-5.1,9.5-13,12.7-17L215.2,284.4z"/>
	<path class="st3_the-great-pyramid-33" d="M186.4,321.9L186.4,321.9c-0.4,0-0.6-0.4-0.6-0.7c0.1-4,5.3-9.4,9.4-13.6c1.4-1.5,2.7-2.8,3.5-3.8l16-19.8&#10;&#9;&#9;c7.9-9.7,16-19.8,26.2-27.5c0.2-0.2,0.5-0.2,0.7-0.1c0.2,0.1,0.4,0.3,0.4,0.6c0.3,2.8-1.1,5.4-2.3,7.8c-4.3,8.1-7.8,16.6-10.5,25.3&#10;&#9;&#9;c-0.9,2.9-1.8,6.1-2.7,9.7c-0.8,3.1-1.5,6.3-2.3,9.5l-2.5,10.7c0,0.1-0.1,0.3-0.2,0.4C220.6,320.9,187.8,321.9,186.4,321.9z&#10;&#9;&#9; M187.2,320.5c5,0.1,29.5-1.2,33.2-1.5l2.4-10.2c0.7-3.2,1.5-6.3,2.3-9.5c0.9-3.6,1.8-6.8,2.7-9.8c2.7-8.8,6.3-17.4,10.6-25.5&#10;&#9;&#9;c1.1-1.7,1.8-3.7,2.2-5.7c-9.5,7.5-17.3,17.1-24.8,26.5l0,0l-16,19.8c-0.9,1.1-2.1,2.4-3.6,3.9C192.6,312.1,187.9,317,187.2,320.5&#10;&#9;&#9;L187.2,320.5z M215.2,284.4L215.2,284.4z"/>
	<path class="st1_the-great-pyramid-33" d="M274,277c4.7,4.7,8.4,10.2,12.6,15.4c4.1,5,8.7,9.7,13.7,13.9c5.7,4.8,11.9,9,16,15.2c0.4,0.6,0.7,1.4,0.3,1.9&#10;&#9;&#9;c-0.3,0.3-0.7,0.4-1.1,0.4c-32.6,2.2-65.3,0.5-97.4-5.2c5.9-10.1,7.9-21.9,10.7-33.2c2-8,6-27.2,16.4-28.5&#10;&#9;&#9;c5.4-0.7,10.1,5.3,13.9,8.3C264.2,268.9,269.5,272.5,274,277z"/>
	<path class="st3_the-great-pyramid-33" d="M288.2,325.3c-23.5,0-47-2.1-70.2-6.2c-0.4,0-0.6-0.4-0.5-0.7c0-0.1,0.1-0.2,0.1-0.3&#10;&#9;&#9;c4.9-8.2,7.1-17.9,9.2-27.1c0.5-2,0.9-4,1.4-5.9l0.4-1.5c2.2-9.2,6.3-26.2,16.6-27.5c4.4-0.6,8.2,2.9,11.6,5.9c1,0.9,2,1.8,2.9,2.5&#10;&#9;&#9;l3.2,2.4c4.1,2.9,8,6.2,11.7,9.7l0,0c3.1,3.2,5.9,6.6,8.6,10.2c1.3,1.7,2.7,3.5,4.1,5.2c4.1,5,8.7,9.6,13.6,13.8&#10;&#9;&#9;c1.2,1,2.4,2,3.6,2.9c4.6,3.7,9.3,7.5,12.5,12.4c0.7,1.1,0.8,2,0.2,2.7c-0.4,0.4-1,0.6-1.5,0.6&#10;&#9;&#9;C306.4,324.9,297.3,325.3,288.2,325.3z M219.2,318c31.8,5.5,64.1,7.2,96.3,5c0.2,0,0.5-0.1,0.7-0.2c0.1-0.1,0-0.6-0.3-1.1&#10;&#9;&#9;c-3.2-4.8-7.8-8.5-12.3-12.1c-1.2-1-2.4-2-3.6-2.9c-5-4.2-9.6-8.9-13.8-13.9c-1.4-1.7-2.8-3.5-4.1-5.2c-2.6-3.5-5.4-6.9-8.5-10.1&#10;&#9;&#9;c-3.6-3.5-7.5-6.7-11.6-9.6c-1.1-0.8-2.1-1.6-3.2-2.4s-1.9-1.6-2.9-2.5c-3.1-2.9-6.7-6.1-10.5-5.6c-9.4,1.2-13.5,18.3-15.5,26.6&#10;&#9;&#9;l-0.4,1.5c-0.5,2-0.9,3.9-1.4,5.9C226,300.4,223.8,309.8,219.2,318L219.2,318z"/>
	<path class="st2_the-great-pyramid-33" d="M173.3,206.8h-44.7c-0.4,0-0.7-0.3-0.7-0.7c0-0.4,0.3-0.7,0.7-0.7c0,0,0,0,0,0h44.7c0.4,0,0.7,0.3,0.7,0.7&#10;&#9;&#9;C174,206.5,173.7,206.8,173.3,206.8C173.3,206.8,173.3,206.8,173.3,206.8L173.3,206.8z"/>
	<path class="st2_the-great-pyramid-33" d="M194.3,230.1h-65.7c-0.4,0-0.7-0.3-0.7-0.7c0-0.4,0.3-0.7,0.7-0.7h65.7c0.4,0,0.7,0.3,0.7,0.7&#10;&#9;&#9;C195,229.8,194.7,230.1,194.3,230.1C194.3,230.1,194.3,230.1,194.3,230.1z"/>
	<path class="st2_the-great-pyramid-33" d="M199.7,236.1h-88c-0.4,0-0.7-0.3-0.7-0.7c0-0.4,0.3-0.7,0.7-0.7c0,0,0,0,0,0h88c0.4,0,0.7,0.3,0.7,0.7&#10;&#9;&#9;C200.4,235.7,200.1,236,199.7,236.1C199.7,236.1,199.7,236.1,199.7,236.1z"/>
	<path class="st2_the-great-pyramid-33" d="M213.9,245.2h-88c-0.4,0-0.7-0.3-0.7-0.7c0-0.4,0.3-0.7,0.7-0.7h88c0.4,0,0.7,0.3,0.7,0.7&#10;&#9;&#9;C214.6,244.9,214.3,245.2,213.9,245.2C213.9,245.2,213.9,245.2,213.9,245.2z"/>
	<path class="st2_the-great-pyramid-33" d="M194.3,251.1h-91.7c-0.4,0-0.7-0.3-0.7-0.7c0-0.4,0.3-0.7,0.7-0.7h91.7c0.4,0,0.7,0.3,0.7,0.7&#10;&#9;&#9;C195,250.7,194.7,251.1,194.3,251.1C194.3,251.1,194.3,251.1,194.3,251.1z"/>
	<path class="st2_the-great-pyramid-33" d="M218.1,261.2h-79.7c-0.4,0-0.7-0.3-0.7-0.7c0-0.4,0.3-0.7,0.7-0.7c0,0,0,0,0,0h79.7c0.4,0,0.7,0.3,0.7,0.7&#10;&#9;&#9;C218.8,260.9,218.5,261.2,218.1,261.2z"/>
	<path class="st2_the-great-pyramid-33" d="M315.3,245.2h-72.1c-0.4,0-0.7-0.3-0.7-0.7c0-0.4,0.3-0.7,0.7-0.7h72.1c0.4,0,0.7,0.3,0.7,0.7&#10;&#9;&#9;S315.7,245.2,315.3,245.2C315.3,245.2,315.3,245.2,315.3,245.2L315.3,245.2z"/>
	<path class="st2_the-great-pyramid-33" d="M335,260h-67.5c-0.4,0-0.7-0.3-0.7-0.7s0.3-0.7,0.7-0.7c0,0,0,0,0,0H335c0.4,0,0.7,0.3,0.7,0.7&#10;&#9;&#9;S335.4,260,335,260C335,260,335,260,335,260z"/>
	<path class="st2_the-great-pyramid-33" d="M357.4,269.6h-83.5c-0.4,0-0.7-0.3-0.7-0.7s0.3-0.7,0.7-0.7c0,0,0,0,0,0h83.5c0.4,0,0.7,0.3,0.7,0.7&#10;&#9;&#9;S357.7,269.6,357.4,269.6C357.4,269.6,357.4,269.6,357.4,269.6z"/>
	<path class="st2_the-great-pyramid-33" d="M367.1,284.4h-56.8c-0.4,0-0.7-0.3-0.7-0.7c0-0.4,0.3-0.7,0.7-0.7h56.8c0.4,0,0.7,0.3,0.7,0.7&#10;&#9;&#9;S367.5,284.4,367.1,284.4C367.1,284.4,367.1,284.4,367.1,284.4z"/>
	<path class="st2_the-great-pyramid-33" d="M378.9,289.8h-80.4c-0.4,0-0.7-0.3-0.7-0.7s0.3-0.7,0.7-0.7c0,0,0,0,0,0h80.4c0.4,0,0.7,0.3,0.7,0.7&#10;&#9;&#9;S379.3,289.8,378.9,289.8C378.9,289.8,378.9,289.8,378.9,289.8z"/>
	<path class="st2_the-great-pyramid-33" d="M208.9,272.5h-58c-0.4,0-0.7-0.3-0.7-0.7c0-0.4,0.3-0.7,0.7-0.7c0,0,0,0,0,0h57.9c0.4,0,0.7,0.3,0.7,0.7&#10;&#9;&#9;C209.6,272.1,209.3,272.5,208.9,272.5L208.9,272.5z"/>
	<path class="st2_the-great-pyramid-33" d="M208.9,284.4h-39c-0.4,0-0.7-0.3-0.7-0.7c0-0.4,0.3-0.7,0.7-0.7h39c0.4,0,0.7,0.3,0.7,0.7&#10;&#9;&#9;C209.6,284.1,209.3,284.4,208.9,284.4z"/>
	<path class="st2_the-great-pyramid-33" d="M169.8,219.4h-46.7c-0.4,0-0.7-0.3-0.7-0.7c0-0.4,0.3-0.7,0.7-0.7h46.7c0.4,0,0.7,0.3,0.7,0.7&#10;&#9;&#9;C170.5,219.1,170.2,219.4,169.8,219.4C169.8,219.4,169.8,219.4,169.8,219.4z"/>
	<path class="st2_the-great-pyramid-33" d="M179.9,212.7h-41.4c-0.4,0-0.7-0.3-0.7-0.7c0-0.4,0.3-0.7,0.7-0.7h41.4c0.4,0,0.7,0.3,0.7,0.7&#10;&#9;&#9;C180.6,212.4,180.3,212.7,179.9,212.7C179.9,212.7,179.9,212.7,179.9,212.7z"/>
	<path class="st2_the-great-pyramid-33" d="M161.6,198.9h-26.7c-0.4,0-0.7-0.3-0.7-0.7c0-0.4,0.3-0.7,0.7-0.7c0,0,0,0,0,0h26.7c0.4,0,0.7,0.3,0.7,0.7&#10;&#9;&#9;C162.3,198.6,162,198.9,161.6,198.9L161.6,198.9z"/>
	<path class="st2_the-great-pyramid-33" d="M159.2,192.9h-20.7c-0.4,0-0.7-0.3-0.7-0.7c0-0.4,0.3-0.7,0.7-0.7h20.7c0.4,0,0.7,0.3,0.7,0.7&#10;&#9;&#9;C159.9,192.6,159.6,192.9,159.2,192.9z"/>
	<path class="st2_the-great-pyramid-33" d="M192.4,302.6h-26.8c-0.4,0-0.7-0.3-0.7-0.7c0-0.4,0.3-0.7,0.7-0.7h26.8c0.4,0,0.7,0.3,0.7,0.7&#10;&#9;&#9;C193.2,302.3,192.8,302.6,192.4,302.6C192.5,302.6,192.5,302.6,192.4,302.6z"/>
	<path class="st2_the-great-pyramid-33" d="M186.4,295.1h-30.8c-0.4,0-0.7-0.3-0.7-0.7c0-0.4,0.3-0.7,0.7-0.7c0,0,0,0,0,0h30.8c0.4,0,0.7,0.3,0.7,0.7&#10;&#9;&#9;C187.1,294.8,186.8,295.1,186.4,295.1z"/>
	<path class="st2_the-great-pyramid-33" d="M192.4,278.6h-45.1c-0.4,0-0.7-0.3-0.7-0.7c0-0.4,0.3-0.7,0.7-0.7h45.1c0.4,0,0.7,0.3,0.7,0.7&#10;&#9;&#9;C193.1,278.3,192.8,278.6,192.4,278.6L192.4,278.6z"/>
	<path class="st2_the-great-pyramid-33" d="M169.3,266.4h-36.7c-0.4,0-0.7-0.3-0.7-0.7c0-0.4,0.3-0.7,0.7-0.7h36.7c0.4,0,0.7,0.3,0.7,0.7&#10;&#9;&#9;C170,266,169.7,266.4,169.3,266.4C169.3,266.4,169.3,266.4,169.3,266.4L169.3,266.4z"/>
	<path class="st2_the-great-pyramid-33" d="M150.9,257.4h-48.3c-0.4,0-0.7-0.3-0.7-0.7c0-0.4,0.3-0.7,0.7-0.7h48.3c0.4,0,0.7,0.3,0.7,0.7&#10;&#9;&#9;C151.6,257.1,151.3,257.4,150.9,257.4C150.9,257.4,150.9,257.4,150.9,257.4z"/>
	<path class="st2_the-great-pyramid-33" d="M338.7,251.1h-87.2c-0.4,0-0.7-0.3-0.7-0.7c0-0.4,0.3-0.7,0.7-0.7c0,0,0,0,0,0h87.2c0.4,0,0.7,0.3,0.7,0.7&#10;&#9;&#9;C339.4,250.7,339.1,251.1,338.7,251.1z"/>
	<path class="st2_the-great-pyramid-33" d="M351,264.4h-64.4c-0.4,0-0.7-0.3-0.7-0.7c0-0.4,0.3-0.7,0.7-0.7H351c0.4,0,0.7,0.3,0.7,0.7&#10;&#9;&#9;C351.7,264.1,351.4,264.4,351,264.4z"/>
	<path class="st2_the-great-pyramid-33" d="M361.2,278.6h-78c-0.4,0-0.7-0.3-0.7-0.7c0-0.4,0.3-0.7,0.7-0.7h78c0.4,0,0.7,0.3,0.7,0.7&#10;&#9;&#9;C361.9,278.3,361.5,278.6,361.2,278.6z"/>
	<path class="st2_the-great-pyramid-33" d="M349.7,298.7h-51.2c-0.4,0-0.7-0.3-0.7-0.7s0.3-0.7,0.7-0.7c0,0,0,0,0,0h51.2c0.4,0,0.7,0.3,0.7,0.7&#10;&#9;&#9;S350.1,298.7,349.7,298.7C349.7,298.7,349.7,298.7,349.7,298.7z"/>
	<path class="st2_the-great-pyramid-33" d="M397.6,304.2h-80.6c-0.4,0-0.7-0.3-0.7-0.7c0-0.4,0.3-0.7,0.7-0.7h80.6c0.4,0,0.7,0.3,0.7,0.7&#10;&#9;&#9;C398.3,303.9,398,304.2,397.6,304.2z"/>
	<path class="st2_the-great-pyramid-33" d="M316,227.3h-69.6c-0.4,0-0.7-0.3-0.7-0.7c0-0.4,0.3-0.7,0.7-0.7c0,0,0,0,0,0H316c0.4,0,0.7,0.3,0.7,0.7&#10;&#9;&#9;S316.4,227.3,316,227.3C316,227.3,316,227.3,316,227.3z"/>
	<path class="st2_the-great-pyramid-33" d="M308.7,221h-41.2c-0.4,0-0.7-0.3-0.7-0.7c0-0.4,0.3-0.7,0.7-0.7h41.2c0.4,0,0.7,0.3,0.7,0.7&#10;&#9;&#9;S309.1,221,308.7,221C308.7,221,308.7,221,308.7,221L308.7,221z"/>
	<path class="st2_the-great-pyramid-33" d="M270.5,216.6h-20.2c-0.4,0-0.7-0.3-0.7-0.7c0-0.4,0.3-0.7,0.7-0.7h20.2c0.4,0,0.7,0.3,0.7,0.7&#10;&#9;&#9;S270.9,216.5,270.5,216.6C270.5,216.6,270.5,216.6,270.5,216.6z"/>
	<path class="st2_the-great-pyramid-33" d="M326.9,239.1h-80.5c-0.4,0-0.7-0.3-0.7-0.7c0-0.4,0.3-0.7,0.7-0.7h80.5c0.4,0,0.7,0.3,0.7,0.7&#10;&#9;&#9;S327.3,239.1,326.9,239.1C326.9,239.1,326.9,239.1,326.9,239.1z"/>
	<path class="st2_the-great-pyramid-33" d="M378.9,243.1h-10.2c-0.4,0-0.7-0.3-0.7-0.7s0.3-0.7,0.7-0.7c0,0,0,0,0,0h10.2c0.4,0,0.7,0.3,0.7,0.7&#10;&#9;&#9;C379.6,242.8,379.3,243.1,378.9,243.1L378.9,243.1z"/>
	<path class="st2_the-great-pyramid-33" d="M384.5,251.1h-17.5c-0.4,0-0.7-0.3-0.7-0.7c0-0.4,0.3-0.7,0.7-0.7h17.5c0.4,0,0.7,0.3,0.7,0.7&#10;&#9;&#9;S384.9,251.1,384.5,251.1C384.5,251.1,384.5,251.1,384.5,251.1z"/>
	<path class="st2_the-great-pyramid-33" d="M275.5,309.3h-45.2c-0.4,0-0.7-0.3-0.7-0.7c0-0.4,0.3-0.7,0.7-0.7h45.2c0.4,0,0.7,0.3,0.7,0.7&#10;&#9;&#9;C276.2,309,275.8,309.3,275.5,309.3z"/>
	<path class="st2_the-great-pyramid-33" d="M291,302.6h-51.6c-0.4,0-0.7-0.3-0.7-0.7c0-0.4,0.3-0.7,0.7-0.7c0,0,0,0,0,0H291c0.4,0,0.7,0.3,0.7,0.7&#10;&#9;&#9;S291.4,302.6,291,302.6C291,302.6,291,302.6,291,302.6z"/>
	<path class="st2_the-great-pyramid-33" d="M264.1,295.1h-31.9c-0.4,0-0.7-0.3-0.7-0.7c0-0.4,0.3-0.7,0.7-0.7c0,0,0,0,0,0h31.9c0.4,0,0.7,0.3,0.7,0.7&#10;&#9;&#9;S264.5,295.1,264.1,295.1C264.1,295.1,264.1,295.1,264.1,295.1z"/>
	<path class="st2_the-great-pyramid-33" d="M281.2,288h-41.8c-0.4,0-0.7-0.3-0.7-0.7c0-0.4,0.3-0.7,0.7-0.7h41.8c0.4,0,0.7,0.3,0.7,0.7&#10;&#9;&#9;C281.9,287.7,281.5,288,281.2,288z"/>
	<path class="st2_the-great-pyramid-33" d="M273.9,282.5H235c-0.4,0-0.7-0.3-0.7-0.7c0-0.4,0.3-0.7,0.7-0.7h38.9c0.4,0,0.7,0.3,0.7,0.7&#10;&#9;&#9;S274.3,282.5,273.9,282.5C273.9,282.5,273.9,282.5,273.9,282.5L273.9,282.5z"/>
	<path class="st2_the-great-pyramid-33" d="M264.1,275.9H235c-0.4,0-0.7-0.3-0.7-0.7c0-0.4,0.3-0.7,0.7-0.7c0,0,0,0,0,0h29.1c0.4,0,0.7,0.3,0.7,0.7&#10;&#9;&#9;C264.8,275.6,264.5,275.9,264.1,275.9L264.1,275.9z"/>
	<path class="st2_the-great-pyramid-33" d="M256.3,269.6H239c-0.4,0-0.7-0.3-0.7-0.7c0-0.4,0.3-0.7,0.7-0.7c0,0,0,0,0,0h17.3c0.4,0,0.7,0.3,0.7,0.7&#10;&#9;&#9;C257,269.3,256.7,269.6,256.3,269.6L256.3,269.6z"/>
	<path class="st2_the-great-pyramid-33" d="M461.7,309.3H423c-0.4,0-0.7-0.3-0.7-0.7c0-0.4,0.3-0.7,0.7-0.7h38.6c0.4,0,0.7,0.3,0.7,0.7&#10;&#9;&#9;C462.4,309,462.1,309.3,461.7,309.3z"/>
	<path class="st2_the-great-pyramid-33" d="M466,314.6h-23.6c-0.4,0-0.7-0.3-0.7-0.7c0-0.4,0.3-0.7,0.7-0.7H466c0.4,0,0.7,0.3,0.7,0.7&#10;&#9;&#9;C466.7,314.3,466.4,314.6,466,314.6z"/>
	<path class="st2_the-great-pyramid-33" d="M442.4,298.7h-37.4c-0.4,0-0.7-0.3-0.7-0.7s0.3-0.7,0.7-0.7c0,0,0,0,0,0h37.5c0.4,0,0.7,0.3,0.7,0.7&#10;&#9;&#9;S442.8,298.7,442.4,298.7C442.4,298.7,442.4,298.7,442.4,298.7L442.4,298.7z"/>
	<path class="st2_the-great-pyramid-33" d="M433.3,289.8h-24.5c-0.4,0-0.7-0.3-0.7-0.7c0-0.4,0.3-0.7,0.7-0.7h24.5c0.4,0,0.7,0.3,0.7,0.7&#10;&#9;&#9;C434,289.5,433.7,289.8,433.3,289.8z"/>
	<path class="st2_the-great-pyramid-33" d="M411.6,272h-24.8c-0.4,0-0.7-0.3-0.7-0.7s0.3-0.7,0.7-0.7c0,0,0,0,0,0h24.8c0.4,0,0.7,0.3,0.7,0.7&#10;&#9;&#9;S412,272,411.6,272C411.6,272,411.6,272,411.6,272z"/>
	<path class="st2_the-great-pyramid-33" d="M404.9,264.4h-36.3c-0.4,0-0.7-0.3-0.7-0.7s0.3-0.7,0.7-0.7c0,0,0,0,0,0h36.3c0.4,0,0.7,0.3,0.7,0.7&#10;&#9;&#9;C405.6,264.1,405.3,264.4,404.9,264.4z"/>
	<path class="st2_the-great-pyramid-33" d="M394.3,260h-25.6c-0.4,0-0.7-0.3-0.7-0.7s0.3-0.7,0.7-0.7c0,0,0,0,0,0h25.6c0.4,0,0.7,0.3,0.7,0.7&#10;&#9;&#9;C395,259.7,394.7,260,394.3,260z"/>
	<path class="st2_the-great-pyramid-33" d="M165.6,314.2H87.2c-0.4,0-0.7-0.3-0.7-0.7c0-0.4,0.3-0.7,0.7-0.7h78.4c0.4,0,0.7,0.3,0.7,0.7&#10;&#9;&#9;C166.3,313.9,166,314.2,165.6,314.2C165.6,314.2,165.6,314.2,165.6,314.2z"/>
	<path class="st2_the-great-pyramid-33" d="M168.3,320.1h-38.9c-0.4,0-0.7-0.3-0.7-0.7c0-0.4,0.3-0.7,0.7-0.7c0,0,0,0,0,0h38.9c0.4,0,0.7,0.3,0.7,0.7&#10;&#9;&#9;C169,319.8,168.6,320.1,168.3,320.1L168.3,320.1z"/>
	<path class="st2_the-great-pyramid-33" d="M143.2,300.5H88.7c-0.4,0-0.7-0.3-0.7-0.7c0-0.4,0.3-0.7,0.7-0.7h54.5c0.4,0,0.7,0.3,0.7,0.7&#10;&#9;&#9;C143.9,300.1,143.6,300.4,143.2,300.5L143.2,300.5z"/>
	<path class="st2_the-great-pyramid-33" d="M138.4,288h-30.2c-0.4,0-0.7-0.3-0.7-0.7c0-0.4,0.3-0.7,0.7-0.7h30.2c0.4,0,0.7,0.3,0.7,0.7&#10;&#9;&#9;C139.1,287.7,138.8,288,138.4,288z"/>
	<path class="st2_the-great-pyramid-33" d="M133.2,282.5h-30.6c-0.4,0-0.7-0.3-0.7-0.7c0-0.4,0.3-0.7,0.7-0.7h30.6c0.4,0,0.7,0.3,0.7,0.7&#10;&#9;&#9;C133.9,282.2,133.6,282.5,133.2,282.5z"/>
</g>
<g id="Frame_the-great-pyramid-33">
	<path class="st3_the-great-pyramid-33" d="M475.1,396.5H25.4c-0.4,0-0.7-0.3-0.7-0.7l0,0V104.2c0-0.4,0.3-0.7,0.7-0.7h449.7c0.4,0,0.7,0.3,0.7,0.7v0&#10;&#9;&#9;v291.7C475.8,396.2,475.5,396.5,475.1,396.5z M26.1,395.1h448.3V104.8H26.1L26.1,395.1z"/>
</g>
<g id="Sands_the-great-pyramid-33">
	<path class="st3_the-great-pyramid-33" d="M413.3,358.1L413.3,358.1l-54.4-4.2c-8.6-0.7-17.4-1.4-26-3.4c-4.8-1.1-10.2-4.1-9.5-9c0.4-3.1,3.1-5.3,8.3-7&#10;&#9;&#9;c39.6-12.3,81.6-12.1,122.1-11.9c0.4,0,0.6,0.3,0.6,0.6c0,0.3-0.3,0.6-0.6,0.6l0,0c-40.5-0.2-82.4-0.5-121.8,11.8&#10;&#9;&#9;c-4.6,1.4-7.1,3.4-7.4,5.9c-0.5,4,4.3,6.5,8.6,7.6c8.4,2,17.3,2.7,25.8,3.3l54.4,4.2c0.4,0,0.6,0.3,0.6,0.7&#10;&#9;&#9;C413.9,357.8,413.7,358.1,413.3,358.1C413.3,358.1,413.3,358.1,413.3,358.1z"/>
	<path class="st3_the-great-pyramid-33" d="M327,376.2c-15,0-30-1.6-44.6-3.1c-18-1.9-36.6-3.8-54.9-2.8c-3.4,0.2-6.8,0.5-10.1,0.8&#10;&#9;&#9;c-7.6,0.6-15.5,1.3-23.3,0.8c-4-0.3-8.1-0.9-12-1.5c-2-0.3-4.1-0.6-6.1-0.9c-10.8-1.4-21.8-1.6-32.5-1.8&#10;&#9;&#9;c-15.5-0.3-31.6-0.5-47.3,1.2l-3.6,0.4c-4.9,0.7-9.9,1.1-14.9,1c-6.9-0.3-13.6-2.1-20.1-3.9l-21.3-5.9c-0.3-0.1-0.6-0.4-0.5-0.8&#10;&#9;&#9;c0.1-0.3,0.4-0.6,0.8-0.5c0,0,0.1,0,0.1,0l21.3,5.8c6.4,1.8,13.1,3.6,19.8,3.9c4.9,0.1,9.8-0.3,14.7-1l3.6-0.4&#10;&#9;&#9;c15.8-1.8,31.9-1.5,47.4-1.2c10.7,0.2,21.8,0.4,32.6,1.8c2.1,0.3,4.1,0.6,6.2,0.9c3.9,0.6,7.9,1.2,11.9,1.5&#10;&#9;&#9;c7.7,0.5,15.5-0.1,23.1-0.8c3.3-0.3,6.8-0.6,10.1-0.8c18.4-1,37,0.9,55.1,2.8c17.3,1.8,35.3,3.7,52.9,2.9c0.3,0,0.6,0.2,0.7,0.5&#10;&#9;&#9;c0,0,0,0.1,0,0.1c0,0.4-0.3,0.7-0.6,0.7c0,0,0,0,0,0C332.7,376.2,329.9,376.2,327,376.2z"/>
	<path class="st2_the-great-pyramid-33" d="M73.9,322.9c3.4,0.6,6.8-0.9,10.2-2c9.5-3.2,19.9-3.1,29.7-1.3s19.3,5.3,28.8,8.7"/>
	<path class="st3_the-great-pyramid-33" d="M142.6,329c-0.1,0-0.1,0-0.2,0c-9.2-3.4-18.8-6.9-28.7-8.7c-11-2-20.9-1.6-29.4,1.3l-1.5,0.4&#10;&#9;&#9;c-2.9,1-5.9,2.1-9,1.5c-0.3-0.1-0.6-0.4-0.5-0.7c0,0,0,0,0,0c0.1-0.3,0.4-0.6,0.7-0.5c0,0,0,0,0,0c2.8,0.5,5.6-0.5,8.3-1.5l1.5-0.5&#10;&#9;&#9;c8.7-3,18.8-3.4,30.1-1.3c10,1.8,19.6,5.4,28.9,8.8c0.3,0.1,0.5,0.5,0.4,0.8C143.1,328.8,142.9,329,142.6,329L142.6,329z"/>
	<path class="st2_the-great-pyramid-33" d="M194.3,327.1c6.8-0.4,12.5-5.1,18.8-7.8c11.9-5.1,25.4-3,38.1-0.8c3.3,0.5,6.5,1.3,9.6,2.5&#10;&#9;&#9;c3.4,1.4,5.8,2.4,9.5,1.6c3.5-0.6,6.9-2.2,10.4-3c3.3-0.8,6.8-1.1,10.2-0.9c11.5,0.3,22.6,4,32.1,10.4c0.3,0.3,0.8,0.4,1.2,0.4&#10;&#9;&#9;c0.4-0.1,0.5-0.9,0-1"/>
	<path class="st3_the-great-pyramid-33" d="M324,330.2c-0.5,0-1-0.2-1.4-0.5c-9.4-6.4-20.4-10-31.8-10.3c-3.4-0.1-6.7,0.2-10,0.9c-1.5,0.4-3,0.9-4.4,1.4&#10;&#9;&#9;c-2,0.7-4,1.3-6,1.7c-4,0.8-6.6-0.3-9.9-1.7c-3-1.2-6.2-2-9.4-2.5c-11.4-2-25.7-4.4-37.8,0.7c-2,0.9-4,1.9-5.9,3&#10;&#9;&#9;c-4.1,2.2-8.4,4.6-13.2,4.9c-0.4,0-0.7-0.3-0.7-0.6c0-0.4,0.3-0.7,0.6-0.7c4.5-0.3,8.4-2.4,12.6-4.7c1.9-1,3.9-2.1,6-3&#10;&#9;&#9;c12.4-5.3,26.9-2.8,38.5-0.8c3.3,0.5,6.6,1.4,9.7,2.6c3.2,1.3,5.5,2.3,9.2,1.6c2-0.4,3.9-1,5.8-1.6c1.5-0.5,3-1,4.5-1.4&#10;&#9;&#9;c3.4-0.8,6.9-1.1,10.4-1c11.6,0.4,22.9,4,32.5,10.6l0.3,0.2c0-0.1,0-0.2,0-0.2c0-0.4,0.3-0.6,0.7-0.6c0.5,0,0.8,0.4,0.9,0.9&#10;&#9;&#9;c0.1,0.6-0.2,1.1-0.8,1.3C324.4,330.2,324.2,330.2,324,330.2z"/>
	<path class="st3_the-great-pyramid-33" d="M408.8,385.9c0,0-0.1,0-0.1,0l-19.9-4.7c-6.5-1.6-13.3-3.2-20.1-3.4c-0.3,0-0.6-0.3-0.6-0.6c0,0,0,0,0-0.1&#10;&#9;&#9;c0-0.3,0.3-0.6,0.7-0.6c7,0.2,13.8,1.9,20.4,3.5l19.9,4.8c0.3,0.1,0.5,0.4,0.5,0.8C409.3,385.6,409.1,385.8,408.8,385.9&#10;&#9;&#9;L408.8,385.9z"/>
	<path class="st3_the-great-pyramid-33" d="M402.4,337.1c24.1,1.3,48.2,3.3,71.7,8.6c0.4-5.9,0.3-11.7-0.4-17.6c-0.2-1.4-0.5-3-1.6-3.9&#10;&#9;&#9;c-0.9-0.5-1.9-0.8-3-0.8c-22.9-1.3-45.9-0.6-68.7,1.9c-11.5,1.3-19.4-0.7-30.8,1.5c-8.9,1.8-30.6,3.1-37.8,8.3&#10;&#9;&#9;c3.6,5.5,27.2,2.2,33.5,1.7C377.6,336,390,336.5,402.4,337.1z"/>
	<path class="st3_the-great-pyramid-33" d="M474.1,346.5H474c-24.1-5.5-48.7-7.4-71.6-8.6c-11.2-0.6-24.1-1.1-37-0.2c-0.9,0.1-2.2,0.2-3.7,0.3&#10;&#9;&#9;c-9.5,0.9-27.1,2.7-30.5-2.4c-0.2-0.3-0.1-0.8,0.2-1c5.4-3.8,18.4-5.6,28.8-7c3.8-0.5,7-0.9,9.4-1.4c6.5-1.3,11.8-1.2,17.3-1.1&#10;&#9;&#9;c4.5,0.2,9,0,13.5-0.4c22.8-2.5,45.8-3.2,68.8-1.9c1.2,0,2.3,0.3,3.3,0.9c1.4,1,1.7,2.7,1.9,4.4c0.7,5.9,0.8,11.8,0.4,17.7&#10;&#9;&#9;c0,0.2-0.1,0.4-0.3,0.5C474.4,346.4,474.3,346.5,474.1,346.5z M380.2,335.7c7.8,0,15.4,0.4,22.2,0.7l0,0&#10;&#9;&#9;c22.8,1.2,47.1,3.1,71.1,8.5c0.3-5.5,0.2-11.1-0.5-16.6c-0.1-1.3-0.4-2.7-1.4-3.4c-0.8-0.4-1.7-0.6-2.6-0.6&#10;&#9;&#9;c-22.9-1.3-45.8-0.6-68.5,1.9c-4.6,0.4-9.1,0.6-13.7,0.4c-5.5-0.1-10.7-0.2-17,1.1c-2.4,0.5-5.7,0.9-9.4,1.4&#10;&#9;&#9;c-9.3,1.3-22,3-27.5,6.3c4,3.6,21.2,2,28.7,1.2c1.5-0.1,2.8-0.3,3.7-0.4C370.2,335.9,375.2,335.7,380.2,335.7L380.2,335.7z"/>
	<path class="st3_the-great-pyramid-33" d="M275.5,389.4h-0.2c-7-2.1-14.4-2.9-21.7-2.6c-0.4,0-0.7-0.3-0.7-0.6c0-0.4,0.3-0.7,0.6-0.7&#10;&#9;&#9;c7.5-0.3,15,0.6,22.1,2.6c0.3,0.1,0.6,0.4,0.5,0.8C276,389.3,275.8,389.5,275.5,389.4L275.5,389.4z"/>
	<path class="st3_the-great-pyramid-33" d="M132.3,347.7c-0.3,0-0.5-0.2-0.6-0.5c-0.1-0.3,0.1-0.7,0.4-0.8c5.3-1.6,10.7-3.4,16.4-3.5&#10;&#9;&#9;c3.5,0,6.9,0.3,10.3,0.9l15.1,2.1c0.4,0,0.6,0.4,0.6,0.7c0,0,0,0,0,0c-0.1,0.4-0.4,0.6-0.7,0.5l-15.1-2.1&#10;&#9;&#9;c-3.3-0.6-6.7-0.8-10.1-0.8c-5.5,0.2-10.9,1.8-16.1,3.5C132.4,347.7,132.4,347.7,132.3,347.7z"/>
	<path class="st3_the-great-pyramid-33" d="M413.2,373.1c-1.8-0.1-3.7-0.3-5.5-0.8l-1.2-0.3c-7.2-1.5-14.7-1.5-21.9,0c-0.3,0.1-0.7-0.1-0.8-0.5&#10;&#9;&#9;c0,0,0,0,0,0c-0.1-0.3,0.1-0.7,0.5-0.8c0,0,0,0,0,0c7.4-1.5,15.1-1.5,22.5,0l1.2,0.3c4.4,1.4,9.1,0.9,13.1-1.3&#10;&#9;&#9;c0.8-0.3,1.6-0.6,2.5-0.9c11-3.9,23.2-2.4,33.9-1c0.3,0.1,0.5,0.4,0.5,0.8c-0.1,0.3-0.3,0.5-0.6,0.5c-10.6-1.3-22.6-2.9-33.3,0.9&#10;&#9;&#9;c-0.8,0.3-1.6,0.6-2.4,0.9c-2.6,1.2-5.3,1.9-8.1,2.1L413.2,373.1z"/>
	<path class="st3_the-great-pyramid-33" d="M241.7,358.9c-0.2,0-0.5-0.1-0.6-0.3c-0.2-0.3,0-0.7,0.3-0.9c2-1,4.2-0.9,6.3-0.8c1.4,0.1,2.8,0.1,4.1-0.1&#10;&#9;&#9;c1.6-0.4,3.2-1.1,4.6-2l0.8-0.5c9-4.8,19.4-6.6,29.5-5c0.4,0,0.6,0.3,0.6,0.7c0,0.4-0.3,0.6-0.7,0.6c0,0-0.1,0-0.1,0&#10;&#9;&#9;c-9.8-1.5-19.9,0.2-28.7,4.9l-0.8,0.4c-1.5,1-3.2,1.7-4.9,2.1c-1.5,0.2-3,0.3-4.5,0.1c-2-0.1-4-0.2-5.6,0.7&#10;&#9;&#9;C241.9,358.8,241.8,358.9,241.7,358.9z"/>
	<path class="st2_the-great-pyramid-33" d="M321.3,314.9c16.7-5,34.1-8.4,51.5-7c7.5,0.7,15,1.9,22.4,3.5l9.2,1.8l32.1,6.3"/>
	<path class="st3_the-great-pyramid-33" d="M436.5,320.1h-0.1l-41.3-8.1c-7.4-1.6-14.8-2.8-22.4-3.5c-15.2-1.2-31.5,1-51.2,7c-0.3,0.1-0.7-0.1-0.8-0.4&#10;&#9;&#9;c-0.1-0.3,0.1-0.7,0.4-0.8l0,0c19.9-6,36.3-8.2,51.7-7.1c7.6,0.7,15.1,1.9,22.5,3.5l41.3,8.1c0.3,0.1,0.6,0.4,0.5,0.8&#10;&#9;&#9;C437,319.8,436.8,320,436.5,320.1L436.5,320.1z"/>
	<path class="st3_the-great-pyramid-33" d="M71.3,384.9c-1.9,0-3.7-0.2-5.6-0.4l-2.2-0.2c-6.8-0.6-13.8-0.1-20.5,0.4c-0.3,0-0.7-0.2-0.7-0.6c0,0,0,0,0,0&#10;&#9;&#9;c0-0.4,0.2-0.7,0.6-0.7c6.8-0.5,13.8-1,20.7-0.4l2.2,0.2c2.3,0.3,4.5,0.4,6.8,0.4c2.8-0.3,5.5-0.9,8.1-1.7l1.8-0.5&#10;&#9;&#9;c12.1-3.3,24.7-4.1,37.1-2.4c0.3,0,0.6,0.4,0.5,0.7c0,0,0,0,0,0c-0.1,0.3-0.4,0.6-0.7,0.5c-12.2-1.7-24.6-0.9-36.5,2.4l-1.8,0.5&#10;&#9;&#9;c-2.7,0.9-5.6,1.5-8.4,1.8C72.3,384.9,71.8,384.9,71.3,384.9z"/>
	<path class="st3_the-great-pyramid-33" d="M51,348c-0.3,0-0.6-0.2-0.6-0.5c-0.1-0.3,0.1-0.7,0.5-0.8c11-2.6,22.4-2.8,33.5-0.8c0.4,0,0.6,0.3,0.6,0.7&#10;&#9;&#9;c0,0.4-0.3,0.6-0.7,0.6c-0.1,0-0.1,0-0.1,0C73.2,345.2,61.9,345.5,51,348L51,348z"/>
</g>
</svg>