<svg version="1.1" id="Layer_1" xmlns="http://www.w3.org/2000/svg" xmlns:xlink="http://www.w3.org/1999/xlink" x="0px" y="0px" viewBox="0 0 500 500" style="width: 162px;" xml:space="preserve" data-imageid="colosseum-60" imageName="Colosseum" class="illustrations_image">
<style type="text/css">
	.st0_colosseum-60{fill:#68E1FD;}
	.st1_colosseum-60{fill:#D1D3D4;}
	.st2_colosseum-60{fill:#231F20;}
	.st3_colosseum-60{fill:#FFFFFF;}
</style>
<g id="Sky_colosseum-60">
	<rect x="25" y="104.2" class="st0_colosseum-60 targetColor" width="449.7" height="285.4" style="fill: rgb(104, 225, 253);"/>
</g>
<g id="Background_Foliage_colosseum-60">
	<path class="st1_colosseum-60" d="M97.9,314.5c-0.8-1.6-3-2.6-4.5-1.6c-1.9-3.1-6.3-3.8-9.8-2.9s-6.6,3-9.9,4.6c-2.4,1.1-5.1,2-6.7,4&#10;&#9;&#9;c-0.9,1.4-1.6,2.8-2.2,4.4c-1.9,3.7-5.4,6.1-8.8,8.5c-1.2-2.1-4.3-1.9-6.6-1c-4,1.6-10-1-12.7,1.7c-4.8-6.8-8.9-5-11.3-0.6v41.2&#10;&#9;&#9;l65.4-7.4c2.9-15.1,5.3-30.3,7.3-45.6C98.5,318.1,98.7,316.1,97.9,314.5z"/>
	<path class="st2_colosseum-60" d="M25.5,373.5c-0.2,0-0.3-0.1-0.5-0.2c-0.1-0.1-0.2-0.3-0.2-0.5v-41.2c0-0.1,0-0.2,0.1-0.3&#10;&#9;&#9;c1.4-2.6,3.3-4.1,5.4-4.2s4.4,1.3,6.6,4.2c1.7-1.2,4.2-1.1,6.6-0.9c1.9,0.3,3.8,0.1,5.7-0.4c2.5-1,5.5-1.1,7,0.7&#10;&#9;&#9;c3-2.1,6.2-4.5,8-7.8c0.2-0.5,0.4-1,0.7-1.5c0.4-1.1,0.9-2.1,1.6-3c1.4-1.9,3.6-2.8,5.7-3.7l1.2-0.5c1.1-0.5,2.2-1.1,3.3-1.7&#10;&#9;&#9;c2.1-1.2,4.4-2.2,6.8-2.9c3.4-0.9,7.9-0.4,10.2,2.7c0.6-0.3,1.3-0.3,2-0.1c1.3,0.3,2.3,1.2,2.9,2.3c0.9,1.9,0.6,4.1,0.4,5.7&#10;&#9;&#9;c-2,15.2-4.4,30.6-7.3,45.6c-0.1,0.3-0.3,0.5-0.6,0.6l-65.4,7.4L25.5,373.5z M26.2,331.8V372l64.1-7.2c2.8-14.9,5.3-30,7.2-45&#10;&#9;&#9;c0.2-1.9,0.4-3.5-0.3-4.9c-0.4-0.8-1.1-1.3-2-1.6c-0.5-0.1-1,0-1.5,0.2c-0.2,0.1-0.4,0.2-0.6,0.1c-0.2,0-0.4-0.2-0.5-0.3&#10;&#9;&#9;c-1.8-2.9-6-3.4-9-2.6c-2.3,0.7-4.4,1.6-6.4,2.8c-1.1,0.6-2.2,1.2-3.4,1.7l-1.2,0.5c-1.9,0.8-3.9,1.7-5.2,3.3&#10;&#9;&#9;c-0.6,0.8-1.1,1.7-1.4,2.7c-0.2,0.5-0.4,1-0.7,1.5c-2,3.9-5.7,6.5-9,8.7c-0.2,0.1-0.4,0.1-0.6,0.1c-0.2,0-0.4-0.2-0.5-0.4&#10;&#9;&#9;c-0.9-1.7-3.6-1.5-5.7-0.7c-1.9,0.8-4.1,0.6-6.3,0.5c-2.5-0.1-4.9-0.3-6.1,1c-0.1,0.1-0.4,0.2-0.6,0.2c-0.2,0-0.4-0.1-0.5-0.3&#10;&#9;&#9;c-2-2.9-4-4.3-5.8-4.2C28.9,328.5,27.4,329.7,26.2,331.8z M90.9,365.5L90.9,365.5z"/>
	<path class="st1_colosseum-60" d="M421.7,335.1c3.3,0.4,6.2,2.6,7.3,5.8c2.6,1.1,4.8,2.8,6.4,5.1c0.2,0.4,0.5,0.7,0.9,1c0.5,0.2,1,0.3,1.5,0.3&#10;&#9;&#9;c1.7-0.1,3.3,0.3,4.8,1.1c1.4,1,2.1,3,1.1,4.3c2.4-0.7,4.9-0.4,7.1,0.7c-0.4-3.4,0.3-6.9,2.1-9.8c1.2-1.9,3.5-3.8,5.5-2.6&#10;&#9;&#9;c0.1-1.5,1.4-2.5,2.9-2.4c1.1,0.1,2.1,0.9,2.3,2.1c1.9,0.5,3.2-1.9,4.5-3.4c1.5-1.5,3.4-2.7,5.4-3.4c0.5-0.2,1.1-0.3,1.4,0.1&#10;&#9;&#9;c0.1,0.2,0.1,0.3,0,0.5c-0.3,4-0.4,8-0.7,12v28.2c-0.5,0-1,0-1.6,0h-61.8c0,0.4,0,0.8,0,1.1c0.1-7.4-1.8-14.7-2.9-22&#10;&#9;&#9;c-0.9-6.6-1.4-14.1,1.5-20.3C412.1,328.1,419.8,329.9,421.7,335.1z"/>
	<path class="st2_colosseum-60" d="M410.9,376.4c-0.4,0-0.7-0.3-0.7-0.7c0-0.2,0-0.4,0-0.6s0-0.4,0-0.5c0-0.1,0-0.1,0-0.2&#10;&#9;&#9;c-0.2-4.7-0.8-9.4-1.8-14c-0.4-2.2-0.8-4.5-1.1-6.7c-0.9-6.2-1.5-14.1,1.6-20.7c1-2.3,3.4-3.8,6-3.6c3.1,0.2,5.9,2.1,7.2,4.9&#10;&#9;&#9;c3.3,0.5,6.2,2.8,7.4,5.9c2.6,1.1,4.8,2.9,6.4,5.2c0.2,0.3,0.4,0.5,0.6,0.8c0.4,0.2,0.8,0.2,1.2,0.2c1.8-0.1,3.6,0.3,5.2,1.3&#10;&#9;&#9;c1.3,0.9,2,2.4,1.8,4c1.8-0.3,3.5-0.1,5.2,0.5c-0.1-3.2,0.7-6.3,2.3-9c1.3-2.1,3.5-3.7,5.6-3.2c0.7-1.7,2.6-2.6,4.3-1.9&#10;&#9;&#9;c0.9,0.3,1.6,1,1.9,1.9c0.9,0,1.6-0.9,2.6-2.2c0.3-0.4,0.5-0.7,0.8-1c1.5-1.8,3.8-2.7,5.7-3.5c1-0.4,1.9-0.2,2.3,0.5&#10;&#9;&#9;c0.1,0.3,0.1,0.6,0.1,0.8c-0.1,2-0.2,4-0.4,6s-0.2,4-0.4,6v28.1c0,0.2-0.1,0.4-0.2,0.5c-0.1,0.1-0.3,0.2-0.5,0.2h-0.6h-1h-61&#10;&#9;&#9;c0,0.1,0,0.3,0,0.4C411.7,376.1,411.4,376.4,410.9,376.4L410.9,376.4z M411.6,373.9h61.1h0.9v-27.4c0.1-2,0.3-4,0.4-6&#10;&#9;&#9;s0.2-4,0.4-6.1v0c-0.2,0-0.3,0.1-0.4,0.1c-1.8,0.8-3.9,1.6-5.2,3.2c-0.2,0.3-0.5,0.6-0.7,0.9c-1.1,1.4-2.4,3.2-4.4,2.7&#10;&#9;&#9;c-0.3-0.1-0.5-0.3-0.5-0.5c-0.3-1-1.5-1.6-2.5-1.3c-0.7,0.2-1.2,0.8-1.3,1.5c0,0.2-0.2,0.4-0.4,0.6c-0.2,0.1-0.5,0.1-0.7,0&#10;&#9;&#9;c-1.6-0.9-3.6,0.9-4.6,2.4c-1.7,2.8-2.4,6.1-2,9.3c0,0.3-0.1,0.5-0.3,0.7c-0.2,0.1-0.5,0.1-0.7,0c-2-1-4.4-1.2-6.6-0.6&#10;&#9;&#9;c-0.3,0.1-0.6,0-0.8-0.3c-0.2-0.2-0.2-0.6,0-0.8c0.7-1,0.1-2.6-1-3.4c-1.3-0.8-2.8-1.1-4.4-1c-0.7,0-1.3-0.1-1.9-0.4&#10;&#9;&#9;c-0.4-0.3-0.7-0.6-1-1c-1.5-2.2-3.7-3.9-6.2-4.9c-0.2-0.1-0.3-0.2-0.4-0.4c-1-2.9-3.7-5-6.7-5.4c-0.3,0-0.5-0.2-0.6-0.5&#10;&#9;&#9;c-1-2.5-3.4-4.2-6.1-4.4c-2-0.1-3.9,1-4.7,2.8c-3,6.3-2.4,13.9-1.5,19.9c0.3,2.2,0.7,4.5,1.1,6.6&#10;&#9;&#9;C410.8,364.7,411.4,369.3,411.6,373.9z"/>
	<path class="st2_colosseum-60" d="M37.3,345.6c-0.2,0-0.3-0.1-0.4-0.2c-0.3-0.2-0.3-0.7-0.1-1c0,0,0,0,0,0c2.5-3,6.6-4.2,10.3-3.2&#10;&#9;&#9;c0.5,0.1,0.9,0.3,1.1,0.1c0.2-0.2,0.3-0.4,0.4-0.7c2.9-6.4,10.4-9.2,16.8-6.4c0.3,0.2,0.5,0.6,0.3,0.9c-0.2,0.3-0.6,0.5-0.9,0.3&#10;&#9;&#9;c0,0,0,0,0,0c-5.7-2.4-12.3,0.1-14.9,5.6c-0.2,1.2-1.4,1.9-2.5,1.7c-0.2,0-0.4-0.1-0.6-0.2c-3.3-0.9-6.7,0.1-8.9,2.7&#10;&#9;&#9;C37.7,345.5,37.5,345.6,37.3,345.6z"/>
	<path class="st2_colosseum-60" d="M442.4,359.3c-0.2,0-0.3-0.1-0.5-0.2c-1-1.1-2.2-1.9-3.5-2.6c-1.2-0.6-2.6-0.4-3.7,0.3c-0.3,0.3-0.7,0.2-1-0.1&#10;&#9;&#9;c-0.1-0.1-0.2-0.2-0.2-0.4c-0.4-2.4-2.6-3.9-5-3.5c-0.3,0.1-0.6,0.1-0.9,0.3c-0.3,0.2-0.8,0-0.9-0.3c-0.2-0.3,0-0.8,0.3-0.9&#10;&#9;&#9;c0,0,0,0,0,0c1.6-0.7,3.5-0.6,5,0.3c1.2,0.7,2.2,1.8,2.6,3.1c1.3-0.6,2.8-0.6,4.2,0c1.5,0.7,2.8,1.7,4,2.8c0.3,0.3,0.3,0.7,0,1&#10;&#9;&#9;c0,0,0,0,0,0C442.7,359.2,442.5,359.3,442.4,359.3z"/>
	<path class="st2_colosseum-60" d="M451.9,360.8L451.9,360.8c-1.7-0.2-3.1-1.4-3.7-2.9c-0.1-0.2,0-0.5,0.1-0.7c3.8-4.2,8.4-7.5,13.6-9.6&#10;&#9;&#9;c0.4-0.1,0.8,0,0.9,0.4c0,0,0,0,0,0c0.1,0.4,0,0.8-0.4,0.9c0,0,0,0,0,0c-4.9,2-9.3,5-12.8,8.9c0.4,0.9,1.3,1.5,2.3,1.6&#10;&#9;&#9;c0.4,0.1,0.7,0.4,0.6,0.8c0,0,0,0,0,0C452.6,360.5,452.3,360.8,451.9,360.8z"/>
	<path class="st2_colosseum-60" d="M65.4,362.4c-0.3,0-0.6-0.2-0.7-0.5c-0.3-1-1-1.8-1.9-2.2c-0.9-0.5-1.9-0.6-2.9-0.4c-0.3,0.1-0.7,0.3-1,0.4&#10;&#9;&#9;c-0.7,0.4-1.5,0.6-2.2,0.6c-1.2-0.1-2.4-0.6-3.4-1.4l-0.7-0.5c-3.4-2-7.6-1.6-10.6,0.9c-0.2,0.2-0.4,0.2-0.6,0.1&#10;&#9;&#9;c-0.2-0.1-0.4-0.2-0.5-0.4c-0.9-2.3-2.7-4-5-4.8c-2.2-0.9-4.8-0.8-7,0.3c-0.3,0.2-0.8,0.1-1-0.3c-0.2-0.3-0.1-0.8,0.3-1&#10;&#9;&#9;c2.5-1.3,5.5-1.4,8.1-0.4c2.4,0.8,4.3,2.6,5.5,4.8c3.4-2.4,7.9-2.6,11.5-0.5l0.8,0.5c0.7,0.6,1.6,1,2.5,1.1&#10;&#9;&#9;c0.6-0.1,1.2-0.2,1.7-0.5c0.4-0.2,0.8-0.3,1.2-0.5c2.8-0.7,5.6,0.9,6.5,3.6c0.1,0.4-0.1,0.8-0.5,0.9&#10;&#9;&#9;C65.5,362.3,65.4,362.3,65.4,362.4z"/>
</g>
<g id="Colosseum_colosseum-60">
	<rect x="249.9" y="253.9" class="st1_colosseum-60" width="15.7" height="11.3"/>
	<path class="st2_colosseum-60" d="M265.6,266h-15.7c-0.4,0-0.7-0.3-0.7-0.7l0,0V254c0-0.4,0.3-0.7,0.7-0.7h15.7c0.4,0,0.7,0.3,0.7,0.7&#10;&#9;&#9;c0,0,0,0,0,0v11.3C266.3,265.7,266,266,265.6,266L265.6,266z M250.6,264.6h14.3v-9.9h-14.3L250.6,264.6z"/>
	<path class="st3_colosseum-60" d="M275.5,269.8v-20.5c0,0,41.1,0,77.7,7.9c42.9,9.3,60.1,26.8,60.1,26.8l1.8,20.7l-84.4,2.2l-50.5-31.1&#10;&#9;&#9;L275.5,269.8z"/>
	<path class="st2_colosseum-60" d="M330.6,307.6c-0.1,0-0.3,0-0.4-0.1l-50.5-31.1c-0.1,0-0.1-0.1-0.2-0.2l-4.7-6c-0.1-0.1-0.2-0.3-0.2-0.4v-20.5&#10;&#9;&#9;c0-0.4,0.3-0.7,0.7-0.7l0,0c0.4,0,41.6,0.1,77.8,8c22.2,4.8,37.5,11.9,46.3,17c9.6,5.5,14,9.8,14.1,10c0.1,0.1,0.2,0.3,0.2,0.4&#10;&#9;&#9;l1.8,20.7c0,0.2,0,0.4-0.2,0.5c-0.1,0.1-0.3,0.2-0.5,0.2L330.6,307.6L330.6,307.6z M280.6,275.2l50.2,30.9l83.4-2.2l-1.7-19.7&#10;&#9;&#9;c-1.9-1.8-19.8-17.7-59.6-26.4c-33.5-7.3-71.2-7.9-76.8-7.9v19.6L280.6,275.2z"/>
	<path class="st3_colosseum-60" d="M404.4,299.6v-9l-5.1-2.6v9.7c-2.4-0.8-5-1.7-7.9-2.6v-9.6l-5.4-2.6v10.6c-3-0.9-6.4-1.7-10-2.6V280l-6.3-2.6&#10;&#9;&#9;v12c-1.7-0.4-3.5-0.8-5.3-1.1c-2.2-0.5-4.5-0.9-6.7-1.3v-12.7l-7.5-1.4v12.8c-4.8-0.7-9.6-1.3-14.1-1.8v-13.2l-7.5-1.3v13.9&#10;&#9;&#9;c-5.2-0.4-10.1-0.7-14.6-0.8c0-5.5-0.1-15.7-0.1-15.7l-7.2-0.3l-0.2,15.9c-10.8-0.2-17.6,0.3-17.6,0.3s-1,25.4,1.7,37.6&#10;&#9;&#9;s41.2,44.6,41.2,44.6H415v-60.2C411.6,302.7,408,301,404.4,299.6z"/>
	<path class="st2_colosseum-60" d="M415,365.5h-83.2c-0.2,0-0.3-0.1-0.5-0.2c-1.6-1.3-38.8-32.7-41.5-45c-2.7-12.1-1.8-36.8-1.7-37.8&#10;&#9;&#9;c0-0.4,0.3-0.6,0.6-0.7c0.1,0,6.6-0.4,17-0.3l0.2-15.1c0-0.4,0.3-0.7,0.7-0.7c0,0,0,0,0,0l7.2,0.3c0.4,0,0.7,0.3,0.7,0.7&#10;&#9;&#9;c0,0.1,0.1,9.5,0.1,15.1c4.4,0.2,8.8,0.4,13.2,0.8v-13.2c0-0.4,0.3-0.7,0.7-0.7c0,0,0.1,0,0.1,0l7.5,1.3c0.3,0.1,0.6,0.4,0.6,0.7&#10;&#9;&#9;v12.6c4.3,0.5,8.5,1,12.7,1.6v-12c0-0.2,0.1-0.4,0.2-0.5c0.2-0.1,0.4-0.2,0.6-0.1l7.5,1.3c0.3,0.1,0.6,0.3,0.6,0.7v12.1&#10;&#9;&#9;c2,0.4,4.1,0.8,6.1,1.2c1.5,0.3,3,0.6,4.5,1v-11.1c0-0.2,0.1-0.4,0.3-0.6c0.2-0.1,0.4-0.1,0.7-0.1l6.3,2.6c0.3,0.1,0.4,0.4,0.4,0.6&#10;&#9;&#9;v10.3c3,0.7,5.8,1.5,8.6,2.2v-9.7c0-0.4,0.3-0.7,0.7-0.7c0.1,0,0.2,0,0.3,0.1l5.4,2.6c0.2,0.1,0.4,0.4,0.4,0.6v9.1&#10;&#9;&#9;c2.3,0.7,4.5,1.4,6.5,2.1V288c0-0.2,0.1-0.5,0.3-0.6c0.2-0.1,0.5-0.1,0.7,0l5.1,2.6c0.2,0.1,0.4,0.4,0.4,0.6v8.6&#10;&#9;&#9;c3.6,1.3,7,3,10.3,4.9c0.2,0.1,0.3,0.4,0.3,0.6v60.2C415.7,365.3,415.4,365.5,415,365.5z M332.1,364.1h82.2v-59.1&#10;&#9;&#9;c-3.3-1.8-6.7-3.4-10.2-4.8c-0.3-0.1-0.4-0.4-0.4-0.6V291l-3.7-1.9v8.6c0,0.2-0.1,0.4-0.3,0.6c-0.2,0.1-0.4,0.2-0.6,0.1&#10;&#9;&#9;c-2.5-0.9-5.1-1.8-7.9-2.6c-0.3-0.1-0.5-0.4-0.5-0.7v-9.1l-3.9-1.9v9.5c0,0.2-0.1,0.4-0.3,0.6c-0.2,0.1-0.4,0.2-0.6,0.1&#10;&#9;&#9;c-3.1-0.9-6.5-1.8-9.9-2.6c-0.3-0.1-0.5-0.4-0.5-0.7v-10.4l-4.9-2v10.9c0,0.2-0.1,0.4-0.3,0.5c-0.2,0.1-0.4,0.2-0.6,0.1&#10;&#9;&#9;c-1.7-0.4-3.5-0.8-5.3-1.1c-2.2-0.5-4.5-0.9-6.7-1.3c-0.3-0.1-0.6-0.4-0.6-0.7v-12.1l-6.1-1.1v12c0,0.2-0.1,0.4-0.2,0.5&#10;&#9;&#9;c-0.2,0.1-0.4,0.2-0.6,0.2c-4.6-0.7-9.4-1.3-14.1-1.8c-0.4,0-0.6-0.3-0.6-0.7v-12.7l-6.1-1.1v13.1c0,0.2-0.1,0.4-0.2,0.5&#10;&#9;&#9;c-0.1,0.1-0.3,0.2-0.5,0.2c-4.8-0.4-9.7-0.7-14.5-0.8c-0.4,0-0.7-0.3-0.7-0.7c0-4.6,0-12.7-0.1-15.1l-5.9-0.2l-0.2,15.1&#10;&#9;&#9;c0,0.2-0.1,0.4-0.2,0.5c-0.1,0.1-0.3,0.2-0.5,0.2c-8.8-0.1-15,0.1-16.9,0.2c-0.1,4-0.7,25.9,1.7,36.8&#10;&#9;&#9;C293.8,331.5,329.1,361.6,332.1,364.1L332.1,364.1z"/>
	<path class="st2_colosseum-60" d="M315.5,320v-20.7c0-5.7,3.6-7.2,8-7.2c4.8,0,6.1,3.7,6.3,6.8s0,21.4,0,21.4L315.5,320z"/>
	<path class="st2_colosseum-60" d="M329.8,321.1L329.8,321.1l-14.2-0.3c-0.4,0-0.7-0.3-0.7-0.7v-20.7c0-5.3,2.8-7.9,8.7-7.9h0&#10;&#9;&#9;c4.1,0,6.6,2.7,7,7.5c0.2,3.1,0,20.7,0,21.5c0,0.2-0.1,0.4-0.2,0.5C330.2,321,330,321.1,329.8,321.1z M316.3,319.3l12.8,0.3&#10;&#9;&#9;c0-3.5,0.2-17.9,0-20.6c-0.3-4.1-2.1-6.1-5.5-6.1l0,0c-5,0-7.2,2-7.2,6.5L316.3,319.3z"/>
	<path class="st2_colosseum-60" d="M293.4,319.5v-20.7c0-5.7,3.6-7.2,8-7.2c4.8,0,6.1,3.8,6.3,6.8s0,21.4,0,21.4L293.4,319.5z"/>
	<path class="st2_colosseum-60" d="M307.6,320.6L307.6,320.6l-14.2-0.3c-0.4,0-0.7-0.3-0.7-0.7v-20.7c0-5.3,2.8-7.9,8.7-7.9c4.2,0,6.7,2.6,7,7.5&#10;&#9;&#9;c0.2,3,0,20.7,0,21.4c0,0.2-0.1,0.4-0.2,0.5C308,320.5,307.8,320.6,307.6,320.6z M294.1,318.8l12.8,0.3c0-3.5,0.2-17.9,0-20.6&#10;&#9;&#9;c-0.3-4-2.1-6.1-5.5-6.1l0,0c-5,0-7.2,2-7.2,6.5L294.1,318.8z"/>
	<path class="st2_colosseum-60" d="M415,336.4c-0.1,0-0.1,0-0.2,0c-32-8.8-97.8-6.2-98.5-6.2c-0.4,0-0.7-0.3-0.7-0.7c0,0,0,0,0,0&#10;&#9;&#9;c0-0.4,0.3-0.7,0.7-0.7c0.7,0,66.7-2.6,98.9,6.2c0.4,0.1,0.6,0.5,0.5,0.9C415.6,336.2,415.3,336.4,415,336.4L415,336.4z"/>
	<path class="st3_colosseum-60" d="M233.8,262.4c0,0,43.4-2.1,56.8-1.8v6.6c0,0,1.6,2.6,1.3,4.2c-0.1,2.3-0.1,4.6,0,6.8&#10;&#9;&#9;c0,0.3,13.1,39.4,13.1,39.4l10,47.3h-59.6c0,0-32.4-58.1-29.2-75.5S233.8,262.4,233.8,262.4z"/>
	<path class="st2_colosseum-60" d="M315,365.5h-59.6c-0.3,0-0.5-0.1-0.6-0.4c-1.3-2.4-32.4-58.5-29.2-76c3.1-17.4,7.6-27,7.7-27.1&#10;&#9;&#9;c0.1-0.2,0.3-0.4,0.6-0.4c0.4,0,43.5-2.1,56.8-1.8c0.4,0,0.7,0.3,0.7,0.7v6.4c0.4,0.7,1.6,2.9,1.3,4.5c-0.1,1.9-0.1,3.8,0,5.7&#10;&#9;&#9;c0,0.4,0,0.8,0,1c0.5,1.6,9.6,28.8,13.1,39.3l10,47.4C315.7,365.1,315.5,365.5,315,365.5C315,365.6,315,365.6,315,365.5L315,365.5z&#10;&#9;&#9; M255.8,364.1h58.4l-9.8-46.5c-13.2-39.2-13.1-39.4-13.1-39.6s0-0.4,0-0.9c-0.1-2-0.1-4,0-6c0.2-1.1-0.9-3.1-1.2-3.7&#10;&#9;&#9;c-0.1-0.1-0.1-0.2-0.1-0.4v-5.9c-13.2-0.2-51.1,1.6-55.6,1.8c-0.9,1.9-4.6,11.1-7.4,26.4C223.9,305.8,253.1,359.2,255.8,364.1z"/>
	<polyline class="st3_colosseum-60" points="319,324.1 328.1,359.3 331.8,359.3 331.8,364.9 258.6,364.9 257.9,317.2 319,317.2 &#9;"/>
	<path class="st2_colosseum-60" d="M331.8,365.5h-73.2c-0.4,0-0.7-0.3-0.7-0.7c0,0,0,0,0,0l-0.7-47.7c0-0.4,0.3-0.7,0.7-0.7c0,0,0,0,0,0H319&#10;&#9;&#9;c0.4,0,0.7,0.3,0.7,0.7s-0.3,0.7-0.7,0.7c0,0,0,0,0,0h-60.4l0.7,46.3h71.8V360h-3c-0.3,0-0.6-0.2-0.7-0.5l-9.1-35.2&#10;&#9;&#9;c-0.1-0.4,0.1-0.8,0.5-0.8c0,0,0,0,0,0c0.4-0.1,0.7,0.1,0.8,0.5c0,0,0,0,0,0l9,34.7h3.1c0.4,0,0.7,0.3,0.7,0.7v0v5.5&#10;&#9;&#9;C332.5,365.2,332.2,365.5,331.8,365.5C331.8,365.5,331.8,365.5,331.8,365.5z"/>
	<path class="st2_colosseum-60" d="M269.7,331.9h5.4c3.7,0,6.7,3,6.7,6.7v26.2l0,0H263l0,0v-26.2C263,334.9,266,331.9,269.7,331.9z"/>
	<path class="st2_colosseum-60" d="M281.8,365.5H263c-0.4,0-0.7-0.3-0.7-0.7v0v-23.6c0.2-5.6,4.8-10,10.4-9.8c5.3,0.2,9.6,4.4,9.8,9.8v23.6&#10;&#9;&#9;C282.5,365.2,282.2,365.6,281.8,365.5C281.8,365.6,281.8,365.6,281.8,365.5z M263.7,364.1h17.4v-22.9c-0.2-4.8-4.2-8.6-9-8.4&#10;&#9;&#9;c-4.6,0.2-8.2,3.8-8.4,8.4L263.7,364.1z"/>
	<polygon class="st3_colosseum-60" points="320.3,324.1 254.9,324.1 254.9,309.5 320.3,309.5 319,317.2 &#9;"/>
	<path class="st2_colosseum-60" d="M320.3,324.8h-65.4c-0.4,0-0.7-0.3-0.7-0.7l0,0v-14.6c0-0.4,0.3-0.7,0.7-0.7c0,0,0,0,0,0h65.4&#10;&#9;&#9;c0.2,0,0.4,0.1,0.5,0.2c0.1,0.2,0.2,0.4,0.1,0.6l-1.3,7.6l1.3,6.8c0.1,0.4-0.2,0.7-0.6,0.8C320.4,324.8,320.4,324.8,320.3,324.8&#10;&#9;&#9;L320.3,324.8z M255.6,323.4h63.9l-1.1-6.1c0-0.1,0-0.2,0-0.2l1.1-6.9h-63.9V323.4z"/>
	<path class="st2_colosseum-60" d="M254.1,306.9v-18.7c0-4.2-4.3-8.1-9.7-7s-8.4,2.9-9,5.4s0,20.3,0,20.3L254.1,306.9z"/>
	<path class="st2_colosseum-60" d="M254.1,307.6h-18.6c-0.4,0-0.7-0.3-0.7-0.7c0-0.7-0.6-17.9,0-20.5c0.7-2.8,3.8-4.8,9.5-6&#10;&#9;&#9;c2.7-0.6,5.4,0.1,7.6,1.8c1.8,1.4,2.9,3.6,2.9,5.9v18.7C254.8,307.2,254.5,307.6,254.1,307.6z M236.1,306.2h17.2v-18&#10;&#9;&#9;c0-1.9-0.9-3.7-2.4-4.8c-1.8-1.4-4.2-2-6.4-1.5c-5.1,1-7.9,2.7-8.4,4.9C235.7,288.6,236,300.8,236.1,306.2L236.1,306.2z"/>
	<path class="st2_colosseum-60" d="M234.9,269.4c-0.4,0-0.7-0.3-0.7-0.7c0-0.4,0.3-0.7,0.7-0.7c0.4,0,40.8-2.8,55.8-1.6c0.4,0.1,0.6,0.4,0.6,0.8&#10;&#9;&#9;c-0.1,0.3-0.3,0.6-0.7,0.6C275.7,266.6,235.4,269.3,234.9,269.4L234.9,269.4z"/>
	<path class="st2_colosseum-60" d="M234.9,276.5c-0.4,0-0.7-0.3-0.7-0.7s0.3-0.7,0.7-0.7c12.1-1.6,56.6-1.8,57-1.8l0,0c0.4,0,0.7,0.3,0.7,0.7&#10;&#9;&#9;c0,0.4-0.3,0.7-0.7,0.7C291.3,274.6,247,274.9,234.9,276.5L234.9,276.5z"/>
	<polygon class="st2_colosseum-60" points="223.8,247.9 236.7,260.5 239.1,308.4 216.2,306.8 &#9;"/>
	<path class="st2_colosseum-60" d="M239.1,309L239.1,309l-22.9-1.6c-0.2,0-0.4-0.1-0.5-0.2c-0.1-0.2-0.2-0.3-0.1-0.5l7.6-58.9&#10;&#9;&#9;c0-0.3,0.2-0.5,0.5-0.6c0.3-0.1,0.5,0,0.7,0.2l12.9,12.6c0.1,0.1,0.2,0.3,0.2,0.5l2.4,47.8C239.8,308.7,239.5,309,239.1,309&#10;&#9;&#9;C239.1,309,239.1,309,239.1,309L239.1,309z M217,306.1l21.3,1.5l-2.3-46.8l-11.7-11.4L217,306.1z"/>
	<polygon class="st2_colosseum-60" points="195.1,193.3 199.9,197.7 199.9,219.5 199.9,224.8 212.5,253.9 186.8,253.9 186.8,204 &#9;"/>
	<path class="st2_colosseum-60" d="M212.5,254.6h-25.8c-0.4,0-0.7-0.3-0.7-0.7V204c0-0.2,0.1-0.3,0.1-0.4l8.3-10.7c0.1-0.2,0.3-0.3,0.5-0.3&#10;&#9;&#9;c0.2,0,0.4,0.1,0.5,0.2l4.8,4.4c0.1,0.1,0.2,0.3,0.2,0.5v26.9l12.6,29c0.2,0.3,0,0.8-0.3,0.9C212.7,254.6,212.6,254.6,212.5,254.6&#10;&#9;&#9;L212.5,254.6z M187.5,253.2h24l-12.2-28.2c0-0.1-0.1-0.2-0.1-0.3V198l-4-3.7l-7.7,9.9L187.5,253.2z"/>
	<path class="st2_colosseum-60" d="M162.1,146.7c0,0,7.4,6.2,7.8,6.8c0.5,1.2,0.9,2.5,1.1,3.8l5.6,4.7l13.2,35.7l-27.7,3.8l-2.5-41.6L162.1,146.7&#10;&#9;&#9;z"/>
	<path class="st2_colosseum-60" d="M162.1,202.1c-0.2,0-0.3-0.1-0.4-0.2c-0.2-0.1-0.2-0.3-0.3-0.5l-2.5-41.6c0-0.1,0-0.1,0-0.2l2.5-13.1&#10;&#9;&#9;c0-0.2,0.2-0.5,0.5-0.5c0.2-0.1,0.5,0,0.7,0.1c2.2,1.9,7.5,6.3,7.9,6.9c0.5,1.2,0.9,2.5,1.2,3.8l5.4,4.6c0.1,0.1,0.2,0.2,0.2,0.3&#10;&#9;&#9;l13.2,35.7c0.1,0.2,0,0.4-0.1,0.6c-0.1,0.2-0.3,0.3-0.5,0.3L162.1,202.1L162.1,202.1z M160.3,159.9l2.4,40.8l26-3.5l-12.8-34.7&#10;&#9;&#9;l-5.4-4.6c-0.1-0.1-0.2-0.2-0.2-0.4c-0.2-1.2-0.6-2.4-1-3.5c-0.3-0.4-3.5-3.2-6.7-5.9L160.3,159.9z"/>
	<path class="st3_colosseum-60" d="M81.9,364.9v-29.2c0,0-1.8-2.6,0-4.7l1.6-4.5l0.2-26.8l3.3-11.5l0.7-67.5c0.2-0.9-3.3-6.6-3.3-5.3&#10;&#9;&#9;c0,3,4.1-22.9,21.4-38.4s52.8-27.3,52.8-27.3l3.4-2.9l1.6,5.2l2.9,8.1l4.2,6l4.7,31.3c0,0,12.6-3.1,19.6-4.2l-0.7,12.6l-0.1,6.4&#10;&#9;&#9;l-2.2,1.3V250c0,0,26-1.8,31.8-2.1l1.3,55.5c0,0,26.8,0.3,31.8-0.5v10.7c0,0,3.7-1.2,3.7,0.6s0.7-0.9-0.6,4.3&#10;&#9;&#9;c-0.1,0.5,2.3,19.5,2.3,19.5s9.1,15.9,10.8,21.5c1,3.4,0,5.4,0,5.4L81.9,364.9z"/>
	<path class="st2_colosseum-60" d="M273.1,365.5H81.9c-0.4,0-0.7-0.3-0.7-0.7l0,0v-29c-1.1-1.6-1.1-3.7,0.1-5.3l1.5-4.2l0.2-26.7&#10;&#9;&#9;c0-0.1,0-0.1,0-0.2l3.3-11.4l0.7-67.4c-0.5-1.6-1.3-3-2.3-4.3c-0.1,0-0.2,0-0.4,0c-0.3,0-0.6-0.2-0.6-0.9c0-0.3,0.1-0.6,0.4-0.8&#10;&#9;&#9;l0.3-0.9c1.8-6.1,7.1-24.8,21-37.2c16.7-15,50.6-26.6,52.9-27.4l3.3-2.8c0.2-0.1,0.4-0.2,0.6-0.1c0.2,0.1,0.4,0.2,0.5,0.5l1.6,5.2&#10;&#9;&#9;l2.9,8l4.1,6c0.1,0.1,0.1,0.2,0.1,0.3l4.6,30.5c2.8-0.7,12.9-3.1,19-4c0.2,0,0.4,0,0.6,0.2c0.2,0.1,0.2,0.3,0.2,0.6l-0.7,12.6&#10;&#9;&#9;l-0.1,6.4c0,0.2-0.1,0.5-0.4,0.6l-1.9,1v35.4c4.3-0.3,25.9-1.8,31.1-2c0.2,0,0.4,0.1,0.5,0.2c0.1,0.1,0.2,0.3,0.2,0.5l1.3,54.8&#10;&#9;&#9;c4.2,0,26.6,0.2,31-0.5c0.2,0,0.4,0,0.6,0.2c0.2,0.1,0.2,0.3,0.2,0.5v9.8c1-0.3,2.1-0.3,3,0.2c0.4,0.3,0.7,0.8,0.6,1.3&#10;&#9;&#9;c0,0.2,0,0.3,0,0.5c0.3,0.3,0.3,0.3-0.6,4c0,0.7,1.4,11.7,2.3,19.1c0.9,1.6,9.2,16.1,10.8,21.6c1.1,3.7,0,5.8,0,5.9&#10;&#9;&#9;C273.5,365.3,273.3,365.5,273.1,365.5z M82.6,364.1h190c0.4-1.5,0.3-3-0.2-4.5c-1.6-5.5-10.6-21.2-10.7-21.4&#10;&#9;&#9;c-0.1-0.1-0.1-0.2-0.1-0.3c-2.4-19.1-2.3-19.5-2.3-19.7c0.4-1.7,0.7-2.8,0.7-3.1c-0.1-0.3-0.2-0.7-0.2-1c0-0.1,0-0.2-0.1-0.2&#10;&#9;&#9;c-0.4-0.3-1.7-0.1-2.7,0.2c-0.2,0.1-0.4,0-0.6-0.1c-0.2-0.1-0.3-0.3-0.3-0.6v-9.9c-6.5,0.7-30.1,0.4-31.1,0.4&#10;&#9;&#9;c-0.4,0-0.7-0.3-0.7-0.7l-1.3-54.7c-6.9,0.4-30.8,2-31.1,2.1c-0.2,0-0.4-0.1-0.5-0.2c-0.1-0.1-0.2-0.3-0.2-0.5v-36.6&#10;&#9;&#9;c0-0.3,0.1-0.5,0.4-0.6l1.9-1.1l0.1-6l0.7-11.7c-7.1,1.1-18.6,4-18.7,4c-0.2,0.1-0.4,0-0.6-0.1c-0.2-0.1-0.3-0.3-0.3-0.5l-4.7-31.1&#10;&#9;&#9;l-4.1-5.9c0-0.1-0.1-0.1-0.1-0.2l-2.9-8.1l-1.3-4.2l-2.6,2.2c-0.1,0.1-0.1,0.1-0.2,0.1c-0.4,0.1-35.5,12-52.6,27.2&#10;&#9;&#9;C92.7,189.6,87.4,208,85.7,214c-0.1,0.4-0.2,0.7-0.3,0.9c1,1.2,3.2,4.7,3,5.8l-0.6,67.4v0.2l-3.3,11.5l-0.2,26.7c0,0.1,0,0.2,0,0.2&#10;&#9;&#9;l-1.6,4.5c0,0.1-0.1,0.2-0.1,0.2c-1.5,1.7,0,3.9,0,3.9c0.1,0.1,0.1,0.3,0.1,0.4L82.6,364.1z"/>
	<path class="st3_colosseum-60" d="M83.5,326.5c0,0,20-8.8,57.7-12s115.8-1,115.8-1s4.3-3.7,3.7,0.6c-0.3,2-0.5,4.1-0.6,6.2c0,0-93.8-1-121.5,2.1&#10;&#9;&#9;c-40.3,4.6-56.6,13.3-56.6,13.3S77.2,331.4,83.5,326.5z"/>
	<path class="st2_colosseum-60" d="M81.9,336.4c-0.2,0-0.3-0.1-0.5-0.2c-1.2-1.2-1.9-2.9-1.9-4.6c0.1-2,1.3-3.9,3.6-5.7c0,0,0.1-0.1,0.2-0.1&#10;&#9;&#9;c0.2-0.1,20.5-8.9,57.9-12c36.2-3,110.5-1.1,115.6-1c0.8-0.6,2.6-2,3.8-1.3s0.9,2.2,0.8,2.7c-0.3,2-0.5,4-0.6,6.1&#10;&#9;&#9;c0,0.2-0.1,0.4-0.2,0.5c-0.1,0.1-0.3,0.2-0.5,0.2c-0.9,0-94.1-1-121.4,2.1c-39.7,4.5-56.2,13.1-56.4,13.2&#10;&#9;&#9;C82.1,336.4,82,336.4,81.9,336.4z M83.9,327.1c-1.9,1.5-2.9,3-2.9,4.6c0,1.2,0.4,2.3,1.2,3.2c3-1.4,20.1-9,56.4-13.1&#10;&#9;&#9;c26.1-3,112.3-2.2,120.9-2.1c0-0.9,0.2-2.7,0.6-5.6c0.1-1.1-0.1-1.3-0.1-1.3c-0.3-0.1-1.5,0.4-2.5,1.3c-0.1,0.1-0.3,0.2-0.5,0.2&#10;&#9;&#9;c-0.8,0-78.4-2.1-115.7,1C105.2,318.2,85.2,326.5,83.9,327.1z"/>
	<path class="st3_colosseum-60" d="M83.7,299.7c0,0-3.5-4.5,0.1-11.2c2-3.6,10.5-13.8,29.3-18.2c60.3-14.1,110.9-13.1,110.9-13.1s0.2,1.2,0.5,2.5&#10;&#9;&#9;c0.1,1.8,0,3.7-0.2,5.5c0,0-70.4,1.8-100,9.7C86.9,284.9,83.7,299.7,83.7,299.7z"/>
	<path class="st2_colosseum-60" d="M83.7,300.4c-0.2,0-0.4-0.1-0.6-0.3c-0.2-0.2-3.7-4.9,0-11.9c2.4-4.6,11.8-14.4,29.8-18.6&#10;&#9;&#9;c59.7-14,110.6-13.1,111.1-13.1c0.3,0,0.6,0.2,0.7,0.6c0,0,0.2,1.2,0.5,2.5c0.1,1.9,0,3.8-0.2,5.7c0,0.3-0.3,0.6-0.7,0.6&#10;&#9;&#9;c-0.7,0-70.7,1.9-99.8,9.7c-36.3,9.7-40,24-40,24.2c-0.1,0.3-0.3,0.5-0.5,0.5L83.7,300.4z M221.8,257.9&#10;&#9;&#9;c-36.5,0.4-72.9,4.8-108.5,13.1c-17.5,4.1-26.6,13.5-28.9,17.9s-1.5,7.5-0.8,9.2c1.9-4.1,9.7-15.5,40.5-23.7&#10;&#9;&#9;c27.9-7.4,92.6-9.5,99.6-9.7c0.2-1.6,0.3-3.1,0.2-4.7c-0.1-0.8-0.3-1.5-0.4-1.9L221.8,257.9z"/>
	<path class="st3_colosseum-60" d="M87.1,268.7c0,0-5.5-4.2-3.4-10s3.9-16.3,26.5-31.9c19.1-13.1,84.1-21,84.1-21l-0.1,6.4&#10;&#9;&#9;c0,0-47.5,8.7-67.7,16.5C104.6,237.3,90.5,248.8,87.1,268.7z"/>
	<path class="st2_colosseum-60" d="M87.1,269.4c-0.2,0-0.3,0-0.4-0.1c-0.1,0-5.9-4.6-3.6-10.8c0.2-0.5,0.4-1.1,0.6-1.7c2-6.1,5.4-16.2,26.2-30.5&#10;&#9;&#9;c19-13,81.7-20.8,84.4-21.1c0.4,0,0.7,0.2,0.8,0.6c0,0,0,0.1,0,0.1l-0.1,6.4c0,0.3-0.2,0.6-0.6,0.7c-0.5,0.1-47.7,8.8-67.5,16.5&#10;&#9;&#9;c-23.9,9.3-36,21.4-39,39.4c0,0.2-0.2,0.4-0.4,0.5C87.3,269.4,87.2,269.4,87.1,269.4z M193.7,206.7c-7.5,1-65.4,8.7-83,20.7&#10;&#9;&#9;c-20.4,14-23.7,23.9-25.7,29.8c-0.2,0.6-0.4,1.2-0.6,1.7c-1.4,3.9,0.9,7,2.3,8.4c3.5-17.8,15.8-30,39.7-39.2&#10;&#9;&#9;c18.8-7.3,61.8-15.4,67.2-16.4L193.7,206.7z"/>
	<path class="st2_colosseum-60" d="M87.6,228.5c-0.1,0-0.2,0-0.2,0c-0.4-0.1-0.5-0.5-0.4-0.9c0,0,0,0,0,0c0.1-0.2,8.6-21.6,28.3-34.1&#10;&#9;&#9;s46.3-20.6,55.6-21.6c0.4,0,0.7,0.2,0.8,0.6c0,0,0,0,0,0c0,0.4-0.2,0.7-0.6,0.8c0,0,0,0,0,0c-8.9,1-35.7,9.2-55,21.4&#10;&#9;&#9;s-27.6,33.1-27.7,33.4C88.2,228.4,87.9,228.5,87.6,228.5z"/>
	<rect x="249.9" y="320.2" class="st3_colosseum-60" width="5.5" height="44.6"/>
	<path class="st2_colosseum-60" d="M255.4,365.5h-5.5c-0.4,0-0.7-0.3-0.7-0.7l0,0v-44.6c0-0.4,0.3-0.7,0.7-0.7h5.5c0.4,0,0.7,0.3,0.7,0.7v0v44.6&#10;&#9;&#9;C256.1,365.2,255.7,365.5,255.4,365.5z M250.6,364.1h4.1v-43.2h-4.1V364.1z"/>
	<path class="st2_colosseum-60" d="M247,364.9v-28.5c0-4.7-5.1-9.4-11.8-8.8s-9.6,4.7-9.9,10.6c-0.2,4.4,0,26.7,0,26.7H247z"/>
	<path class="st2_colosseum-60" d="M247,365.5h-21.7c-0.4,0-0.7-0.3-0.7-0.7c0-0.9-0.2-22.4,0-26.7c0.3-6.8,4-10.7,10.5-11.2&#10;&#9;&#9;c3.5-0.4,6.9,0.7,9.5,3c1.9,1.6,3,4,3.1,6.5v28.5C247.7,365.2,247.4,365.5,247,365.5z M226,364.1h20.3v-27.8&#10;&#9;&#9;c-0.1-2.1-1-4.1-2.6-5.4c-2.3-2-5.4-3-8.4-2.7c-5.8,0.5-8.9,3.9-9.2,9.9C225.8,342.1,226,360.4,226,364.1z"/>
	<path class="st2_colosseum-60" d="M212,364.9v-27.4c0-4.9-5-8.1-11.5-7.9s-8.6,6.7-8.5,9.9s0,25.5,0,25.5H212z"/>
	<path class="st2_colosseum-60" d="M212,365.5h-20c-0.4,0-0.7-0.3-0.7-0.7c0,0,0,0,0,0c0-0.2,0.1-22.4,0-25.5c0-2.9,1.1-5.7,3-7.9&#10;&#9;&#9;c1.6-1.7,3.8-2.7,6.2-2.7c4.1-0.1,7.7,1.1,9.9,3.2c1.5,1.4,2.3,3.4,2.3,5.4v27.4C212.7,365.2,212.4,365.5,212,365.5&#10;&#9;&#9;C212,365.5,212,365.5,212,365.5z M192.7,364.2h18.6v-26.7c0-1.7-0.7-3.3-1.9-4.4c-2-1.9-5.2-3-8.9-2.8c-2,0-3.9,0.8-5.2,2.3&#10;&#9;&#9;c-1.7,1.9-2.6,4.3-2.6,6.9C192.8,342.2,192.7,360.3,192.7,364.2z"/>
	<path class="st2_colosseum-60" d="M178.9,364.9V340c0-5.6-2.3-9.9-8.5-9.4s-7.4,4.4-7.8,9.8s0,24.5,0,24.5L178.9,364.9z"/>
	<path class="st2_colosseum-60" d="M178.9,365.5h-16.3c-0.4,0-0.7-0.3-0.7-0.7c0-0.8-0.4-19.3,0-24.6c0.4-4.7,1.3-9.8,8.4-10.4&#10;&#9;&#9;c2.3-0.3,4.7,0.3,6.4,1.9c1.9,1.7,2.8,4.5,2.8,8.2v24.9C179.6,365.2,179.3,365.5,178.9,365.5z M163.3,364.1h14.9V340&#10;&#9;&#9;c0-3.3-0.8-5.8-2.4-7.2c-1.5-1.2-3.4-1.8-5.4-1.5c-5.5,0.4-6.7,3.5-7.1,9.1C163,345.1,163.3,360.7,163.3,364.1z"/>
	<path class="st2_colosseum-60" d="M148.6,364.9v-26.4c0-4.1-2.9-7.9-6.7-7.1s-6,4.2-6.1,9.6s0,23.9,0,23.9H148.6z"/>
	<path class="st2_colosseum-60" d="M148.6,365.5h-12.8c-0.4,0-0.7-0.3-0.7-0.7l0,0c0-0.2-0.1-18.7,0-23.9c0.1-5.6,2.5-9.4,6.7-10.2&#10;&#9;&#9;c1.7-0.4,3.4,0.1,4.7,1.2c1.9,1.7,2.9,4.1,2.9,6.6v26.4C149.3,365.2,149,365.5,148.6,365.5C148.6,365.5,148.6,365.5,148.6,365.5z&#10;&#9;&#9; M136.5,364.1h11.4v-25.7c0.1-2.1-0.8-4.1-2.4-5.5c-1-0.8-2.3-1.1-3.5-0.9c-3.5,0.7-5.5,3.9-5.6,8.9&#10;&#9;&#9;C136.4,345.6,136.5,360.7,136.5,364.1z"/>
	<path class="st2_colosseum-60" d="M119.7,364.9c0.4,0,0-20.1,0-24.9s-5-5.7-7.9-4.3s-3.4,4.4-3.4,7.9v21.2L119.7,364.9z"/>
	<path class="st2_colosseum-60" d="M119.7,365.7h-11.3c-0.4,0-0.8-0.4-0.8-0.8v-21.2c0-3.5,0.5-7,3.9-8.6c2.1-1,4.6-0.9,6.6,0.2&#10;&#9;&#9;c1.6,1,2.6,2.8,2.4,4.8c0,1.3,0,3.9,0.1,6.8c0.2,18.2,0.1,18.3-0.3,18.7C120.2,365.6,120,365.7,119.7,365.7z M109.3,364h9.8&#10;&#9;&#9;c0.1-2.4,0-11.6,0-17.3c0-2.9-0.1-5.5-0.1-6.8c0.1-1.4-0.5-2.7-1.7-3.4c-1.5-0.8-3.4-0.9-5-0.1c-2.5,1.2-3,3.7-3,7.2L109.3,364z"/>
	<path class="st2_colosseum-60" d="M94.8,344c0-3.5-4-3.7-5.5-2s-1,22.9-1,22.9h6.6L94.8,344z"/>
	<path class="st2_colosseum-60" d="M94.8,365.7h-6.5c-0.5,0-0.8-0.4-0.9-0.8c-0.2-6.5-0.3-21.7,1.3-23.5c1.2-1.2,3.1-1.6,4.7-1&#10;&#9;&#9;c1.5,0.6,2.4,2,2.3,3.6v20.9C95.7,365.3,95.3,365.7,94.8,365.7z M89.1,364H94v-20c0.1-0.9-0.4-1.7-1.2-2c-1-0.4-2.1-0.1-2.8,0.6&#10;&#9;&#9;C89.2,343.7,88.9,354.2,89.1,364z"/>
	<rect x="216.2" y="325" class="st3_colosseum-60" width="5.4" height="39.8"/>
	<path class="st2_colosseum-60" d="M221.6,365.5h-5.4c-0.4,0-0.7-0.3-0.7-0.7l0,0V325c0-0.4,0.3-0.7,0.7-0.7c0,0,0,0,0,0h5.4&#10;&#9;&#9;c0.4,0,0.7,0.3,0.7,0.7l0,0v39.8C222.3,365.2,222,365.5,221.6,365.5C221.6,365.5,221.6,365.6,221.6,365.5z M216.9,364.1h4v-38.4h-4&#10;&#9;&#9;V364.1z"/>
	<rect x="183.1" y="324.1" class="st3_colosseum-60" width="5.4" height="40.7"/>
	<path class="st2_colosseum-60" d="M188.5,365.6h-5.4c-0.4,0-0.7-0.3-0.7-0.7v-40.7c0-0.4,0.3-0.7,0.7-0.7h5.4c0.4,0,0.7,0.3,0.7,0.7v40.7&#10;&#9;&#9;C189.2,365.2,188.9,365.6,188.5,365.6C188.5,365.6,188.5,365.6,188.5,365.6z M183.8,364.1h4v-39.3h-4V364.1z"/>
	<path class="st2_colosseum-60" d="M130.1,365.5h-4.3c-0.3,0-0.6-0.3-0.6-0.6v-36.1c0-0.3,0.3-0.6,0.6-0.6s0.6,0.3,0.6,0.6v35.5h3.1v-36.8&#10;&#9;&#9;c0-0.3,0.3-0.6,0.6-0.6s0.6,0.3,0.6,0.6v37.4C130.8,365.2,130.5,365.5,130.1,365.5L130.1,365.5z"/>
	<path class="st2_colosseum-60" d="M158.4,365.5h-4.4c-0.3,0-0.6-0.3-0.6-0.6v-39c0-0.3,0.3-0.6,0.6-0.6s0.6,0.3,0.6,0.6v38.4h3.1V325&#10;&#9;&#9;c0-0.3,0.3-0.6,0.6-0.6s0.6,0.3,0.6,0.6v39.8C159,365.1,158.8,365.4,158.4,365.5C158.4,365.5,158.4,365.5,158.4,365.5z"/>
	<path class="st2_colosseum-60" d="M103.2,365.5h-4.3c-0.3,0-0.6-0.3-0.6-0.6v-31.6c0-0.3,0.3-0.6,0.6-0.6s0.6,0.3,0.6,0.6v31h3.1V332&#10;&#9;&#9;c0-0.3,0.3-0.6,0.6-0.6c0.3,0,0.6,0.3,0.6,0.6v32.8C103.8,365.1,103.6,365.4,103.2,365.5C103.2,365.5,103.2,365.5,103.2,365.5z"/>
	<path class="st2_colosseum-60" d="M82.9,340.4c-0.4,0-0.7-0.3-0.7-0.7c0-0.3,0.1-0.5,0.4-0.6c12.4-7.2,35.4-12.1,68.4-14.7&#10;&#9;&#9;c26.6-2.1,97.6,0,98.4,0c0.4,0,0.7,0.3,0.7,0.7c0,0.4-0.3,0.7-0.7,0.7c0,0,0,0,0,0c-0.7,0-71.7-2.1-98.2,0&#10;&#9;&#9;c-32.8,2.6-55.7,7.5-67.8,14.5C83.2,340.4,83,340.4,82.9,340.4z"/>
	<path class="st1_colosseum-60" d="M87.7,220.6c0,0,4-30.1,26.8-48c17.5-13.8,49.1-20.6,49.1-20.6l-1.6-5.2c0,0-28.4,5-50.6,20.9&#10;&#9;&#9;c-23.7,17-27.1,47.7-27.1,47.7L87.7,220.6z"/>
	<path class="st2_colosseum-60" d="M87.7,221.3c-0.2,0-0.5-0.1-0.6-0.3l-3.3-5.2c-0.1-0.1-0.1-0.3-0.1-0.4c0-0.3,3.7-31.2,27.4-48.2&#10;&#9;&#9;c22.1-15.8,50.6-21,50.9-21c0.4-0.1,0.7,0.1,0.8,0.5l1.6,5.2c0.1,0.2,0,0.4-0.1,0.6c-0.1,0.2-0.3,0.3-0.4,0.3&#10;&#9;&#9;c-0.3,0.1-31.6,7-48.9,20.5c-22.3,17.5-26.5,47.2-26.5,47.5c0,0.3-0.3,0.5-0.6,0.6L87.7,221.3z M85.1,215.2l2.2,3.5&#10;&#9;&#9;c1.3-6.8,7.3-31.3,26.8-46.6c16-12.6,43.8-19.5,48.7-20.6l-1.2-3.9c-4.2,0.8-29.7,6.3-49.7,20.7C89.8,184,85.5,212.3,85.1,215.2z"/>
	<path class="st2_colosseum-60" d="M213.8,303.8l-20.4,1.3c0,0,0.4-15.8,0.9-22.3s6.1-9.2,11.4-9.2s8,4.9,8,8.8L213.8,303.8z"/>
	<path class="st2_colosseum-60" d="M193.5,305.8c-0.2,0-0.3-0.1-0.5-0.2c-0.1-0.1-0.2-0.3-0.2-0.5c0-0.2,0.4-15.9,0.9-22.4&#10;&#9;&#9;c0.6-7.2,6.9-9.8,12.1-9.8c5.4,0,8.7,4.8,8.7,9.5v21.4c0,0.4-0.3,0.7-0.6,0.7L193.5,305.8L193.5,305.8z M205.8,274.2&#10;&#9;&#9;c-4.9,0-10.2,2.2-10.8,8.6c-0.4,5.7-0.8,18.3-0.9,21.5l19-1.2v-20.8C213.1,279.2,211.1,274.2,205.8,274.2z M213.8,303.8&#10;&#9;&#9;L213.8,303.8z"/>
	<path class="st2_colosseum-60" d="M183.1,305.7v-23.1c-0.1-4.1-3.4-7.4-7.6-7.4c-1.2,0-2.4,0.3-3.5,0.9c-5.6,3-6.4,6-7,10.4s-0.5,20.5-0.5,20.5&#10;&#9;&#9;L183.1,305.7z"/>
	<path class="st2_colosseum-60" d="M164.6,307.7c-0.4,0-0.7-0.3-0.7-0.7c0-0.7,0-16.3,0.5-20.6s1.4-7.7,7.3-10.9c2.5-1.4,5.5-1.4,8,0.1&#10;&#9;&#9;c2.5,1.5,4,4.1,4.1,7v23.1c0,0.4-0.3,0.7-0.6,0.7L164.6,307.7L164.6,307.7z M175.7,275.9c-1.2,0-2.3,0.3-3.4,0.9&#10;&#9;&#9;c-5.4,2.9-6.1,5.6-6.6,9.9c-0.4,3.7-0.5,16.5-0.5,19.7l17.2-1.2v-22.5c-0.1-2.4-1.4-4.6-3.4-5.8C178,276.2,176.9,275.9,175.7,275.9&#10;&#9;&#9;z M183.1,305.7L183.1,305.7z"/>
	<path class="st2_colosseum-60" d="M153.9,308.4c0,0,0.8-26-1.7-29.3s-15.2-2.4-16.1,6.4s0,24.2,0,24.2L153.9,308.4z"/>
	<path class="st2_colosseum-60" d="M136.1,310.4c-0.2,0-0.3-0.1-0.4-0.2c-0.1-0.1-0.2-0.3-0.2-0.5c0-0.2-0.9-15.5,0-24.3c0.4-4,3.2-7,7.6-8.3&#10;&#9;&#9;c4-1.1,8.2-0.5,9.7,1.5c2.6,3.4,1.9,27,1.9,29.7c0,0.4-0.3,0.6-0.6,0.7L136.1,310.4L136.1,310.4z M147,278c-1.2,0-2.4,0.2-3.6,0.5&#10;&#9;&#9;c-1.8,0.5-6.1,2.2-6.6,7.1c-0.8,7.6-0.2,20.3,0,23.4l16.5-1.2c0.3-10.4,0.1-26-1.6-28.2C151,278.6,149.2,278,147,278z M153.9,308.4&#10;&#9;&#9;L153.9,308.4z"/>
	<path class="st2_colosseum-60" d="M128.9,310.8c0.1-0.4-0.8-17-1.2-21.3c-0.6-6.5-11.2-6.6-12.6-0.3s-0.7,23.8-0.7,23.8L128.9,310.8z"/>
	<path class="st2_colosseum-60" d="M114.4,313.7c-0.2,0-0.3-0.1-0.4-0.2c-0.2-0.1-0.3-0.3-0.3-0.5c0-0.7-0.7-17.6,0.7-24c0.9-3.9,4.7-5.4,7.8-5.2&#10;&#9;&#9;c3.5,0.2,5.9,2.4,6.2,5.5c0.2,2.3,1.4,20.9,1.2,21.6c-0.1,0.2-0.3,0.4-0.6,0.5l-14.5,2.2L114.4,313.7z M121.6,285.3&#10;&#9;&#9;c-2.4,0-5.2,1.2-5.9,4.1c-1.2,5.4-0.8,19.4-0.7,22.8l13.2-2c-0.1-2.9-0.9-16.6-1.2-20.6c-0.2-2.9-2.8-4.1-4.9-4.3L121.6,285.3z&#10;&#9;&#9; M128.9,310.8L128.9,310.8z M128.9,310.8L128.9,310.8z"/>
	<path class="st2_colosseum-60" d="M107.6,314.3c0,0,0.1-19.4,0-22.6s-5.1-0.8-5.9,3.7s-0.5,21-0.5,21L107.6,314.3z"/>
	<path class="st2_colosseum-60" d="M101.2,317.1c-0.4,0-0.7-0.3-0.7-0.7c0-0.7-0.2-16.7,0.5-21.2c0.6-3.4,3.4-5.8,5.4-5.7c1.1,0.1,1.9,1,1.8,2.1&#10;&#9;&#9;c0.1,3.1,0,21.8,0,22.6c0,0.3-0.2,0.6-0.5,0.6l-6.4,2.1C101.3,317,101.3,317.1,101.2,317.1z M106.3,290.9c-1.1,0-3.4,1.7-3.9,4.5&#10;&#9;&#9;c-0.7,3.8-0.6,16.4-0.5,20l5.1-1.7c0-3.1,0.1-19.2,0-22.1C106.9,291,106.6,291,106.3,290.9L106.3,290.9z M107.6,314.3L107.6,314.3z&#10;&#9;&#9;"/>
	<path class="st2_colosseum-60" d="M94.4,317.9c0,0,0.6-17,0-19.3s-4.9-1.1-5.3,2.3s0,19.8,0,19.8L94.4,317.9z"/>
	<path class="st2_colosseum-60" d="M89.1,321.4c-0.1,0-0.2,0-0.3-0.1c-0.2-0.1-0.3-0.3-0.3-0.6c0-0.7-0.4-16.5,0-19.9c0.2-2.2,2-3.9,4.1-4.1&#10;&#9;&#9;c1.2-0.2,2.3,0.6,2.5,1.7c0.6,2.4,0,18.8,0,19.5c0,0.2-0.1,0.5-0.4,0.6l-5.3,2.8C89.3,321.4,89.2,321.4,89.1,321.4z M92.7,298.1&#10;&#9;&#9;h-0.1c-1.5,0.2-2.7,1.4-2.8,2.9c-0.3,2.8-0.1,14.9,0,18.6l4-2.1c0.2-5,0.4-16.9,0-18.7C93.7,298.3,93.3,298,92.7,298.1&#10;&#9;&#9;C92.8,298.1,92.8,298.1,92.7,298.1z M94.4,317.9L94.4,317.9z"/>
	<path class="st2_colosseum-60" d="M184,252c0,0,1.4-20.6-0.9-25.6c-1.8-3.9-10.1-5.4-13.7,1.4s-2.6,26.2-2.6,26.2L184,252z"/>
	<path class="st2_colosseum-60" d="M166.8,254.6c-0.2,0-0.3-0.1-0.4-0.2c-0.1-0.1-0.2-0.3-0.2-0.5c0-0.8-0.9-19.6,2.7-26.5&#10;&#9;&#9;c1.5-3.2,4.8-5.2,8.3-5.1c3,0.1,5.6,1.6,6.6,3.7c2.4,5.1,1,25.1,1,26c0,0.3-0.3,0.6-0.6,0.6l-17.2,1.9L166.8,254.6z M176.9,223.8&#10;&#9;&#9;c-2.9,0-5.6,1.7-6.9,4.4c-3,5.8-2.7,21.5-2.6,25.1l15.9-1.8c0.2-3.4,1.1-20.4-0.9-24.7c-0.8-1.6-3-2.8-5.4-2.9L176.9,223.8z&#10;&#9;&#9; M184,252L184,252z"/>
	<path class="st2_colosseum-60" d="M158,255.8c0,0,0.7-18.3,0-22.7s-6.6-6.5-10.6-1.8s-3.8,9-3.9,13.2s-0.4,14.5-0.4,14.5L158,255.8z"/>
	<path class="st2_colosseum-60" d="M143,259.8c-0.2,0-0.3-0.1-0.4-0.2c-0.2-0.1-0.3-0.3-0.2-0.5c0-0.1,0.2-10.3,0.4-14.5c0-0.4,0-0.9,0-1.3&#10;&#9;&#9;c0.1-3.9,0.3-7.9,4.1-12.3c1.7-2.3,4.7-3.4,7.5-2.7c2.3,0.6,4,2.5,4.3,4.8c0.7,4.4,0,22,0,22.8c0,0.3-0.2,0.6-0.5,0.6L143,259.8&#10;&#9;&#9;L143,259.8z M152.6,229.4c-1.9,0.1-3.6,1-4.7,2.4c-3.5,4.1-3.6,7.7-3.7,11.5c0,0.4,0,0.9,0,1.3c-0.2,3.5-0.3,11-0.4,13.6l13.6-3&#10;&#9;&#9;c0.1-3,0.6-18.2,0-22c-0.3-1.8-1.6-3.2-3.4-3.7C153.5,229.4,153.1,229.4,152.6,229.4L152.6,229.4z M158,255.8L158,255.8z"/>
	<path class="st2_colosseum-60" d="M137.8,260.6c0,0-0.9-14.5-0.9-18.5s-2-8.1-6-6.3s-4.9,3.9-5.3,7.8s-0.5,19.2-0.5,19.2L137.8,260.6z"/>
	<path class="st2_colosseum-60" d="M125.1,263.5c-0.4,0-0.7-0.3-0.7-0.7c0-0.6,0.1-15.4,0.5-19.2c0.4-4.1,1.4-6.4,5.7-8.3&#10;&#9;&#9;c1.3-0.7,2.9-0.7,4.2,0.1c2,1.3,2.8,4.4,2.8,6.8c0,3.9,0.9,18.3,0.9,18.4c0,0.4-0.2,0.7-0.6,0.7l-12.7,2.2L125.1,263.5z&#10;&#9;&#9; M132.7,236.1c-0.5,0-1.1,0.1-1.5,0.4c-3.7,1.6-4.5,3.6-4.9,7.2c-0.3,3.3-0.4,15.1-0.5,18.3l11.3-1.9c-0.2-2.9-0.9-14.4-0.9-17.9&#10;&#9;&#9;c0-2.6-0.8-4.8-2.1-5.6C133.7,236.2,133.2,236.1,132.7,236.1L132.7,236.1z"/>
	<path class="st2_colosseum-60" d="M118.7,263.8c0,0,0.2-8.4,0.5-13.8s-2-11.4-5.3-7.6s-3.1,6-3.2,9.3s-0.4,14.8-0.4,14.8L118.7,263.8z"/>
	<path class="st2_colosseum-60" d="M110.2,267.2c-0.1,0-0.3,0-0.4-0.1c-0.2-0.1-0.3-0.3-0.3-0.6c0-0.5,0.2-11.6,0.4-14.9c0-0.4,0-0.7,0-1&#10;&#9;&#9;c-0.1-3.2,1.1-6.3,3.4-8.6c1.4-1.6,2.6-1.6,3.4-1.3c2.3,0.9,3.3,5.5,3.1,9.4c-0.3,5.4-0.5,13.7-0.5,13.8c0,0.3-0.2,0.6-0.5,0.6&#10;&#9;&#9;l-8.5,2.7H110.2z M115.9,241.9c-0.6,0.1-1.2,0.5-1.5,1c-2,2.1-3.1,4.9-3,7.8c0,0.3,0,0.7,0,1.1c-0.2,2.6-0.3,11-0.4,13.8l7-2.3&#10;&#9;&#9;c0.1-1.9,0.2-8.7,0.5-13.3c0.2-3.7-0.8-7.5-2.2-8C116.1,241.9,116,241.9,115.9,241.9z M118.7,263.8L118.7,263.8z"/>
	<path class="st2_colosseum-60" d="M105.8,268c0.2-0.4,0-11.7,0-16s-3.2-5.4-4.5-1.9s-1.3,3.5-1.4,7.1s0,12.9,0,12.9L105.8,268z"/>
	<path class="st2_colosseum-60" d="M99.8,270.8c-0.1,0-0.3,0-0.4-0.1c-0.2-0.1-0.3-0.3-0.3-0.6c0-0.1-0.1-9.4,0-12.9v-0.7&#10;&#9;&#9;c0.1-2.9,0.1-3.3,1.4-6.6c0.8-2.1,2.2-2.6,3.2-2.4c1.3,0.2,2.6,1.8,2.6,4.6c0,1.3,0,3.3,0,5.4c0.1,9.9,0,10.5-0.1,10.9&#10;&#9;&#9;c-0.1,0.2-0.2,0.3-0.4,0.3l-5.9,2.1C100,270.8,99.9,270.8,99.8,270.8z M103.4,248.7c-0.6,0-1.2,0.6-1.6,1.6&#10;&#9;&#9;c-1.2,3.1-1.2,3.3-1.3,6.2v0.7c-0.1,2.9,0,9.4,0,11.9l4.6-1.6c0.1-1.4,0-6.3,0-10c0-2.1,0-4.1,0-5.4c0-2-0.8-3.1-1.5-3.3&#10;&#9;&#9;L103.4,248.7z M105.8,268L105.8,268z M105.8,268L105.8,268z"/>
	<path class="st2_colosseum-60" d="M96.4,271.6v-13.4c0-3.2-3.8-1.6-4.8,2.9s0,14.2,0,14.2L96.4,271.6z"/>
	<path class="st2_colosseum-60" d="M91.6,275.9c-0.1,0-0.2,0-0.3,0c-0.2-0.1-0.4-0.3-0.4-0.6c0-0.4-1.1-9.9,0-14.4c0.8-3.4,3-5.2,4.6-5.1&#10;&#9;&#9;c0.4,0.1,1.6,0.4,1.6,2.4v13.4c0,0.2-0.1,0.4-0.3,0.5l-4.8,3.6C91.9,275.8,91.7,275.9,91.6,275.9z M95.2,257.1c-0.7,0-2.4,1.4-3,4&#10;&#9;&#9;c-0.8,3.4-0.3,10-0.1,12.7l3.6-2.7v-13C95.7,257.9,95.7,257.2,95.2,257.1L95.2,257.1z M96.4,271.6L96.4,271.6z"/>
	<path class="st2_colosseum-60" d="M124,218.9c-0.4,0-0.7-0.3-0.7-0.7l0,0v-40.9c0-0.4,0.3-0.7,0.7-0.7c0.4,0,0.7,0.3,0.7,0.7v40.9&#10;&#9;&#9;C124.7,218.6,124.4,218.9,124,218.9z"/>
	<path class="st2_colosseum-60" d="M110.2,225.5c-0.4,0-0.7-0.3-0.7-0.7l0,0v-38.1c0-0.4,0.3-0.7,0.7-0.7c0.4,0,0.7,0.3,0.7,0.7v38.1&#10;&#9;&#9;C110.9,225.2,110.6,225.5,110.2,225.5z"/>
	<path class="st2_colosseum-60" d="M99.8,232.6c-0.4,0-0.7-0.3-0.7-0.7l0,0v-34.7c0-0.4,0.3-0.7,0.7-0.7c0.4,0,0.7,0.3,0.7,0.7v34.7&#10;&#9;&#9;C100.5,232.3,100.2,232.6,99.8,232.6z"/>
	<path class="st2_colosseum-60" d="M92.7,238c-0.4,0-0.7-0.3-0.7-0.7l0,0v-28.7c0-0.4,0.2-0.7,0.6-0.8c0.4,0,0.7,0.2,0.8,0.6c0,0.1,0,0.1,0,0.2&#10;&#9;&#9;v28.6C93.4,237.6,93.1,238,92.7,238C92.7,238,92.7,238,92.7,238z"/>
	<path class="st2_colosseum-60" d="M143,211.6c-0.1,0-0.2,0-0.3-0.1c-0.3-0.1-0.4-0.5-0.4-0.8c0.2-1.4,0.1-25.9,0-42.1c0-0.4,0.3-0.7,0.7-0.7l0,0&#10;&#9;&#9;l0,0c0.4,0,0.7,0.3,0.7,0.7c0,0,0,0,0,0c0.3,42,0,42.4-0.1,42.6C143.5,211.4,143.3,211.6,143,211.6z"/>
	<path class="st2_colosseum-60" d="M164.4,207.6c-0.4,0-0.7-0.3-0.7-0.7l0,0v-44.5c0-0.4,0.3-0.7,0.7-0.7s0.7,0.3,0.7,0.7v44.5&#10;&#9;&#9;C165.1,207.3,164.8,207.6,164.4,207.6L164.4,207.6z"/>
	<path class="st2_colosseum-60" d="M129.3,202.1c0.1-0.3,0-10.9,0-10.9s5.5-3.2,5.5-3s-0.3,12-0.3,12L129.3,202.1z"/>
	<path class="st2_colosseum-60" d="M129.3,202.8c-0.2,0-0.3-0.1-0.5-0.2c-0.2-0.1-0.3-0.4-0.2-0.6c0-0.6,0-6.7,0-10.8c0-0.2,0.1-0.5,0.3-0.6&#10;&#9;&#9;c5.7-3.3,5.8-3.3,6.2-3c0.2,0.1,0.3,0.4,0.4,0.6c0,0.2-0.2,10.8-0.3,12c0,0.3-0.2,0.5-0.4,0.6l-5.3,1.9&#10;&#9;&#9;C129.4,202.8,129.4,202.8,129.3,202.8z M130,191.6c0,5.6,0,8.3,0,9.5l3.9-1.4c0-1.8,0.2-7.9,0.2-10.4&#10;&#9;&#9;C133.1,189.8,131.5,190.7,130,191.6L130,191.6z"/>
	<polygon class="st2_colosseum-60" points="102.8,219.5 102.8,208.6 105.2,206.2 105.2,217.2 &#9;"/>
	<path class="st2_colosseum-60" d="M102.8,220.2c-0.1,0-0.2,0-0.3-0.1c-0.3-0.1-0.4-0.4-0.4-0.6v-10.9c0-0.2,0.1-0.4,0.2-0.5l2.4-2.4&#10;&#9;&#9;c0.2-0.2,0.5-0.2,0.8-0.1c0.3,0.1,0.4,0.4,0.4,0.6v11c0,0.2-0.1,0.4-0.2,0.5l-2.4,2.3C103.2,220.1,103,220.2,102.8,220.2z&#10;&#9;&#9; M103.5,208.9v9l1.1-1v-9L103.5,208.9z"/>
	<path class="st2_colosseum-60" d="M282.5,306.2v-18.7c0-4.2-4.3-8.1-9.7-7s-8.4,2.9-9,5.4s0,20.3,0,20.3H282.5z"/>
	<path class="st2_colosseum-60" d="M282.5,307h-18.6c-0.4,0-0.7-0.3-0.7-0.7c0-0.7-0.6-17.9,0-20.5c0.7-2.8,3.8-4.8,9.5-6&#10;&#9;&#9;c2.7-0.6,5.4,0.1,7.6,1.8c1.8,1.4,2.9,3.6,2.9,5.9v18.7C283.2,306.6,282.9,307,282.5,307C282.5,307,282.5,307,282.5,307z&#10;&#9;&#9; M264.5,305.6h17.2v-18c0-1.9-0.9-3.7-2.4-4.8c-1.8-1.4-4.2-2-6.4-1.5c-5.1,1-7.9,2.7-8.4,4.9C264.1,288,264.3,300.2,264.5,305.6&#10;&#9;&#9;L264.5,305.6z"/>
	<path class="st2_colosseum-60" d="M299.6,331.9h5.4c3.7,0,6.7,3,6.7,6.7v26.2l0,0h-18.8l0,0v-26.2C292.9,334.9,295.9,331.9,299.6,331.9&#10;&#9;&#9;L299.6,331.9z"/>
	<path class="st2_colosseum-60" d="M311.7,365.5h-18.8c-0.4,0-0.7-0.3-0.7-0.7v0v-23.6c0.2-5.6,4.8-10,10.4-9.8c5.3,0.2,9.6,4.4,9.8,9.8v23.6&#10;&#9;&#9;C312.4,365.2,312.1,365.5,311.7,365.5z M293.6,364.1H311v-22.9c-0.2-4.8-4.2-8.6-9-8.4c-4.6,0.2-8.2,3.8-8.4,8.4L293.6,364.1z"/>
	<path class="st2_colosseum-60" d="M337.4,361.3v-20.7c0-5.7,3.3-7.2,7.4-7.2c4.4,0,5.6,3.7,5.8,6.8s0,21.4,0,21.4L337.4,361.3z"/>
	<path class="st2_colosseum-60" d="M350.6,362.4L350.6,362.4l-13.2-0.3c-0.4,0-0.7-0.3-0.7-0.7v-20.7c0-5.3,2.6-7.9,8.1-7.9h0&#10;&#9;&#9;c3.9,0,6.2,2.6,6.5,7.5c0.2,3,0,20.7,0,21.4c0,0.2-0.1,0.4-0.2,0.5C351,362.3,350.8,362.4,350.6,362.4z M338.1,360.6l11.8,0.3&#10;&#9;&#9;c0-3.4,0.2-18,0-20.6c-0.2-2.8-1.2-6.1-5.1-6.1l0,0c-4.6,0-6.7,2-6.7,6.5L338.1,360.6z"/>
	<path class="st2_colosseum-60" d="M356.7,361.6v-22.5c0-5.7,11-6.4,11.2-1c0.2,5.6-0.2,23.5-0.2,23.5H356.7z"/>
	<path class="st2_colosseum-60" d="M367.7,362.4h-11c-0.4,0-0.7-0.3-0.7-0.7l0,0v-22.5c0-3.5,3.4-5.4,6.7-5.4c2.8,0,5.8,1.3,5.9,4.4&#10;&#9;&#9;c0.2,5.6-0.2,23.3-0.2,23.5C368.4,362,368.1,362.4,367.7,362.4C367.7,362.4,367.7,362.4,367.7,362.4z M357.4,360.9h9.6&#10;&#9;&#9;c0.1-3.4,0.3-17.8,0.2-22.7c-0.1-2.1-2.2-3-4.4-3c-2.6,0-5.3,1.4-5.3,4L357.4,360.9z"/>
	<path class="st2_colosseum-60" d="M356.7,320.4v-21.1c0-5.4,11-6,11.2-0.9c0.2,5.3-0.2,22.1-0.2,22.1L356.7,320.4z"/>
	<path class="st2_colosseum-60" d="M367.7,321.1h-11c-0.4,0-0.7-0.3-0.7-0.7c0,0,0,0,0,0v-21.1c0-3.3,3.4-5,6.7-5.1c2.9-0.1,5.8,1.2,5.9,4.1&#10;&#9;&#9;c0.2,5.2-0.2,22-0.2,22.1C368.4,320.8,368.1,321.1,367.7,321.1C367.7,321.1,367.7,321.1,367.7,321.1z M357.4,319.7h9.6&#10;&#9;&#9;c0.1-3.2,0.3-16.8,0.2-21.4c-0.1-2-2.3-2.9-4.5-2.8c-2.6,0-5.3,1.3-5.3,3.7L357.4,319.7z"/>
	<path class="st2_colosseum-60" d="M336.5,320.4V298c0-5.7,12.7-6.3,12.9-0.9c0.2,5.6,0.7,23.4,0.7,23.4L336.5,320.4z"/>
	<path class="st2_colosseum-60" d="M350.1,321.3h-13.6c-0.5,0-0.8-0.4-0.8-0.8V298c0-3.5,3.8-5.4,7.6-5.5c3.4-0.1,6.9,1.3,7,4.5&#10;&#9;&#9;c0.2,5.5,0.7,23.2,0.7,23.4C351,320.9,350.6,321.3,350.1,321.3C350.2,321.3,350.1,321.3,350.1,321.3L350.1,321.3z M337.4,319.6&#10;&#9;&#9;h11.9c-0.1-3.6-0.4-17.7-0.6-22.5c-0.1-2.1-2.9-3-5.3-3c-3,0.1-6,1.4-6,3.8L337.4,319.6z"/>
	<path class="st2_colosseum-60" d="M374.6,361.6V341c0-4.1,2.6-5.6,5-5.7s4.8,2.1,5.1,5.7s0,20.6,0,20.6L374.6,361.6z"/>
	<path class="st2_colosseum-60" d="M384.7,362.4h-10.1c-0.4,0-0.7-0.3-0.7-0.7c0,0,0,0,0,0V341c0-4.6,3-6.3,5.7-6.4c3-0.1,5.5,2.6,5.9,6.4&#10;&#9;&#9;c0.3,3.6,0,20,0,20.7C385.5,362,385.1,362.3,384.7,362.4z M375.3,360.9h8.7c0-3.2,0.2-16.8,0-19.8c-0.3-3.4-2.5-5.1-4.4-5&#10;&#9;&#9;c-1.3,0-4.3,0.6-4.3,5L375.3,360.9z"/>
	<path class="st2_colosseum-60" d="M374.6,320.4V303c0-3.5,2.6-4.7,5-4.8c2.7,0,5,2.1,5.1,4.8c0.3,3,0,19.4,0,19.4L374.6,320.4z"/>
	<path class="st2_colosseum-60" d="M384.7,323.1h-0.1l-10.1-2c-0.3-0.1-0.5-0.3-0.5-0.6V303c0-3.9,2.9-5.4,5.7-5.5c3.1,0,5.7,2.4,5.8,5.5&#10;&#9;&#9;c0.3,3,0,18.8,0,19.5c0,0.2-0.1,0.4-0.2,0.5C385,323,384.9,323.1,384.7,323.1z M375.2,319.9l8.9,1.7c0-3.3,0.2-16,0-18.5&#10;&#9;&#9;c-0.1-2.4-2.1-4.2-4.5-4.2c-1.3,0-4.4,0.5-4.4,4.1L375.2,319.9z"/>
	<path class="st2_colosseum-60" d="M391.3,361.6v-21.1c0-3.4,3.9-6.2,5.7-2.6s1.1,23.6,1.1,23.6H391.3z"/>
	<path class="st2_colosseum-60" d="M398.1,362.4h-6.8c-0.4,0-0.7-0.3-0.7-0.7c0,0,0,0,0,0v-21.1c0-2.2,1.4-4.2,3.4-4.9c1.5-0.4,2.8,0.4,3.6,2&#10;&#9;&#9;c1.9,3.7,1.2,21.9,1.2,24C398.8,362,398.5,362.4,398.1,362.4z M392,360.9h5.4c0.2-6,0.4-19.9-1-22.6c-0.3-0.8-1.1-1.4-2-1.3&#10;&#9;&#9;c-1.4,0.6-2.4,2-2.3,3.5L392,360.9z"/>
	<path class="st2_colosseum-60" d="M391.3,323.6v-18.4c0-2.6,3.9-4.7,5.7-2s1.1,22.4,1.1,22.4L391.3,323.6z"/>
	<path class="st2_colosseum-60" d="M398.1,326.2h-0.2l-6.8-2c-0.3-0.1-0.5-0.3-0.5-0.6v-18.4c0.1-1.7,1.3-3.2,3-3.7c1.5-0.5,3.1,0.1,3.9,1.4&#10;&#9;&#9;c1.9,2.9,1.3,20.7,1.2,22.7c0,0.2-0.1,0.4-0.3,0.5C398.4,326.1,398.2,326.2,398.1,326.2z M391.9,323.1l5.6,1.6&#10;&#9;&#9;c0.3-7.8,0.2-19.3-1-21.2c-0.5-0.9-1.5-1.2-2.5-0.9c-1.1,0.3-2,1.3-2.1,2.5L391.9,323.1z"/>
	<path class="st2_colosseum-60" d="M402.5,327.1v-18.4c0-2.6,3.9-4.7,5.7-2s1.1,22.4,1.1,22.4L402.5,327.1z"/>
	<path class="st2_colosseum-60" d="M409.3,329.7h-0.2l-6.8-2c-0.3-0.1-0.4-0.3-0.5-0.6v-18.4c0.1-1.7,1.3-3.2,3-3.7c1.5-0.5,3.1,0.1,3.9,1.4&#10;&#9;&#9;c1.9,2.9,1.3,20.7,1.2,22.7C410,329.4,409.7,329.7,409.3,329.7L409.3,329.7z M403.1,326.6l5.6,1.6c0.3-7.8,0.2-19.3-1-21.2&#10;&#9;&#9;c-0.5-0.9-1.5-1.2-2.5-0.9c-1.1,0.3-2,1.3-2.1,2.5L403.1,326.6z"/>
	<path class="st2_colosseum-60" d="M403.7,361.6v-20c0-2.9,2.9-4.9,5-2.4s1.6,22.4,1.6,22.4H403.7z"/>
	<path class="st2_colosseum-60" d="M410.3,362.4h-6.6c-0.4,0-0.7-0.3-0.7-0.7c0,0,0,0,0,0v-20c-0.1-1.7,0.9-3.3,2.5-4.1c1.4-0.5,2.9,0,3.8,1.2&#10;&#9;&#9;c2.2,2.6,1.9,19.5,1.8,22.9C411,362,410.6,362.4,410.3,362.4z M404.4,360.9h5.2c0.2-7.6,0-19.5-1.4-21.2c-0.5-0.7-1.3-1-2.2-0.8&#10;&#9;&#9;c-1,0.5-1.7,1.6-1.6,2.7V360.9z"/>
	<path class="st2_colosseum-60" d="M324.2,257.5l-6.3-0.7v10c0,0,4.8-0.2,6.7,0L324.2,257.5z"/>
	<path class="st2_colosseum-60" d="M317.9,267.5c-0.2,0-0.4-0.1-0.5-0.2c-0.1-0.1-0.2-0.3-0.2-0.5v-10c0-0.2,0.1-0.4,0.2-0.5&#10;&#9;&#9;c0.1-0.2,0.4-0.3,0.6-0.3l6.3,0.7c0.4,0,0.6,0.3,0.7,0.7l0.4,9.3c0,0.2-0.1,0.4-0.2,0.6c-0.2,0.1-0.4,0.2-0.6,0.2&#10;&#9;&#9;C322.8,267.3,318,267.5,317.9,267.5L317.9,267.5z M318.7,257.6v8.4c1.2,0,3.6-0.1,5.1-0.1l-0.3-7.8L318.7,257.6z"/>
	<path class="st2_colosseum-60" d="M362.9,273.5V265c1.6,0.7,3.3,1.2,5.1,1.5v7.8L362.9,273.5z"/>
	<path class="st2_colosseum-60" d="M367.9,275.1h-0.1l-5.1-0.8c-0.4-0.1-0.6-0.4-0.6-0.7V265c0-0.2,0.1-0.5,0.3-0.6c0.2-0.1,0.5-0.2,0.7-0.1&#10;&#9;&#9;c1.6,0.6,3.2,1.1,4.9,1.5c0.4,0,0.7,0.4,0.7,0.7v7.8c0,0.2-0.1,0.4-0.3,0.6C368.3,275,368.1,275.1,367.9,275.1z M363.6,272.9&#10;&#9;&#9;l3.6,0.5v-6.3c-1.2-0.3-2.4-0.7-3.6-1.1V272.9z"/>
	<path class="st2_colosseum-60" d="M394.1,284.1v-7.8c0,0,3.1,1.2,4.2,1.8v8L394.1,284.1z"/>
	<path class="st2_colosseum-60" d="M398.3,286.8c-0.1,0-0.2,0-0.3-0.1l-4.1-2c-0.3-0.1-0.4-0.4-0.4-0.7v-7.8c0-0.2,0.1-0.5,0.3-0.6&#10;&#9;&#9;c0.2-0.1,0.5-0.2,0.7-0.1c0.1,0,3.1,1.2,4.2,1.8c0.2,0.1,0.4,0.4,0.4,0.6v8c0,0.3-0.1,0.5-0.4,0.6&#10;&#9;&#9;C398.5,286.7,398.4,286.8,398.3,286.8z M394.9,283.6l2.7,1.3v-6.3c-0.7-0.4-1.9-0.8-2.7-1.1V283.6z"/>
</g>
<g id="Ground_colosseum-60">
	<polygon class="st3_colosseum-60" points="25,371.5 81.9,364.9 415,364.9 474.7,364.9 474.7,395.9 25,395.9 &#9;"/>
	<path class="st2_colosseum-60" d="M474.7,396.5H25c-0.4,0-0.7-0.3-0.7-0.7l0,0v-24.4c0-0.4,0.3-0.7,0.6-0.7l56.9-6.6h392.9&#10;&#9;&#9;c0.4,0,0.7,0.3,0.7,0.7v0v31C475.4,396.2,475.1,396.5,474.7,396.5L474.7,396.5z M25.7,395.1H474v-29.6H81.9l-56.2,6.6L25.7,395.1z"/>
	<polygon class="st1_colosseum-60" points="25,374.6 88.2,371.7 233.3,371.7 169.4,395.9 25,395.9 &#9;"/>
	<path class="st2_colosseum-60" d="M169.4,396.5H25c-0.4,0-0.7-0.3-0.7-0.7l0,0v-21.3c0-0.4,0.3-0.7,0.7-0.7l63.2-2.9h145.1&#10;&#9;&#9;c0.3,0,0.6,0.2,0.7,0.6c0.1,0.3-0.1,0.7-0.4,0.8l-63.9,24.1C169.6,396.5,169.5,396.5,169.4,396.5z M25.7,395.1h143.6l60.2-22.8&#10;&#9;&#9;H88.2l-62.5,2.9V395.1z"/>
	<polygon class="st1_colosseum-60" points="313.9,395 289.6,369.1 474.7,368.1 474.7,395.9 &#9;"/>
	<path class="st2_colosseum-60" d="M474.7,396.5L474.7,396.5l-160.8-0.9c-0.2,0-0.4-0.1-0.5-0.2l-24.3-25.8c-0.3-0.3-0.3-0.7,0-1&#10;&#9;&#9;c0.1-0.1,0.3-0.2,0.5-0.2l185.1-1c0.2,0,0.4,0.1,0.5,0.2c0.1,0.1,0.2,0.3,0.2,0.5v27.8c0,0.2-0.1,0.4-0.2,0.5&#10;&#9;&#9;C475.1,396.5,474.9,396.6,474.7,396.5z M314.2,394.2l159.8,0.9v-26.3l-182.8,1L314.2,394.2z"/>
	<path class="st2_colosseum-60" d="M474.7,390.2c-0.1,0-0.2,0-0.4-0.1c-0.1-0.1-10.9-6.3-32-9.1c-17.7-2.4-47.1-8.8-56.8-11l-3.5-0.8l0,0&#10;&#9;&#9;c-0.4,0-0.7-0.3-0.7-0.7c0,0,0,0,0,0c0-0.4,0.3-0.7,0.7-0.7c0,0,0,0,0,0c0.1,0,0.2,0,3.7,0.8c9.6,2.1,39,8.6,56.7,11&#10;&#9;&#9;c21.4,2.9,32.1,9,32.5,9.3c0.3,0.2,0.4,0.6,0.2,1C475.2,390.1,474.9,390.3,474.7,390.2L474.7,390.2z"/>
</g>
<g id="Frame_colosseum-60">
	<path class="st2_colosseum-60" d="M474.7,396.5H25c-0.4,0-0.7-0.3-0.7-0.7l0,0V104.2c0-0.4,0.3-0.7,0.7-0.7h449.7c0.4,0,0.7,0.3,0.7,0.7v0v291.7&#10;&#9;&#9;C475.4,396.2,475.1,396.5,474.7,396.5z M25.7,395.1H474V104.8H25.7L25.7,395.1z"/>
</g>
</svg>