<svg id="_0103_resting" xmlns="http://www.w3.org/2000/svg" xmlns:xlink="http://www.w3.org/1999/xlink" viewBox="0 0 500 500" data-imageid="resting-63" imageName="Resting" class="illustrations_image" style="width: 162px;"><defs><style>.cls-1_resting-63{fill:url(#linear-gradient);}.cls-1_resting-63,.cls-2_resting-63,.cls-3_resting-63,.cls-4_resting-63,.cls-5_resting-63,.cls-6_resting-63,.cls-7_resting-63,.cls-8_resting-63,.cls-9_resting-63,.cls-10_resting-63,.cls-11_resting-63,.cls-12_resting-63,.cls-13_resting-63,.cls-14_resting-63,.cls-15_resting-63,.cls-16_resting-63,.cls-17_resting-63,.cls-18_resting-63,.cls-19_resting-63,.cls-20_resting-63,.cls-21_resting-63{stroke-width:0px;}.cls-2_resting-63{isolation:isolate;opacity:.18;}.cls-2_resting-63,.cls-21_resting-63{fill:#68e1fd;}.cls-3_resting-63{fill:url(#linear-gradient-11-resting-63);}.cls-4_resting-63{fill:url(#linear-gradient-12-resting-63);}.cls-5_resting-63{fill:url(#linear-gradient-13-resting-63);}.cls-6_resting-63{fill:url(#linear-gradient-10-resting-63);}.cls-7_resting-63{fill:url(#linear-gradient-16-resting-63);}.cls-8_resting-63{fill:url(#linear-gradient-15-resting-63);}.cls-9_resting-63{fill:url(#linear-gradient-14-resting-63);}.cls-10_resting-63{fill:url(#linear-gradient-4-resting-63);}.cls-11_resting-63{fill:url(#linear-gradient-2-resting-63);}.cls-12_resting-63{fill:url(#linear-gradient-3-resting-63);}.cls-13_resting-63{fill:url(#linear-gradient-8-resting-63);}.cls-14_resting-63{fill:url(#linear-gradient-9-resting-63);}.cls-15_resting-63{fill:url(#linear-gradient-7-resting-63);}.cls-16_resting-63{fill:url(#linear-gradient-5-resting-63);}.cls-17_resting-63{fill:url(#linear-gradient-6-resting-63);}.cls-18_resting-63{fill:#3e3e54;}.cls-19_resting-63{fill:#fff;}.cls-20_resting-63{fill:#ffb4a3;}</style><linearGradient id="linear-gradient-resting-63" x1="747.18" y1="2440.37" x2="750.21" y2="2566.73" gradientTransform="translate(-471.58 2848) scale(1 -1)" gradientUnits="userSpaceOnUse"><stop offset="0" stop-color="#000" stop-opacity="0"/><stop offset=".99" stop-color="#000"/></linearGradient><linearGradient id="linear-gradient-2-resting-63" x1="648.13" y1="2627.51" x2="856.97" y2="2619.94" gradientTransform="translate(-471 2852.1) scale(1 -1)" gradientUnits="userSpaceOnUse"><stop offset=".02" stop-color="#fff" stop-opacity="0"/><stop offset=".58" stop-color="#fff" stop-opacity=".39"/><stop offset=".68" stop-color="#fff" stop-opacity=".68"/><stop offset="1" stop-color="#fff"/></linearGradient><linearGradient id="linear-gradient-3-resting-63" x1="859.21" y1="2634.38" x2="860.21" y2="2534.5" gradientTransform="translate(-471 2852.1) scale(1 -1)" xlink:href="#linear-gradient-resting-63"/><linearGradient id="linear-gradient-4-resting-63" x1="733.61" y1="2503.47" x2="887.61" y2="2503.47" gradientTransform="translate(-471 2852.1) scale(1 -1)" xlink:href="#linear-gradient-resting-63"/><linearGradient id="linear-gradient-5-resting-63" x1="881.88" y1="2616.15" x2="881.38" y2="2507.44" gradientTransform="translate(-471 2852.1) scale(1 -1)" xlink:href="#linear-gradient-resting-63"/><linearGradient id="linear-gradient-6-resting-63" x1="659.82" y1="2582.88" x2="558.49" y2="2555.52" xlink:href="#linear-gradient-resting-63"/><linearGradient id="linear-gradient-7-resting-63" x1="684.63" y1="2526.21" x2="604.68" y2="2509.06" xlink:href="#linear-gradient-resting-63"/><linearGradient id="linear-gradient-8-resting-63" x1="507.17" y1="2614.05" x2="615.7" y2="2534.15" xlink:href="#linear-gradient-resting-63"/><linearGradient id="linear-gradient-9-resting-63" x1="619.96" y1="2576.83" x2="516.54" y2="2504.95" xlink:href="#linear-gradient-resting-63"/><linearGradient id="linear-gradient-10-resting-63" x1="607.81" y1="2570.46" x2="618.67" y2="2591.4" gradientTransform="translate(-471.58 2848) scale(1 -1)" xlink:href="#linear-gradient-2-resting-63"/><linearGradient id="linear-gradient-11-resting-63" x1="607.46" y1="2567.43" x2="618.3" y2="2588.36" gradientTransform="translate(-471.58 2848) scale(1 -1)" xlink:href="#linear-gradient-2-resting-63"/><linearGradient id="linear-gradient-12-resting-63" x1="607.87" y1="2563.66" x2="618.72" y2="2584.59" gradientTransform="translate(-471.58 2848) scale(1 -1)" xlink:href="#linear-gradient-2-resting-63"/><linearGradient id="linear-gradient-13-resting-63" x1="690.63" y1="2542.9" x2="656.33" y2="2517.34" xlink:href="#linear-gradient-resting-63"/><linearGradient id="linear-gradient-14-resting-63" x1="688.76" y1="2544.68" x2="621.51" y2="2507.36" xlink:href="#linear-gradient-resting-63"/><linearGradient id="linear-gradient-15-resting-63" x1="621.7" y1="2445.21" x2="617.16" y2="2672.7" xlink:href="#linear-gradient-resting-63"/><linearGradient id="linear-gradient-16-resting-63" x1="614.81" y1="2584.36" x2="602.2" y2="2550.23" gradientTransform="translate(-471 2852.1) scale(1 -1)" xlink:href="#linear-gradient-resting-63"/></defs><path id="background_resting-63" class="cls-2_resting-63 targetColor" d="M15.47,330.56c-12.58-34.13-7.96-71.99,11.14-102.61,8.03-12.91,19.33-23.09,27.85-35.55,16.18-23.71,18.4-54.26,35.71-77.37,14.8-19.74,38.52-30.61,62.03-38.07,39.26-12.47,83.7-17.02,123.49-4.02,16.51,5.4,35.07,14.45,47.19,27.11,13.78,14.35,20.08,33.37,38.85,43.06,20.98,10.81,38.47.37,59.29,2.36,15.57,1.49,33.4,16.36,42.57,28.87,15.42,21.08,15.23,49.19,20.19,74.81,5.22,26.97,16.69,52.42,21.88,79.38,4.16,21.55,3.67,44.94-6.54,64.8-10.65,20.73-29.16,19.94-50.78,22.33-48.73,5.38-98.01,1.94-146.48-4.26-58.8-7.52-117.07-19.14-176.18-24.2-45.34-3.94-91.93-7.02-110.21-56.65Z" style="fill: rgb(104, 225, 253);"/><path id="shadow_resting-63" class="cls-1_resting-63" d="M66.14,363.09h421.06s-26.56,30.81-65.87,28.79c-39.3-2.02-304.67-14.12-304.67-14.12,0,0-42.55.91-50.52-14.68Z"/><g id="TV_resting-63"><polygon class="cls-11_resting-63" points="449.08 221.16 170.38 81.16 160.54 367.17 318.43 317.74 449.08 221.16"/><path class="cls-18_resting-63" d="M321.5,221.16h120.67c7.23,0,13.1,5.87,13.1,13.1v71.5c0,7.23-5.87,13.1-13.1,13.1h-120.67c-7.23,0-13.1-5.87-13.1-13.1v-71.5c0-7.23,5.87-13.1,13.1-13.1Z"/><path class="cls-18_resting-63" d="M328.4,221.16h120.67c7.23,0,13.1,5.87,13.1,13.1v71.5c0,7.23-5.87,13.1-13.1,13.1h-120.67c-7.23,0-13.1-5.87-13.1-13.1v-71.5c0-7.23,5.87-13.1,13.1-13.1Z"/><path class="cls-12_resting-63" d="M328.4,221.16h120.67c7.23,0,13.1,5.87,13.1,13.1v71.5c0,7.23-5.87,13.1-13.1,13.1h-120.67c-7.23,0-13.1-5.87-13.1-13.1v-71.5c0-7.23,5.87-13.1,13.1-13.1Z"/><rect class="cls-21_resting-63 targetColor" x="292.87" y="331.16" width="154" height="34.94" style="fill: rgb(104, 225, 253);"/><rect class="cls-10_resting-63" x="292.87" y="331.16" width="154" height="34.94"/><rect class="cls-21_resting-63 targetColor" x="333.2" y="331.16" width="154" height="34.94" style="fill: rgb(104, 225, 253);"/><path class="cls-18_resting-63" d="M395.04,259.18h22.46c5.59,0,10.13,4.54,10.13,10.13v61.7h-42.72v-61.71c0-5.59,4.54-10.12,10.13-10.12Z"/><path class="cls-18_resting-63" d="M399.35,259.18h22.46c5.59,0,10.13,4.54,10.13,10.13v61.7h-42.71v-61.71c0-5.59,4.53-10.11,10.12-10.12Z"/><path class="cls-16_resting-63" d="M399.35,259.18h22.46c5.59,0,10.13,4.54,10.13,10.13v61.7h-42.71v-61.71c0-5.59,4.53-10.11,10.12-10.12Z"/></g><g id="character_resting-63"><path class="cls-19_resting-63" d="M199.49,280.01c-.08.76-.36,1.49-.83,2.1-1.05,1.09-2.44,1.8-3.95,2.01-8.67,2.01-17.62,2.57-26.52,3.13-1.67.18-3.36.14-5.02-.11-1.82-.46-3.56-1.21-5.16-2.21-9.56-5.41-18.75-12.57-23.03-22.66-.46-1.06-.84-2.15-1.33-3.2-.25-.57-.54-1.13-.86-1.66-.53-.84-1.89-2.24-1.18-3.25s2.79-.36,3.62-.25c2.78.39,5.47,1.25,7.97,2.53,6.92,3.57,11.78,10.13,18.07,14.77.44.37.94.66,1.48.87.69.21,1.41.29,2.13.24,8.53-.1,16.96-1.74,25.44-2.63,2.17-.24,4.57-.35,6.3,1s2.23,3.65,2.61,5.79c.26,1.16.35,2.34.26,3.52Z"/><path class="cls-17_resting-63" d="M199.49,280.01c-.08.76-.36,1.49-.83,2.1-1.05,1.09-2.44,1.8-3.95,2.01-8.67,2.01-17.62,2.57-26.52,3.13-1.67.18-3.36.14-5.02-.11-1.82-.46-3.56-1.21-5.16-2.21-9.56-5.41-18.75-12.57-23.03-22.66-.46-1.06-.84-2.15-1.33-3.2.74.03,1.48.12,2.21.26,2.78.39,5.47,1.25,7.96,2.53,6.94,3.57,11.79,10.14,18.07,14.78,1,.86,2.31,1.27,3.62,1.1,8.52-.1,16.95-1.74,25.43-2.64,2.17-.22,4.58-.34,6.3,1,1.16,1.01,1.95,2.39,2.24,3.91Z"/><path class="cls-21_resting-63 targetColor" d="M196.53,291.17c4.25-.1,8.95,0,12.1,2.79,3.39,3.01,3.75,8.15,3.89,12.7l1.38,50.2c.07,2.8,0,5.95-2.01,7.9s-4.8,1.91-7.42,1.89c-9.69-.08-19.52-.17-28.84-2.84-4.83-1.5-9.55-3.35-14.12-5.52l-11.86-5.29c-.95-.34-1.81-.9-2.5-1.64-.52-.76-.86-1.62-1-2.53-3.11-14.5-3.03-29.51.23-43.98.44-2.37,1.23-4.66,2.32-6.81,4.22-7.6,11.4-6.02,18.9-6.15l28.93-.71Z" style="fill: rgb(104, 225, 253);"/><path class="cls-15_resting-63" d="M183.67,295.93c4.25-.1,8.95,0,12.1,2.8,3.39,3.01,3.75,8.14,3.89,12.7l1.37,50.2c.08,2.8-.63.81-2.65,2.76s-45.1.73-49.72-1.33l-11.87-5.3c-.93-.33-1.76-.88-2.44-1.6-.52-.75-.87-1.61-1-2.52-3.11-14.5-3.03-29.51.22-43.98.45-2.37,1.23-4.67,2.33-6.82,4.22-7.59,11.39-5.97,18.9-6.15l28.87-.76Z"/><path class="cls-21_resting-63 targetColor" d="M104.23,253.01c-2.71-1-5.56-1.56-8.44-1.65-7.99-.57-16.01-.35-23.95.65-2.75.34-5.59.82-7.89,2.38-4.08,2.77-5.35,8.11-6.09,12.98-2.39,15.79-2.37,31.85.06,47.63,1.4,8.95.2,18.07.11,27.11-.07,7.03-.83,18.21,4.66,22.51,2.8,2.2,40.84,3.07,55.77,3.4,20.51.45,41.02.91,61.53,1,4.22,0,8.49,0,12.56-1.11,1.05-.22,2.03-.7,2.84-1.4,1.73-1.68,1.43-4.48,1-6.84-.97-4.99-2.1-9.95-3.39-14.87-1-3.85-.36-7.91-.41-11.89,0-3.45-.1-7.03-1.55-10.16-1.74-3.79-5.32-6.49-9.17-8.09s-8.03-2.29-12.12-3.09c-12.45-2.44-25.36-6.62-33.39-16.41-4.58-5.61-7.11-12.56-10.21-19.07s-7.12-13.05-13.46-16.58c-3.06-1.74-5.28-5.15-8.45-6.51Z" style="fill: rgb(104, 225, 253);"/><path class="cls-13_resting-63" d="M71.27,265.43l3.13,23.09c.36,2.67.85,5.59,2.88,7.38,2.03,1.79,5.15,1.89,7.94,1.85l54.67-.83-16.78-25.52c-1.84-2.99-3.95-5.8-6.29-8.4-5.8-6.02-14.06-9.28-22.35-10.46-6.58-.79-13.22-.85-19.81-.17-3.46.28-4.91-.2-4.58,3.56.28,3.15.74,6.33,1.17,9.51Z"/><path class="cls-19_resting-63" d="M106.02,267.26c.14,2.14.48,4.26,1,6.34.9,3.3,2.04,6.52,3.4,9.66l8.68,21.23c.34.97.83,1.88,1.46,2.69,1,1.05,2.28,1.8,3.68,2.15,2.5.68,5.07,1.06,7.66,1.12,8.68.53,17.38.27,26.01-.78,1.85-.23,4.14-.92,4.39-2.77.04-.6-.05-1.2-.27-1.77-3.51-11.31-11.46-20.92-14.56-32.36-.55-2.01-.94-4.09-1.56-6.08-.96-2.98-2.31-5.83-4.02-8.45-.65-1.1-1.43-2.11-2.34-3.01-1.21-1.06-2.61-1.87-4.13-2.41-5.52-2.11-10.79-3.53-16.7-3.28-1.73.08-4.32,1.77-5.91,2.4-3.14,1.24-5.19,4.43-5.94,7.72-.75,3.29-.44,6.72-.12,10.04"/><path class="cls-14_resting-63" d="M142.98,297.94c-.31-1.5-.27-3.01-.61-4.54-.86-3.71-4.09-6.52-7.6-8.03s-7.38-1.91-11.14-2.55c-1.87-.32-3.84-.74-5.21-2.01-2.09-2.01-2.14-5.2-2.48-8.03-.37-3.07-1.24-6.05-2.57-8.84-.11-.3-.32-.56-.59-.73-.45-.13-.93-.02-1.29.29-2.74,1.88-3.94,5.43-3.83,8.75s1.32,6.5,2.52,9.6l6.75,17.48c.82,2.14,1.71,4.37,3.46,5.83,2.39,2.01,5.77,2.12,8.88,2.01,5.71-.2,13.6-.06,18.82-2.48-2.36-1.87-4.46-3.66-5.12-6.75Z"/><path class="cls-21_resting-63 targetColor" d="M128.91,267.82c.29-.54.92-.79,1.51-.6.22-.82-.27-1.88.35-2.46.41-.39,1.11-.3,1.57-.65s.5-1,.75-1.56c.54-1.04,1.82-1.44,2.86-.9.01,0,.03.02.04.02-.07-.51-.08-1.14.36-1.43.44-.28,1.06,0,1.55-.18.8-.36.46-1.68,1-2.34.16-.17.37-.31.59-.39,1.77-.71,3.79.14,4.51,1.92.11.27.18.55.22.84.82-.62,1.98-.46,2.6.35.39.51.49,1.19.26,1.79,1.19-.12,2.25.75,2.37,1.94,0,.02,0,.04,0,.07.86.15,1.5.87,1.56,1.74,0-.1.08-.18.16-.23.53-.22,1.13.02,1.38.53.21.51.29,1.06.22,1.61l-.05,1.46c0,.13-.02.26-.08.38-.1.11-.22.18-.36.22-5.49,2.01-11.16,4.15-17.07,3.91-1.46,0-2.89-.32-4.22-.92-1.8-.98-3.33-3.04-2.09-5.11Z" style="fill: rgb(104, 225, 253);"/><path class="cls-6_resting-63" d="M128.91,267.82c.29-.54.92-.79,1.51-.6.22-.82-.27-1.88.35-2.46.41-.39,1.11-.3,1.57-.65s.5-1,.75-1.56c.54-1.04,1.82-1.44,2.86-.9.01,0,.03.02.04.02-.07-.51-.08-1.14.36-1.43.44-.28,1.06,0,1.55-.18.8-.36.46-1.68,1-2.34.16-.17.37-.31.59-.39,1.77-.71,3.79.14,4.51,1.92.11.27.18.55.22.84.82-.62,1.98-.46,2.6.35.39.51.49,1.19.26,1.79,1.19-.12,2.25.75,2.37,1.94,0,.02,0,.04,0,.07.86.15,1.5.87,1.56,1.74,0-.1.08-.18.16-.23.53-.22,1.13.02,1.38.53.21.51.29,1.06.22,1.61l-.05,1.46c0,.13-.02.26-.08.38-.1.11-.22.18-.36.22-5.49,2.01-11.16,4.15-17.07,3.91-1.46,0-2.89-.32-4.22-.92-1.8-.98-3.33-3.04-2.09-5.11Z"/><path class="cls-3_resting-63" d="M128.54,270.83c.29-.54.92-.79,1.5-.59.23-.82-.27-1.88.35-2.46.42-.39,1.11-.3,1.58-.65s.5-1,.74-1.57c.55-1.04,1.84-1.44,2.88-.89,0,0,.02,0,.03.01-.06-.51-.08-1.14.36-1.42s1.06,0,1.55-.19c.8-.36.46-1.68,1-2.34.17-.17.38-.3.6-.38,1.77-.71,3.78.14,4.5,1.91.11.27.19.56.22.85.82-.62,1.98-.46,2.6.35.39.51.49,1.19.26,1.79,1.19-.12,2.25.74,2.37,1.92,0,.03,0,.06,0,.09.86.15,1.5.87,1.56,1.74,0-.1.08-.18.17-.23.52-.21,1.12.02,1.37.53.22.5.3,1.05.23,1.6v1.44c.01.13-.02.26-.08.38-.09.11-.22.19-.36.23-5.49,2.01-11.16,4.14-17.07,3.9-1.46,0-2.9-.32-4.23-.92-1.85-.94-3.35-3-2.13-5.09Z"/><path class="cls-4_resting-63" d="M128.98,274.63c.29-.53.92-.79,1.5-.6.23-.81-.27-1.87.35-2.45.42-.4,1.11-.31,1.57-.66s.51-1,.75-1.56c.54-1.04,1.82-1.44,2.86-.9.01,0,.03.02.04.02-.07-.51-.08-1.14.36-1.42s1.06,0,1.55-.19c.8-.36.46-1.68,1-2.34.17-.17.38-.3.6-.38.98-.39,2.09-.31,3.01.21.92.55,1.54,1.49,1.69,2.55.82-.62,1.98-.46,2.6.35.39.51.49,1.19.26,1.79,1.19-.12,2.25.74,2.37,1.92,0,.03,0,.06,0,.09.86.15,1.5.87,1.56,1.74,0-.11.07-.2.17-.24.53-.2,1.12.03,1.37.54.22.5.3,1.05.23,1.6l-.06,1.46c0,.13-.02.26-.08.38-.09.11-.22.19-.36.22-5.49,2.01-11.16,4.15-17.07,3.91-1.46,0-2.9-.32-4.23-.92-1.77-.97-3.29-3.03-2.05-5.11Z"/><path class="cls-20_resting-63" d="M199.91,271.48c.87-.47,1.64-1.13,2.53-1.59,1.3-.56,2.69-.87,4.11-.92,1.29-.18,2.59-.16,3.88.05,1.29.22,2.44.96,3.16,2.06.28.47.45,1,.74,1.5.74,1.2,2.18,1.81,3.11,2.88,1.59,1.83,1.39,4.6-.45,6.19-.23.2-.49.38-.76.53-.97.47-2.03.73-3.1.78-6.62.69-13.29,0-19.91-.61-.4-.02-.8-.1-1.18-.23-1.07-.58-1.74-1.7-1.75-2.91-.2-2.37.79-4.69,2.65-6.17.89-.66,1.88-.38,2.95-.48,1.4-.08,2.76-.45,4.02-1.06Z"/><rect class="cls-18_resting-63" x="200.91" y="272.52" width="32.68" height="5.5" rx="2.34" ry="2.34"/><path class="cls-21_resting-63 targetColor" d="M147.71,306.58s49.39-1.73,53.7.64,41.63,51.33,41.63,51.33l-17.69.65-28.47-36.02-48.96-.21s-21.79,3.66-24.37.21-3.01-15.99-3.01-15.99l27.17-.61Z" style="fill: rgb(104, 225, 253);"/><path class="cls-5_resting-63" d="M147.71,306.58s49.39-1.73,53.7.64,41.63,51.33,41.63,51.33l-17.69.65-28.47-36.02-48.96-.21s-21.79,3.66-24.37.21-3.01-15.99-3.01-15.99l27.17-.61Z"/><path class="cls-21_resting-63 targetColor" d="M122.3,304.85s56.08-1.3,60.61,5.18c4.53,6.48,26.85,48.63,26.85,48.63l-17.47,1.13-18.78-36.07s-46.18,5.23-49.93-.54c-3.74-5.77-5.29-17.31-1.28-18.33Z" style="fill: rgb(104, 225, 253);"/><path class="cls-9_resting-63" d="M122.3,304.85s56.08-1.3,60.61,5.18c4.53,6.48,26.85,48.63,26.85,48.63l-17.47,1.13-18.78-36.07s-46.18,5.23-49.93-.54c-3.74-5.77-5.29-17.31-1.28-18.33Z"/><path class="cls-18_resting-63" d="M192.87,370.92c11.45.1,22.88.07,34.31-.08.75-3.58-1.13-7.2-4.49-8.64-2.45-1-5.24-.6-7.76-1.36-1.24-.37-2.4-1-3.63-1.39-2.15-.52-4.38-.65-6.58-.39l-6.42.37c-1.29.07-4.62-.36-5.61.51-1.75,1.51-.12,8.89.17,10.97Z"/><path class="cls-18_resting-63" d="M250.8,359.26c1.53-.05,3.07.13,4.55.54,3.66,1.36,5.73,5.23,4.84,9.04-.04.19-.13.37-.27.51-.21.15-.47.21-.73.18h-14.54c-5.84,0-11.69,0-17.52-.34-.23,0-.46-.06-.65-.18-.17-.16-.29-.36-.35-.58-.92-2.73-1.27-5.62-1-8.49-.08-.55.3-1.06.84-1.14.11-.02.23-.01.34,0,8.16-.24,16.32.38,24.5.46Z"/><path class="cls-21_resting-63 targetColor" d="M134.09,297.38c2.64,0,5.38.06,7.73,1.23,4.57,2.28,6.23,7.92,6.79,12.99.52,6.13.58,12.29.17,18.43l-.75,18.49c-.12.81.04,1.64.44,2.36.41.48.95.83,1.56,1,5.48,2.14,11.59,1.47,17.46,1.42,4.98-.04,9.95.4,14.85,1.3,1.26.12,2.46.61,3.44,1.4,1.24,1.2,1.37,3.13,1.41,4.87.06,2.47-.06,5.34-2.01,6.82-1.17.73-2.53,1.11-3.91,1.11-23.01,2.01-45.56-6.6-68.58-8.37-11.18-.86-22.94-.23-32.98-5.21-1.45-.64-2.74-1.58-3.78-2.76-1.14-1.6-1.81-3.48-1.94-5.44-.84-6.94,1-14.06-.21-20.91-.95-5.45-3.8-10.63-3.5-16.16.25-3.83,1.99-7.42,4.85-9.99,3.01-2.74,6.84-1.71,10.71-1.85,10.28-.36,20.56-.59,30.85-.69,5.8-.05,11.6-.06,17.41-.03Z" style="fill: rgb(104, 225, 253);"/><path class="cls-8_resting-63" d="M128.42,359.71c-.15,2.01-.29,4.21.75,5.94,1.43,2.39,4.5,3.09,7.24,3.58,7.58,1.35,15.3,2.7,22.94,1.8,3.24-.38,6.63-1.28,8.89-3.62s2.92-6.5.61-8.81c-2.01-2.01-5.14-1.94-7.95-2.01-3.15-.03-6.3-.32-9.41-.87-2.37-.42-4.93-1.13-6.31-3.11-.86-1.48-1.32-3.16-1.33-4.88-.72-8.27-.92-16.58-.6-24.88.25-6.58,1-15.11-4.53-19.93s-10.33.52-10.49,6.46c-.21,8.22,1,16.64,1.07,24.9.04,8.5-.26,16.98-.89,25.44Z"/><polygon class="cls-21_resting-63 targetColor" points="127.54 283.17 125.49 269.8 155.05 269.8 150.52 297.09 129.38 296.76 127.54 283.17" style="fill: rgb(104, 225, 253);"/><polygon class="cls-7_resting-63" points="127.54 283.17 125.49 269.8 155.05 269.8 150.52 297.09 129.38 296.76 127.54 283.17"/><polygon class="cls-19_resting-63" points="130.46 270.18 134.34 296.39 137.74 296.55 136.28 270.01 130.46 270.18"/><polygon class="cls-19_resting-63" points="143.88 270.18 141.61 296.55 145.66 297.09 150.19 269.8 143.88 270.18"/><path class="cls-19_resting-63" d="M39.1,335.51c-.08-1.65-.09-3.48,1-4.71.92-.84,2.08-1.37,3.32-1.51,7.49-1.52,15.24-1.02,22.47,1.46,1.16.28,2.21.91,3.01,1.79,1,1.29.84,3.01.67,4.66-.82,7.49-1.65,14.98-2.51,22.46-.06,1.2-.37,2.37-.91,3.43-3.24,5.36-19.66,4.6-23.62,0-5.14-5.91-3.43-20.39-3.43-27.58Z"/><path class="cls-18_resting-63" d="M37.67,320.6c-3.78-4.64-6.51-10.34-6.66-16.32,3.42.59,6.79,1.51,10.04,2.73,3.27,1.24,6.12,3.38,8.21,6.17,2.79,4.02,3.24,9.16,3.37,14.06.17,5.94-2.34,4.69-6.02,1.83-3.3-2.47-6.3-5.31-8.95-8.46Z"/><path class="cls-18_resting-63" d="M47.87,309.29c0-6.02,1.43-12.13,5.02-16.88,2.31,2.61,4.38,5.43,6.16,8.42,1.77,3.02,2.64,6.48,2.51,9.97-.34,4.87-3.22,9.16-6.18,13.05-3.6,4.73-4.77,2.18-5.84-2.37-1.02-3.99-1.58-8.08-1.67-12.2Z"/><path class="cls-18_resting-63" d="M59.61,315.37c4.12-4.35,9.44-7.76,15.35-8.66-.15,3.47-.63,6.93-1.44,10.31-.82,3.4-2.58,6.49-5.09,8.93-3.62,3.27-8.66,4.38-13.49,5.13-5.87.91-4.95-1.74-2.58-5.76,2.03-3.58,4.46-6.91,7.25-9.94Z"/><path class="cls-20_resting-63" d="M141,220.42c-1.74.19-3.48.28-5.23.26l-9.3.05c-1.05-.11-2.12.13-3.01.7-.46.42-.82.93-1.06,1.5-.92,1.9-1.67,3.7-1.32,5.8.12.67.42,7.23.64,7.25-1.06-.02-2.1-.32-3.01-.87-.06-.04-.11-.08-.16-.13-.16-3.95.51-8.03,2.75-11.31,2.83-4.15,7.9-6.4,12.91-6.57,1.54-.15,3.1.18,4.45.94.87.7,1.65,1.5,2.34,2.38Z"/><path class="cls-19_resting-63" d="M119.35,248.8c-1.24-.19-8.4,1.92-9.65,2.08-1.62.27-3.14.92-4.47,1.89-5.22,3.54-8.83,8.94-12.12,14.32-1.95,3.2-3.84,6.46-5.63,9.75-1.71,3.11-3.38,6.42-3.37,9.97-.02,1.26.24,2.5.77,3.64,1.19,2.14,3.2,3.7,5.57,4.32,2.35.6,4.77.87,7.19.82l16.32.37c4.32.24,8.65.06,12.93-.55,1.1-.06,2.12-.6,2.8-1.47.32-.7.43-1.48.32-2.25l-.27-5.17c.03-.7-.14-1.4-.49-2.01-.64-.92-1.92-1.09-3.01-1.14-6.64-.33-13.31.53-19.91-.2-.25,0-.49-.09-.67-.27-.1-.18-.13-.4-.09-.6.26-2.57,2.28-4.56,3.96-6.54,3.57-4.23,5.96-9.33,6.92-14.78.11-1.14.45-2.25,1-3.26.75-.89,1.57-1.71,2.46-2.45,3.52-3.87,1.6-6.14-.56-6.47Z"/><path class="cls-20_resting-63" d="M121.29,285.5c-1.25.2-2.38.9-3.11,1.94-.28.63-.43,1.32-.42,2.01,0,.76-.07,1.54-.06,2.3-.03.77.17,1.53.58,2.18.68.7,1.6,1.12,2.58,1.16,2.49.35,5,.53,7.52.53.86.13,1.74-.13,2.39-.71.31-.48.46-1.04.45-1.61.29-2.56.36-5.14.21-7.71-.12-1.06-1.24-.92-2.13-1-1.25-.1-2.51-.08-3.76.06-1.44.17-2.86.45-4.25.85Z"/><path class="cls-20_resting-63" d="M130.42,254.77c.03,1.01-.15,2.02-.53,2.96-.74,1.36-2.14,2.23-3.68,2.31-2.07.06-4.05-.86-5.34-2.48-1.25-1.62-2.02-3.56-2.22-5.6-.19-2.03-.19-4.08,0-6.11.02-.47.09-.94.2-1.41.21-.62.55-1.2,1-1.68.62-.8,1.47-1.37,2.44-1.65.79-.15,1.6-.09,2.36.17,1.85.57,3.45,1.78,4.51,3.4,1.86,2.88,1.41,6.77,1.26,10.08Z"/><path class="cls-20_resting-63" d="M122.66,250.29c.53,1.34,1.35,2.55,2.39,3.55,1.05,1,2.48,1.52,3.93,1.44.37,0,.73-.13,1-.38.24-.33.36-.73.35-1.13l.36-3.96c.12-.8.1-1.62-.06-2.41-.24-.8-.65-1.54-1.21-2.16-1.48-1.77-5.02-4.45-7.51-3.01-2.12,1.34.04,6.43.75,8.06Z"/><path class="cls-20_resting-63" d="M143.29,237.18c-.23,3.39-.8,7.03-3.01,9.55-1.55,1.64-3.5,2.86-5.66,3.54-1.53.63-3.17.9-4.82.79-2.28-.35-4.34-1.55-5.76-3.37-.86-1.05-1.57-2.2-2.13-3.43-.39-.84-.74-1.72-1-2.59-1.53-.1-2.96-.82-3.94-2.01-.64-.63-1.12-1.41-1.39-2.27-.25-.88,0-1.82.64-2.47.65-.61,1.66-.61,2.32,0l.07.08h0c.05.05.1.09.16.13.91.55,1.95.85,3.01.87-.22,0-.52-6.58-.64-7.25-.35-2.1.39-3.91,1.32-5.8.24-.57.61-1.08,1.06-1.5.89-.57,1.96-.82,3.01-.7l9.3-.05c1.75.02,3.49-.07,5.23-.26.19.22.4.43.62.62.71.63.93.64,1.18,1.56.2.99.31,2,.34,3.01.34,3.84.37,7.7.08,11.55Z"/><path class="cls-18_resting-63" d="M146.45,218.63c-1.66,1.01-3.52,1.63-5.45,1.84-1.74.19-3.48.28-5.23.26l-9.3.05c-1.05-.11-2.12.13-3.01.7-.46.42-.82.93-1.06,1.5-.92,1.9-1.67,3.7-1.32,5.8.12.67.42,7.23.64,7.25-1.06-.02-2.1-.32-3.01-.87-.06-.04-.11-.08-.16-.13-.03-.01-.05-.03-.07-.05-.65-.61-1.66-.61-2.32,0-.64.65-.89,1.59-.64,2.47.27.86.74,1.64,1.39,2.27.98,1.18,2.4,1.91,3.94,2.01.31.87.66,1.75,1,2.59-2,.23-4-.46-5.43-1.89-1.41-1.44-2.5-3.18-3.17-5.08-1.59-4.04-2.35-8.35-2.24-12.69-.02-1.46.21-2.92.67-4.31.47-1.4,1.43-2.58,2.7-3.32.3-.13.57-.3.81-.51.38-.57.58-1.23.58-1.92.47-1.76,1.65-3.25,3.26-4.1,4.82-3.01,10.87-2.88,16.56-2.85,4.48,0,8.95-.1,13.41-.3.56,0,1.22,0,1.51.48.08.13.13.28.15.43.86,3.99-.81,8.1-4.21,10.37Z"/></g><g id="decoratives_resting-63"><rect class="cls-21_resting-63 targetColor" x="220.39" y="160.98" width="64.7" height="54.35" style="fill: rgb(104, 225, 253);"/><rect class="cls-19_resting-63" x="224.92" y="165.65" width="55.8" height="45.81"/><rect class="cls-21_resting-63 targetColor" x="112.66" y="118.29" width="64.7" height="54.35" style="fill: rgb(104, 225, 253);"/><rect class="cls-19_resting-63" x="117.19" y="122.94" width="55.8" height="45.81"/><path class="cls-2_resting-63 targetColor" d="M124.31,145.34c2.31-2.38,5.6-4.49,8.76-3.48,2.01.63,3.38,2.33,4.92,3.74,1.77,1.63,3.81,2.93,6.02,3.86.54.27,1.15.4,1.76.36.6-.13,1.17-.39,1.66-.77,3.29-2.15,6.9-3.79,10.68-4.85,1.59-.44,3.36-.76,4.81,0,1,.69,1.85,1.58,2.5,2.61,1.64,2.09,3.79,3.72,6.23,4.76.48.14.91.43,1.22.82.18.34.26.72.24,1.1l.82,15.77c-19.67.91-39.37.77-59.02-.41-.27,0,.54-14.25,1-15.51.56-1.68,1.89-2.01,3.25-3.01,1.84-1.52,3.56-3.19,5.13-4.99Z" style="fill: rgb(104, 225, 253);"/><rect class="cls-21_resting-63 targetColor" x="198.08" y="100.49" width="50.07" height="42.06" style="fill: rgb(104, 225, 253);"/><rect class="cls-19_resting-63" x="201.58" y="104.09" width="43.18" height="35.45"/><path class="cls-2_resting-63 targetColor" d="M214.66,116.57c3.26,0,5.89,2.51,8.5,4.47,2.61,1.96,6.3,3.48,9.04,1.66,1.43-1,2.2-2.66,3.55-3.72,1.58-1.06,3.49-1.51,5.38-1.29,1.52.09,3.18.47,4.02,1.71s.72,2.71.59,4.13c-.28,3.07-.64,6.33-2.57,8.74-2.58,3.23-7.14,3.96-11.25,4.28-5.82.46-11.99.53-17.12-2.26-1.33-.86-2.72-1.61-4.16-2.26-1.47-.64-3.17-.51-4.53.36-.95.73-1.62,2.01-2.81,2.14-4.02.35-1.56-8.64-.36-10.56,2.08-3.25,7.83-7.44,11.72-7.39Z" style="fill: rgb(104, 225, 253);"/><path class="cls-2_resting-63 targetColor" d="M243.62,179.79c3.26,0,5.88,2.52,8.5,4.47,2.62,1.95,6.3,3.48,9.04,1.66,1.43-1,2.2-2.66,3.56-3.71,1.58-1.06,3.49-1.51,5.38-1.3,1.52.09,3.18.47,4.07,1.71s.72,2.71.59,4.13c-.29,3.07-.65,6.34-2.58,8.75-2.58,3.22-7.13,3.95-11.25,4.28-5.81.46-11.98.52-17.07-2.27-1.33-.85-2.72-1.61-4.17-2.26-1.47-.64-3.17-.51-4.53.36-1,.73-1.62,2.01-2.81,2.14-4.02.36-1.56-8.64-.36-10.56,1.95-3.25,7.71-7.44,11.63-7.39Z" style="fill: rgb(104, 225, 253);"/></g></svg>