<svg version="1.1" id="Layer_1" xmlns="http://www.w3.org/2000/svg" xmlns:xlink="http://www.w3.org/1999/xlink" x="0px" y="0px" viewBox="0 0 500 500" style="width: 161px;" xml:space="preserve" data-imageid="reminder-note-39" imageName="Reminder Note" class="illustrations_image">
<style type="text/css">
	.st0_reminder-note-39{fill:#FFFFFF;}
	.st1_reminder-note-39{fill:#231F20;}
	.st2_reminder-note-39{fill:#D1D3D4;}
	.st3_reminder-note-39{fill:#68E1FD;}
</style>
<g id="Note_reminder-note-39">
	<rect x="185.5" y="114.7" class="st0_reminder-note-39" width="253.4" height="244.8"/>
	<path class="st1_reminder-note-39" d="M438.9,360.4H185.5c-0.5,0-0.8-0.4-0.8-0.8l0,0V114.7c0-0.5,0.4-0.8,0.8-0.8l0,0h253.4c0.5,0,0.8,0.4,0.8,0.8&#10;&#9;&#9;v0v244.9C439.7,360,439.3,360.4,438.9,360.4L438.9,360.4z M186.3,358.7h251.8V115.5H186.3V358.7z"/>
</g>
<g id="Line_of_Text_reminder-note-39">
	<path class="st2_reminder-note-39" d="M415.8,163H210.5c-0.5,0-0.8-0.4-0.8-0.8c0-0.5,0.4-0.8,0.8-0.8h205.3c0.5,0,0.8,0.4,0.8,0.8&#10;&#9;&#9;C416.6,162.6,416.3,163,415.8,163z"/>
	<path class="st2_reminder-note-39" d="M301.5,215.8h-91c-0.5,0-0.8-0.4-0.8-0.8c0-0.5,0.4-0.8,0.8-0.8h91c0.5,0,0.8,0.4,0.8,0.8&#10;&#9;&#9;C302.3,215.4,301.9,215.8,301.5,215.8z"/>
</g>
<g id="Pin_reminder-note-39">
	<path class="st0_reminder-note-39" d="M316.2,126.6l-1.5,9.5c0,0-4,2.6-7.2-0.3l-1.1-10.2L316.2,126.6z"/>
	<path class="st1_reminder-note-39" d="M311,138c-1.5,0-2.9-0.5-4.1-1.5c-0.2-0.1-0.2-0.3-0.3-0.5l-1.1-10.2c0-0.2,0.1-0.5,0.2-0.7&#10;&#9;&#9;c0.2-0.2,0.4-0.3,0.7-0.2l9.8,0.9c0.2,0,0.4,0.1,0.6,0.3c0.1,0.2,0.2,0.4,0.2,0.6l-1.5,9.5c0,0.2-0.2,0.4-0.4,0.6&#10;&#9;&#9;C313.9,137.6,312.5,138,311,138z M308.3,135.4c2.2,1.7,4.8,0.6,5.6,0.2l1.3-8.3l-7.9-0.8L308.3,135.4z"/>
	<ellipse class="st0_reminder-note-39" cx="312.2" cy="114.7" rx="24.8" ry="15.1"/>
	<path class="st1_reminder-note-39" d="M312.2,130.7c-14.1,0-25.6-7.2-25.6-16s11.5-16,25.6-16s25.6,7.2,25.6,16S326.3,130.7,312.2,130.7z&#10;&#9;&#9; M312.2,100.4c-13.2,0-24,6.4-24,14.3s10.8,14.3,24,14.3s24-6.4,24-14.3S325.4,100.4,312.2,100.4z"/>
	<path class="st1_reminder-note-39" d="M323.7,94.7c0,0.3-0.7,17-0.7,17s-3.8,4.8-12.2,3.9s-9.5-5.6-9.5-5.6l-0.6-20L323.7,94.7z"/>
	<path class="st1_reminder-note-39" d="M313,116.4c-0.7,0-1.5,0-2.2-0.1c-8.9-1-10.1-6-10.2-6.2L300,89.9c0-0.3,0.1-0.5,0.3-0.7&#10;&#9;&#9;c0.2-0.2,0.5-0.2,0.7-0.2l22.9,4.8c0.4,0.1,0.7,0.4,0.6,0.8c0,0.3-0.6,15.3-0.7,17c0,0.2-0.1,0.3-0.2,0.5&#10;&#9;&#9;C323.5,112.3,320.2,116.4,313,116.4z M301.7,90.9l0.5,19c0,0,1.1,4,8.7,4.8c7,0.8,10.5-2.5,11.3-3.4c0.2-5,0.5-13.5,0.6-16&#10;&#9;&#9;L301.7,90.9z"/>
	
		<ellipse transform="matrix(8.367790e-02 -0.9965 0.9965 8.367790e-02 196.8997 394.6263)" class="st0_reminder-note-39" cx="313" cy="90.2" rx="10.9" ry="17.4"/>
	<path class="st1_reminder-note-39" d="M314.4,102.1c-0.8,0-1.6,0-2.4-0.1c-10-0.8-17.7-6.8-17.2-13.2l0,0c0.5-6.5,9.1-11,19.1-10.2&#10;&#9;&#9;c4.5,0.3,8.8,1.8,12.4,4.4c3.3,2.5,5,5.7,4.8,8.9s-2.5,6-6.2,7.9C321.7,101.3,318.1,102.1,314.4,102.1z M296.5,88.9&#10;&#9;&#9;c-0.5,5.6,6.6,10.7,15.7,11.5c4.1,0.4,8.3-0.3,12.1-2.1c3.2-1.7,5.1-4,5.3-6.6s-1.2-5.2-4.1-7.4c-3.4-2.4-7.4-3.8-11.6-4.1&#10;&#9;&#9;C304.8,79.4,297,83.3,296.5,88.9z"/>
</g>
<g id="Character_reminder-note-39">
	<polygon class="st0_reminder-note-39" points="258.7,174.8 295.6,204 296.6,205.8 301.5,214.2 292.1,211.4 290.2,210.9 253.3,181.7 &#9;"/>
	<path class="st1_reminder-note-39" d="M301.5,215.1c-0.1,0-0.2,0-0.2,0l-11.3-3.4c-0.1,0-0.2-0.1-0.3-0.1l-36.9-29.2c-0.4-0.3-0.4-0.8-0.1-1.1&#10;&#9;&#9;l5.4-6.8c0.1-0.2,0.3-0.3,0.5-0.3c0.2,0,0.4,0,0.6,0.2l36.9,29.2c0.1,0.1,0.2,0.1,0.2,0.2l5.9,10.2c0.2,0.4,0.1,0.9-0.3,1.1&#10;&#9;&#9;C301.8,215,301.6,215.1,301.5,215.1L301.5,215.1z M290.6,210.1l9.2,2.8l-4.8-8.3L258.9,176l-4.4,5.6L290.6,210.1z"/>
	<path class="st1_reminder-note-39" d="M244.4,174.2l5-6.3c0.5-0.6,1.3-0.7,1.9-0.2l0,0l18.2,14.4l0,0l-6.7,8.4l0,0l-18.2-14.4&#10;&#9;&#9;C244.1,175.6,244,174.8,244.4,174.2L244.4,174.2z"/>
	<path class="st1_reminder-note-39" d="M262.8,191.3c-0.2,0-0.4-0.1-0.5-0.2l-17.5-13.9c-0.6-0.5-1-1.2-1.1-2c-0.1-0.8,0.1-1.6,0.6-2.2l4-5&#10;&#9;&#9;c1-1.3,2.9-1.5,4.2-0.5l17.5,13.9c0.2,0.1,0.3,0.3,0.3,0.6c0,0.2,0,0.4-0.2,0.6l-6.7,8.4C263.3,191.2,263.1,191.3,262.8,191.3z&#10;&#9;&#9; M250.6,168.5h-0.2c-0.4,0-0.7,0.2-0.9,0.5l-4,5l0,0c-0.5,0.6-0.4,1.4,0.2,1.9l16.9,13.4l5.6-7.1l-16.9-13.4&#10;&#9;&#9;C251.2,168.6,250.9,168.5,250.6,168.5z M244.9,173.5L244.9,173.5z"/>
	<path class="st1_reminder-note-39" d="M258.1,193.2c-0.2,0-0.4-0.1-0.5-0.2c-0.4-0.3-9.1-7.2-10.3-8.2s-2.4-6.4-2.8-8c-0.1-0.5,0.2-0.9,0.6-1&#10;&#9;&#9;c0,0,0,0,0,0c0.5-0.1,0.9,0.2,1,0.6c0.6,3,1.7,6.6,2.3,7.1c0.9,0.8,7.1,5.7,10.2,8.1c0.4,0.3,0.4,0.8,0.1,1.2&#10;&#9;&#9;C258.6,193.1,258.3,193.2,258.1,193.2z"/>
	<path class="st0_reminder-note-39" d="M182.4,309.3c0,0,26.9,14.1,42.9,11.7c16.5-2.6,44-65.6,53.3-79.7c8.5-12.9,14.7-26.1,12.1-42&#10;&#9;&#9;c-0.7-4-2.6-7.9-6-10c-1.5-1-3.5-1.7-4.1-3.5c-0.2-0.6-0.2-1.3-0.5-1.9c-0.7-1.3-2.3-2-3.7-1.6c-1.4,0.4-2.7,1.3-3.7,2.4&#10;&#9;&#9;c-4.4,4.2-10.1,11.1-12.3,16.8c-0.7,2.2-1.3,4.4-1.5,6.7c-1.2,7.8-1.3,15.4-5.8,21.9s-36.3,42-36.3,42l-16.7-8"/>
	<path class="st1_reminder-note-39" d="M221.1,322.1c-16,0-38.1-11.5-39.1-12c-0.4-0.2-0.6-0.7-0.3-1.1c0,0,0,0,0,0c0.2-0.4,0.7-0.6,1.1-0.3&#10;&#9;&#9;c0,0,0,0,0,0c0.3,0.1,26.9,14,42.4,11.6c11.7-1.8,29.9-36.7,42-59.8c4.4-8.5,8.2-15.8,10.8-19.6c7.8-11.8,14.7-25,11.9-41.4&#10;&#9;&#9;c-0.7-4.2-2.8-7.6-5.6-9.5c-0.3-0.2-0.6-0.4-0.9-0.6c-1.4-0.8-2.9-1.7-3.5-3.4c-0.1-0.3-0.2-0.7-0.2-1c0-0.3-0.1-0.6-0.2-0.9&#10;&#9;&#9;c-0.6-1-1.7-1.4-2.8-1.1c-1.3,0.4-2.4,1.2-3.3,2.1c-4.2,4.1-10,10.9-12.1,16.5c-0.7,2.1-1.2,4.3-1.5,6.5c-0.2,1.5-0.4,3-0.6,4.5&#10;&#9;&#9;c-0.8,6.3-1.5,12.3-5.3,17.7c-4.4,6.4-35.1,40.6-36.4,42c-0.2,0.3-0.7,0.4-1,0.2l-16.7-7.9c-0.4-0.2-0.6-0.7-0.4-1.1&#10;&#9;&#9;c0.2-0.4,0.7-0.6,1.1-0.4l16.1,7.6c3.7-4.2,31.7-35.5,35.8-41.4c3.5-5.1,4.2-10.9,5-17c0.2-1.5,0.4-3,0.6-4.6&#10;&#9;&#9;c0.3-2.3,0.8-4.6,1.6-6.9c2.3-5.9,8.2-12.9,12.5-17.1c1.1-1.2,2.5-2.1,4-2.6c1.8-0.5,3.8,0.3,4.7,2.1c0.2,0.4,0.3,0.8,0.3,1.2&#10;&#9;&#9;c0,0.3,0.1,0.5,0.2,0.8c0.4,1.1,1.5,1.8,2.7,2.4c0.3,0.2,0.7,0.4,1,0.6c3.3,2.1,5.6,5.9,6.4,10.6c2.8,17.1-4.6,31.1-12.2,42.6&#10;&#9;&#9;c-2.5,3.7-6.3,11-10.7,19.4c-13,24.8-30.7,58.7-43.2,60.7C223.9,322,222.5,322.1,221.1,322.1z"/>
	<path class="st0_reminder-note-39" d="M103.2,197.8c-10.6-3.2-16.2-15.5-19-25.4c-3.2-11.2-6.9-20.3-2.4-32c1-2.7,2.7-5.5,5.4-6.2&#10;&#9;&#9;c0.7-0.1,1.3-0.3,1.9-0.7c0.5-0.5,0.8-1,1-1.7c6.4-15.2,24.6-15.6,38.2-13.4c7.9,1.2,18.2,4.8,20.6,12.9c4.5,15,0.7,31.2-7.6,44.1&#10;&#9;&#9;C133.7,187.6,119,202.5,103.2,197.8z"/>
	<path class="st1_reminder-note-39" d="M109.2,199.5c-2.1,0-4.2-0.3-6.3-0.9c-11-3.3-16.7-15.9-19.5-25.9c-0.4-1.3-0.7-2.5-1.1-3.8&#10;&#9;&#9;c-2.9-9.7-5.3-18.2-1.3-28.7c1.4-3.8,3.5-6,6-6.7l0.5-0.1c0.4-0.1,0.8-0.2,1.1-0.4c0.3-0.3,0.6-0.7,0.7-1.2l0.1-0.2&#10;&#9;&#9;c6.6-15.5,24.9-16.1,39.1-13.9c5.4,0.8,18.4,3.9,21.3,13.5c4.3,14.2,1.5,30.5-7.7,44.8C134.4,188,122.2,199.5,109.2,199.5z&#10;&#9;&#9; M103.4,197c14.4,4.3,28.7-8.5,37.4-21.9c8.9-13.9,11.6-29.7,7.5-43.5c-2.6-8.8-14.8-11.6-19.9-12.4c-13.6-2.2-31.2-1.6-37.4,12.9&#10;&#9;&#9;c-0.2,0.8-0.7,1.5-1.3,2c-0.5,0.4-1.1,0.6-1.8,0.7l-0.5,0.1c-2,0.6-3.6,2.5-4.9,5.8c-3.9,10.1-1.5,18.2,1.3,27.7&#10;&#9;&#9;c0.4,1.2,0.7,2.5,1.1,3.8C87.7,181.8,93.1,193.9,103.4,197z"/>
	<path class="st0_reminder-note-39" d="M56.8,288.8c0,0-20.8,61-16.3,78.2s61.7,2.9,61.7,2.9L88,283.2L56.8,288.8z"/>
	<path class="st1_reminder-note-39" d="M62.3,376.4c-11.1,0-20.7-2.1-22.5-9.1C35.2,349.9,55.2,291,56,288.5c0.1-0.3,0.3-0.5,0.6-0.5l31.1-5.6&#10;&#9;&#9;c0.2,0,0.4,0,0.6,0.1c0.2,0.1,0.3,0.3,0.3,0.5l14.4,86.7c0.1,0.4-0.2,0.8-0.6,0.9C101.1,371.1,79.8,376.4,62.3,376.4z M57.4,289.5&#10;&#9;&#9;c-1.9,5.6-20.3,61.3-16.1,77.3c4,15.3,53.4,4,60,2.5l-14.1-85.1L57.4,289.5z"/>
	<path class="st1_reminder-note-39" d="M200.6,421.6L189,368.8L73.2,399.9c0,0,0.2,8.7,0.6,21.7H200.6z"/>
	<path class="st0_reminder-note-39" d="M151.2,167.5c0,0,11.4,14.2,9.6,17.5s-8.8,1.9-8.8,1.9"/>
	<path class="st1_reminder-note-39" d="M155.2,188c-1.2,0-2.3-0.1-3.5-0.3c-0.4-0.1-0.7-0.5-0.6-1s0.5-0.7,1-0.6c1.8,0.4,6.7,0.8,7.9-1.4&#10;&#9;&#9;c0.9-1.8-4.2-10-9.5-16.6c-0.3-0.4-0.2-0.9,0.1-1.1c0.3-0.3,0.9-0.2,1.1,0.1c0,0,0,0,0,0c2,2.4,11.6,14.8,9.6,18.4&#10;&#9;&#9;C160.3,187.5,157.5,188,155.2,188z"/>
	<path class="st0_reminder-note-39" d="M147.2,147.8c6.8,4.6,6,15.7,6.6,22.9c0.8,10,1.4,20,1.8,30.1c0.2,6.4-16.2,8-19.3,6.4l4.9,24.9l-35.8-10.1&#10;&#9;&#9;l-1.5-29.1c0,0,10.9-0.9,16.1-14.4s3.2-33.4,3.2-33.4S140.6,143.3,147.2,147.8z"/>
	<path class="st1_reminder-note-39" d="M141.2,232.8c-0.1,0-0.1,0-0.2,0l-35.8-10.1c-0.3-0.1-0.6-0.4-0.6-0.8l-1.5-29.1c0-0.4,0.3-0.8,0.8-0.9&#10;&#9;&#9;c0.4,0,10.4-1.1,15.4-13.9c5.1-13.2,3.2-32.8,3.1-33c0-0.2,0-0.4,0.2-0.6c0.1-0.2,0.3-0.3,0.6-0.3c0.7-0.1,17.8-1.7,24.6,2.9l0,0&#10;&#9;&#9;c6,4,6.4,12.7,6.7,19.6c0.1,1.4,0.1,2.7,0.2,3.9c0.8,10,1.4,20.1,1.8,30.2c0,1.3-0.4,3.1-3.1,4.8c-4.2,2.6-12.2,3.5-16,2.8&#10;&#9;&#9;l4.6,23.5c0.1,0.3,0,0.6-0.2,0.8C141.6,232.7,141.4,232.8,141.2,232.8z M106.2,221.2l33.9,9.6l-4.6-23.6c-0.1-0.4,0.2-0.9,0.7-1&#10;&#9;&#9;c0.2,0,0.4,0,0.5,0.1c2,1.1,11.3,0.5,15.8-2.3c1.6-1,2.3-2.1,2.3-3.3c-0.4-10-1-20.1-1.8-30.1c-0.1-1.2-0.2-2.5-0.2-3.9&#10;&#9;&#9;c-0.3-6.6-0.7-14.7-6-18.3c-5.5-3.7-19.2-3-22.7-2.7c0.3,4,1.4,20.8-3.3,32.9c-4.6,11.9-13.3,14.4-16,14.8L106.2,221.2z"/>
	<path class="st3_reminder-note-39 targetColor" d="M216.9,264.3c0,0-45.6-24.6-63.5-38.4c-16.6-12.8-61.2-20.7-77.9,3c0,0-26.3,48.9-29,75.6l20.2,9&#10;&#9;&#9;c-0.1,31.3,1.5,62.6,4.8,93.8c40.8,7.2,125.4-25.5,124.7-25.8l-8.7-63.6l7.5,5.8L216.9,264.3z" style="fill: rgb(104, 225, 253);"/>
	<path class="st0_reminder-note-39" d="M154.7,193.3c0,0-9.8,0-12.2-13.3"/>
	<path class="st1_reminder-note-39" d="M154.7,194.1c-0.1,0-10.6-0.2-13-14c-0.1-0.4,0.2-0.9,0.6-1s0.9,0.2,1,0.6c0,0,0,0.1,0,0.1&#10;&#9;&#9;c2.2,12.4,11,12.6,11.4,12.6c0.5,0,0.8,0.4,0.8,0.8C155.5,193.7,155.2,194.1,154.7,194.1L154.7,194.1z"/>
	<path class="st0_reminder-note-39" d="M132.6,175.7c-0.3-2.5-1.9-4.6-3.4-6.6c-1.1-1.6-2.5-3-4-4.2c-1.6-1.2-3.6-1.6-5.6-1.1c-1.7,0.6-3,1.8-3.6,3.5&#10;&#9;&#9;c-0.6,1.6-0.9,3.3-0.8,5.1c0.4,7.7,4.8,14.6,11.7,18.2l-0.6-0.5"/>
	<path class="st1_reminder-note-39" d="M126.7,191.2c-0.1,0-0.2,0-0.4-0.1c-7.1-3.7-11.7-10.9-12.1-18.9c-0.1-1.9,0.2-3.7,0.9-5.4&#10;&#9;&#9;c0.8-1.8,2.3-3.3,4.2-3.9c2.2-0.5,4.5-0.1,6.3,1.3c1.6,1.2,3,2.7,4.2,4.4c1.5,1.9,3.3,4.2,3.6,7c0,0.5-0.3,0.9-0.7,0.9&#10;&#9;&#9;c-0.5,0-0.9-0.3-0.9-0.7c-0.2-2.4-1.9-4.5-3.3-6.2c-1.1-1.5-2.4-2.9-3.9-4.1c-1.4-1.1-3.2-1.4-4.8-1.1c-1.4,0.5-2.6,1.6-3.1,3&#10;&#9;&#9;c-0.6,1.5-0.9,3.1-0.7,4.7c0.4,6.9,4.1,13.3,10.1,16.8c0.3,0,0.5,0,0.7,0.2l0.6,0.5c0.3,0.3,0.4,0.8,0.1,1.2&#10;&#9;&#9;C127.2,191.1,127,191.2,126.7,191.2L126.7,191.2z"/>
	<path class="st1_reminder-note-39" d="M136.3,207.1c0,0-8.8-1.9-13.3-7.4c0,0,1.6,13.3,15,16.5L136.3,207.1z"/>
	<path class="st1_reminder-note-39" d="M138.1,217.1h-0.2c-13.9-3.3-15.7-17.1-15.7-17.2c-0.1-0.5,0.3-0.9,0.7-0.9c0.3,0,0.6,0.1,0.7,0.3&#10;&#9;&#9;c4.3,5.2,12.7,7.1,12.8,7.1c0.3,0.1,0.6,0.3,0.6,0.6l1.8,9.1c0.1,0.3,0,0.6-0.2,0.8C138.5,217,138.3,217.1,138.1,217.1z&#10;&#9;&#9; M124.5,202.4c1.7,6.1,6.5,10.9,12.6,12.8l-1.4-7.3C131.6,206.8,127.8,204.9,124.5,202.4z"/>
	<path class="st1_reminder-note-39" d="M195,324.5c-0.2,0-0.3-0.1-0.5-0.2c-0.3-0.2-34.5-25.2-48-39.1c-0.3-0.3-0.3-0.8,0-1.2c0,0,0,0,0,0&#10;&#9;&#9;c0.3-0.3,0.8-0.3,1.1,0c0,0,0,0,0,0c13.3,13.8,47.4,38.7,47.8,38.9c0.4,0.3,0.4,0.8,0.2,1.1C195.5,324.4,195.2,324.5,195,324.5z"/>
	
		<ellipse transform="matrix(7.706703e-02 -0.997 0.997 7.706703e-02 -26.915 293.0937)" class="st1_reminder-note-39" cx="144.9" cy="161.1" rx="3.6" ry="1.4"/>
	<path class="st1_reminder-note-39" d="M65.1,305.2L65.1,305.2c-0.5,0-0.8-0.4-0.8-0.8c0,0,0,0,0,0c0.1-2,1.6-48.7,8-65c0.2-0.4,0.6-0.6,1.1-0.5&#10;&#9;&#9;s0.6,0.6,0.5,1.1c-6.3,16-7.8,64-7.9,64.5C65.9,304.9,65.5,305.3,65.1,305.2C65.1,305.2,65.1,305.2,65.1,305.2z"/>
</g>
<g id="Reminder_icon_and_bubble_reminder-note-39">
	<path class="st0_reminder-note-39" d="M441.9,280.6H338.4L321,258.6l-0.2,22.4c-8.6,1.6-14.8,9.1-14.8,17.8v78c0,10,8.1,18.2,18.1,18.2h117.8&#10;&#9;&#9;c10,0,18.2-8.1,18.2-18.1c0,0,0,0,0,0v-78C460.1,288.8,452,280.7,441.9,280.6C441.9,280.6,441.9,280.6,441.9,280.6z"/>
	<path class="st1_reminder-note-39" d="M441.9,395.8H324.1c-10.5,0-19-8.5-19-19l0,0v-78c0-8.9,6.2-16.6,14.9-18.5l0.2-21.7c0-0.5,0.4-0.8,0.8-0.8&#10;&#9;&#9;c0.2,0,0.5,0.1,0.6,0.3l17.1,21.8h103.2c10.5,0,19,8.5,19,19l0,0v78C460.9,387.3,452.4,395.8,441.9,395.8z M321.8,260.9l-0.2,20&#10;&#9;&#9;c0,0.4-0.3,0.7-0.7,0.8c-8.2,1.5-14.2,8.7-14.2,17.1v78c0,9.6,7.8,17.3,17.4,17.4h117.8c9.6,0,17.3-7.8,17.4-17.4v-78&#10;&#9;&#9;c0-9.6-7.8-17.3-17.4-17.4H338.4c-0.2,0-0.5-0.1-0.6-0.3L321.8,260.9z"/>
	<path class="st3_reminder-note-39 targetColor" d="M420.3,364.2h-74.6l0.8-0.7c0.7-0.6,1.4-1.2,2.2-1.8c5.8-4.2,8.5-10.1,9.2-17.1c0.5-4.8,0.5-9.7,0.8-14.5&#10;&#9;&#9;c0.1-4.2,1.2-8.3,3-12c3.4-6.7,9-10.2,16.2-11.5l0.3-0.1c0.9-3.4,2.5-4.8,5.2-4.6c2.5,0.2,4,1.8,4.4,4.5c1.5,0.4,3.1,0.7,4.6,1.2&#10;&#9;&#9;c7.6,2.6,12,8.2,14,15.9c0.8,3.6,1.2,7.4,1.1,11.1c-0.1,4.7,0.4,9.5,1.4,14.1c1,4.6,3.4,8.7,7,11.7L420.3,364.2z" style="fill: rgb(104, 225, 253);"/>
	<path class="st3_reminder-note-39 targetColor" d="M393.1,368.4c-0.9,5.2-5.6,8.8-10.9,8.3c-4.7-0.4-9.1-4.4-9.1-8.3H393.1z" style="fill: rgb(104, 225, 253);"/>
</g>
</svg>